<svg xmlns="http://www.w3.org/2000/svg" fill="currentColor" viewBox="0 0 24 24">
  <path fill-rule="evenodd" d="M9 1a1 1 0 0 1 1 1v1a1 1 0 0 1-2 0V2a1 1 0 0 1 1-1ZM3.293 3.293a1 1 0 0 1 1.414 0l1.5 1.5a1 1 0 0 1-1.414 1.414l-1.5-1.5a1 1 0 0 1 0-1.414Zm11.475 0a1 1 0 0 1 0 1.414l-1.06 1.06a1 1 0 1 1-1.415-1.413l1.06-1.061a1 1 0 0 1 1.415 0ZM1 9a1 1 0 0 1 1-1h1a1 1 0 0 1 0 2H2a1 1 0 0 1-1-1Zm4.768 3.293a1 1 0 0 1 0 1.414l-1.06 1.06a1 1 0 0 1-1.415-1.413l1.06-1.061a1 1 0 0 1 1.415 0ZM8.086 6.5a2 2 0 0 1 2.828 0L22.5 18.086a2 2 0 0 1 0 2.828L20.914 22.5a2 2 0 0 1-2.828 0L6.5 10.914a2 2 0 0 1 0-2.828L8.086 6.5ZM9.5 7.914 7.914 9.5l1.793 1.793 1.586-1.586L9.5 7.914ZM8 15a1 1 0 0 1 1 1v.5a1 1 0 1 1-2 0V16a1 1 0 0 1 1-1Zm8-8a1 1 0 1 0 0 2h.5a1 1 0 1 0 0-2H16Z" clip-rule="evenodd"></path>
</svg>
