<svg xmlns="http://www.w3.org/2000/svg" fill="currentColor" viewBox="0 0 24 24"><path fill-rule="evenodd" d="M3 20V4a3 3 0 0 1 3-3h7.756a2 2 0 0 1 1.425.596l5.243 5.32A2 2 0 0 1 21 8.32V20a3 3 0 0 1-3 3H6a3 3 0 0 1-3-3ZM15 6V3l4 4h-3a1 1 0 0 1-1-1Zm-8.868 8.923V18c0 .04.018.065.054.074.09.018.199.027.325.027.958 0 1.437-.569 1.437-1.707 0-1.048-.479-1.573-1.437-1.573-.126 0-.235.01-.325.027-.036.01-.054.034-.054.075Zm-.746 4.026a.419.419 0 0 1-.278-.136.449.449 0 0 1-.108-.298v-4.107c0-.113.036-.21.108-.291a.408.408 0 0 1 .278-.143 10.21 10.21 0 0 1 1.037-.054c.832 0 1.475.22 1.932.657.46.434.691 1.04.691 1.817 0 .831-.23 1.475-.691 1.931-.457.452-1.1.678-1.932.678-.339 0-.684-.018-1.037-.054Zm7.564-3.674c-.23-.27-.556-.406-.976-.406-.42 0-.748.135-.983.406-.23.271-.346.667-.346 1.186 0 .52.116.915.346 1.186.235.272.563.407.983.407.42 0 .745-.135.976-.407.235-.27.352-.666.352-1.186 0-.52-.117-.914-.352-1.186Zm.847 3.043c-.452.457-1.06.685-1.823.685-.764 0-1.374-.228-1.83-.685-.452-.456-.678-1.075-.678-1.857 0-.781.226-1.4.678-1.856.456-.457 1.066-.685 1.83-.685.763 0 1.37.228 1.823.684.456.457.684 1.076.684 1.857 0 .782-.228 1.401-.684 1.857Zm1.816 0c.474.457 1.105.685 1.89.685.466 0 .89-.09 1.275-.271.1-.045.165-.12.197-.224a.454.454 0 0 0-.007-.318l-.048-.13a.305.305 0 0 0-.203-.189.35.35 0 0 0-.278.02 1.936 1.936 0 0 1-.827.183c-.451 0-.82-.144-1.104-.433-.285-.29-.427-.683-.427-1.18 0-.506.135-.9.406-1.186.276-.284.65-.427 1.125-.427.29 0 .565.061.827.183.09.046.183.052.278.02a.305.305 0 0 0 .203-.189l.048-.129a.437.437 0 0 0 .006-.312.348.348 0 0 0-.196-.23 2.955 2.955 0 0 0-1.274-.271c-.813 0-1.45.226-1.911.678-.461.451-.692 1.073-.692 1.863 0 .782.238 1.401.712 1.857Z" clip-rule="evenodd"></path></svg>
