<svg xmlns="http://www.w3.org/2000/svg" fill="none" viewBox="0 0 48 57" aria-hidden="true" name="no_result_found"
  width="48" height="60">
  <g clip-path="url(#no-result-found_svg__a)">
    <path fill="#D1D4EA"
      d="M41.575 3.84a2.296 2.296 0 0 1 2.296 2.295v45.383c0 2.83-1.148 5.125-5.74 5.125H2.546A2.296 2.296 0 0 1 .25 54.348V6.135A2.296 2.296 0 0 1 2.546 3.84zM14.36 42.867c.327 0 .638-.139.855-.382a9.183 9.183 0 0 1 13.69 0 1.148 1.148 0 1 0 1.71-1.531 11.48 11.48 0 0 0-17.11 0 1.148 1.148 0 0 0 .855 1.913M36.983 25.65c-.634 0-1.148.514-1.148 1.148a2.296 2.296 0 1 1-4.591 0 1.148 1.148 0 1 0-2.296 0 4.592 4.592 0 0 0 9.183 0c0-.634-.514-1.148-1.148-1.148m-29.845 0c-.634 0-1.148.514-1.148 1.148a4.592 4.592 0 1 0 9.183 0 1.148 1.148 0 1 0-2.296 0 2.296 2.296 0 0 1-4.592 0c0-.634-.514-1.148-1.148-1.148">
    </path>
    <path fill="#fff" stroke="#fff" stroke-width="1.583"
      d="M33.896 13.023a6.54 6.54 0 0 0 6.53 6.53h.002a6.54 6.54 0 0 0 6.53-6.53c0-.827-.291-1.876-.679-2.933-.396-1.08-.929-2.261-1.48-3.384a79 79 0 0 0-2.702-4.999l-.012-.02-.013-.02a1.983 1.983 0 0 0-3.29 0l-.013.02-.012.02a79 79 0 0 0-2.703 4.999c-.55 1.123-1.083 2.303-1.48 3.384-.387 1.057-.678 2.106-.678 2.933Z">
    </path>
    <path fill="#5D68A3"
      d="M40.427 18.762a5.746 5.746 0 0 1-5.74-5.74c0-2.71 3.957-9.566 4.752-10.913a1.19 1.19 0 0 1 1.977 0c.794 1.347 4.75 8.202 4.75 10.914a5.746 5.746 0 0 1-5.739 5.74">
    </path>
  </g>
  <defs>
    <clipPath id="no-result-found_svg__a">
      <path fill="#fff" d="M.25 0h47.5v57H.25z"></path>
    </clipPath>
  </defs>
</svg>
