<svg viewBox="0 0 40 40" fill="none" xmlns="http://www.w3.org/2000/svg">
<rect width="40" height="40" rx="2.5" fill="white"/>
<path fill-rule="evenodd" clip-rule="evenodd" d="M17.8042 16.3779C17.1484 16.3779 16.7213 16.5914 16.3401 17.3082L14.6015 20.5872V17.6743C14.6015 16.805 14.1897 16.3779 13.4272 16.3779C12.6646 16.3779 12.3444 16.6372 11.9631 17.3692L10.316 20.5872V17.7048C10.316 16.7745 9.93472 16.3779 9.00442 16.3779H7.11331C6.39652 16.3779 6 16.7134 6 17.3235C6 17.9335 6.38127 18.2995 7.08281 18.2995H7.8606V21.975C7.8606 23.0121 8.56214 23.6221 9.5687 23.6221C10.5753 23.6221 11.0328 23.2256 11.5361 22.2953L12.6341 20.2364V21.975C12.6341 22.9968 13.3052 23.6221 14.327 23.6221C15.3488 23.6221 15.73 23.2713 16.3096 22.2953L18.8412 18.025C19.3902 17.0947 19.009 16.3779 17.7889 16.3779C17.7889 16.3779 17.7889 16.3779 17.8042 16.3779Z" fill="#873EFF"/>
<path fill-rule="evenodd" clip-rule="evenodd" d="M22.5622 16.3779C20.488 16.3779 18.9172 17.9183 18.9172 20.0076C18.9172 22.097 20.5033 23.6221 22.5622 23.6221C24.621 23.6221 26.1919 22.0817 26.2071 20.0076C26.2071 17.9183 24.621 16.3779 22.5622 16.3779ZM22.5622 21.3955C21.7844 21.3955 21.2506 20.8159 21.2506 20.0076C21.2506 19.1993 21.7844 18.6046 22.5622 18.6046C23.3399 18.6046 23.8737 19.1993 23.8737 20.0076C23.8737 20.8159 23.3552 21.3955 22.5622 21.3955Z" fill="#873EFF"/>
<path fill-rule="evenodd" clip-rule="evenodd" d="M30.3555 16.3779C28.2966 16.3779 26.7105 17.9183 26.7105 20.0076C26.7105 22.097 28.2966 23.6221 30.3555 23.6221C32.4143 23.6221 34.0004 22.0817 34.0004 20.0076C34.0004 17.9335 32.4143 16.3779 30.3555 16.3779ZM30.3555 21.3955C29.5624 21.3955 29.0592 20.8159 29.0592 20.0076C29.0592 19.1993 29.5777 18.6046 30.3555 18.6046C31.1333 18.6046 31.667 19.1993 31.667 20.0076C31.667 20.8159 31.1485 21.3955 30.3555 21.3955Z" fill="#873EFF"/>
</svg>