<svg width="126" height="111" viewBox="0 0 126 111" fill="none" xmlns="http://www.w3.org/2000/svg">
<rect x="1.34253" y="0.853027" width="124.157" height="109.336" rx="4.5" stroke="#E4EBF0"/>
<rect x="14.8425" y="45.353" width="26" height="2" fill="#E4EBF0"/>
<rect x="15.3425" y="51.853" width="97" height="12" rx="0.5" stroke="#C8D0D7"/>
<rect x="18.8425" y="57.353" width="26" height="1.2" fill="#E4EBF0"/>
<g clip-path="url(#clip0_5424_20351)">
<path fill-rule="evenodd" clip-rule="evenodd" d="M104.3 54.4458C104.465 54.4458 104.6 54.5801 104.6 54.7458V55.2458H107.4V54.7458C107.4 54.5801 107.534 54.4458 107.7 54.4458C107.865 54.4458 108 54.5801 108 54.7458V55.2458H108.1C108.707 55.2458 109.2 55.7383 109.2 56.3458V59.7458C109.2 60.3533 108.707 60.8458 108.1 60.8458H103.9C103.292 60.8458 102.8 60.3533 102.8 59.7458V56.3458C102.8 55.7383 103.292 55.2458 103.9 55.2458H104V54.7458C104 54.5801 104.134 54.4458 104.3 54.4458ZM103.9 56.6458C103.624 56.6458 103.4 56.8697 103.4 57.1458V59.7458C103.4 60.0219 103.624 60.2458 103.9 60.2458H108.1C108.376 60.2458 108.6 60.0219 108.6 59.7458V57.1458C108.6 56.8697 108.376 56.6458 108.1 56.6458H103.9Z" fill="#C8D0D7"/>
</g>
<defs>
<clipPath id="clip0_5424_20351">
<rect width="8" height="8" fill="white" transform="translate(102 53.646)"/>
</clipPath>
</defs>
</svg>
