<svg width="126" height="111" viewBox="0 0 126 111" fill="none" xmlns="http://www.w3.org/2000/svg">
<rect x="1.66618" y="1.19377" width="123.511" height="108.689" rx="4.1766" stroke="#E4EBF0" stroke-width="1.64681"/>
<rect x="69.0352" y="13.0383" width="18.9434" height="5.3042" rx="0.5" stroke="#E4EBF0"/>
<rect x="73.0068" y="15.0903" width="11" height="1.2" fill="#E4EBF0"/>
<rect x="92.9785" y="13.0383" width="18.9434" height="5.3042" rx="0.5" stroke="#E4EBF0"/>
<rect x="96.9502" y="15.0903" width="11" height="1.2" fill="#E4EBF0"/>
<rect x="14.9219" y="23.0383" width="97" height="10" rx="0.5" stroke="#E4EBF0"/>
<rect x="18.7432" y="27.4382" width="11" height="1.2" fill="#E4EBF0"/>
<rect x="34.415" y="27.4382" width="11" height="1.2" fill="#E4EBF0"/>
<rect x="50.0869" y="27.4382" width="11" height="1.2" fill="#E4EBF0"/>
<rect x="65.7588" y="27.4382" width="11" height="1.2" fill="#E4EBF0"/>
<rect x="81.4307" y="27.4382" width="11" height="1.2" fill="#E4EBF0"/>
<rect x="97.1025" y="27.4382" width="11" height="1.2" fill="#E4EBF0"/>
<rect x="14.9219" y="38.0383" width="97" height="43" rx="0.5" stroke="#E4EBF0"/>
<path d="M56.6351 68.1509L48.7296 60.2455C48.3391 59.855 48.339 59.2218 48.7296 58.8313L56.6351 50.9258" stroke="#C8D0D7"/>
<path d="M66.7128 47.2568L60.1309 71.8198" stroke="#C8D0D7"/>
<path d="M70.2087 50.9258L78.1142 58.8311C78.5047 59.2217 78.5047 59.8548 78.1142 60.2454L70.2087 68.1509" stroke="#C8D0D7"/>
<rect x="48.0898" y="86.0383" width="28.916" height="12" rx="0.5" fill="white" stroke="#E4EBF0"/>
<rect x="58.5752" y="91.7883" width="7.94637" height="0.5" fill="white" stroke="#E4EBF0" stroke-width="0.5"/>
<rect x="82.5059" y="85.5383" width="29.916" height="13" rx="1" fill="#E4EBF0"/>
<rect x="93.2412" y="91.5383" width="8.44637" height="1" fill="white"/>
</svg>
