<svg id="Layer_1" data-name="Layer 1" xmlns="http://www.w3.org/2000/svg" viewBox="0 0 76.06 23"><defs><style>.cls-1{fill:#fe8126;}.cls-2{fill:#fed41f;}.cls-3{fill:#dd1c1c;}.cls-4{fill:#fff;}</style></defs><title>Mix - Visit us</title><path class="cls-1" d="M71,.69a28.72,28.72,0,0,1,3.67.24A3.74,3.74,0,0,0,72.29.09H41.39C36.19,11,24.24,18.63,10.32,18.63A37,37,0,0,1,0,17.17v2.14a3.78,3.78,0,0,0,3.78,3.78h38.7C46,10.16,57.4.69,71,.69Z"/><path class="cls-2" d="M76.06,19.32V3.87A3.75,3.75,0,0,0,74.63.93,28.72,28.72,0,0,0,71,.69C57.4.69,46,10.16,42.48,23.09H72.29A3.78,3.78,0,0,0,76.06,19.32Z"/><path class="cls-3" d="M41.39.09H3.78A3.78,3.78,0,0,0,0,3.87V17.17a37,37,0,0,0,10.32,1.46C24.24,18.63,36.19,11,41.39.09Z"/><path class="cls-4" d="M29.69,16,26.51,7.06h2l2.26,6.6,2.18-6.6h1.91L31.62,16Z"/><path class="cls-4" d="M35.49,8.64V7.06H37.2V8.64Zm0,7.33V9.52H37.2V16Z"/><path class="cls-4" d="M38.35,14.13l1.71-.26a1.26,1.26,0,0,0,.44.76,1.5,1.5,0,0,0,.94.26,1.69,1.69,0,0,0,1-.24.54.54,0,0,0,.23-.46.45.45,0,0,0-.12-.32,1.36,1.36,0,0,0-.57-.23,9.21,9.21,0,0,1-2.62-.83,1.66,1.66,0,0,1-.77-1.45,1.79,1.79,0,0,1,.66-1.41,3.1,3.1,0,0,1,2.06-.57,3.59,3.59,0,0,1,2,.43,2.21,2.21,0,0,1,.89,1.28l-1.61.3a1,1,0,0,0-.39-.58,1.43,1.43,0,0,0-.82-.2,1.86,1.86,0,0,0-1,.19.4.4,0,0,0-.19.35.38.38,0,0,0,.17.31,6.42,6.42,0,0,0,1.6.48,4.76,4.76,0,0,1,1.91.76A1.58,1.58,0,0,1,44.38,14a2,2,0,0,1-.74,1.53,3.28,3.28,0,0,1-2.2.64,3.6,3.6,0,0,1-2.09-.54A2.46,2.46,0,0,1,38.35,14.13Z"/><path class="cls-4" d="M45.87,8.64V7.06h1.71V8.64Zm0,7.33V9.52h1.71V16Z"/><path class="cls-4" d="M52.3,9.52v1.36H51.13v2.6a6.42,6.42,0,0,0,0,.92.37.37,0,0,0,.15.22.48.48,0,0,0,.29.08,2.21,2.21,0,0,0,.69-.16l.15,1.33a3.39,3.39,0,0,1-1.35.26,2.14,2.14,0,0,1-.83-.16,1.21,1.21,0,0,1-.54-.4,1.58,1.58,0,0,1-.24-.67,8.24,8.24,0,0,1-.06-1.2V10.88h-.78V9.52h.78V8.23l1.71-1V9.52Z"/><path class="cls-4" d="M61.19,16V15a2.49,2.49,0,0,1-.93.81,2.61,2.61,0,0,1-1.21.3,2.37,2.37,0,0,1-1.17-.29,1.69,1.69,0,0,1-.75-.8,3.58,3.58,0,0,1-.23-1.43V9.52h1.71v3a8.21,8.21,0,0,0,.09,1.67.91.91,0,0,0,.34.49,1.05,1.05,0,0,0,.63.18,1.34,1.34,0,0,0,.78-.24,1.22,1.22,0,0,0,.47-.6,6.9,6.9,0,0,0,.13-1.74V9.52h1.71V16Z"/><path class="cls-4" d="M63.95,14.13l1.71-.26a1.26,1.26,0,0,0,.44.76,1.5,1.5,0,0,0,.94.26,1.69,1.69,0,0,0,1-.24.54.54,0,0,0,.23-.46.45.45,0,0,0-.12-.32,1.36,1.36,0,0,0-.57-.23,9.21,9.21,0,0,1-2.62-.83,1.66,1.66,0,0,1-.77-1.45,1.79,1.79,0,0,1,.66-1.41,3.1,3.1,0,0,1,2.06-.57,3.59,3.59,0,0,1,2,.43,2.21,2.21,0,0,1,.89,1.28l-1.61.3a1,1,0,0,0-.39-.58,1.43,1.43,0,0,0-.82-.2,1.86,1.86,0,0,0-1,.19.4.4,0,0,0-.19.35.38.38,0,0,0,.17.31,6.42,6.42,0,0,0,1.6.48,4.76,4.76,0,0,1,1.91.76A1.58,1.58,0,0,1,70,14a2,2,0,0,1-.74,1.53,3.28,3.28,0,0,1-2.2.64A3.6,3.6,0,0,1,65,15.59,2.46,2.46,0,0,1,63.95,14.13Z"/><path class="cls-4" d="M19.62,5.11h-13c-.06,0-.08,0-.08.08q0,3.5,0,7V17s0,0,0,.07a1.32,1.32,0,0,0,1.48.95,1.29,1.29,0,0,0,1.11-1.29q0-3.39,0-6.78s0-.06,0-.09q0-.67,0-1.33a1.39,1.39,0,0,1,.05-.4,1.31,1.31,0,0,1,1.43-.92A1.29,1.29,0,0,1,11.8,8.54q0,2.51,0,5a1.27,1.27,0,0,0,0,.32,1.32,1.32,0,0,0,2.59-.31c0-.64,0-1.27,0-1.91l0-.11a1.3,1.3,0,0,1,1.17-1.06,1.32,1.32,0,0,1,1.37.91,2.33,2.33,0,0,1,.05.67,3.7,3.7,0,0,0,0,.55,1.31,1.31,0,0,0,1.64,1.06,1.28,1.28,0,0,0,.92-.87s0-.06,0-.05V5.18a.17.17,0,0,1,0,0S19.66,5.1,19.62,5.11Z"/></svg>