<svg width="126" height="111" viewBox="0 0 126 111" fill="none" xmlns="http://www.w3.org/2000/svg">
<rect x="1.34253" y="0.835938" width="124.157" height="109.336" rx="4.5" stroke="#E4EBF0"/>
<rect x="24.9998" y="40" width="26" height="2" fill="#E4EBF0"/>
<path d="M26.358 52.1378L29.3333 51.7054L30.6634 49.0089C30.6997 48.9351 30.7595 48.8753 30.8333 48.839C31.0185 48.7476 31.2435 48.8237 31.3361 49.0089L32.6662 51.7054L35.6415 52.1378C35.7236 52.1495 35.7986 52.1882 35.856 52.2468C35.9254 52.3181 35.9637 52.4141 35.9624 52.5137C35.961 52.6132 35.9203 52.7082 35.849 52.7776L33.6962 54.8765L34.2048 57.8401C34.2168 57.9091 34.2091 57.98 34.1828 58.0448C34.1565 58.1096 34.1125 58.1658 34.0559 58.2069C33.9993 58.248 33.9323 58.2725 33.8625 58.2774C33.7927 58.2824 33.7229 58.2677 33.6611 58.2351L30.9997 56.8358L28.3384 58.2351C28.2658 58.2737 28.1814 58.2866 28.1005 58.2726C27.8966 58.2374 27.7595 58.044 27.7947 57.8401L28.3033 54.8765L26.1505 52.7776C26.0919 52.7202 26.0533 52.6452 26.0415 52.5632C26.0099 52.3581 26.1529 52.1683 26.358 52.1378Z" fill="#C8D0D7"/>
<path d="M42.358 52.1378L45.3333 51.7054L46.6634 49.0089C46.6997 48.9351 46.7595 48.8753 46.8333 48.839C47.0185 48.7476 47.2435 48.8237 47.3361 49.0089L48.6662 51.7054L51.6415 52.1378C51.7236 52.1495 51.7986 52.1882 51.856 52.2468C51.9254 52.3181 51.9637 52.4141 51.9624 52.5137C51.961 52.6132 51.9203 52.7082 51.849 52.7776L49.6962 54.8765L50.2048 57.8401C50.2168 57.9091 50.2091 57.98 50.1828 58.0448C50.1565 58.1096 50.1125 58.1658 50.0559 58.2069C49.9993 58.248 49.9323 58.2725 49.8625 58.2774C49.7927 58.2824 49.7229 58.2677 49.6611 58.2351L46.9997 56.8358L44.3384 58.2351C44.2658 58.2737 44.1814 58.2866 44.1005 58.2726C43.8966 58.2374 43.7595 58.044 43.7947 57.8401L44.3033 54.8765L42.1505 52.7776C42.0919 52.7202 42.0533 52.6452 42.0415 52.5632C42.0099 52.3581 42.1529 52.1683 42.358 52.1378Z" fill="#C8D0D7"/>
<path d="M58.358 52.1378L61.3333 51.7054L62.6634 49.0089C62.6997 48.9351 62.7595 48.8753 62.8333 48.839C63.0185 48.7476 63.2435 48.8237 63.3361 49.0089L64.6662 51.7054L67.6415 52.1378C67.7236 52.1495 67.7986 52.1882 67.856 52.2468C67.9254 52.3181 67.9637 52.4141 67.9624 52.5137C67.961 52.6132 67.9203 52.7082 67.849 52.7776L65.6962 54.8765L66.2048 57.8401C66.2168 57.9091 66.2091 57.98 66.1828 58.0448C66.1565 58.1096 66.1125 58.1658 66.0559 58.2069C65.9993 58.248 65.9323 58.2725 65.8625 58.2774C65.7927 58.2824 65.7229 58.2677 65.6611 58.2351L62.9997 56.8358L60.3384 58.2351C60.2658 58.2737 60.1814 58.2866 60.1005 58.2726C59.8966 58.2374 59.7595 58.044 59.7947 57.8401L60.3033 54.8765L58.1505 52.7776C58.0919 52.7202 58.0533 52.6452 58.0415 52.5632C58.0099 52.3581 58.1529 52.1683 58.358 52.1378Z" fill="#C8D0D7"/>
<path d="M74.358 52.1378L77.3333 51.7054L78.6634 49.0089C78.6997 48.9351 78.7595 48.8753 78.8333 48.839C79.0185 48.7476 79.2435 48.8237 79.3361 49.0089L80.6662 51.7054L83.6415 52.1378C83.7236 52.1495 83.7986 52.1882 83.856 52.2468C83.9254 52.3181 83.9637 52.4141 83.9624 52.5137C83.961 52.6132 83.9203 52.7082 83.849 52.7776L81.6962 54.8765L82.2048 57.8401C82.2168 57.9091 82.2091 57.98 82.1828 58.0448C82.1565 58.1096 82.1125 58.1658 82.0559 58.2069C81.9993 58.248 81.9323 58.2725 81.8625 58.2774C81.7927 58.2824 81.7229 58.2677 81.6611 58.2351L78.9997 56.8358L76.3384 58.2351C76.2658 58.2737 76.1814 58.2866 76.1005 58.2726C75.8966 58.2374 75.7595 58.044 75.7947 57.8401L76.3033 54.8765L74.1505 52.7776C74.0919 52.7202 74.0533 52.6452 74.0415 52.5632C74.0099 52.3581 74.1529 52.1683 74.358 52.1378Z" fill="#C8D0D7"/>
<path d="M94.8334 48.839C94.7595 48.8753 94.6998 48.9351 94.6634 49.0089L94.8334 48.839ZM94.8334 48.839C95.0185 48.7476 95.2435 48.8237 95.3361 49.0089L94.8334 48.839ZM92.3384 58.2351C92.2658 58.2737 92.1814 58.2866 92.1005 58.2726C91.8966 58.2374 91.7595 58.044 91.7947 57.8401L92.3384 58.2351ZM93.5127 51.7939L93.4662 51.8882L93.3621 51.9033L90.3874 52.3356C90.3873 52.3356 90.3872 52.3357 90.3871 52.3357C90.2895 52.3503 90.2249 52.4396 90.2392 52.5327L90.2395 52.5349C90.2449 52.5725 90.2627 52.6075 90.2904 52.6347C90.2904 52.6347 90.2905 52.6348 90.2905 52.6348L92.4429 54.7333L92.5182 54.8067L92.5004 54.9103L91.9918 57.874L91.9918 57.8741C91.9755 57.9687 92.039 58.059 92.1345 58.0755L92.1348 58.0755C92.1728 58.0821 92.2119 58.0758 92.2445 58.0585L92.2454 58.058L94.9067 56.6588L94.9998 56.6099L95.0928 56.6588L97.7542 58.058L97.7545 58.0582C97.7833 58.0734 97.8158 58.0803 97.8483 58.0779C97.8808 58.0756 97.912 58.0642 97.9384 58.0451C97.9648 58.0259 97.9852 57.9998 97.9975 57.9696C98.0098 57.9394 98.0133 57.9063 98.0078 57.8742L98.0077 57.874L97.4991 54.9103L97.4813 54.8067L97.5566 54.7333L99.7094 52.6344L99.7094 52.6344C99.7427 52.6019 99.7618 52.5576 99.7624 52.511C99.763 52.4646 99.7452 52.4198 99.7129 52.3865C99.6857 52.3589 99.6508 52.3412 99.6133 52.3358L99.6128 52.3357L96.6374 51.9033L96.5333 51.8882L96.4868 51.7939L95.1572 49.0983C95.1571 49.0982 95.1571 49.0981 95.157 49.098C95.1132 49.0109 95.0076 48.976 94.9219 49.0183L94.9217 49.0184C94.8874 49.0353 94.8597 49.063 94.8429 49.0972L94.8428 49.0974L93.5127 51.7939Z" stroke="#C8D0D7" stroke-width="0.4"/>
</svg>
