<svg width="126" height="111" viewBox="0 0 126 111" fill="none" xmlns="http://www.w3.org/2000/svg">
<rect x="1.34253" y="1.17188" width="124.157" height="109.336" rx="4.5" stroke="#E4EBF0"/>
<path d="M18.6737 71.2225C18.3864 70.7933 18.18 70.3054 18.0761 69.7806L18.3704 69.7224C18.3243 69.489 18.3 69.2475 18.3 69V68.0714H18V66.2143H18.3V64.3571H18V62.5H18.3V60.6429H18V58.7857H18.3V56.9286H18V55.0714H18.3V53.2143H18V51.3571H18.3V49.5H18V47.6429H18.3V45.7857H18V43.9286H18.3V43C18.3 42.7525 18.3243 42.511 18.3704 42.2776L18.0761 42.2194C18.18 41.6946 18.3864 41.2067 18.6737 40.7775L18.923 40.9444C19.1932 40.5408 19.5408 40.1932 19.9444 39.923L19.7775 39.6737C20.2067 39.3864 20.6946 39.18 21.2194 39.0761L21.2776 39.3704C21.511 39.3243 21.7525 39.3 22 39.3H22.9881V39H24.9643V39.3H26.9405V39H28.9167V39.3H30.8929V39H32.8691V39.3H34.8453V39H36.8215V39.3H38.7976V39H40.7738V39.3H42.75V39H44.7262V39.3H46.7024V39H48.6786V39.3H50.6548V39H52.631V39.3H54.6072V39H56.5833V39.3H58.5595V39H60.5357V39.3H62.5119V39H64.4881V39.3H66.4643V39H68.4405V39.3H70.4167V39H72.3929V39.3H74.369V39H76.3452V39.3H78.3214V39H80.2976V39.3H82.2738V39H84.25V39.3H86.2262V39H88.2024V39.3H90.1786V39H92.1548V39.3H94.131V39H96.1071V39.3H98.0833V39H100.06V39.3H102.036V39H104.012V39.3H105C105.247 39.3 105.489 39.3243 105.722 39.3704L105.781 39.0761C106.305 39.18 106.793 39.3864 107.222 39.6737L107.056 39.923C107.459 40.1932 107.807 40.5408 108.077 40.9444L108.326 40.7775C108.614 41.2067 108.82 41.6946 108.924 42.2194L108.63 42.2776C108.676 42.511 108.7 42.7525 108.7 43V43.9286H109V45.7857H108.7V47.6429H109V49.5H108.7V51.3571H109V53.2143H108.7V55.0714H109V56.9286H108.7V58.7857H109V60.6429H108.7V62.5H109V64.3571H108.7V66.2143H109V68.0714H108.7V69C108.7 69.2475 108.676 69.489 108.63 69.7224L108.924 69.7806C108.82 70.3054 108.614 70.7933 108.326 71.2225L108.077 71.0556C107.807 71.4592 107.459 71.8068 107.056 72.077L107.222 72.3263C106.793 72.6136 106.305 72.82 105.781 72.9239L105.722 72.6296C105.489 72.6757 105.247 72.7 105 72.7H104.012V73H102.036V72.7H100.059V73H98.0833V72.7H96.1071V73H94.1309V72.7H92.1547V73H90.1785V72.7H88.2024V73H86.2262V72.7H84.25V73H82.2738V72.7H80.2976V73H78.3214V72.7H76.3452V73H74.369V72.7H72.3928V73H70.4167V72.7H68.4405V73H66.4643V72.7H64.4881V73H62.5119V72.7H60.5357V73H58.5595V72.7H56.5833V73H54.6071V72.7H52.631V73H50.6548V72.7H48.6786V73H46.7024V72.7H44.7262V73H42.75V72.7H40.7738V73H38.7976V72.7H36.8214V73H34.8452V72.7H32.869V73H30.8929V72.7H28.9167V73H26.9405V72.7H24.9643V73H22.9881V72.7H22C21.7525 72.7 21.511 72.6757 21.2776 72.6296L21.2194 72.9239C20.6946 72.82 20.2067 72.6136 19.7775 72.3263L19.9444 72.077C19.5408 71.8068 19.1932 71.4592 18.923 71.0556L18.6737 71.2225Z" stroke="#C8D0D7" stroke-width="0.6" stroke-dasharray="2 2"/>
<g clip-path="url(#clip0_5424_20257)">
<path d="M63.5 47.125L63.5 45.4375M63.5 45.4375L64.25 46.1875M63.5 45.4375L62.75 46.1875M62.1875 47.875C61.5662 47.875 61.0625 47.3713 61.0625 46.75C61.0625 46.2518 61.3864 45.8292 61.8351 45.6813C61.8203 45.6023 61.8125 45.5208 61.8125 45.4375C61.8125 44.7126 62.4001 44.125 63.125 44.125C63.7328 44.125 64.2441 44.5382 64.3934 45.0989C64.4664 45.0753 64.5442 45.0625 64.625 45.0625C65.0392 45.0625 65.375 45.3983 65.375 45.8125C65.375 45.8995 65.3602 45.9831 65.3329 46.0608C65.6863 46.1951 65.9375 46.537 65.9375 46.9375C65.9375 47.4553 65.5178 47.875 65 47.875H62.1875Z" stroke="#E4EBF0" stroke-width="0.5" stroke-linecap="round" stroke-linejoin="round"/>
</g>
<rect x="34" y="53" width="59" height="2" fill="#E4EBF0"/>
<rect x="41" y="59" width="45" height="2" fill="#E4EBF0"/>
<defs>
<clipPath id="clip0_5424_20257">
<rect width="6" height="6" fill="white" transform="translate(60.5 43)"/>
</clipPath>
</defs>
</svg>
