<svg width="126" height="36" viewBox="0 0 126 36" fill="none" xmlns="http://www.w3.org/2000/svg">
<g clip-path="url(#clip0_5971_19688)">
<path d="M52.2399 23.848H44.4564L42.6769 27.3184H38.4668L48.0588 8.58398H49.1583L58.0559 27.3184H53.8892L52.2399 23.848ZM50.4749 20.104L48.5073 15.928L46.3806 20.104H50.4749Z" fill="#333747"/>
<path d="M64.8405 19.3834C64.2184 19.225 63.061 18.9226 61.9904 18.2026C60.4858 17.209 59.6466 15.769 59.5743 13.9834C59.4875 12.4858 59.9794 11.1754 60.9487 10.1674C62.3521 8.72742 64.3631 8.32422 65.3324 8.32422C68.0668 8.32422 69.6003 9.31782 70.9748 10.1962L71.5969 10.5994L69.6293 13.7818L68.9638 13.3498C67.7485 12.5722 66.9817 12.0682 65.3324 12.0682C65.0864 12.0682 64.1461 12.2554 63.6686 12.7594C63.5095 12.9178 63.3214 13.2202 63.3503 13.825C63.3793 14.7898 64.0448 15.3226 65.7664 15.7546C65.9834 15.8122 66.1426 15.8554 66.3017 15.913C68.0957 16.5322 69.4991 17.353 70.4684 18.4042C71.4377 19.4698 71.9441 20.737 71.9441 22.0618C71.9441 23.3722 71.3799 24.7402 70.4395 25.777C69.3399 27.001 67.8064 27.7066 66.1136 27.7066C65.2745 27.7066 64.1461 27.649 62.815 27.2458C61.1223 26.713 59.6177 25.777 58.3301 24.409L61.0645 21.8458C63.0465 23.9626 65.2745 23.9626 66.1136 23.9626C67.6761 23.9626 68.1825 22.5514 68.1825 22.0618C68.1825 21.0394 67.0251 20.1034 65.072 19.441L64.9852 19.4122L64.8405 19.3834Z" fill="#333747"/>
<path d="M88.1623 8.58471V12.3287H82.9539V27.3335H79.1923V12.3143H73.9551V8.57031H88.1623V8.58471Z" fill="#333747"/>
<path d="M100.142 27.3179L96.6267 19.8011H94.7459V27.2891H90.9844V8.55469H98.0735C101.184 8.55469 103.716 11.0891 103.716 14.1995C103.716 16.4747 102.37 18.4187 100.417 19.3115L104.15 27.3323H100.142V27.3179ZM94.7459 12.2987V16.0715H98.0735C99.1152 16.0715 99.9543 15.2363 99.9543 14.1995C99.9543 13.1627 99.1152 12.2987 98.0735 12.2987H94.7459Z" fill="#333747"/>
<path d="M119.398 23.848H111.615L109.835 27.3184H105.625L115.217 8.58398H116.317L125.2 27.3184H121.033L119.398 23.848ZM117.619 20.104L115.651 15.928L113.524 20.104H117.619Z" fill="#333747"/>
<path fill-rule="evenodd" clip-rule="evenodd" d="M18.141 35.8565C28.0489 35.8565 36.0808 27.8621 36.0808 18.0005C36.0808 8.13893 28.0489 0.144531 18.141 0.144531C8.2331 0.144531 0.201172 8.13893 0.201172 18.0005C0.201172 27.8621 8.2331 35.8565 18.141 35.8565ZM17.9236 8.0641C16.4043 11.2541 14.885 14.4477 13.3657 17.6412C11.8468 20.8341 10.3279 24.0269 8.80898 27.2161H12.7152C13.9451 24.7463 15.1749 22.273 16.4047 19.7996C17.6344 17.3266 18.864 14.8535 20.0937 12.3841L17.9236 8.0641ZM20.0931 19.8709C20.7188 18.5749 21.3445 17.2789 21.9739 15.9829C22.8926 17.855 23.8077 19.727 24.7228 21.5991C25.6378 23.471 26.5529 25.343 27.4715 27.2149H23.2759C23.0372 26.6605 22.7949 26.1097 22.5526 25.5589C22.3102 25.0081 22.0679 24.4573 21.8292 23.9029H18.2123H18.14L18.2123 23.7589C18.8416 22.4629 19.4674 21.1669 20.0931 19.8709Z" fill="#333747"/>
</g>
<defs>
<clipPath id="clip0_5971_19688">
<rect width="125" height="36" fill="white" transform="translate(0.199219)"/>
</clipPath>
</defs>
</svg>
