<?xml version="1.0" encoding="UTF-8"?> <svg xmlns="http://www.w3.org/2000/svg" width="184" height="34" viewBox="0 0 184 34" fill="none"><g clipPath="url(#clip0_1008_35624)"><path d="M20.8491 2.21008C19.6352 3.40008 18.8685 5.03633 18.8685 6.88508V17.7226C18.8685 19.3163 17.5694 20.6126 15.9722 20.6126H8.68889C7.09167 20.6126 5.79259 19.3163 5.79259 17.7226C5.79259 16.1288 7.09167 14.8326 8.68889 14.8326H16.675V9.05258H8.68889C8.19907 9.05258 7.70926 9.09508 7.24074 9.15883C3.13056 9.86008 0 13.4301 0 17.7226C0 21.5051 2.42778 24.7138 5.79259 25.9038C6.26111 26.0738 6.75093 26.2013 7.24074 26.2863C7.70926 26.3713 8.19907 26.4138 8.68889 26.4138H15.9722C16.462 26.4138 16.9519 26.3713 17.4204 26.2863C17.9102 26.2013 18.4 26.0738 18.8685 25.9038C22.2546 24.7138 24.6611 21.5051 24.6611 17.7226V14.8326C27.8556 14.8326 30.4537 12.2401 30.4537 9.05258H24.6611V6.88508C24.6611 6.48133 24.9806 6.16258 25.3852 6.16258H26.8333C28.6009 6.16258 30.1981 5.46133 31.3907 4.31383C32.4343 3.29383 33.1583 1.91258 33.3287 0.361328H25.3852C23.6389 0.382578 22.0204 1.08383 20.8491 2.21008Z" fill="#757575"></path><path d="M8.68878 27.8374C7.09155 27.8374 5.79248 29.1337 5.79248 30.7274C5.79248 32.3212 7.09155 33.6174 8.68878 33.6174C10.286 33.6174 11.5851 32.3212 11.5851 30.7274C11.5851 29.1337 10.286 27.8374 8.68878 27.8374Z" fill="#757575"></path><path d="M17.3777 27.8374C15.7805 27.8374 14.4814 29.1337 14.4814 30.7274C14.4814 32.3212 15.7805 33.6174 17.3777 33.6174C18.975 33.6174 20.274 32.3212 20.274 30.7274C20.274 29.1337 18.9963 27.8374 17.3777 27.8374Z" fill="#757575"></path><path d="M49.1308 29.5589C47.4696 29.5589 45.9789 29.3039 44.6798 28.7939C43.3595 28.2839 42.2521 27.5402 41.3363 26.5627C40.4206 25.5639 39.7178 24.3739 39.228 22.9502C38.7382 21.5264 38.5039 19.9114 38.5039 18.0627C38.5039 16.2352 38.7808 14.5989 39.3558 13.1752C39.9095 11.7514 40.6761 10.5614 41.6558 9.56266C42.6354 8.58516 43.7854 7.82016 45.0845 7.33141C46.4048 6.82141 47.8104 6.56641 49.3224 6.56641C50.2382 6.56641 51.0687 6.63016 51.8141 6.77891C52.5595 6.92766 53.1983 7.07641 53.7521 7.24641C54.3058 7.41641 54.753 7.58641 55.115 7.77766C55.4771 7.96891 55.7326 8.09641 55.8817 8.18141L54.6891 11.4752C54.178 11.1564 53.4539 10.8589 52.5169 10.5614C51.5798 10.2852 50.5576 10.1364 49.4502 10.1364C48.4919 10.1364 47.5974 10.3064 46.7669 10.6252C45.9363 10.9652 45.2335 11.4539 44.6159 12.1127C44.0196 12.7714 43.5298 13.6002 43.2104 14.5777C42.8696 15.5764 42.6993 16.7239 42.6993 18.0414C42.6993 19.2102 42.8271 20.2727 43.0826 21.2502C43.3382 22.2277 43.7641 23.0777 44.3178 23.7789C44.8715 24.4802 45.5743 25.0327 46.4048 25.4364C47.2567 25.8402 48.2789 26.0314 49.4502 26.0314C50.8771 26.0314 52.0271 25.8827 52.9215 25.6064C53.8159 25.3302 54.4974 25.0539 54.9872 24.7989L56.0733 28.0714C55.8178 28.2414 55.4771 28.4327 55.0298 28.5814C54.6039 28.7514 54.0928 28.9214 53.4965 29.0702C52.9002 29.2189 52.24 29.3464 51.4946 29.4527C50.7706 29.5164 49.9826 29.5589 49.1308 29.5589Z" fill="#757575"></path><path d="M64.9751 12.0703C66.2529 12.0703 67.3177 12.2191 68.1909 12.5591C69.064 12.8778 69.7668 13.3241 70.2779 13.8978C70.789 14.4716 71.1723 15.1728 71.3853 15.9803C71.6196 16.7878 71.726 17.6803 71.726 18.6578V28.7303C71.1297 28.8578 70.2353 29.0066 69.0427 29.1978C67.8501 29.3678 66.4872 29.4741 64.9964 29.4741C63.9955 29.4741 63.0797 29.3678 62.2492 29.1766C61.4186 28.9853 60.7159 28.6878 60.1409 28.2628C59.5446 27.8378 59.0973 27.2853 58.7779 26.6266C58.4585 25.9466 58.2881 25.1178 58.2881 24.1191C58.2881 23.1628 58.4797 22.3553 58.8418 21.6966C59.2251 21.0378 59.7149 20.5066 60.3538 20.1028C60.9927 19.6778 61.7168 19.4016 62.5686 19.2103C63.3992 19.0191 64.2723 18.9341 65.1881 18.9341C65.614 18.9341 66.0612 18.9553 66.5297 19.0191C66.9983 19.0828 67.4881 19.1678 68.0205 19.2953V18.6578C68.0205 18.2116 67.9779 17.7866 67.8714 17.3828C67.7649 16.9791 67.5733 16.6391 67.3177 16.3203C67.0622 16.0228 66.7001 15.7678 66.2742 15.5978C65.8483 15.4278 65.2946 15.3428 64.6344 15.3428C63.7399 15.3428 62.9307 15.4066 62.1853 15.5341C61.4399 15.6616 60.8436 15.8103 60.3751 15.9803L59.9066 12.8778C60.3964 12.7078 61.0992 12.5378 62.0362 12.3678C62.9094 12.1553 63.9103 12.0703 64.9751 12.0703ZM65.2946 26.3928C66.4872 26.3928 67.3816 26.3291 67.9992 26.2016V21.9303C67.7862 21.8666 67.4881 21.8028 67.0835 21.7391C66.6788 21.6753 66.2316 21.6328 65.7418 21.6328C65.3159 21.6328 64.8899 21.6753 64.464 21.7391C64.0168 21.8028 63.6335 21.9303 63.2927 22.1003C62.952 22.2703 62.6538 22.5041 62.4409 22.8228C62.2279 23.1203 62.1214 23.5241 62.1214 23.9703C62.1214 24.8841 62.3983 25.5216 62.9733 25.8616C63.5483 26.2228 64.3149 26.3928 65.2946 26.3928Z" fill="#757575"></path><path d="M85.9093 15.9375C85.5898 15.8313 85.1426 15.725 84.5889 15.5975C84.0352 15.47 83.375 15.4275 82.6297 15.4275C82.2037 15.4275 81.7565 15.47 81.2667 15.555C80.7982 15.64 80.4574 15.7038 80.2658 15.7675V29.07H76.4111V13.2813C77.1565 13.005 78.0935 12.75 79.2009 12.495C80.3084 12.2613 81.5435 12.1338 82.9065 12.1338C83.1621 12.1338 83.4602 12.155 83.801 12.1763C84.1417 12.1975 84.4824 12.2613 84.8232 12.3038C85.1639 12.3675 85.4834 12.4313 85.8028 12.495C86.1222 12.5588 86.3778 12.6438 86.5695 12.7075L85.9093 15.9375Z" fill="#757575"></path><path d="M89.0615 8.09648L92.9161 7.45898V12.474H98.8365V15.6827H92.9161V22.4402C92.9161 23.779 93.1291 24.714 93.555 25.2877C93.981 25.8615 94.705 26.1377 95.706 26.1377C96.4087 26.1377 97.0263 26.0527 97.58 25.9252C98.1124 25.7765 98.5597 25.649 98.8791 25.5002L99.518 28.539C99.0708 28.7302 98.4958 28.9215 97.7717 29.134C97.0476 29.3252 96.1958 29.4315 95.2162 29.4315C94.0236 29.4315 93.0439 29.2615 92.2347 28.964C91.4467 28.6452 90.8078 28.1777 90.3393 27.5827C89.8708 26.9877 89.5513 26.244 89.3597 25.394C89.168 24.544 89.0828 23.5665 89.0828 22.4615L89.0615 8.09648Z" fill="#757575"></path><path d="M102.755 29.0912V7.07617H116.704V10.4762H106.78V16.0862H115.597V19.4862H106.78V29.0912H102.755Z" fill="#757575"></path><path d="M125.883 29.4102C124.754 29.3889 123.796 29.2614 123.029 29.0277C122.284 28.7939 121.687 28.4539 121.24 28.0289C120.793 27.5827 120.474 27.0514 120.303 26.4139C120.112 25.7552 120.026 25.0327 120.026 24.2039V5.07891L123.881 4.44141V23.4602C123.881 23.9277 123.902 24.3102 123.987 24.6289C124.073 24.9477 124.2 25.2239 124.392 25.4364C124.584 25.6489 124.839 25.8189 125.159 25.9464C125.5 26.0527 125.904 26.1589 126.415 26.2227L125.883 29.4102Z" fill="#757575"></path><path d="M144.602 20.7616C144.602 22.0791 144.41 23.2691 144.027 24.3528C143.665 25.4366 143.111 26.3503 142.409 27.1153C141.706 27.8591 140.875 28.4541 139.896 28.9003C138.895 29.3253 137.809 29.5378 136.637 29.5378C135.445 29.5378 134.359 29.3253 133.379 28.9003C132.399 28.4753 131.569 27.8803 130.866 27.1153C130.163 26.3503 129.631 25.4366 129.226 24.3528C128.822 23.2691 128.63 22.0791 128.63 20.7616C128.63 19.4441 128.822 18.2541 129.226 17.1916C129.61 16.1291 130.163 15.2153 130.887 14.4503C131.59 13.6853 132.442 13.1116 133.422 12.6866C134.401 12.2828 135.466 12.0703 136.637 12.0703C137.809 12.0703 138.873 12.2828 139.874 12.6866C140.854 13.1116 141.706 13.6853 142.409 14.4503C143.111 15.2153 143.644 16.1291 144.048 17.1916C144.41 18.2541 144.602 19.4441 144.602 20.7616ZM140.662 20.7616C140.662 19.1041 140.3 17.8078 139.597 16.8303C138.895 15.8528 137.894 15.3853 136.616 15.3853C135.338 15.3853 134.337 15.8528 133.635 16.8303C132.932 17.7866 132.57 19.1041 132.57 20.7616C132.57 22.4403 132.932 23.7578 133.635 24.7353C134.337 25.7128 135.338 26.2016 136.616 26.2016C137.894 26.2016 138.873 25.7128 139.597 24.7353C140.3 23.7578 140.662 22.4403 140.662 20.7616Z" fill="#757575"></path><path d="M158.168 18.6364C157.678 20.4851 157.145 22.3126 156.592 24.0764C156.038 25.8401 155.484 27.5189 154.931 29.0914H151.757C151.332 28.1139 150.884 27.0089 150.416 25.7551C149.947 24.5014 149.479 23.1839 149.01 21.7601C148.542 20.3364 148.073 18.8489 147.605 17.2764C147.136 15.7039 146.689 14.1101 146.242 12.4739H150.309C150.501 13.3664 150.735 14.3226 150.991 15.3426C151.246 16.3839 151.502 17.4251 151.779 18.4876C152.056 19.5501 152.354 20.5914 152.631 21.6114C152.929 22.6314 153.227 23.5664 153.525 24.4164C153.844 23.4389 154.164 22.4401 154.462 21.3776C154.76 20.3576 155.058 19.3164 155.335 18.2751C155.612 17.2339 155.868 16.2139 156.123 15.2364C156.379 14.2589 156.592 13.3239 156.783 12.4526H159.744C159.935 13.3239 160.148 14.2376 160.382 15.2364C160.617 16.2139 160.872 17.2339 161.128 18.2751C161.405 19.3164 161.682 20.3576 161.98 21.3776C162.299 22.4189 162.597 23.4176 162.917 24.4164C163.194 23.5664 163.492 22.6314 163.79 21.6114C164.088 20.5914 164.386 19.5501 164.663 18.4876C164.961 17.4251 165.217 16.3626 165.494 15.3426C165.749 14.3226 165.962 13.3664 166.175 12.4739H170.157C169.71 14.1101 169.242 15.7039 168.794 17.2764C168.326 18.8489 167.857 20.3364 167.389 21.7601C166.92 23.1839 166.452 24.5014 165.983 25.7551C165.515 27.0089 165.068 28.1139 164.62 29.0914H161.49C160.936 27.5189 160.382 25.8614 159.786 24.0764C159.19 22.3126 158.657 20.5064 158.168 18.6364Z" fill="#757575"></path><path d="M177.228 26.3288C178.25 26.3288 178.996 26.2013 179.443 25.9676C179.911 25.7126 180.146 25.3088 180.146 24.7138C180.146 24.1613 179.911 23.7151 179.4 23.3538C178.889 22.9926 178.08 22.5888 176.93 22.1638C176.227 21.9088 175.588 21.6326 175.013 21.3563C174.417 21.0588 173.927 20.7401 173.501 20.3576C173.075 19.9751 172.756 19.5288 172.5 18.9763C172.245 18.4451 172.138 17.7863 172.138 16.9788C172.138 15.4488 172.692 14.2588 173.821 13.3663C174.928 12.4951 176.461 12.0488 178.399 12.0488C179.379 12.0488 180.316 12.1338 181.21 12.3251C182.105 12.5163 182.765 12.6863 183.212 12.8563L182.509 15.9588C182.083 15.7676 181.551 15.5976 180.891 15.4276C180.231 15.2788 179.464 15.1938 178.612 15.1938C177.824 15.1938 177.185 15.3213 176.696 15.5976C176.206 15.8526 175.971 16.2563 175.971 16.8301C175.971 17.1063 176.014 17.3401 176.121 17.5526C176.206 17.7651 176.376 17.9563 176.61 18.1476C176.845 18.3388 177.143 18.5088 177.526 18.6788C177.909 18.8701 178.378 19.0401 178.932 19.2313C179.847 19.5713 180.614 19.9113 181.253 20.2301C181.892 20.5488 182.424 20.9313 182.829 21.3351C183.233 21.7388 183.553 22.2276 183.745 22.7588C183.936 23.2901 184.021 23.9063 184.021 24.6501C184.021 26.2438 183.425 27.4551 182.254 28.2626C181.061 29.0913 179.4 29.4951 177.207 29.4951C175.737 29.4951 174.566 29.3676 173.671 29.1338C172.777 28.9001 172.159 28.7088 171.797 28.5601L172.458 25.3513C173.033 25.5851 173.714 25.8188 174.523 26.0313C175.29 26.2226 176.206 26.3288 177.228 26.3288Z" fill="#757575"></path></g><defs><clipPath id="clip0_1008_35624"><rect width="184" height="34" fill="white"></rect></clipPath></defs></svg> 