<svg xmlns="http://www.w3.org/2000/svg" width="204" height="32" viewBox="0 0 204 32" fill="none">
<g clip-path="url(#clip0_6080_22890)">
<path d="M136.303 25.5649H138.315V18.9425C139.082 20.0943 140.615 20.958 142.34 20.958C145.502 20.958 147.994 18.2707 147.994 14.9116C147.994 11.6485 145.502 8.86523 142.34 8.86523C140.615 8.86523 139.082 9.72902 138.315 10.8807V9.05719H136.303V25.5649ZM145.981 14.9116C145.981 17.215 144.352 19.1345 142.052 19.1345C139.752 19.1345 138.123 17.311 138.123 14.9116C138.123 12.6082 139.752 10.6887 142.052 10.6887C144.352 10.7847 145.981 12.6082 145.981 14.9116Z" fill="#333747" fill-opacity="0.85"/>
<path d="M150.867 20.6699H152.88V3.39453H150.867V20.6699Z" fill="#333747" fill-opacity="0.85"/>
<path d="M155.66 14.9116C155.66 18.1748 158.056 20.958 161.314 20.958C163.039 20.958 164.572 20.0942 165.339 18.9425V20.7661H167.351V9.24913H165.339V11.0726C164.572 9.92094 163.039 9.05718 161.314 9.05718C158.152 8.96121 155.66 11.6485 155.66 14.9116ZM165.53 14.9116C165.53 17.215 163.901 19.1345 161.601 19.1345C159.302 19.1345 157.673 17.311 157.673 14.9116C157.673 12.6082 159.302 10.6887 161.601 10.6887C163.997 10.7847 165.53 12.6082 165.53 14.9116Z" fill="#333747" fill-opacity="0.85"/>
<path d="M174.155 25.5641L181.725 9.15234H179.521L175.592 17.886L171.663 9.15234H169.459L174.538 20.0934L172.046 25.5641H174.155Z" fill="#333747" fill-opacity="0.85"/>
<path d="M182.586 14.9117C182.586 18.2708 184.982 20.9581 188.527 20.9581C190.923 20.9581 192.648 19.9024 193.702 18.1748L192.168 17.1191C191.498 18.3668 190.348 19.1346 188.527 19.1346C186.227 19.1346 184.598 17.503 184.502 15.3916H193.989C193.989 15.1037 193.989 15.0077 193.989 14.8157C193.989 11.0727 191.498 9.05727 188.527 9.05727C185.077 8.96129 182.586 11.5526 182.586 14.9117ZM188.527 10.6888C190.252 10.6888 191.785 11.8405 192.073 13.76H184.79C185.077 11.8405 186.802 10.6888 188.527 10.6888Z" fill="#333747" fill-opacity="0.85"/>
<path d="M196.865 20.6695H198.878V14.9111C198.878 12.2238 200.507 10.9761 201.944 10.9761C202.327 10.9761 202.615 10.9761 202.998 11.1681V9.15262C202.711 9.05664 202.423 9.05664 202.136 9.05664C200.794 9.05664 199.357 9.9204 198.878 11.456V9.24859H196.865V20.6695Z" fill="#333747" fill-opacity="0.85"/>
<path d="M3.74983 17.5868V22.3685H-0.253906V6.91602H6.51969C7.35904 6.91602 8.12282 7.03347 8.81116 7.26835C9.4994 7.50329 10.0869 7.84719 10.5738 8.30019C11.0774 8.73648 11.4635 9.29015 11.7321 9.96123C12.0175 10.6156 12.1602 11.379 12.1602 12.2514C12.1602 13.1071 12.0175 13.8705 11.7321 14.5416C11.4635 15.196 11.0774 15.7496 10.5738 16.2026C10.0869 16.6557 9.4994 16.9996 8.81116 17.2345C8.12282 17.4694 7.35904 17.5868 6.51969 17.5868H3.74983ZM8.20682 12.2514C8.20682 11.6642 8.03892 11.1944 7.70321 10.8421C7.36743 10.4897 6.83024 10.3136 6.09162 10.3136H3.74983V14.1893H6.09162C6.83024 14.1893 7.36743 14.0131 7.70321 13.6608C8.03892 13.3084 8.20682 12.8387 8.20682 12.2514Z" fill="#333747"/>
<path d="M19.1502 17.2597V22.3685H15.1465V6.91602H22.0963C22.9357 6.91602 23.6995 7.03347 24.3878 7.26835C25.0761 7.50329 25.6637 7.84719 26.1505 8.30019C26.654 8.73648 27.0402 9.28171 27.3088 9.93604C27.5774 10.5904 27.7117 11.337 27.7117 12.1759C27.7117 12.9981 27.5774 13.7279 27.3088 14.3654C27.0402 14.9863 26.654 15.5148 26.1505 15.951C25.7139 16.3201 25.2104 16.6138 24.6397 16.8318L28.2656 22.3685H23.7834L20.5603 17.2597H19.1502ZM19.1502 14.0383H21.6683C22.3901 14.0383 22.9189 13.8705 23.2547 13.5349C23.5904 13.1994 23.7583 12.7464 23.7583 12.1759C23.7583 11.6055 23.5904 11.1525 23.2547 10.8169C22.9189 10.4814 22.3901 10.3136 21.6683 10.3136H19.1502V14.0383Z" fill="#333747"/>
<path d="M41.9428 6.91602V10.3891H34.8419V12.8051H41.3132V16.2026H34.8419V18.8703H41.9428V22.3685H30.8633V6.91602H41.9428Z" fill="#333747"/>
<path d="M48.5547 17.7879C48.7227 18.3248 49.0165 18.7275 49.4359 18.9959C49.8725 19.2476 50.4097 19.3734 51.0475 19.3734C51.3499 19.3734 51.6267 19.3399 51.8786 19.2727C52.1472 19.2057 52.3654 19.1134 52.5334 18.9959C52.7179 18.8617 52.8606 18.7023 52.9612 18.5177C53.0788 18.3332 53.1375 18.1235 53.1375 17.8886C53.1375 17.5195 53.0117 17.2427 52.7598 17.0581C52.5249 16.8735 52.1639 16.7225 51.6771 16.605L48.7057 15.9759C48.1351 15.8585 47.5979 15.6907 47.0943 15.4725C46.6076 15.2545 46.1877 14.9776 45.8352 14.642C45.4827 14.2897 45.2056 13.8703 45.0042 13.3837C44.8027 12.8971 44.7021 12.3267 44.7021 11.6723C44.7021 10.9173 44.8531 10.2294 45.1554 9.60862C45.4575 8.98787 45.8771 8.46772 46.4143 8.04826C46.9515 7.61206 47.5811 7.27652 48.3028 7.04157C49.0248 6.7899 49.8054 6.66406 50.6446 6.66406C51.6015 6.66406 52.4492 6.7899 53.1879 7.04157C53.9266 7.27652 54.5562 7.61206 55.0764 8.04826C55.6139 8.46772 56.0417 8.9627 56.3608 9.5331C56.6798 10.1036 56.898 10.7244 57.0153 11.3955H53.0369C52.8859 10.9593 52.6172 10.6069 52.2311 10.3385C51.8619 10.0533 51.3414 9.91061 50.6699 9.91061C50.3845 9.91061 50.1244 9.93577 49.8892 9.98612C49.6543 10.0365 49.4529 10.1288 49.2849 10.2629C49.1171 10.3804 48.9828 10.5231 48.882 10.6908C48.7981 10.8418 48.7562 11.0264 48.7562 11.2445C48.7562 11.4123 48.7814 11.5633 48.8318 11.6975C48.882 11.8317 48.9661 11.9492 49.0834 12.0498C49.201 12.1505 49.3353 12.2344 49.4863 12.3015C49.6543 12.3686 49.8388 12.4273 50.0403 12.4776L53.0621 13.1823C54.3882 13.5011 55.4039 14.0296 56.1089 14.7678C56.8139 15.4893 57.1666 16.4457 57.1666 17.6369C57.1666 18.4255 57.0071 19.1302 56.688 19.7509C56.386 20.3717 55.9579 20.8919 55.4039 21.3113C54.8667 21.7308 54.2289 22.0579 53.4902 22.2928C52.7683 22.5109 51.9792 22.62 51.1232 22.62C49.2597 22.62 47.7322 22.2006 46.5402 21.3616C45.3484 20.5059 44.6182 19.3147 44.3496 17.7879H48.5547Z" fill="#333747"/>
<path d="M59.4824 6.91602H73.0798V10.3891H68.2955V22.3685H64.2415V10.3891H59.4824V6.91602Z" fill="#333747"/>
<path d="M89.7434 14.642C89.7434 15.7997 89.5582 16.8652 89.1894 17.8382C88.8197 18.8114 88.2993 19.6502 87.6282 20.3549C86.9734 21.0596 86.1759 21.6133 85.236 22.0159C84.3126 22.4186 83.2883 22.62 82.164 22.62C81.0561 22.62 80.0403 22.4186 79.117 22.0159C78.1936 21.6133 77.3962 21.0596 76.7247 20.3549C76.0702 19.6502 75.5582 18.8114 75.1887 17.8382C74.8195 16.8652 74.6348 15.7997 74.6348 14.642C74.6348 13.4843 74.8195 12.4189 75.1887 11.4458C75.5582 10.4727 76.0702 9.63378 76.7247 8.9291C77.3962 8.2077 78.1936 7.65403 79.117 7.26809C80.0403 6.8654 81.0561 6.66406 82.164 6.66406C83.2883 6.66406 84.3126 6.8654 85.236 7.26809C86.1759 7.65403 86.9734 8.2077 87.6282 8.9291C88.2993 9.63378 88.8197 10.4727 89.1894 11.4458C89.5582 12.4189 89.7434 13.4843 89.7434 14.642ZM85.6641 14.642C85.6641 13.9709 85.5797 13.3669 85.4122 12.83C85.2442 12.2931 85.0096 11.8317 84.7073 11.4458C84.4052 11.0431 84.0355 10.7411 83.5994 10.5398C83.1623 10.3217 82.684 10.2126 82.164 10.2126C81.6433 10.2126 81.1729 10.3217 80.754 10.5398C80.3342 10.7411 79.9647 11.0431 79.6457 11.4458C79.3436 11.8317 79.1085 12.2931 78.9407 12.83C78.7897 13.3669 78.714 13.9709 78.714 14.642C78.714 15.3132 78.7897 15.9172 78.9407 16.4541C79.1085 16.991 79.3436 17.4607 79.6457 17.8634C79.9647 18.2493 80.3342 18.5513 80.754 18.7694C81.1729 18.9707 81.6433 19.0714 82.164 19.0714C82.684 19.0714 83.1623 18.9707 83.5994 18.7694C84.0355 18.5513 84.4052 18.2493 84.7073 17.8634C85.0096 17.4607 85.2442 16.991 85.4122 16.4541C85.5797 15.9172 85.6641 15.3132 85.6641 14.642Z" fill="#333747"/>
<path d="M116.426 15.9572L125.616 10.6543V21.2602L116.426 15.9572Z" fill="#333747" fill-opacity="0.7"/>
<path d="M116.43 5.35352L125.62 10.6565L116.43 15.9595V5.35352Z" fill="#333747" fill-opacity="0.75"/>
<path d="M116.429 5.35352V15.9595L107.238 10.6564L116.429 5.35352Z" fill="#333747" fill-opacity="0.8"/>
<path d="M116.452 5.34401L107.262 10.647V0.0410156L116.452 5.34401Z" fill="#333747" fill-opacity="0.85"/>
<path d="M107.266 10.6602V21.2661L98.0762 15.9631L107.266 10.6602Z" fill="#333747" fill-opacity="0.8"/>
<path d="M107.266 0.078125V10.6841L98.0762 5.3811L107.266 0.078125Z" fill="#333747" fill-opacity="0.9"/>
<path d="M107.266 21.252V31.8581L98.0762 26.555L107.266 21.252Z" fill="#333747" fill-opacity="0.7"/>
<path d="M116.43 15.959L125.62 21.262L116.43 26.5649V15.959Z" fill="#333747" fill-opacity="0.65"/>
<path d="M98.0781 15.959L107.268 21.262L98.0781 26.5649V15.959Z" fill="#333747" fill-opacity="0.75"/>
<path d="M98.0781 5.36133L107.268 10.6643L98.0781 15.9673V5.36133Z" fill="#333747" fill-opacity="0.85"/>
<path d="M116.429 15.959V26.565L107.238 21.262L116.429 15.959Z" fill="#333747" fill-opacity="0.6"/>
</g>
<defs>
<clipPath id="clip0_6080_22890">
<rect width="204" height="32" fill="white"/>
</clipPath>
</defs>
</svg>