<svg width="123" height="36" viewBox="0 0 123 36" fill="none" xmlns="http://www.w3.org/2000/svg">
<g clip-path="url(#clip0_5971_19701)">
<path d="M49.0223 16.3509C48.2743 16.3509 47.5798 16.2122 46.9387 15.9349C46.2976 15.6469 45.7528 15.2576 45.3038 14.7669C44.8551 14.2762 44.524 13.7109 44.3104 13.0709L45.913 12.3989C46.2015 13.1349 46.6235 13.7002 47.179 14.0949C47.7348 14.4895 48.3759 14.6869 49.1024 14.6869C49.5299 14.6869 49.9037 14.6229 50.2244 14.4949C50.5448 14.3562 50.7906 14.1642 50.9616 13.9189C51.1433 13.6736 51.2341 13.3909 51.2341 13.0709C51.2341 12.6336 51.111 12.2869 50.8655 12.0309C50.6197 11.7749 50.2563 11.5722 49.7754 11.4229L47.5316 10.7189C46.6342 10.4415 45.9505 10.0202 45.4803 9.45487C45.0101 8.87887 44.775 8.20688 44.775 7.43887C44.775 6.76688 44.9408 6.18022 45.2719 5.67889C45.603 5.16689 46.0573 4.76688 46.6342 4.47888C47.222 4.19088 47.8898 4.04688 48.6377 4.04688C49.3534 4.04688 50.0053 4.17488 50.593 4.4309C51.1807 4.67622 51.6828 5.01756 52.0996 5.45489C52.5268 5.89222 52.8368 6.39889 53.0292 6.97489L51.4585 7.66287C51.2234 7.03356 50.8548 6.54822 50.3524 6.20688C49.861 5.86553 49.2892 5.69488 48.6377 5.69488C48.2424 5.69488 47.895 5.76421 47.5958 5.90288C47.2965 6.03089 47.0618 6.22287 46.8905 6.47888C46.7303 6.7242 46.6502 7.0122 46.6502 7.34288C46.6502 7.72687 46.7733 8.06821 47.0188 8.36688C47.2646 8.66554 47.6388 8.88953 48.1408 9.0389L50.2244 9.6949C51.1752 9.9829 51.8912 10.3989 52.3718 10.9429C52.8527 11.4762 53.093 12.1429 53.093 12.9429C53.093 13.6042 52.9169 14.1909 52.5642 14.7029C52.2223 15.2149 51.747 15.6202 51.1377 15.9189C50.5289 16.2069 49.8236 16.3509 49.0223 16.3509ZM58.6298 16.2549C57.7217 16.2549 57.0164 15.9989 56.5143 15.4869C56.0122 14.9749 55.7612 14.2549 55.7612 13.3269V9.13489H54.2386V7.50288H54.4789C54.885 7.50288 55.2002 7.38556 55.4245 7.15087C55.6488 6.91621 55.7612 6.59623 55.7612 6.19088V5.51889H57.5722V7.50288H59.5435V9.13489H57.5722V13.2469C57.5722 13.5455 57.6201 13.8016 57.7165 14.0149C57.8125 14.2176 57.9675 14.3776 58.1811 14.4949C58.3951 14.6016 58.6728 14.6549 59.0147 14.6549C59.1 14.6549 59.1964 14.6496 59.3032 14.6389C59.41 14.6282 59.5116 14.6175 59.6076 14.6069V16.1589C59.4582 16.1802 59.2924 16.2015 59.1107 16.2229C58.929 16.2442 58.7688 16.2549 58.6298 16.2549ZM63.7328 16.3509C63.1451 16.3509 62.627 16.2496 62.1784 16.0469C61.7401 15.8336 61.3982 15.5456 61.1523 15.1829C60.9069 14.8096 60.7838 14.3722 60.7838 13.8709C60.7838 13.4015 60.8854 12.9802 61.0885 12.6069C61.3021 12.2336 61.6281 11.9189 62.066 11.6629C62.5039 11.4069 63.0542 11.2256 63.7168 11.1189L66.73 10.6229V12.0469L64.0695 12.5109C63.5886 12.5962 63.2359 12.7509 63.0116 12.9749C62.7872 13.1882 62.6752 13.4655 62.6752 13.8069C62.6752 14.1375 62.798 14.4095 63.0438 14.6229C63.3001 14.8256 63.626 14.9269 64.0213 14.9269C64.513 14.9269 64.9402 14.8202 65.3035 14.6069C65.6773 14.3936 65.9658 14.1109 66.169 13.7589C66.3719 13.3962 66.4734 12.9962 66.4734 12.5589V10.3349C66.4734 9.90823 66.3133 9.56156 65.9929 9.29488C65.6829 9.01754 65.2661 8.87887 64.7425 8.87887C64.2619 8.87887 63.8396 9.00688 63.4766 9.26289C63.1239 9.50821 62.8621 9.82823 62.6912 10.2229L61.1846 9.4709C61.3448 9.04423 61.6066 8.67087 61.97 8.35088C62.333 8.0202 62.7553 7.76422 63.2359 7.58287C63.7276 7.40156 64.2456 7.3109 64.7907 7.3109C65.4745 7.3109 66.0782 7.43887 66.6017 7.69489C67.1361 7.95087 67.5473 8.3082 67.8358 8.76689C68.135 9.21488 68.2845 9.73754 68.2845 10.3349V16.1589H66.5535V14.5909L66.9221 14.6389C66.7193 14.9909 66.4575 15.2949 66.1371 15.5509C65.8271 15.8069 65.4693 16.0042 65.0632 16.1429C64.6676 16.2815 64.2245 16.3509 63.7328 16.3509ZM70.2418 16.1589V7.50288H71.9728V9.24687L71.8126 8.99089C72.005 8.42555 72.3147 8.0202 72.7422 7.77488C73.1694 7.51887 73.6826 7.39089 74.2807 7.39089H74.8098V9.0389H74.0564C73.4579 9.0389 72.9717 9.22554 72.598 9.59887C72.2346 9.96154 72.0529 10.4842 72.0529 11.1669V16.1589H70.2418ZM79.7953 16.2549C78.8872 16.2549 78.1819 15.9989 77.6798 15.4869C77.1774 14.9749 76.9263 14.2549 76.9263 13.3269V9.13489H75.4038V7.50288H75.6441C76.0501 7.50288 76.3653 7.38556 76.5897 7.15087C76.8143 6.91621 76.9263 6.59623 76.9263 6.19088V5.51889H78.7374V7.50288H80.709V9.13489H78.7374V13.2469C78.7374 13.5455 78.7856 13.8016 78.8816 14.0149C78.978 14.2176 79.1327 14.3776 79.3466 14.4949C79.5602 14.6016 79.8379 14.6549 80.1798 14.6549C80.2655 14.6549 80.3615 14.6496 80.4683 14.6389C80.5751 14.6282 80.6767 14.6175 80.7728 14.6069V16.1589C80.6233 16.1802 80.4576 16.2015 80.2762 16.2229C80.0945 16.2442 79.934 16.2549 79.7953 16.2549ZM86.2943 16.3509C85.4288 16.3509 84.6597 16.1535 83.9864 15.7589C83.3241 15.3535 82.8057 14.8096 82.4319 14.1269C82.0578 13.4336 81.8709 12.6602 81.8709 11.8069C81.8709 10.9322 82.0578 10.1589 82.4319 9.48689C82.8164 8.81487 83.3293 8.28688 83.9704 7.90289C84.6115 7.50821 85.338 7.3109 86.15 7.3109C86.8019 7.3109 87.3841 7.42288 87.8973 7.64688C88.4101 7.87087 88.8428 8.18023 89.1955 8.57488C89.5478 8.95887 89.8151 9.40156 89.9968 9.9029C90.1889 10.4042 90.2853 10.9376 90.2853 11.5029C90.2853 11.6416 90.2797 11.7856 90.269 11.9349C90.2586 12.0842 90.2371 12.2229 90.2052 12.3509H83.2974V10.9109H89.1792L88.3137 11.5669C88.4208 11.0442 88.3834 10.5802 88.2017 10.1749C88.0308 9.7589 87.7634 9.43355 87.4004 9.19889C87.0477 8.95354 86.631 8.83089 86.15 8.83089C85.6694 8.83089 85.2419 8.95354 84.8681 9.19889C84.494 9.43355 84.2055 9.77489 84.0027 10.2229C83.7995 10.6602 83.7194 11.1935 83.762 11.8229C83.7086 12.4095 83.7887 12.9216 84.0027 13.3589C84.227 13.7962 84.5366 14.1375 84.9319 14.3829C85.338 14.6282 85.7974 14.7509 86.3106 14.7509C86.8342 14.7509 87.2773 14.6335 87.6407 14.3989C88.0148 14.1642 88.3085 13.8602 88.5221 13.4869L89.9968 14.2069C89.8258 14.6122 89.5585 14.9802 89.1955 15.3109C88.8428 15.6309 88.4153 15.8869 87.9132 16.0789C87.4215 16.2602 86.882 16.3509 86.2943 16.3509ZM91.8924 16.1589V7.50288H93.6234V9.24687L93.4632 8.99089C93.6553 8.42555 93.9653 8.0202 94.3928 7.77488C94.82 7.51887 95.3328 7.39089 95.9313 7.39089H96.4601V9.0389H95.7069C95.1085 9.0389 94.6223 9.22554 94.2485 9.59887C93.8852 9.96154 93.7035 10.4842 93.7035 11.1669V16.1589H91.8924ZM46.9546 32.4281V22.1881H43.7812V20.5081H51.9554V22.1881H48.8298V32.4281H46.9546ZM55.9769 32.6201C55.1114 32.6201 54.342 32.4228 53.669 32.0281C53.0063 31.6228 52.4879 31.0788 52.1142 30.3961C51.74 29.7028 51.5531 28.9295 51.5531 28.0761C51.5531 27.2015 51.74 26.4281 52.1142 25.7561C52.4987 25.0841 53.0115 24.5561 53.6527 24.1721C54.2938 23.7774 55.0206 23.5801 55.8326 23.5801C56.4841 23.5801 57.0667 23.6921 57.5795 23.9161C58.0923 24.1401 58.5251 24.4495 58.8777 24.8441C59.2303 25.2281 59.4973 25.6708 59.679 26.1721C59.8715 26.6735 59.9675 27.2068 59.9675 27.7721C59.9675 27.9108 59.962 28.0548 59.9516 28.2041C59.9408 28.3535 59.9193 28.4921 59.8874 28.6201H52.9796V27.1801H58.8618L57.9963 27.8361C58.1031 27.3134 58.0656 26.8495 57.8839 26.4441C57.713 26.0281 57.446 25.7028 57.0826 25.4681C56.73 25.2228 56.3132 25.1001 55.8326 25.1001C55.3517 25.1001 54.9242 25.2228 54.5504 25.4681C54.1762 25.7028 53.8877 26.0441 53.6849 26.4921C53.4817 26.9294 53.4016 27.4628 53.4443 28.0921C53.3909 28.6788 53.471 29.1908 53.6849 29.6281C53.9092 30.0655 54.2189 30.4068 54.6145 30.6521C55.0206 30.8974 55.48 31.0201 55.9928 31.0201C56.5164 31.0201 56.9595 30.9028 57.3229 30.6681C57.6971 30.4335 57.9907 30.1295 58.2043 29.7561L59.679 30.4761C59.5081 30.8815 59.2407 31.2494 58.8777 31.5801C58.5251 31.9001 58.0975 32.1561 57.5955 32.3481C57.1038 32.5295 56.5642 32.6201 55.9769 32.6201ZM61.5747 32.4281V23.7721H63.3056V25.6441L63.0813 25.3561C63.263 24.7694 63.5941 24.3268 64.075 24.0281C64.5556 23.7295 65.1059 23.5801 65.7259 23.5801C66.4204 23.5801 67.0345 23.7668 67.5688 24.1401C68.1139 24.5028 68.4769 24.9881 68.6586 25.5961L68.1458 25.6441C68.4024 24.9508 68.7921 24.4334 69.3157 24.0921C69.85 23.7508 70.4592 23.5801 71.143 23.5801C71.7412 23.5801 72.281 23.7188 72.7616 23.9961C73.2533 24.2734 73.643 24.6575 73.9315 25.1481C74.22 25.6388 74.3643 26.1988 74.3643 26.8281V32.4281H72.5532V27.3241C72.5532 26.8868 72.4731 26.5188 72.3129 26.2201C72.1635 25.9108 71.9495 25.6761 71.6718 25.5161C71.4048 25.3454 71.0896 25.2601 70.7262 25.2601C70.3629 25.2601 70.0425 25.3454 69.7647 25.5161C69.4866 25.6761 69.2678 25.9108 69.1076 26.2201C68.9471 26.5295 68.867 26.8975 68.867 27.3241V32.4281H67.0719V27.3241C67.0719 26.8868 66.9918 26.5188 66.8316 26.2201C66.6822 25.9108 66.4682 25.6761 66.1905 25.5161C65.9235 25.3454 65.6028 25.2601 65.229 25.2601C64.8656 25.2601 64.5452 25.3454 64.2671 25.5161C63.9894 25.6761 63.7706 25.9108 63.6101 26.2201C63.4606 26.5295 63.3857 26.8975 63.3857 27.3241V32.4281H61.5747ZM76.1427 35.6279V23.7721H77.8736V25.5641L77.6652 25.1481C77.9856 24.6575 78.4132 24.2734 78.9472 23.9961C79.4815 23.7188 80.0907 23.5801 80.7745 23.5801C81.5973 23.5801 82.3345 23.7774 82.986 24.1721C83.6486 24.5668 84.1667 25.1055 84.5408 25.7881C84.9253 26.4708 85.1178 27.2388 85.1178 28.0921C85.1178 28.9454 84.9253 29.7135 84.5408 30.3961C84.1667 31.0788 83.6538 31.6228 83.0023 32.0281C82.3504 32.4228 81.6077 32.6201 80.7745 32.6201C80.1011 32.6201 79.487 32.4814 78.9312 32.2041C78.3865 31.9268 77.9641 31.5268 77.6652 31.0041L77.9537 30.6681V35.6279H76.1427ZM80.598 30.9401C81.1108 30.9401 81.5651 30.8174 81.9603 30.5721C82.3556 30.3268 82.6656 29.9908 82.89 29.5641C83.125 29.1268 83.2426 28.6361 83.2426 28.0921C83.2426 27.5481 83.125 27.0628 82.89 26.6361C82.6656 26.2094 82.3556 25.8734 81.9603 25.6281C81.5651 25.3828 81.1108 25.2601 80.598 25.2601C80.0959 25.2601 79.6417 25.3828 79.2356 25.6281C78.8404 25.8734 78.5252 26.2094 78.2901 26.6361C78.0657 27.0628 77.9537 27.5481 77.9537 28.0921C77.9537 28.6361 78.0657 29.1268 78.2901 29.5641C78.5252 29.9908 78.8404 30.3268 79.2356 30.5721C79.6417 30.8174 80.0959 30.9401 80.598 30.9401ZM86.7194 32.4281V20.3161H88.5304V32.4281H86.7194ZM93.0838 32.6201C92.4961 32.6201 91.9781 32.5188 91.5294 32.3161C91.0911 32.1028 90.7492 31.8148 90.5034 31.4521C90.2579 31.0788 90.1348 30.6415 90.1348 30.1401C90.1348 29.6708 90.2364 29.2494 90.4396 28.8761C90.6532 28.5028 90.9791 28.1881 91.417 27.9321C91.8553 27.6761 92.4056 27.4948 93.0679 27.3881L96.0811 26.8921V28.3161L93.4205 28.7801C92.9396 28.8655 92.587 29.0201 92.3626 29.2441C92.1383 29.4574 92.0263 29.7348 92.0263 30.0761C92.0263 30.4068 92.149 30.6788 92.3949 30.8921C92.6511 31.0948 92.977 31.1961 93.3723 31.1961C93.864 31.1961 94.2912 31.0895 94.6546 30.8761C95.0287 30.6628 95.3172 30.3801 95.52 30.0281C95.7232 29.6654 95.8245 29.2655 95.8245 28.8281V26.6041C95.8245 26.1775 95.6643 25.8308 95.3439 25.5641C95.0339 25.2868 94.6171 25.1481 94.0935 25.1481C93.613 25.1481 93.1906 25.2761 92.8276 25.5321C92.475 25.7774 92.2132 26.0975 92.0422 26.4921L90.5356 25.7401C90.6958 25.3135 90.9576 24.9401 91.321 24.6201C91.6844 24.2894 92.1064 24.0335 92.587 23.8521C93.0786 23.6708 93.5967 23.5801 94.1417 23.5801C94.8255 23.5801 95.4292 23.7081 95.9528 23.9641C96.4871 24.2201 96.8983 24.5774 97.1868 25.0361C97.4861 25.4841 97.6355 26.0068 97.6355 26.6041V32.4281H95.9046V30.8601L96.2732 30.9081C96.0703 31.2601 95.8085 31.5641 95.4881 31.8201C95.1782 32.0761 94.8203 32.2734 94.4143 32.4121C94.019 32.5508 93.5755 32.6201 93.0838 32.6201ZM103.187 32.5241C102.279 32.5241 101.573 32.2681 101.071 31.7561C100.569 31.2441 100.318 30.5241 100.318 29.5961V25.4041H98.7954V23.7721H99.0357C99.4417 23.7721 99.7569 23.6548 99.9812 23.4201C100.206 23.1854 100.318 22.8655 100.318 22.4601V21.7881H102.129V23.7721H104.101V25.4041H102.129V29.5161C102.129 29.8148 102.177 30.0708 102.273 30.2841C102.37 30.4868 102.524 30.6468 102.738 30.7641C102.952 30.8708 103.23 30.9241 103.571 30.9241C103.657 30.9241 103.753 30.9188 103.86 30.9081C103.967 30.8974 104.068 30.8868 104.164 30.8761V32.4281C104.015 32.4495 103.849 32.4708 103.668 32.4921C103.486 32.5135 103.326 32.5241 103.187 32.5241ZM109.686 32.6201C108.82 32.6201 108.051 32.4228 107.378 32.0281C106.716 31.6228 106.197 31.0788 105.823 30.3961C105.449 29.7028 105.262 28.9295 105.262 28.0761C105.262 27.2015 105.449 26.4281 105.823 25.7561C106.208 25.0841 106.721 24.5561 107.362 24.1721C108.003 23.7774 108.73 23.5801 109.542 23.5801C110.193 23.5801 110.776 23.6921 111.289 23.9161C111.802 24.1401 112.234 24.4495 112.587 24.8441C112.939 25.2281 113.207 25.6708 113.388 26.1721C113.58 26.6735 113.677 27.2068 113.677 27.7721C113.677 27.9108 113.671 28.0548 113.661 28.2041C113.65 28.3535 113.629 28.4921 113.597 28.6201H106.689V27.1801H112.571L111.705 27.8361C111.812 27.3134 111.775 26.8495 111.593 26.4441C111.422 26.0281 111.155 25.7028 110.792 25.4681C110.439 25.2228 110.023 25.1001 109.542 25.1001C109.061 25.1001 108.633 25.2228 108.26 25.4681C107.886 25.7028 107.597 26.0441 107.394 26.4921C107.191 26.9294 107.111 27.4628 107.154 28.0921C107.1 28.6788 107.18 29.1908 107.394 29.6281C107.619 30.0655 107.928 30.4068 108.324 30.6521C108.73 30.8974 109.189 31.0201 109.702 31.0201C110.225 31.0201 110.669 30.9028 111.032 30.6681C111.406 30.4335 111.7 30.1295 111.914 29.7561L113.388 30.4761C113.217 30.8815 112.95 31.2494 112.587 31.5801C112.234 31.9001 111.807 32.1561 111.305 32.3481C110.813 32.5295 110.274 32.6201 109.686 32.6201ZM118.489 32.6201C117.603 32.6201 116.823 32.4014 116.149 31.9641C115.487 31.5268 115.022 30.9401 114.755 30.2041L116.149 29.5481C116.385 30.0388 116.705 30.4281 117.111 30.7161C117.528 31.0041 117.987 31.1481 118.489 31.1481C118.917 31.1481 119.264 31.0521 119.531 30.8601C119.798 30.6681 119.932 30.4068 119.932 30.0761C119.932 29.8628 119.873 29.6921 119.756 29.5641C119.638 29.4255 119.489 29.3134 119.307 29.2281C119.136 29.1428 118.959 29.0788 118.778 29.0361L117.415 28.6521C116.668 28.4388 116.107 28.1188 115.733 27.6921C115.369 27.2548 115.188 26.7481 115.188 26.1721C115.188 25.6494 115.321 25.1961 115.588 24.8121C115.855 24.4174 116.224 24.1135 116.694 23.9001C117.164 23.6868 117.694 23.5801 118.281 23.5801C119.072 23.5801 119.777 23.7774 120.397 24.1721C121.016 24.5561 121.454 25.0948 121.711 25.7881L120.317 26.4441C120.146 26.0281 119.873 25.6975 119.499 25.4521C119.136 25.2068 118.724 25.0841 118.265 25.0841C117.87 25.0841 117.554 25.1801 117.319 25.3721C117.084 25.5534 116.967 25.7934 116.967 26.0921C116.967 26.2948 117.02 26.4655 117.127 26.6041C117.234 26.7321 117.373 26.8388 117.544 26.9241C117.715 26.9988 117.891 27.0628 118.073 27.1161L119.483 27.5321C120.199 27.7348 120.749 28.0548 121.134 28.4921C121.518 28.9188 121.711 29.4308 121.711 30.0281C121.711 30.5401 121.572 30.9935 121.294 31.3881C121.027 31.7721 120.653 32.0761 120.172 32.3001C119.691 32.5135 119.13 32.6201 118.489 32.6201Z" fill="#333747"/>
<path fill-rule="evenodd" clip-rule="evenodd" d="M29.1716 2.95082H7.8896C5.4409 2.95082 3.45583 4.93252 3.45583 7.37706V28.6229C3.45583 31.0675 5.4409 33.0492 7.8896 33.0492H29.1716C31.6203 33.0492 33.6054 31.0675 33.6054 28.6229V7.37706C33.6054 4.93252 31.6203 2.95082 29.1716 2.95082ZM7.8896 0C3.80843 0 0.5 3.30282 0.5 7.37706V28.6229C0.5 32.6972 3.80843 36 7.8896 36H29.1716C33.2527 36 36.5612 32.6972 36.5612 28.6229V7.37706C36.5612 3.30282 33.2527 0 29.1716 0H7.8896Z" fill="#333747"/>
<path fill-rule="evenodd" clip-rule="evenodd" d="M22.2894 11.3267C22.2201 11.2649 22.147 11.2057 22.0699 11.1491C21.4025 10.6585 20.4967 10.4132 19.3526 10.4132C18.5752 10.4132 17.9188 10.5231 17.3834 10.7427C16.848 10.9551 16.4373 11.2516 16.1512 11.6323C15.844 12.052 15.3208 12.3921 14.8683 12.1348C14.5131 11.9328 14.1851 11.6836 13.8938 11.3928C13.3504 10.8504 12.952 10.1806 12.7351 9.44478C12.6396 9.12061 12.7241 8.76635 12.9798 8.54488C13.5516 8.04954 14.22 7.63263 14.9851 7.29416C16.2759 6.72304 17.7427 6.4375 19.3856 6.4375C21.0578 6.4375 22.5173 6.72304 23.7642 7.29416C25.0183 7.86525 25.9938 8.65967 26.6905 9.6774C26.9454 10.0497 27.1551 10.4435 27.3197 10.8589C27.8078 12.0908 26.6813 13.2138 25.3543 13.2138C24.3185 13.2138 23.4893 12.4404 22.7059 11.7097C22.566 11.5792 22.4273 11.4499 22.2894 11.3267ZM15.469 13.7632C15.6656 13.6864 15.8763 13.8026 15.9862 13.9826C16.1769 14.2828 16.4373 14.5427 16.7673 14.7624C17.0973 14.9747 17.4787 15.1614 17.9114 15.3225C18.3442 15.4763 18.8062 15.6081 19.2976 15.7179L21.3218 16.2011C22.3047 16.4208 23.2068 16.7136 24.0282 17.0797C24.8496 17.4458 25.561 17.8961 26.1625 18.4306C26.7639 18.9651 27.2296 19.5948 27.5596 20.3196C27.897 21.0445 28.0693 21.8755 28.0767 22.8127C28.0693 24.1892 27.7173 25.3826 27.0206 26.3931C26.3311 27.3961 25.3337 28.1759 24.0282 28.7324C22.73 29.2815 21.1642 29.5561 19.3306 29.5561C17.5117 29.5561 15.9275 29.2778 14.578 28.7214C13.2358 28.1649 12.1871 27.3412 11.4316 26.2503C11.083 25.7385 10.8116 25.1702 10.6175 24.5454C10.2259 23.2853 11.3419 22.1757 12.6635 22.1757H12.8349C13.9771 22.1757 14.8257 23.154 15.5131 24.0647C15.9018 24.5626 16.4189 24.9397 17.0643 25.196C17.7171 25.4449 18.4542 25.5694 19.2756 25.5694C20.0824 25.5694 20.7828 25.4522 21.3769 25.2179C21.9783 24.9836 22.444 24.6578 22.774 24.2404C23.1041 23.8231 23.2691 23.3435 23.2691 22.8017C23.2691 22.2965 23.1187 21.8718 22.818 21.5277C22.5247 21.1836 22.092 20.8907 21.5199 20.6491C20.9551 20.4075 20.2621 20.1878 19.4406 19.9902L16.9873 19.3751C15.378 18.9843 14.0556 18.407 13.0201 17.6431C12.7401 17.4365 12.6368 17.0729 12.7351 16.7396C12.952 16.0037 13.3503 15.334 13.8935 14.7916C14.343 14.3429 14.8797 13.9932 15.469 13.7632ZM12.5539 10.6606L12.3383 9.92929C12.329 9.89755 12.3097 9.86965 12.2832 9.84982C12.2567 9.82995 12.2245 9.81922 12.1913 9.81922C12.1582 9.81922 12.126 9.82995 12.0994 9.84982C12.0729 9.86965 12.0536 9.89755 12.0443 9.92929L11.829 10.6606C11.6843 11.1511 11.4187 11.5975 11.0565 11.9591C10.6943 12.3206 10.247 12.5857 9.75566 12.7301L9.0231 12.9453C8.87639 12.9887 8.87639 13.196 9.0231 13.2388L9.75566 13.454C10.247 13.5984 10.6942 13.8635 11.0564 14.225C11.4185 14.5866 11.6841 15.033 11.8287 15.5235L12.0443 16.2551C12.0875 16.4012 12.2951 16.4012 12.3383 16.2551L12.5539 15.5238C12.6985 15.0333 12.9641 14.5868 13.3262 14.2252C13.6884 13.8636 14.1356 13.5984 14.627 13.454L15.3599 13.2388C15.5062 13.1957 15.5062 12.9884 15.3599 12.9456L14.6273 12.7304C14.1359 12.586 13.6886 12.3209 13.3263 11.9593C12.9641 11.5977 12.6986 11.1511 12.5539 10.6606ZM9.94065 14.9799L10.0053 15.1993C10.0487 15.3465 10.1284 15.4804 10.237 15.5889C10.3457 15.6974 10.4799 15.7769 10.6273 15.8202L10.8471 15.8848C10.891 15.8976 10.891 15.9598 10.8471 15.9728L10.6272 16.0373C10.4798 16.0807 10.3457 16.1602 10.237 16.2687C10.1284 16.3771 10.0487 16.5111 10.0053 16.6582L9.94065 16.8776C9.92768 16.9215 9.86541 16.9215 9.85244 16.8776L9.78777 16.6582C9.74436 16.511 9.66471 16.3771 9.55604 16.2687C9.44741 16.1602 9.31326 16.0807 9.16586 16.0373L8.94609 15.9728C8.90205 15.9599 8.90205 15.8977 8.94609 15.8847L9.16586 15.8201C9.31326 15.7768 9.44744 15.6973 9.55611 15.5889C9.66478 15.4804 9.74446 15.3465 9.78784 15.1993L9.85244 14.9799C9.85525 14.9704 9.86104 14.962 9.86898 14.9561C9.87695 14.9501 9.88659 14.9469 9.89655 14.9469C9.9065 14.9469 9.91617 14.9501 9.92411 14.9561C9.93205 14.962 9.93788 14.9704 9.94065 14.9799ZM9.51939 9.01167L9.41877 8.6704C9.41443 8.65558 9.40542 8.64257 9.39304 8.63329C9.38066 8.62405 9.36565 8.61903 9.35018 8.61903C9.33472 8.61903 9.31967 8.62405 9.30729 8.63329C9.29491 8.64257 9.2859 8.65558 9.28156 8.6704L9.18111 9.01167C9.1136 9.24058 8.98964 9.44893 8.8206 9.61765C8.65157 9.78637 8.44283 9.91005 8.21353 9.97741L7.87167 10.0779C7.80319 10.0981 7.80319 10.1949 7.87167 10.2148L8.21353 10.3153C8.44283 10.3827 8.6515 10.5064 8.82053 10.6751C8.98954 10.8438 9.11346 11.0521 9.18094 11.281L9.28156 11.6224C9.30171 11.6906 9.39862 11.6906 9.41877 11.6224L9.51939 11.2812C9.58687 11.0522 9.71076 10.8439 9.8798 10.6752C10.0488 10.5064 10.2575 10.3827 10.4868 10.3153L10.8288 10.2148C10.8971 10.1947 10.8971 10.098 10.8288 10.078L10.4869 9.97755C10.2576 9.91018 10.0489 9.78647 9.87987 9.61772C9.71083 9.44897 9.58687 9.24058 9.51939 9.01167Z" fill="#333747"/>
</g>
<defs>
<clipPath id="clip0_5971_19701">
<rect width="122" height="36" fill="white" transform="translate(0.199219)"/>
</clipPath>
</defs>
</svg>
