<svg width="175" height="32" viewBox="0 0 175 32" fill="none" xmlns="http://www.w3.org/2000/svg">
<path fill-rule="evenodd" clip-rule="evenodd" d="M16.1679 32C25.0045 32 32.1679 24.8366 32.1679 16C32.1679 7.16344 25.0045 0 16.1679 0C7.33139 0 0.167969 7.16344 0.167969 16C0.167969 24.8366 7.33139 32 16.1679 32ZM16.2368 8C14.9521 8 13.1742 8.73471 12.2658 9.64103L9.79845 12.1026H22.0965L26.2087 8H16.2368ZM20.0494 22.359C19.1409 23.2653 17.363 24 16.0783 24H6.10646L10.2186 19.8974H22.5167L20.0494 22.359ZM24.0463 14.1539H7.74682L6.9769 14.9231C5.15382 16.5641 5.69452 17.8462 8.24765 17.8462H24.5913L25.3615 17.0769C27.1668 15.4456 26.5994 14.1539 24.0463 14.1539Z" fill="#333747"/>
<path fill-rule="evenodd" clip-rule="evenodd" d="M41.5448 20.5377L40.1699 22.5319C41.9554 24.4004 44.3302 25.3346 47.2942 25.3346C49.4844 25.3346 51.1807 24.8316 52.3829 23.8255C53.5971 22.8074 54.2042 21.5199 54.2042 19.9628C54.2042 19.0286 54.0018 18.2201 53.5971 17.5374C53.1924 16.8547 52.6686 16.3337 52.0258 15.9744C51.3949 15.6031 50.6867 15.2916 49.901 15.0401C49.1273 14.7886 48.3476 14.579 47.562 14.4113C46.7883 14.2317 46.08 14.046 45.4372 13.8544C44.8063 13.6508 44.2885 13.3753 43.8838 13.0279C43.4791 12.6686 43.2767 12.2314 43.2767 11.7164C43.2767 10.9139 43.6338 10.2492 44.3481 9.72219C45.0623 9.18321 46.0086 8.91372 47.187 8.91372C48.306 8.91372 49.3237 9.12332 50.2403 9.54253C51.1688 9.94976 51.9068 10.4887 52.4544 11.1595L53.7221 9.25507C52.0556 7.53034 49.8772 6.66797 47.187 6.66797C45.1515 6.66797 43.5505 7.15904 42.384 8.14118C41.2174 9.11134 40.6342 10.327 40.6342 11.7883C40.6342 12.6746 40.8365 13.4411 41.2412 14.0879C41.646 14.7227 42.1697 15.2138 42.8125 15.5611C43.4553 15.9085 44.1636 16.2019 44.9373 16.4415C45.7229 16.681 46.5026 16.8906 47.2763 17.0703C48.0501 17.2499 48.7583 17.4476 49.4011 17.6632C50.0439 17.8787 50.5676 18.1842 50.9724 18.5794C51.3771 18.9747 51.5794 19.4598 51.5794 20.0347C51.5794 20.9449 51.2045 21.6816 50.4546 22.2445C49.7165 22.8074 48.6869 23.0889 47.3656 23.0889C46.211 23.0889 45.1099 22.8434 44.0624 22.3523C43.0149 21.8612 42.1757 21.2564 41.5448 20.5377ZM57.2053 7.11712V19.6574C57.2053 23.4422 59.0801 25.3346 62.8297 25.3346C64.0677 25.3346 65.2402 25.0532 66.3472 24.4902C67.4542 23.9273 68.3767 23.2266 69.1148 22.3882V24.8855H71.8645V7.11712H69.1148V20.1784C68.5791 20.933 67.8351 21.5678 66.8828 22.0828C65.9306 22.5978 64.9426 22.8553 63.9189 22.8553C62.6214 22.8553 61.6334 22.5559 60.9549 21.957C60.2764 21.3462 59.9371 20.2982 59.9371 18.813V7.11712H57.2053ZM75.8833 24.8855V7.11712H78.6152V9.95575C79.377 8.9736 80.2638 8.18909 81.2756 7.6022C82.2874 7.00333 83.3647 6.7039 84.5074 6.7039V9.54253C84.0789 9.49462 83.7277 9.47066 83.454 9.47066C82.6088 9.47066 81.6922 9.76411 80.7043 10.351C79.7163 10.9259 79.0199 11.5787 78.6152 12.3093V24.8855H75.8833ZM86.5622 11.3032C85.8242 12.7165 85.4552 14.2736 85.4552 15.9744C85.4552 18.7411 86.3003 20.9929 87.9906 22.7296C89.6809 24.4663 91.8474 25.3346 94.49 25.3346C97.2992 25.3346 99.6382 24.4124 101.507 22.5679L100.204 20.7713C99.4894 21.5019 98.6502 22.0648 97.6861 22.4601C96.7338 22.8553 95.7398 23.053 94.7042 23.053C92.8711 23.053 91.3831 22.4661 90.2404 21.2923C89.1096 20.1185 88.4906 18.6573 88.3834 16.9086H102.65V16.2079C102.65 14.4113 102.317 12.8004 101.65 11.3751C100.995 9.93778 100.019 8.79394 98.7217 7.94355C97.4242 7.09316 95.9065 6.66797 94.1686 6.66797C92.514 6.66797 91.0201 7.08718 89.6869 7.92559C88.3537 8.75202 87.3121 9.87789 86.5622 11.3032ZM99.9358 14.8425H88.3477C88.3834 14.1478 88.5322 13.4651 88.7941 12.7944C89.056 12.1117 89.4131 11.4829 89.8654 10.9079C90.3297 10.3211 90.9308 9.84795 91.6688 9.48863C92.4068 9.12931 93.2282 8.94965 94.1329 8.94965C95.097 8.94965 95.96 9.1353 96.7219 9.5066C97.4837 9.86592 98.0908 10.339 98.5431 10.9259C98.9954 11.5128 99.3347 12.1416 99.5609 12.8123C99.7989 13.4831 99.9239 14.1598 99.9358 14.8425ZM123.436 20.8979C122.171 23.1433 119.883 25.3346 115.954 25.3346C110.544 25.3346 106.373 21.5472 106.373 16.0013C106.373 10.4284 110.544 6.66797 115.954 6.66797C119.883 6.66797 122.171 8.80517 123.436 11.0776L120.152 12.7008C119.399 11.2399 117.784 10.0767 115.954 10.0767C112.67 10.0767 110.302 12.5926 110.302 16.0013C110.302 19.41 112.67 21.9259 115.954 21.9259C117.784 21.9259 119.399 20.7627 120.152 19.3018L123.436 20.8979ZM135.35 6.96555L142.267 25.01H137.934L136.803 21.953H129.106L127.976 25.01H123.643L130.559 6.96555H135.35ZM130.156 18.5714H135.754L132.955 10.8071L130.156 18.5714ZM158.484 25.01L154.421 18.1385C156.358 17.6786 158.377 15.9472 158.377 12.782C158.377 9.42739 156.062 6.96555 152.321 6.96555H143.924V25.01H147.746V18.5984H150.545L154.071 25.01H158.484ZM151.783 15.2168H147.746V10.3472H151.783C153.29 10.3472 154.447 11.267 154.447 12.7549C154.447 14.297 153.29 15.2168 151.783 15.2168ZM168.949 10.3472V25.01H165.1V10.3472H159.852V6.96555H174.17V10.3472H168.949Z" fill="#333747"/>
</svg>
