<svg width="193" height="32" viewBox="0 0 193 32" fill="none" xmlns="http://www.w3.org/2000/svg">
<g clip-path="url(#clip0_5971_20456)">
<mask id="mask0_5971_20456" style="mask-type:luminance" maskUnits="userSpaceOnUse" x="0" y="0" width="193" height="32">
<path d="M192.197 0H0.197266V32H192.197V0Z" fill="white"/>
</mask>
<g mask="url(#mask0_5971_20456)">
<path d="M32.1973 0H0.197266V32H32.1973V0Z" fill="#333747"/>
<path d="M9.33984 6.85742H23.0542V11.4289H11.6256L9.33984 13.7146V11.4289V6.85742Z" fill="white"/>
<path d="M9.33984 6.85742H23.0542V11.4289H11.6256L9.33984 13.7146V11.4289V6.85742Z" fill="white"/>
<path d="M9.33984 13.7148H20.7684V18.2862H11.6256L9.33984 20.5719V18.2862V13.7148Z" fill="white"/>
<path d="M9.33984 13.7148H20.7684V18.2862H11.6256L9.33984 20.5719V18.2862V13.7148Z" fill="white"/>
<path d="M9.33984 20.5723H16.197V25.1437H9.33984V20.5723Z" fill="white"/>
<path d="M9.33984 20.5723H16.197V25.1437H9.33984V20.5723Z" fill="white"/>
<path fill-rule="evenodd" clip-rule="evenodd" d="M42.8633 22.1369L44.1867 20.192C44.794 20.8929 45.6019 21.4827 46.6101 21.9616C47.6184 22.4405 48.6783 22.6799 49.7899 22.6799C51.0617 22.6799 52.0529 22.4055 52.7632 21.8565C53.4851 21.3075 53.8461 20.5892 53.8461 19.7014C53.8461 19.1408 53.6513 18.6677 53.2617 18.2823C52.8721 17.8968 52.3679 17.5989 51.7492 17.3887C51.1304 17.1785 50.4486 16.9857 49.7039 16.8106C48.9591 16.6353 48.2086 16.4309 47.4524 16.1973C46.7076 15.9637 46.0258 15.6775 45.4071 15.3388C44.7883 15 44.2841 14.5211 43.8945 13.9021C43.5049 13.2713 43.3102 12.5238 43.3102 11.6594C43.3102 10.2343 43.8716 9.04885 44.9946 8.10273C46.1175 7.14492 47.6586 6.66602 49.618 6.66602C52.2075 6.66602 54.3044 7.50702 55.9085 9.18901L54.6883 11.0462C54.1611 10.3921 53.4507 9.86649 52.557 9.46934C51.6747 9.06053 50.695 8.85612 49.618 8.85612C48.4836 8.85612 47.5726 9.11893 46.8851 9.64455C46.1977 10.1585 45.8539 10.8067 45.8539 11.5893C45.8539 12.0916 46.0487 12.5179 46.4383 12.8684C46.8278 13.2071 47.3263 13.4757 47.9336 13.6743C48.5523 13.8612 49.2341 14.0422 49.9789 14.2175C50.7351 14.381 51.4856 14.5854 52.2304 14.8307C52.9867 15.076 53.6684 15.3796 54.2757 15.7418C54.8945 16.0921 55.3987 16.6003 55.7882 17.2661C56.1778 17.9318 56.3726 18.7203 56.3726 19.6314C56.3726 21.1498 55.7882 22.4055 54.6195 23.3983C53.4622 24.3795 51.8294 24.8701 49.7211 24.8701C46.868 24.8701 44.5821 23.959 42.8633 22.1369ZM59.2614 19.3335V7.10404H61.8912V18.51C61.8912 19.9584 62.2177 20.9805 62.8708 21.5761C63.524 22.1602 64.475 22.4522 65.7239 22.4522C66.7094 22.4522 67.6604 22.201 68.577 21.6988C69.4936 21.1965 70.2098 20.5775 70.7254 19.8416V7.10404H73.3723V24.4321H70.7254V21.9967C70.015 22.8143 69.127 23.4976 68.0614 24.0466C66.9958 24.5955 65.8672 24.8701 64.6754 24.8701C61.0661 24.8701 59.2614 23.0245 59.2614 19.3335ZM77.2408 24.4321H79.8705V12.1675C80.2601 11.455 80.9304 10.8184 81.8815 10.2578C82.8325 9.68543 83.7148 9.39926 84.5283 9.39926C84.7918 9.39926 85.1299 9.42262 85.5423 9.46934V6.70107C84.4424 6.70107 83.4054 6.99308 82.4315 7.5771C81.4574 8.14945 80.6039 8.91452 79.8705 9.87233V7.10404H77.2408V24.4321ZM86.4546 15.7418C86.4546 14.0831 86.8098 12.5647 87.5203 11.1864C88.2422 9.7964 89.2448 8.69843 90.5281 7.89248C91.8114 7.07484 93.2494 6.66602 94.8421 6.66602C96.515 6.66602 97.9759 7.08068 99.2249 7.91C100.474 8.73931 101.414 9.8548 102.044 11.2564C102.685 12.6464 103.006 14.2174 103.006 15.9695V16.6528H89.2734C89.3765 18.3582 89.9723 19.7832 91.0609 20.9279C92.1609 22.0726 93.5931 22.6449 95.3577 22.6449C96.3546 22.6449 97.3114 22.4522 98.228 22.0667C99.1562 21.6813 99.9639 21.1324 100.652 20.4198L101.906 22.1719C100.107 23.9706 97.8557 24.8701 95.1515 24.8701C92.6077 24.8701 90.5224 24.0232 88.8953 22.3296C87.2682 20.6359 86.4546 18.44 86.4546 15.7418ZM89.239 14.638H100.394C100.383 13.9722 100.262 13.3122 100.033 12.6581C99.815 12.004 99.4885 11.3907 99.0531 10.8184C98.6176 10.2461 98.0332 9.78472 97.2999 9.43431C96.5666 9.07221 95.7358 8.89116 94.8077 8.89116C93.9369 8.89116 93.1463 9.06636 92.4359 9.41678C91.7255 9.76719 91.1468 10.2286 90.6999 10.8009C90.2645 11.3616 89.9208 11.9748 89.6687 12.6405C89.4166 13.2947 89.2734 13.9605 89.239 14.638Z" fill="#333747"/>
<path d="M109.368 25.0169H105.689V7.42383H117.918V10.7209H109.368V14.4136H117.736V17.7107H109.368V25.0169Z" fill="#333747"/>
<path d="M128.704 25.3346C123.471 25.3346 119.662 21.5363 119.662 16.2347C119.662 10.933 123.471 7.13477 128.704 7.13477C133.911 7.13477 137.72 10.933 137.72 16.2347C137.72 21.5363 133.911 25.3346 128.704 25.3346ZM128.704 22.0111C131.891 22.0111 133.937 19.5054 133.937 16.2347C133.937 12.9376 131.891 10.4582 128.704 10.4582C125.491 10.4582 123.445 12.9376 123.445 16.2347C123.445 19.5054 125.491 22.0111 128.704 22.0111Z" fill="#333747"/>
<path d="M154.319 25.0169H150.07L146.676 18.7657H143.982V25.0169H140.303V7.42383H148.386C151.987 7.42383 154.215 9.8241 154.215 13.0948C154.215 16.1808 152.272 17.8689 150.407 18.3173L154.319 25.0169ZM147.868 15.4686C149.319 15.4686 150.433 14.5718 150.433 13.0684C150.433 11.6177 149.319 10.7209 147.868 10.7209H143.982V15.4686H147.868Z" fill="#333747"/>
<path d="M175.682 25.0169H171.977V12.3298L167.107 25.0169H165.5L160.63 12.3298V25.0169H156.951V7.42383H162.106L166.303 18.4228L170.501 7.42383H175.682V25.0169Z" fill="#333747"/>
<path d="M185.28 25.3336C181.938 25.3336 179.555 24.1994 177.922 22.5376L179.943 19.6099C181.161 20.9023 183.052 22.0101 185.436 22.0101C187.483 22.0101 188.441 21.0869 188.441 20.0583C188.441 16.9986 178.492 19.1351 178.492 12.5146C178.492 9.5868 180.98 7.16016 185.047 7.16016C187.793 7.16016 190.073 8.00421 191.783 9.61317L189.737 12.4091C188.338 11.0902 186.472 10.4836 184.71 10.4836C183.156 10.4836 182.275 11.1694 182.275 12.2244C182.275 14.994 192.198 13.1212 192.198 19.689C192.198 22.9069 189.918 25.3336 185.28 25.3336Z" fill="#333747"/>
</g>
</g>
<defs>
<clipPath id="clip0_5971_20456">
<rect width="192" height="32" fill="white" transform="translate(0.197266)"/>
</clipPath>
</defs>
</svg>
