<svg xmlns="http://www.w3.org/2000/svg" fill="currentColor" viewBox="0 0 24 24"><path fill-rule="evenodd" d="M3 20V4a3 3 0 0 1 3-3h7.756a2 2 0 0 1 1.425.596l5.243 5.32A2 2 0 0 1 21 8.32V20a3 3 0 0 1-3 3H6a3 3 0 0 1-3-3ZM15 6V3l4 4h-3a1 1 0 0 1-1-1Zm-8.874 8.152v1.744c0 .037.024.061.072.072.181.021.325.032.432.032.384 0 .68-.088.888-.264.213-.181.32-.432.32-.752 0-.635-.403-.952-1.208-.952-.133 0-.28.013-.44.04-.043.01-.064.037-.064.08Zm-.88 4.768a.438.438 0 0 1-.32-.136.438.438 0 0 1-.136-.32v-4.888a.52.52 0 0 1 .128-.344.454.454 0 0 1 .32-.168A14 14 0 0 1 6.55 13c1.707 0 2.56.635 2.56 1.904 0 .688-.2 1.21-.6 1.568-.395.352-.976.528-1.744.528-.203 0-.392-.008-.568-.024-.048 0-.072.021-.072.064v1.424c0 .123-.045.23-.136.32a.438.438 0 0 1-.32.136h-.424Zm6.016-1.104c0 .048.021.077.064.088.107.021.235.032.384.032 1.13 0 1.696-.672 1.696-2.016 0-1.237-.565-1.856-1.696-1.856-.15 0-.277.01-.384.032-.043.01-.064.04-.064.088v3.632Zm-.88 1.12a.495.495 0 0 1-.328-.16.53.53 0 0 1-.128-.352v-4.848a.5.5 0 0 1 .128-.344c.09-.101.2-.157.328-.168A11.9 11.9 0 0 1 11.606 13c.981 0 1.741.259 2.28.776.544.512.816 1.227.816 2.144 0 .981-.272 1.741-.816 2.28-.539.533-1.299.8-2.28.8-.4 0-.808-.021-1.224-.064Zm5.312-.152c.09.09.197.136.32.136h.456a.412.412 0 0 0 .312-.136.438.438 0 0 0 .136-.32V16.6c0-.048.024-.072.072-.072h1.608a.452.452 0 0 0 .456-.448v-.128a.412.412 0 0 0-.136-.312.438.438 0 0 0-.32-.136H16.99c-.048 0-.072-.024-.072-.072V14.24c0-.043.024-.064.072-.064h1.768c.123 0 .23-.045.32-.136a.438.438 0 0 0 .136-.32v-.184a.438.438 0 0 0-.136-.32.438.438 0 0 0-.32-.136h-2.744a.438.438 0 0 0-.32.136.438.438 0 0 0-.136.32v4.928c0 .123.045.23.136.32Z" clip-rule="evenodd"></path></svg>
