<svg xmlns="http://www.w3.org/2000/svg" fill="currentColor" viewBox="0 0 24 24" class="w-32 h-32"><path fill-rule="evenodd" d="M2 5a3 3 0 0 1 3-3h14a3 3 0 0 1 3 3v11a2.983 2.983 0 0 1-.436 1.558A2.998 2.998 0 0 1 19 19h-2.248a1 1 0 0 0-.659.247l-3.434 3.006a1 1 0 0 1-1.318 0l-3.434-3.006A1 1 0 0 0 7.249 19H5a3 3 0 0 1-3-3V5Zm8.895 4.447c.231-.463.614-.78 1.105-.78.287 0 .541.097.71.247.152.134.29.357.29.753 0 .136-.115.375-.555.668a3.696 3.696 0 0 1-.757.382l-.007.002a1 1 0 0 0 .635 1.896h.003l.003-.002.01-.003.026-.009a4.91 4.91 0 0 0 .36-.145c.223-.1.526-.25.837-.457.56-.374 1.445-1.135 1.445-2.332 0-.938-.361-1.715-.96-2.248A3.07 3.07 0 0 0 12 6.667c-1.51 0-2.459 1.015-2.894 1.886a1 1 0 0 0 1.789.894ZM12 16a1 1 0 1 0 0-2 1 1 0 0 0 0 2Z" clip-rule="evenodd"></path></svg>
