<svg xmlns="http://www.w3.org/2000/svg" fill="currentColor" viewBox="0 0 24 24">
  <path fill-rule="evenodd"
    d="M6.129 8.992a1 1 0 0 0 .851-.795l.006-.026.032-.124a6.573 6.573 0 0 1 .926-1.974C8.68 5.024 9.9 4 12 4s3.321 1.024 4.056 2.073a6.57 6.57 0 0 1 .958 2.098l.006.026V8.2a1 1 0 0 0 .852.792l.017.002c.017.003.048.008.09.017a4.556 4.556 0 0 1 1.49.587c.77.48 1.531 1.313 1.531 2.902 0 1.709-.617 2.376-1.055 2.668a2.066 2.066 0 0 1-.956.332h-.001a1 1 0 0 0 .012 2h.03l.048-.002.146-.01a4.067 4.067 0 0 0 1.831-.656C22.117 16.124 23 14.792 23 12.5c0-2.411-1.239-3.829-2.47-4.598a6.554 6.554 0 0 0-1.73-.75 8.573 8.573 0 0 0-1.106-2.225C16.68 3.476 14.9 2 12 2S7.321 3.476 6.306 4.927A8.571 8.571 0 0 0 5.199 7.15a6.708 6.708 0 0 0-1.729.751C2.239 8.672 1 10.089 1 12.5c0 2.291.883 3.624 1.945 4.332a4.068 4.068 0 0 0 1.831.656 2.814 2.814 0 0 0 .194.012H5a1 1 0 0 0 .012-2h-.001a1.83 1.83 0 0 1-.263-.039 2.066 2.066 0 0 1-.693-.293C3.617 14.876 3 14.208 3 12.5c0-1.589.761-2.421 1.53-2.902a4.555 4.555 0 0 1 1.581-.604l.018-.002Zm2.164 5.3a1 1 0 1 0 1.414 1.415L11 14.414V21a1 1 0 1 0 2 0v-6.586l1.293 1.293a1 1 0 0 0 1.414-1.414l-3-3a1 1 0 0 0-1.414 0l-3 3Z"
    clip-rule="evenodd"></path>
</svg>
