<svg width="159" height="36" viewBox="0 0 159 36" fill="none" xmlns="http://www.w3.org/2000/svg">
<path fill-rule="evenodd" clip-rule="evenodd" d="M36.1992 18C36.1992 27.9411 28.1403 36 18.1992 36C8.25809 36 0.199219 27.9411 0.199219 18C0.199219 8.05888 8.25809 0 18.1992 0C28.1403 0 36.1992 8.05888 36.1992 18ZM13.8279 19.0284C10.5879 18.2056 9.91935 13.7313 12.7479 12.0856L22.7765 6.1713L22.2108 11.5199L17.0679 14.5542C16.6565 14.8113 16.7079 15.4285 17.1708 15.5313L22.5194 16.9713C25.7594 17.7942 26.4279 22.2684 23.5994 23.9142L13.5708 29.8284L14.1365 24.4799L19.2794 21.4456C19.6908 21.1885 19.6394 20.5713 19.1765 20.4684L13.8279 19.0284Z" fill="#333747"/>
<path d="M50.2327 26.6933C48.5287 26.6933 47.0313 26.4362 45.7404 25.8704C44.3979 25.3047 43.3652 24.5333 42.5391 23.5562L45.5339 21.0362C46.2052 21.8076 47.0313 22.3219 47.9091 22.6819C48.7869 22.9905 49.6647 23.1447 50.5941 23.1447C51.317 23.1447 51.885 22.9905 52.3497 22.6819C52.8144 22.3733 53.021 21.9104 53.021 21.3447C53.021 20.8304 52.8144 20.419 52.4014 20.1619C51.9883 19.9047 51.0072 19.5447 49.4065 19.1333C47.0829 18.5162 45.4306 17.7447 44.4496 16.7162C43.5718 15.7904 43.1587 14.659 43.1587 13.3219C43.1587 12.2419 43.4685 11.3162 44.1397 10.4933C44.811 9.67045 45.6372 9.00188 46.7215 8.59046C47.8058 8.17903 48.9418 7.92188 50.181 7.92188C51.6268 7.92188 52.9693 8.17902 54.2602 8.6933C55.5511 9.20759 56.5838 9.87616 57.4616 10.7504L54.8798 13.5276C54.2086 12.9104 53.4857 12.4476 52.6079 12.0362C51.7817 11.6247 51.0072 11.419 50.2843 11.419C48.632 11.419 47.8058 11.9847 47.8058 13.1162C47.8058 13.6819 48.064 14.0933 48.5804 14.4019C49.0451 14.7104 50.0778 15.1219 51.7301 15.5333C53.9504 16.099 55.4478 16.8705 56.3773 17.7962C57.1518 18.619 57.5649 19.6476 57.5649 20.9847C57.5649 22.0647 57.2551 23.0933 56.5838 23.9162C55.9642 24.7904 55.0864 25.459 54.002 25.9733C52.8144 26.4876 51.5752 26.6933 50.2327 26.6933Z" fill="#333747"/>
<path d="M89.1134 26.6926C87.1513 26.6926 85.4473 26.2812 83.9499 25.5098C82.4525 24.6869 81.3165 23.6069 80.4903 22.2184C79.6642 20.8298 79.3027 19.2355 79.3027 17.3841C79.3027 15.4812 79.7158 13.8355 80.4903 12.4469C81.3165 11.0069 82.4008 9.8755 83.795 9.05264C85.1891 8.22978 86.8415 7.81836 88.6487 7.81836C90.301 7.81836 91.7468 8.22978 93.0377 9.00121C94.3802 9.77264 95.3612 10.8526 96.0841 12.1898C96.807 13.5269 97.1685 15.0698 97.1168 16.8184L97.0652 18.3098H83.8983C84.1564 19.5955 84.776 20.6241 85.7571 21.3955C86.7898 22.1669 88.0807 22.5269 89.5781 22.5269C90.4043 22.5269 91.1788 22.4241 91.8501 22.1669C92.5213 21.9098 93.2958 21.4469 94.0704 20.8298L96.3423 23.9669C95.3612 24.8412 94.2253 25.5098 92.9344 25.9726C91.6951 26.4869 90.4043 26.6926 89.1134 26.6926ZM88.6487 11.8812C86.0153 11.8812 84.4662 13.0641 83.9499 15.3784H92.6246V15.2241C92.5729 14.2469 92.1599 13.4241 91.3853 12.8069C90.6108 12.1898 89.733 11.8812 88.6487 11.8812Z" fill="#333747"/>
<path d="M108.01 26.694C106.255 26.694 104.706 26.2825 103.312 25.4597C101.969 24.6368 100.885 23.5054 100.059 22.1168C99.2842 20.6768 98.8711 19.0825 98.8711 17.2825C98.8711 15.4825 99.2842 13.8882 100.059 12.4482C100.885 11.0082 101.969 9.92825 103.312 9.10539C104.706 8.28253 106.255 7.87109 108.01 7.87109C109.663 7.87109 111.16 8.17967 112.503 8.74539C113.845 9.36253 114.93 10.1854 115.704 11.2654L113.122 14.3511C112.658 13.6825 111.986 13.1168 111.109 12.654C110.231 12.1911 109.405 11.934 108.527 11.934C107.546 11.934 106.668 12.1911 105.945 12.654C105.222 13.1168 104.603 13.734 104.19 14.5568C103.776 15.3797 103.57 16.254 103.57 17.2825C103.57 18.3111 103.776 19.1854 104.241 20.0082C104.654 20.8311 105.274 21.4482 106.048 21.9111C106.823 22.374 107.649 22.5797 108.63 22.5797C109.508 22.5797 110.386 22.374 111.109 22.014C111.883 21.6025 112.554 21.0368 113.174 20.3168L115.756 23.4025C114.981 24.4311 113.897 25.2025 112.503 25.8197C111.005 26.3854 109.56 26.694 108.01 26.694Z" fill="#333747"/>
<path d="M122.057 26.3844C119.785 26.3844 117.926 24.533 117.926 22.2701V12.4473V8.23013V5.65871L122.625 3.60156V8.23013H126.187V12.4473H122.625V21.0873C122.625 21.653 123.089 22.1158 123.657 22.1158H126.187V26.3844H122.057Z" fill="#333747"/>
<path d="M128.406 26.3841V8.22978H132.485L133.053 11.2126C133.673 10.2355 134.448 9.41264 135.429 8.7955C136.41 8.17836 137.442 7.81836 138.527 7.81836C138.94 7.81836 139.301 7.86978 139.663 7.92121C140.024 7.97264 140.334 8.02406 140.592 8.12692L139.301 13.2698C139.043 13.1155 138.733 13.0126 138.32 12.9098C137.907 12.8069 137.546 12.7555 137.133 12.7555C135.997 12.7555 135.067 13.1669 134.241 13.9384C133.466 14.7098 133.105 15.6355 133.105 16.8184V26.2812H128.406V26.3841Z" fill="#333747"/>
<path d="M59.8359 32.4012V8.28123H64.1733L64.7413 10.2869C66.187 8.84694 67.891 7.97266 69.9564 7.97266C71.1956 7.97266 72.28 8.2298 73.2094 8.74408C74.1388 9.25837 74.9134 9.92694 75.533 10.8012C76.1526 11.6755 76.6173 12.6012 76.9271 13.6812C77.2369 14.7612 77.3919 15.8412 77.3919 16.9727C77.3919 18.1041 77.2369 19.1841 76.9271 20.2641C76.6173 21.3441 76.1526 22.3212 75.533 23.1955C74.9134 24.0698 74.1388 24.7384 73.2094 25.2527C72.28 25.7669 71.1956 26.0241 69.9564 26.0241C68.3557 26.0241 65.774 25.4584 64.7413 24.1212V30.2927L59.8359 32.4012ZM64.5864 16.9727C64.5864 17.7955 64.7413 18.5669 64.9994 19.3384C65.3093 20.1098 65.7223 20.7269 66.2903 21.2412C66.9099 21.7041 67.6328 21.9612 68.5106 21.9612C69.3884 21.9612 70.1113 21.7041 70.6793 21.2412C71.2989 20.7269 71.712 20.1098 71.9702 19.3384C72.28 18.5669 72.4349 17.7955 72.4349 16.9727C72.4349 16.1498 72.28 15.3784 71.9702 14.6069C71.712 13.8355 71.2473 13.2184 70.6793 12.7555C70.1113 12.2412 69.3884 11.9841 68.5106 11.9841C67.6328 11.9841 66.9099 12.2412 66.2903 12.7555C65.7223 13.2184 65.2576 13.8869 64.9994 14.6069C64.7413 15.3784 64.5864 16.2012 64.5864 16.9727Z" fill="#333747"/>
<path d="M153.293 24.4311C151.951 25.7682 150.247 26.5397 148.388 26.5397C144.102 26.5397 140.643 22.3225 140.643 17.1282C140.643 11.9339 144.102 7.7168 148.388 7.7168C150.247 7.7168 151.951 8.48823 153.293 9.82537V8.23108H158.198V26.3339H153.81L153.293 24.4311ZM153.293 15.2254C152.674 13.1682 151.073 11.6768 149.162 11.6768C146.736 11.6768 144.773 14.0939 144.773 17.0768C144.773 20.0597 146.736 22.4768 149.162 22.4768C151.073 22.4768 152.674 20.9854 153.293 18.9282C153.448 18.3625 153.551 17.7454 153.551 17.0768C153.551 16.4597 153.448 15.8939 153.345 15.3282C153.293 15.2768 153.293 15.2768 153.293 15.2254Z" fill="#333747"/>
</svg>
