<svg width="244" height="32" viewBox="0 0 244 32" fill="none" xmlns="http://www.w3.org/2000/svg">
<g clip-path="url(#clip0_6080_22991)">
<path d="M0.697266 6.30071C0.697266 4.0542 2.51905 2.23242 4.76555 2.23242H29.1753C31.4226 2.23242 33.2436 4.0542 33.2436 6.30071V22.5739C33.2436 24.8212 31.4226 26.6422 29.1753 26.6422H8.93228L3.30992 30.9203C2.23833 31.7357 0.697266 30.9716 0.697266 29.625V16.7196V16.7147V6.30071ZM10.2871 12.8067C9.89243 11.9996 8.91762 11.6643 8.1105 12.059C7.30254 12.4536 6.96813 13.4283 7.36275 14.2355C9.09749 17.7855 12.7459 20.2362 16.9704 20.2362C21.1949 20.2362 24.8433 17.7855 26.5781 14.2355C26.9727 13.4275 26.6383 12.4536 25.8304 12.059C25.0232 11.6643 24.0484 11.9996 23.6538 12.8067C22.4439 15.2819 19.9045 16.9816 16.9704 16.9816C14.0364 16.9816 11.497 15.2827 10.2871 12.8067Z" fill="#333747"/>
<path d="M41.3828 21.8299L42.8532 19.7939C44.0596 21.1889 46.3596 22.3954 48.8479 22.3954C51.6379 22.3954 53.146 21.1513 53.146 19.3792C53.146 17.381 50.9216 16.74 48.4709 16.1368C45.3792 15.4204 41.8729 14.591 41.8729 10.8208C41.8729 7.993 44.3236 5.58008 48.6594 5.58008C51.751 5.58008 53.9378 6.74885 55.4081 8.21924L54.0885 10.1798C52.9952 8.8602 50.9969 7.87996 48.6594 7.87996C46.171 7.87996 44.6252 9.01098 44.6252 10.6322C44.6252 12.4042 46.6988 12.9697 49.0741 13.5353C52.2412 14.2517 55.8982 15.1565 55.8982 19.1907C55.8982 22.2446 53.4476 24.6953 48.7348 24.6953C45.7563 24.6953 43.2302 23.7904 41.3828 21.8299ZM71.0865 24.2428V21.679C69.6915 23.2626 67.3163 24.6953 64.6016 24.6953C60.7937 24.6953 58.7955 22.8479 58.7955 18.8891V6.03251H61.6232V18.022C61.6232 21.2266 63.2444 22.1692 65.6951 22.1692C67.9195 22.1692 70.0308 20.8873 71.0865 19.4169V6.03251H73.9142V24.2428H71.0865ZM77.8644 24.2428V6.03251H80.6923V8.97332C82.1628 7.05048 84.274 5.65548 86.7626 5.65548V8.55859C86.4233 8.4832 86.0839 8.44547 85.6314 8.44547C83.8975 8.44547 81.522 9.87818 80.6923 11.3485V24.2428H77.8644ZM87.5574 15.1188C87.5574 9.84045 91.3274 5.58008 96.5308 5.58008C102.035 5.58008 105.277 9.87818 105.277 15.345V16.0614H90.5356C90.7619 19.4923 93.1753 22.3577 97.0956 22.3577C99.1697 22.3577 101.281 21.5283 102.713 20.0578L104.071 21.9053C102.261 23.715 99.8104 24.6953 96.8322 24.6953C91.4406 24.6953 87.5574 20.8119 87.5574 15.1188ZM96.4928 7.91762C92.6097 7.91762 90.6867 11.1978 90.5356 13.9877H102.487C102.45 11.2732 100.64 7.91762 96.4928 7.91762Z" fill="#333747"/>
<path d="M113.024 24.5575H109.252V6.83908H121.791V10.1596H113.024V13.9052H121.605V17.2257H113.024V24.5575ZM136.966 24.5575H124.428V6.83908H136.966V10.1596H128.2V13.9052H136.781V17.2257H128.2V21.237H136.966V24.5575ZM152.453 24.5575H139.915V6.83908H152.453V10.1596H143.688V13.9052H152.268V17.2257H143.688V21.237H152.453V24.5575ZM162.389 24.5575H155.403V6.83908H162.389C165.169 6.83908 167.427 7.65373 169.163 9.28297C170.916 10.9123 171.793 13.0552 171.793 15.7116C171.793 18.3681 170.925 20.5109 169.189 22.1402C167.454 23.7517 165.187 24.5575 162.389 24.5575ZM162.389 21.237C164.089 21.237 165.435 20.7057 166.427 19.6432C167.436 18.5805 167.941 17.27 167.941 15.7116C167.941 14.0823 167.454 12.7541 166.48 11.727C165.506 10.682 164.142 10.1596 162.389 10.1596H159.175V21.237H162.389ZM184.086 24.5575H174.469V6.83908H183.794C185.405 6.83908 186.654 7.28183 187.54 8.16729C188.443 9.03508 188.894 10.0976 188.894 11.355C188.894 12.4353 188.602 13.3385 188.017 14.0646C187.433 14.7907 186.707 15.2423 185.839 15.4194C186.795 15.5611 187.601 16.0481 188.257 16.8804C188.912 17.7128 189.239 18.6779 189.239 19.7759C189.239 21.1573 188.788 22.2996 187.885 23.2027C186.981 24.106 185.716 24.5575 184.086 24.5575ZM182.97 13.9318C183.608 13.9318 184.113 13.7547 184.485 13.4005C184.857 13.0463 185.042 12.5858 185.042 12.0191C185.042 11.4524 184.848 10.992 184.458 10.6378C184.086 10.2659 183.59 10.0799 182.97 10.0799H178.242V13.9318H182.97ZM183.103 21.2901C183.812 21.2901 184.369 21.113 184.776 20.7588C185.184 20.3869 185.388 19.8822 185.388 19.2446C185.388 18.6602 185.184 18.1732 184.776 17.7836C184.369 17.3763 183.812 17.1726 183.103 17.1726H178.242V21.2901H183.103ZM208.607 24.5575H204.304L203.215 21.5558H195.618L194.501 24.5575H190.199L197.052 6.83908H201.78L208.607 24.5575ZM202.178 18.2352L199.416 10.6112L196.654 18.2352H202.178ZM217.916 24.8763C215.224 24.8763 212.975 24.0263 211.168 22.3261C209.38 20.6083 208.485 18.4034 208.485 15.7116C208.485 13.0198 209.38 10.8237 211.168 9.12364C212.975 7.40579 215.224 6.54688 217.916 6.54688C221.227 6.54688 223.698 7.99017 225.327 10.8769L222.086 12.4708C221.697 11.727 221.121 11.116 220.36 10.6378C219.616 10.1419 218.801 9.89402 217.916 9.89402C216.305 9.89402 214.976 10.443 213.931 11.541C212.887 12.639 212.364 14.0292 212.364 15.7116C212.364 17.394 212.887 18.7842 213.931 19.8822C214.976 20.9802 216.305 21.5292 217.916 21.5292C218.801 21.5292 219.616 21.2901 220.36 20.812C221.121 20.3338 221.697 19.7139 222.086 18.9525L225.327 20.5197C223.645 23.4241 221.175 24.8763 217.916 24.8763ZM242.741 24.5575H238.092L232.726 17.4649L231.345 19.1118V24.5575H227.572V6.83908H231.345V14.7553L237.614 6.83908H242.263L235.223 15.1537L242.741 24.5575Z" fill="#333747"/>
</g>
<defs>
<clipPath id="clip0_6080_22991">
<rect width="242.605" height="32" fill="white" transform="translate(0.697266)"/>
</clipPath>
</defs>
</svg>
