<svg width="188" height="36" viewBox="0 0 188 36" fill="none" xmlns="http://www.w3.org/2000/svg">
<path d="M31.5408 7.44885L19.3858 0.547466C18.0352 -0.182488 16.4145 -0.182488 15.064 0.547466L2.90894 7.44885C1.55838 8.1788 0.748047 9.63871 0.748047 11.0986V24.9014C0.748047 26.4277 1.55838 27.8212 2.90894 28.5512L15.064 35.4525C16.4145 36.1825 18.0352 36.1825 19.3858 35.4525L31.5408 28.5512C32.8914 27.7548 33.7017 26.3613 33.7017 24.9014V11.0986C33.7017 9.57235 32.8238 8.1788 31.5408 7.44885ZM17.3599 31.9355L5.27242 24.6359V11.165L17.1573 4.39631L29.4474 11.165L25.2607 14.0184L17.2249 9.50599L9.86432 13.9521V22.1806L17.5625 26.8258L25.1256 22.5124L29.8526 25.1005L17.3599 31.9355Z" fill="#333747"/>
<path d="M67.7399 11.3438L62.8541 25.5806H61.2256L57.0184 13.4726L52.8112 25.5806H51.1826L46.2969 11.3438H47.9255L52.1326 23.5848L56.4755 11.3438H57.8327L62.0398 23.5848L66.247 11.3438H67.7399Z" fill="#333747"/>
<path d="M80.4981 12.6743C81.5838 13.6057 82.1266 14.6701 82.1266 16.2668C82.1266 17.7304 81.5838 18.9279 80.4981 19.8593C79.4123 20.6576 78.0552 21.1898 76.1552 21.1898H72.2194V25.7137H70.7266V11.3438H76.1552C78.0552 11.3438 79.548 11.7429 80.4981 12.6743ZM79.4123 18.7948C80.2266 18.1296 80.4981 17.3312 80.4981 16.1337C80.4981 14.9362 80.0909 14.1379 79.4123 13.4726C78.598 12.8074 77.5123 12.5412 76.1552 12.5412H72.3551V19.5932H76.1552C77.648 19.7262 78.7338 19.4601 79.4123 18.7948Z" fill="#333747"/>
<path d="M88.7756 24.7808C87.5542 24.1156 86.6041 23.3172 85.9256 22.1197C85.247 21.0553 84.8398 19.7247 84.8398 18.3942C84.8398 16.9306 85.247 15.7331 85.9256 14.6687C86.6041 13.6042 87.5542 12.6728 88.7756 12.0076C89.997 11.3423 91.3542 11.0762 92.847 11.0762C94.0685 11.0762 95.2899 11.3423 96.2399 11.7414C97.1899 12.1406 98.1399 12.8059 98.8185 13.6042L96.6471 15.6C95.6971 14.5356 94.4756 14.0034 92.9828 14.0034C92.0328 14.0034 91.3542 14.1364 90.5399 14.5356C89.8613 14.9348 89.3184 15.467 88.9113 16.1323C88.5042 16.7975 88.3684 17.5959 88.3684 18.5272C88.3684 19.4586 88.5042 20.257 88.9113 20.9222C89.3184 21.5875 89.8613 22.1197 90.5399 22.5189C91.2185 22.9181 92.0328 23.0511 92.9828 23.0511C94.4756 23.0511 95.6971 22.5189 96.6471 21.3214L98.8185 23.3172C98.1399 24.1156 97.3256 24.7808 96.2399 25.18C95.1542 25.5792 94.0685 25.8453 92.847 25.8453C91.3542 25.7122 89.997 25.4461 88.7756 24.7808Z" fill="#333747"/>
<path d="M110.49 25.5787L107.64 21.587H107.505H104.655V25.5787H101.262V11.3418H107.505C108.726 11.3418 109.947 11.6079 110.898 12.0071C111.848 12.4062 112.526 13.0715 113.069 13.7368C113.612 14.5351 113.883 15.4665 113.883 16.5309C113.883 17.5954 113.612 18.5268 113.069 19.3251C112.526 20.1234 111.848 20.6556 110.898 21.0548L114.155 25.5787H110.49ZM109.676 14.6682C109.133 14.269 108.319 14.0029 107.369 14.0029H104.655V18.9259H107.369C108.319 18.9259 109.133 18.6598 109.676 18.2607C110.219 17.8615 110.49 17.1962 110.49 16.3979C110.49 15.7326 110.219 15.0673 109.676 14.6682Z" fill="#333747"/>
<path d="M126.232 22.5184H119.446L118.225 25.5787H114.832L121.346 11.3418H124.604L131.118 25.5787H127.589L126.232 22.5184ZM125.146 19.9904L122.839 14.5351L120.532 19.9904H125.146Z" fill="#333747"/>
<path d="M136.141 14.0029V17.7284H142.791V20.3895H136.141V25.5787H132.748V11.3418H143.741V14.0029H136.141Z" fill="#333747"/>
<path d="M149.304 14.0029H144.689V11.3418H157.311V14.0029H152.697V25.5787H149.304V14.0029Z" fill="#333747"/>
<path d="M170.612 22.9176V25.5787H159.348V11.3418H170.341V14.0029H162.741V17.0632H169.526V19.5912H162.741V22.9176H170.612Z" fill="#333747"/>
<path d="M182.69 25.5787L179.84 21.587H179.704H176.854V25.5787H173.461V11.3418H179.704C180.925 11.3418 182.147 11.6079 183.097 12.0071C184.047 12.4062 184.725 13.0715 185.268 13.7368C185.811 14.5351 186.082 15.4665 186.082 16.5309C186.082 17.5954 185.811 18.5268 185.268 19.3251C184.725 20.1234 184.047 20.6556 183.097 21.0548L186.354 25.5787H182.69ZM181.875 14.6682C181.332 14.269 180.518 14.0029 179.568 14.0029H176.854V18.9259H179.568C180.518 18.9259 181.332 18.6598 181.875 18.2607C182.418 17.8615 182.69 17.1962 182.69 16.3979C182.69 15.7326 182.418 15.0673 181.875 14.6682Z" fill="#333747"/>
</svg>
