<svg width="101" height="32" viewBox="0 0 101 32" fill="none" xmlns="http://www.w3.org/2000/svg">
<path d="M8.77344 7.6181H1.76812V1.43945H19.026L9.97748 22.2026H17.749V28.2016H0.199219L8.77344 7.65402V7.6181Z" fill="#333747"/>
<path d="M27.5994 1.36914V28.2031H20.959V1.36914H27.5994Z" fill="#333747"/>
<path d="M30.375 1.11719H31.2507C31.6885 1.11719 32.1628 1.11719 32.6371 1.11719H33.9871C34.425 1.11719 34.7168 1.11719 34.8993 1.11719C35.9574 1.11719 37.0155 1.15311 38.0736 1.26088C39.1317 1.36865 40.1533 1.51233 41.0654 1.76379C42.0141 2.01525 42.9262 2.37447 43.7289 2.80554C44.5316 3.23661 45.2613 3.81137 45.8451 4.49389C46.4654 5.17641 46.9032 6.00263 47.268 7.00846C47.5964 7.97836 47.7789 9.12787 47.7789 10.457C47.7789 12.1453 47.487 13.5104 46.9397 14.6599C46.3559 15.7735 45.6262 16.6716 44.6411 17.39C43.6924 18.1085 42.5613 18.6473 41.2843 19.0065C40.0438 19.3657 38.6938 19.6172 37.2709 19.7968V28.2745H30.375V1.22496V1.11719ZM37.4533 13.223C37.9276 13.223 38.3654 13.1871 38.6938 13.0434C39.0587 12.8997 39.3506 12.6842 39.5695 12.4327C39.8249 12.1453 40.0073 11.858 40.1168 11.4628C40.2262 11.1036 40.2992 10.7085 40.2992 10.2774C40.2992 9.84632 40.2992 9.48709 40.1897 9.12787C40.1168 8.73272 40.0073 8.40943 39.8249 8.12205C39.6789 7.79875 39.4235 7.58321 39.1317 7.4036C38.8398 7.22399 38.4749 7.11622 38.0371 7.11622C38.0371 7.11622 37.8911 7.11622 37.7452 7.11622H37.4533V13.1512V13.223Z" fill="#333747"/>
<path fill-rule="evenodd" clip-rule="evenodd" d="M99.9834 7.01L99.9657 7.01184C99.9598 7.01196 99.9539 7.01225 99.9479 7.01271L99.9834 7.01ZM99.9657 7.01184C100.133 7.00838 100.241 7.14058 100.184 7.28544C99.5822 8.71239 96.4808 14.655 85.769 19.6164C85.5618 19.7049 85.623 20.0273 85.8359 20.011L94.8357 20.0503C95.016 20.0729 95.1396 20.2815 95.0062 20.4007C93.0422 22.6586 81.1431 35.1972 63.6221 31.2298C56.7141 29.6496 51.9342 23.3642 51.9064 15.7708C51.8786 8.17742 56.523 2.33493 64.3528 1.11895C73.2032 -0.284031 88.0416 -0.000290503 90.4038 0.0736469C90.5457 0.0628025 90.6664 0.235291 90.5685 0.351798C90.0634 1.18991 88.2344 3.80091 83.2742 7.45065C83.1379 7.53374 83.1962 7.82003 83.3737 7.80647C85.0931 7.89303 90.8401 7.96225 99.9657 7.01184ZM73.7513 11.5819C73.7513 11.5819 73.9474 11.614 74.0128 11.7105C74.0455 11.807 74.0455 11.9035 74.0128 12L68.9465 20.9422C68.8157 21.1996 68.6196 21.2961 68.3581 21.2961H66.3643C66.3643 21.2961 66.1355 21.2961 66.0374 21.1996C65.9394 21.1031 65.9067 21.0387 65.874 20.9422L64.9915 16.5033C64.9915 16.5033 64.9588 16.4068 64.8608 16.4068C64.7627 16.4068 64.73 16.4068 64.73 16.4711L62.1478 20.9744C62.0171 21.1996 61.7883 21.3282 61.5595 21.3282H59.5657C59.5657 21.3282 59.3369 21.3282 59.2715 21.2317C59.1734 21.1674 59.1407 21.0709 59.1081 20.9744L57.3757 12.0322C57.3757 12.0322 57.3757 11.8392 57.4738 11.7427C57.5718 11.6462 57.6699 11.614 57.768 11.614H60.1213C60.1213 11.614 60.3501 11.614 60.4155 11.7105C60.435 11.7394 60.4545 11.7653 60.4732 11.7901L60.4732 11.7901C60.517 11.8483 60.556 11.9002 60.5789 11.9679L61.4941 16.5033C61.4941 16.5033 61.5268 16.5998 61.6249 16.5998C61.7229 16.5998 61.7556 16.5998 61.7883 16.5355L64.3705 11.9357C64.5012 11.7105 64.6973 11.5819 64.9588 11.5819H66.5931C66.5931 11.5819 66.8219 11.5819 66.92 11.6784C67.018 11.7427 67.0507 11.8392 67.0834 11.9357L67.9659 16.4711C67.9659 16.4711 68.0313 16.5676 68.0966 16.5998C68.162 16.632 68.2274 16.5998 68.2274 16.5355L70.8423 11.9357C70.973 11.7105 71.1691 11.5819 71.4306 11.5819H73.7513ZM84.4718 16.3093L84.864 14.0898L84.8967 14.0576C85.0274 13.35 84.864 12.7388 84.4391 12.2563C84.0142 11.7738 83.4258 11.5165 82.7067 11.5165H75.5486C75.3851 11.5165 75.2544 11.5808 75.1236 11.6773C74.9929 11.7738 74.8948 12.0633 74.8948 12.0633L73.2933 20.7482C73.2606 20.909 73.2933 21.0377 73.3913 21.1342C73.4894 21.2307 73.7509 21.295 73.7509 21.295H75.6466C75.8101 21.295 75.9408 21.2307 76.0715 21.1342C76.2023 21.0377 76.3003 20.7482 76.3003 20.7482L76.6272 18.9469C76.6272 18.8826 76.7579 18.8504 76.7579 18.8504H81.3339C82.0857 18.8504 82.7394 18.5931 83.3605 18.1106C83.9488 17.6281 84.341 17.0169 84.4718 16.3093ZM81.6608 14.122C81.7589 14.2185 81.7588 14.4758 81.7588 14.4758L81.4974 15.9233C81.4647 16.0519 81.3993 16.1806 81.2686 16.2771C81.1378 16.3736 80.8763 16.4058 80.8763 16.4058H77.1828C77.0848 16.4058 77.0848 16.3093 77.0848 16.3093L77.477 14.122C77.5097 14.0255 77.6078 13.9933 77.6078 13.9933H81.3339C81.4647 13.9933 81.5954 14.0255 81.6608 14.122Z" fill="#333747"/>
</svg>
