<svg width="56" height="56" viewBox="0 0 56 56" fill="none" xmlns="http://www.w3.org/2000/svg">
  <circle cx="28" cy="28" r="28" fill="#0A66C2"/>
  <path d="M21.5 23.5H17V38H21.5V23.5Z" fill="white"/>
  <path d="M19.25 21.5C20.4926 21.5 21.5 20.4926 21.5 19.25C21.5 18.0074 20.4926 17 19.25 17C18.0074 17 17 18.0074 17 19.25C17 20.4926 18.0074 21.5 19.25 21.5Z" fill="white"/>
  <path d="M38 30.5V38H33.5V31C33.5 29.2 32.8 28 31.2 28C29.9 28 29.1 28.9 28.8 29.8C28.7 30 28.7 30.3 28.7 30.6V38H24.2C24.2 38 24.2 25.5 24.2 23.5H28.7V25.3C29.3 24.4 30.4 23.2 32.8 23.2C35.8 23.2 38 25.1 38 30.5Z" fill="white"/>
</svg>
