<svg width="56" height="56" viewBox="0 0 56 56" fill="none" xmlns="http://www.w3.org/2000/svg">
  <circle cx="28" cy="28" r="28" fill="#25D366"/>
  <path d="M38.8 17.1C36.4 14.7 33.2 13.3 29.8 13.2C22.7 13.2 16.9 19 16.9 26.1C16.9 28.4 17.5 30.6 18.6 32.6L16.8 39.2L23.6 37.4C25.5 38.4 27.6 38.9 29.8 38.9C36.9 38.9 42.7 33.1 42.7 26C42.7 22.6 41.3 19.4 38.9 17.1H38.8ZM29.8 36.8C27.8 36.8 25.9 36.3 24.2 35.3L23.8 35.1L19.5 36.2L20.6 32L20.4 31.6C19.3 29.8 18.7 27.8 18.7 25.7C18.7 19.9 23.4 15.2 29.2 15.2C32 15.2 34.6 16.3 36.5 18.2C38.4 20.1 39.5 22.7 39.5 25.5C39.5 31.3 34.8 36 29 36H29.8V36.8ZM34.5 28.3C34.2 28.2 32.7 27.4 32.4 27.3C32.1 27.2 31.9 27.2 31.7 27.5C31.5 27.8 30.9 28.6 30.7 28.8C30.5 29 30.3 29 30 28.9C29.7 28.8 28.8 28.5 27.7 27.5C26.8 26.7 26.2 25.7 26 25.4C25.8 25.1 26 24.9 26.1 24.8C26.2 24.7 26.4 24.5 26.5 24.3C26.6 24.1 26.7 24 26.7 23.8C26.8 23.6 26.7 23.4 26.7 23.3C26.6 23.2 26 21.7 25.7 21.1C25.4 20.5 25.1 20.6 24.9 20.6C24.7 20.6 24.5 20.6 24.3 20.6C24.1 20.6 23.8 20.7 23.5 21C23.2 21.3 22.4 22.1 22.4 23.6C22.4 25.1 23.5 26.6 23.6 26.8C23.7 27 26 31 29.5 32.3C30.3 32.6 30.9 32.8 31.4 33C32.2 33.2 32.9 33.2 33.5 33.1C34.2 33 35.3 32.3 35.6 31.6C35.9 30.9 35.9 30.3 35.8 30.2C35.7 30.1 35.5 30 35.2 29.9L34.5 28.3Z" fill="white"/>
</svg>
