<svg width="50" height="22" viewBox="0 0 50 22" fill="none" xmlns="http://www.w3.org/2000/svg">
<path d="M30.4289 5.16564C30.4289 3.81073 30.4289 2.56642 30.4289 1.34976C30.4289 0.520219 30.6228 0.32666 31.4261 0.32666C37.0491 0.32666 42.6721 0.32666 48.2951 0.32666C49.0983 0.32666 49.2645 0.492568 49.2645 1.29446C49.2645 6.10579 49.2645 10.9171 49.2645 15.7285C49.2645 16.558 49.0706 16.7239 48.1566 16.7239C42.9768 16.7239 37.797 16.7516 32.6172 16.6963C31.9524 16.6963 31.7585 16.8898 31.7862 17.5534C31.8416 18.5765 31.7862 19.6273 31.8139 20.6504C31.8139 21.2864 31.5369 21.5629 30.8998 21.5629C21.205 21.5629 11.4825 21.5629 1.78773 21.5629C1.03984 21.5629 0.845947 21.3693 0.845947 20.5398C0.845947 15.8114 0.845947 11.0554 0.845947 6.327C0.845947 5.3039 0.984438 5.1933 1.98162 5.1933C11.1501 5.1933 20.3463 5.1933 29.5149 5.1933C29.7918 5.16565 30.0688 5.16564 30.4289 5.16564ZM30.3735 20.125C30.3735 15.5902 30.3735 11.1107 30.3735 6.60351C30.1242 6.57586 29.9303 6.57586 29.7087 6.57586C20.7895 6.57586 11.8703 6.57586 2.9511 6.54821C2.31401 6.54821 2.17552 6.76942 2.20322 7.3501C2.23092 11.3595 2.23092 15.369 2.20322 19.3784C2.20322 20.0697 2.42481 20.208 3.0619 20.208C11.898 20.1803 20.7064 20.208 29.5425 20.1803C29.8195 20.1803 30.0965 20.1527 30.3735 20.125ZM43.8077 8.89857C43.7524 8.89857 43.7247 8.92623 43.6693 8.92623C43.5862 8.76032 43.5031 8.62206 43.4477 8.45615C42.9214 7.26714 42.4228 6.05049 41.9242 4.86148C41.5918 4.05959 40.8993 4.41906 40.373 4.41906C39.8467 4.41906 40.0129 4.91678 40.0129 5.22095C39.9852 7.4607 40.0129 9.70046 39.9852 11.9402C39.9852 12.5209 40.1791 12.6868 40.7331 12.6868C41.3425 12.6868 41.5364 12.4932 41.5364 11.9126C41.5087 10.7236 41.5364 9.53456 41.5364 8.34555C42.2566 9.64516 42.866 10.9448 43.4754 12.272C43.8078 13.0186 44.4725 12.6592 44.9988 12.6592C45.5251 12.6868 45.3589 12.1891 45.3866 11.8573C45.3866 9.61751 45.3866 7.37775 45.4143 5.13799C45.4143 4.58496 45.2481 4.36376 44.6664 4.36376C44.0847 4.36376 43.8355 4.50201 43.8632 5.13799C43.8355 6.3823 43.8077 7.62661 43.8077 8.89857ZM35.8857 5.96753C35.8857 7.70957 35.8857 9.3963 35.8857 11.1107C35.6087 11.1383 35.3871 11.166 35.1655 11.1383C34.5561 11.083 34.5284 11.4425 34.5284 11.9126C34.5284 12.3826 34.5838 12.7145 35.1932 12.6868C36.2458 12.6592 37.2984 12.6592 38.351 12.6868C38.8496 12.6868 38.9881 12.4932 38.9881 12.0508C38.9881 11.1936 38.988 11.1936 38.1294 11.166C37.9632 11.166 37.8247 11.1383 37.6308 11.1107C37.6308 9.36865 37.6308 7.68191 37.6308 5.96753C37.8801 5.96753 38.1017 5.93988 38.2956 5.93988C38.9604 5.96753 38.8219 5.46981 38.8496 5.08269C38.8773 4.66792 38.7942 4.39141 38.2679 4.39141C37.2707 4.41906 36.2458 4.39141 35.2486 4.41906C35.0547 4.41906 34.7777 4.55732 34.7223 4.69557C34.4176 5.41451 34.75 5.91223 35.5256 5.93988C35.6087 5.91223 35.7195 5.93988 35.8857 5.96753Z" fill="#14D5CA"/>
<path d="M18.3923 12.7834C18.3923 14.0376 18.3657 15.2633 18.3923 16.5174C18.3923 17.059 18.3126 17.3155 17.7021 17.3155C17.1446 17.3155 16.9854 17.116 16.9854 16.5459C17.0119 14.2656 16.9854 11.9568 17.0119 9.67655C17.0119 9.42001 17.2243 8.90695 17.3304 8.90695C17.8348 8.90695 18.4453 8.5364 18.7639 9.3345C19.2948 10.7027 19.8522 12.0709 20.3832 13.439C20.4362 13.553 20.4893 13.6386 20.6221 13.9236C20.6486 13.553 20.7017 13.382 20.7017 13.1825C20.7017 11.9283 20.7282 10.6742 20.7017 9.42001C20.6751 8.79293 21.0468 8.82144 21.4184 8.82144C21.8166 8.82144 22.082 8.87844 22.082 9.42001C22.0555 11.8143 22.0555 14.2371 22.082 16.6314C22.082 17.0875 21.9493 17.23 21.5246 17.2585C20.7813 17.344 20.3831 17.059 20.0912 16.2894C19.6399 15.0637 19.0824 13.8951 18.5781 12.6979C18.525 12.7549 18.4453 12.7834 18.3923 12.7834Z" fill="#14D5CA"/>
<path d="M25.0157 12.3687C25.8552 12.3687 26.5713 12.3973 27.3121 12.3687C27.806 12.3401 27.8801 12.6545 27.8801 13.1118C27.8801 13.5977 27.806 13.8835 27.3121 13.855C26.7442 13.8264 26.1763 13.855 25.6083 13.855C25.1885 13.8264 25.0157 13.9693 25.0157 14.4838C25.0404 16.1129 24.8922 15.8271 26.1763 15.8557C26.596 15.8557 27.0405 15.8843 27.4603 15.8557C27.9542 15.8271 28.0036 16.1415 28.0283 16.5988C28.0283 17.0847 27.9542 17.342 27.4603 17.3134C26.4479 17.2848 25.4108 17.2848 24.3983 17.3134C23.9539 17.3134 23.781 17.1991 23.781 16.6274C23.8057 14.2265 23.8057 11.8542 23.781 9.45331C23.781 8.93884 23.9539 8.79593 24.3489 8.82451C25.3614 8.85309 26.3985 8.85309 27.4109 8.82451C27.9295 8.79593 27.9542 9.11033 27.9542 9.56764C27.9542 10.025 27.9048 10.3394 27.4109 10.3108C26.7689 10.2822 26.1516 10.3108 25.5095 10.3108C25.1885 10.3108 25.0157 10.4251 25.0157 10.8253C25.0157 11.3112 25.0157 11.797 25.0157 12.3687Z" fill="#14D5CA"/>
<path d="M15.2547 12.1401C15.2547 12.9839 15.2547 13.8277 15.2547 14.6434C15.2294 16.2186 14.1657 17.3155 12.7222 17.3155C11.304 17.3155 10.2403 16.2467 10.215 14.6997C10.1897 12.9558 10.215 11.2119 10.1897 9.46797C10.1897 8.8773 10.4683 8.84917 10.8735 8.84917C11.304 8.84917 11.5319 8.96168 11.5066 9.4961C11.4813 11.0994 11.5066 12.7026 11.5066 14.3059C11.5066 15.2341 11.9624 15.8248 12.7222 15.8248C13.4819 15.8248 13.9631 15.2341 13.9631 14.2778C13.9631 12.7026 13.9884 11.0994 13.9631 9.52423C13.9631 8.93355 14.1657 8.82104 14.6216 8.82104C15.0774 8.82104 15.3307 8.93355 15.28 9.52423C15.2294 10.4243 15.2547 11.2963 15.2547 12.1401Z" fill="#14D5CA"/>
<path d="M5.62471 13.8026C5.62471 12.8523 5.59388 11.9021 5.62471 10.9519C5.65554 10.4624 5.43973 10.2608 4.91561 10.3184C4.73063 10.3472 4.54564 10.3184 4.39148 10.3184C3.4974 10.3184 3.21992 9.94404 3.4974 9.16658C3.55906 9.02261 3.80571 8.84984 3.99069 8.84984C5.59388 8.82104 7.19707 8.84984 8.8311 8.82104C9.38605 8.82104 9.32439 9.19538 9.32439 9.51212C9.32439 9.82886 9.47854 10.2896 8.8311 10.2896C8.76944 10.2896 8.73861 10.2896 8.67694 10.2896C7.19707 10.3472 7.19708 10.3472 7.19708 11.7005C7.19708 13.3418 7.16625 14.9831 7.19708 16.6245C7.22791 17.2291 6.9196 17.3155 6.36464 17.3155C5.80969 17.3155 5.59388 17.1716 5.62471 16.6245C5.65554 15.7318 5.62471 14.7528 5.62471 13.8026Z" fill="#14D5CA"/>
</svg>
