<svg width="52" height="36" viewBox="0 0 52 36" fill="none" xmlns="http://www.w3.org/2000/svg">
<path d="M51.9272 2.76272C51.9272 1.28226 51.4388 0.64778 49.9039 0.683029C42.3342 0.718278 34.7994 0.718278 27.2297 0.683029C25.7995 0.683029 25.2413 1.247 25.2762 2.65696C25.3111 4.52516 25.2762 6.39336 25.2762 8.6493C24.2995 8.6493 23.532 8.6493 22.7995 8.6493C16.2414 8.6493 9.64844 8.6493 3.09035 8.6493C1.83455 8.6493 0.962464 8.89604 0.997348 10.4823C1.03223 18.237 1.03223 25.9918 0.997348 33.7466C0.997348 35.0156 1.48571 35.509 2.7764 35.509C10.4508 35.4738 18.1251 35.4738 25.7995 35.509C27.0553 35.509 27.5785 35.0156 27.5436 33.7466C27.5088 31.7727 27.5436 29.7987 27.5436 27.578C28.4855 27.578 29.218 27.578 29.9855 27.578C36.5436 27.578 43.1365 27.5428 49.6946 27.6133C51.2993 27.6133 51.9969 27.1198 51.962 25.3926C51.8574 17.7788 51.8923 10.2708 51.9272 2.76272ZM25.2413 32.4424C25.2413 32.6186 25.1367 32.7596 25.032 33.1474C24.3344 33.1474 23.6018 33.1474 22.8693 33.1474C16.9391 33.1474 11.0089 33.1121 5.11359 33.1826C3.75314 33.1826 3.16012 32.9006 3.19501 31.3497C3.26477 25.0753 3.26477 18.801 3.19501 12.5267C3.19501 11.2225 3.57872 10.7995 4.86941 10.7995C11.1484 10.87 17.4274 10.8347 23.6716 10.8347C24.5088 10.8347 25.2762 10.7642 25.2762 12.0332C25.2413 18.8363 25.2762 25.6393 25.2413 32.4424ZM41.5319 10.8347H39.7877V17.5321H41.5319V19.647H35.9505V17.5321H37.6947V10.8347H35.9505V8.7198H41.5319V10.8347Z" fill="#14D8CC"/>
<path d="M17.4622 16.4746H10.1367V18.942H12.5786V27.4018H15.0204V18.942H17.4622V16.4746Z" fill="#14D8CC"/>
</svg>
