<svg width="60" height="28" viewBox="0 0 60 28" fill="none" xmlns="http://www.w3.org/2000/svg">
<path d="M0.849486 15.132C1.72619 10.0794 2.61579 5.05256 3.49249 0C8.72693 0 13.9356 0 19.17 0C19.17 1.5042 19.17 2.98268 19.17 4.49974C15.3151 4.49974 11.4602 4.49974 7.59237 4.49974C7.24427 6.64676 6.88327 8.78091 6.53517 10.9022C6.54806 10.9151 6.57385 10.9279 6.58674 10.9279C6.6641 10.8637 6.75435 10.7994 6.81881 10.7222C7.79866 9.60372 9.07503 9.07661 10.519 8.90948C11.241 8.81948 11.9888 8.76806 12.7108 8.79377C14.5673 8.8452 16.2047 9.48802 17.5842 10.7608C18.4738 11.5708 19.1185 12.5607 19.6599 13.6278C19.7115 13.7178 19.7631 13.8206 19.8147 13.9106C19.8147 13.9235 19.8404 13.9235 19.8662 13.9492C19.9178 13.872 19.9565 13.7949 19.9952 13.7178C20.369 12.9464 20.7687 12.2007 21.2715 11.5193C22.4319 9.91228 23.8888 8.71663 25.7969 8.09953C26.8799 7.73955 27.9886 7.62384 29.1232 7.67527C31.6888 7.77812 33.9064 8.76806 35.9177 10.298C37.1682 11.2493 38.2512 12.3936 39.244 13.6021C39.3471 13.7306 39.4503 13.8335 39.5792 13.9878C39.7984 13.7306 40.0175 13.4864 40.2238 13.2292C41.4615 11.7507 42.8539 10.4394 44.5042 9.41088C45.9611 8.51093 47.5211 7.90668 49.2229 7.72669C50.9763 7.53385 52.6911 7.71383 54.3413 8.39522C55.7724 8.99947 56.9585 9.92513 57.8868 11.1722C58.9182 12.5607 59.5371 14.1292 59.8336 15.8262C60.1431 17.6647 60.027 19.4646 59.4339 21.2388C58.6733 23.4886 57.3711 25.3528 55.3341 26.6513C54.2253 27.3455 53.0134 27.757 51.7112 27.9112C49.3003 28.2069 47.0698 27.6284 44.9812 26.4456C43.2794 25.4685 41.8225 24.1957 40.4946 22.7687C40.2754 22.5244 40.0433 22.293 39.8112 22.0616C39.5921 21.843 39.5792 21.843 39.36 22.0873C39.0248 22.473 38.6896 22.8587 38.3415 23.2444C37.194 24.5171 35.9177 25.6228 34.4221 26.4713C33.2102 27.1527 31.9209 27.6155 30.5543 27.8469C27.5632 28.3355 24.8944 27.667 22.5866 25.6614C21.5681 24.7743 20.7171 23.7458 20.0983 22.5373C20.0081 22.3701 19.9436 22.1901 19.8791 22.0487C18.7317 24.8514 16.6044 26.6127 13.7164 27.4998C12.2209 27.9627 10.6866 28.0526 9.12661 27.9498C7.87601 27.8727 6.6641 27.6412 5.51665 27.1784C2.88653 26.1113 1.1847 24.1957 0.359564 21.5087C0.191959 20.9688 0.114602 20.4031 0.0114602 19.8374C-0.0143252 19.7217 0.0114602 19.5803 0.0114602 19.4389C1.8809 19.4389 3.75035 19.4389 5.64557 19.4389C5.67136 20.0303 5.82607 20.5831 6.10971 21.0973C6.88327 22.4987 8.03072 23.3472 9.64231 23.5401C11.2152 23.7329 12.5174 23.1544 13.5617 22.0101C14.7349 20.7245 15.2764 19.1946 15.1217 17.4461C14.9283 15.1705 13.3554 13.4349 11.0992 13.0621C9.68099 12.8307 8.32726 13.0621 7.11534 13.9106C6.68988 14.2063 6.32889 14.5663 6.03236 14.9906C5.99368 15.0548 5.89054 15.1063 5.81318 15.1063C4.22738 15.1191 2.62868 15.1063 1.04288 15.1063C0.965521 15.1448 0.91395 15.1448 0.849486 15.132ZM42.9829 17.8575C43.0731 17.9732 43.1505 18.0632 43.2278 18.1532C43.3181 18.2561 43.4083 18.3461 43.4986 18.4489C44.7363 19.7603 46.0642 20.9431 47.6758 21.8044C48.733 22.3701 49.8418 22.7172 51.0666 22.563C51.9046 22.4601 52.6524 22.1516 53.2583 21.5473C54.1995 20.6217 54.6121 19.4517 54.7152 18.1661C54.7926 17.0604 54.5089 16.0191 53.9417 15.0677C53.2068 13.8206 52.0851 13.2035 50.6411 13.1521C49.7 13.1135 48.8361 13.3835 48.011 13.7821C46.0255 14.7463 44.4526 16.2248 42.9829 17.8575ZM36.1884 17.8575C34.8991 16.379 33.4938 15.0806 31.8178 14.1035C30.6574 13.4349 29.4326 12.9978 28.0531 13.1778C27.2924 13.2807 26.6091 13.5635 26.0418 14.0778C25.062 14.9648 24.6236 16.1219 24.4818 17.3947C24.3529 18.5132 24.6365 19.5674 25.178 20.5574C26.1063 22.2416 27.7437 22.7687 29.3682 22.5373C30.3996 22.383 31.315 21.9459 32.1917 21.393C33.5325 20.5574 34.68 19.4903 35.7629 18.3461C35.9048 18.2047 36.0466 18.0375 36.1884 17.8575Z" fill="white"/>
</svg>
