<svg width="58" height="34" viewBox="0 0 58 34" fill="none" xmlns="http://www.w3.org/2000/svg">
<path d="M28.993 33.9834C25.8222 33.9834 22.6515 33.9834 19.4438 33.9834C17.2317 33.9834 16.0887 32.7877 16.015 30.5459C15.8306 25.9875 17.3423 22.2511 20.9555 19.4114C21.5454 18.9257 21.9141 18.7763 22.5777 19.4862C26.0435 23.3347 31.9057 23.3347 35.4083 19.5235C35.9982 18.8883 36.33 18.851 37.0306 19.3741C41.0125 22.4379 42.4135 26.5853 41.8973 31.5174C41.7499 33.0119 40.4594 33.9834 38.7634 33.9834C35.482 34.0208 32.2375 33.9834 28.993 33.9834Z" fill="white"/>
<path d="M20.4326 13.4941C20.4709 14.762 20.5092 15.918 20.9306 16.9621C21.1221 17.4096 20.8923 17.6333 20.5475 17.8944C17.483 20.3182 15.5294 23.4133 14.8399 27.2169C14.725 27.8136 14.4952 28 13.8823 28C10.3964 27.9627 6.87227 28 3.38643 27.9627C1.3179 27.9627 0.0921168 26.6948 0.0155049 24.6812C-0.176025 19.9826 1.39452 16.0671 5.41665 13.2704C5.87632 12.9347 6.18276 12.8602 6.64243 13.3449C10.5879 17.2977 15.7593 17.4469 20.0112 13.7551C20.0878 13.6805 20.2028 13.6432 20.4326 13.4941Z" fill="white"/>
<path d="M37.4747 13.2293C39.1709 15.2756 41.3296 15.8337 43.4113 16.5778C44.1052 16.8382 44.7605 16.4662 45.4544 16.3546C47.8059 16.0197 49.8104 15.0896 51.3524 13.3781C51.7765 12.8944 52.0848 12.8944 52.586 13.2665C55.9012 15.6104 57.7901 18.7357 57.9829 22.754C58.0214 23.4237 57.9829 24.1306 57.9829 24.8003C57.9443 26.6978 56.7493 27.9628 54.7833 27.9628C51.1982 28 47.5746 27.9628 43.9895 28C43.3727 28 43.2185 27.7768 43.1414 27.2559C42.4475 23.4981 40.5586 20.41 37.4747 18.0288C37.0121 17.6568 36.8965 17.3219 37.0892 16.801C37.3976 15.722 37.5132 14.6431 37.4747 13.2293Z" fill="white"/>
<path d="M36 13.4813C36 17.6334 32.7211 20.9626 28.5754 21C24.392 21 21 17.6334 21 13.4813C21.0377 9.36659 24.4296 6 28.5377 6C32.6834 6 36 9.32918 36 13.4813Z" fill="white"/>
<path d="M13.5186 15C9.38339 15 6 11.5959 6 7.47322C6 3.95569 9.23302 0.135568 11.9773 0.0220991C14.6088 -0.0913697 17.0148 0.173409 18.8945 2.21585C20.2854 3.72877 20.9997 5.50645 20.9997 7.51106C21.0373 11.6338 17.6539 15 13.5186 15Z" fill="white"/>
<path d="M51.9946 8.2802C51.9946 11.6779 48.6332 15 44.4786 15C40.2862 15 36.9625 11.6024 37.0003 7.33641C37.0381 3.901 40.1351 0.201342 42.8545 0.0503353C45.5739 -0.138423 47.9911 0.125843 49.9551 2.20219C51.3525 3.6745 52.0701 5.44882 51.9946 8.2802Z" fill="white"/>
</svg>
