<svg width="50" height="50" viewBox="0 0 50 50" fill="none" xmlns="http://www.w3.org/2000/svg">
<path d="M45.9016 44.8864L28.6885 0H16.3934L18.5792 5.68182L3.82514 44.8864C3.27869 46.875 1.63934 47.1591 0 47.4432V50H14.2077V47.4432C10.3825 47.1591 8.19672 46.5909 9.83607 42.3295C10.1093 42.0455 11.2022 38.9205 12.5683 34.9432H30.0546L32.5137 41.4773C32.7869 42.6136 33.0601 43.4659 33.0601 44.3182C33.0601 46.5909 31.1475 47.4432 27.5956 47.4432V50H50V47.4432C48.0874 47.1591 46.4481 46.5909 45.9016 44.8864ZM14.2077 30.1136C16.9399 23.0114 19.9454 14.7727 21.0383 11.6477L28.1421 30.1136H14.2077Z" fill="white"/>
</svg>
