<svg width="55" height="60" viewBox="0 0 55 60" fill="none" xmlns="http://www.w3.org/2000/svg">
<path d="M28.4334 44.4874C27.9332 43.8874 27.5282 43.3286 26.7464 42.191C26.6948 42.116 26.6948 42.116 26.6432 42.041C26.6132 41.9974 26.6132 41.9974 26.5832 41.9533C25.5126 40.3539 24.6445 38.8216 23.9657 37.2902C23.3193 35.8136 22.9129 34.4805 22.7502 33.1909C22.612 31.9965 22.6884 30.969 23.0142 30.1107C23.3231 29.2586 23.9099 28.5226 24.6581 28.0375C26.5279 26.8084 29.1946 26.9668 30.8404 28.4148C31.627 29.0973 32.1436 30.144 32.2739 31.2873C32.4379 32.7494 32.1642 34.3431 31.5056 36.1337C30.494 38.8375 28.9246 41.432 26.5664 44.5291L27.5165 45.2575L28.4334 44.4874ZM48.8081 48.8266C48.2831 50.6726 47.0156 52.2907 45.3703 53.2179C43.9205 54.0438 42.1692 54.3419 40.4972 54.0574C38.5059 53.7419 36.5484 52.713 34.5112 51.0415C33.3145 50.0618 32.1675 48.918 30.7818 47.3702L30.8353 48.9096C33.1167 45.971 34.7615 43.4805 36.0323 40.8784C37.4564 37.9534 38.2594 35.2225 38.3442 32.5098C38.4009 30.4726 38.0006 28.51 37.1325 26.8248C35.9601 24.5031 33.854 22.6749 31.3743 21.7862C29.1295 20.9696 26.6264 20.8913 24.3178 21.5617C22.0982 22.2015 20.114 23.5581 18.7579 25.3965C17.5771 26.9823 16.8684 28.9534 16.7057 31.0098C16.4891 33.579 17.0216 36.2519 18.1677 39.0817C19.5238 42.3733 21.4968 45.5186 24.179 48.8904L24.202 47.3646C23.2223 48.5219 22.1315 49.6235 20.9399 50.6655C18.9088 52.4158 16.9832 53.5277 15.0046 53.9637C13.2646 54.3612 11.4322 54.1493 9.90786 53.3641C8.09145 52.4421 6.69129 50.6988 6.16582 48.7057C5.77066 47.2647 5.83769 45.6677 6.33644 44.17C6.62988 43.2935 6.92566 42.5866 7.6227 41.0317C7.65176 40.9666 7.65176 40.9666 7.68129 40.9009C7.80832 40.6169 7.89082 40.4327 7.97473 40.2424C12.0111 31.2789 16.2852 22.3327 20.7885 13.4138C20.8841 13.2249 20.9606 13.0735 21.1326 12.7332C21.1415 12.7158 21.1415 12.7158 21.1499 12.699C21.9543 11.1047 22.3279 10.3791 22.8032 9.50582C23.4412 8.35035 24.0028 7.59941 24.6806 7.07534C25.4929 6.42846 26.512 6.08159 27.5165 6.10502C28.5909 6.09284 29.6409 6.48237 30.4532 7.17753C31.1784 7.79066 31.7329 8.59972 32.4745 10.0093C33.5404 12.0483 34.4681 13.8882 36.1673 17.3063C36.3192 17.6115 36.3192 17.6115 36.4711 17.9171C36.4879 17.9509 36.4879 17.9509 36.5048 17.9846C40.3125 25.6623 43.9519 33.3704 47.4202 41.1077C47.467 41.2159 47.5041 41.2989 47.5922 41.5C47.6245 41.5736 47.6245 41.5736 47.6574 41.6472C48.3094 43.1252 48.5766 43.7964 48.8081 44.6285C49.1892 46.0113 49.1921 47.4869 48.8086 48.8243L48.8081 48.8266ZM54.9985 46.3366C54.9797 44.6116 54.6057 42.8505 53.9269 41.0927C53.5908 40.2199 53.2941 39.5327 52.6219 38.0331C52.6022 37.9895 52.6022 37.9895 52.5825 37.9455C52.4893 37.7369 52.4893 37.7369 52.396 37.5292C48.2719 28.375 43.9345 19.2995 39.3853 10.3027C39.27 10.0768 39.1786 9.89582 38.9756 9.49504C38.9714 9.48707 38.9714 9.48707 38.9672 9.47863C38.2228 8.00816 37.8801 7.34347 37.4334 6.52643C36.6159 5.04049 35.7829 3.87939 34.7765 2.92923C33.0056 1.20985 30.6093 0.160313 28.1193 0.00281251L27.036 0C24.4204 0.129844 21.9445 1.2211 20.1234 3.02907C19.1695 3.94923 18.3698 5.07611 17.5715 6.52503C17.1234 7.34253 16.7549 8.05597 16.0523 9.44582C16.0105 9.52785 16.0105 9.52785 15.9693 9.60988C15.809 9.92723 15.7391 10.0655 15.6487 10.2436C12.621 16.2268 9.66645 22.2924 6.78222 28.4425C4.67284 32.9594 3.18315 36.212 1.74971 39.4614C0.865173 41.4766 0.364078 42.9836 0.144702 44.5844C-0.319362 47.6721 0.343453 50.9294 1.9794 53.6074C3.38799 55.9315 5.50113 57.7962 7.9602 58.8757C9.87645 59.7195 11.9882 60.1006 14.0676 59.9759C16.6949 59.8338 19.3335 58.9113 21.7781 57.3682C24.0149 55.9699 26.0264 54.1591 28.3856 51.581L26.6226 51.5791C28.784 53.9515 30.6604 55.6723 32.7192 57.0405C35.137 58.6605 37.7297 59.6768 40.3453 59.9281C43.3861 60.2515 46.5263 59.4766 49.0674 57.7601C51.3042 56.2596 53.071 54.0476 54.0638 51.5079C54.7083 49.8644 55.0285 48.0925 54.998 46.3286L54.9985 46.3366Z" fill="white"/>
</svg>
