<svg width="60" height="49" viewBox="0 0 60 49" fill="none" xmlns="http://www.w3.org/2000/svg">
<path d="M0.108 37.3207C0.2904 37.0431 0.5808 37.0247 0.9816 37.268C10.0728 42.3091 19.9632 44.8285 30.6552 44.8285C37.7832 44.8285 44.82 43.5596 51.7632 41.0218C51.9456 40.953 52.2096 40.8475 52.5552 40.7098C52.9008 40.5698 53.1456 40.4666 53.292 40.3977C53.8368 40.1889 54.264 40.2945 54.5736 40.7098C54.8832 41.1274 54.7824 41.5083 54.2736 41.8571C53.6184 42.3091 52.7832 42.8299 51.7656 43.4219C48.6384 45.1956 45.1464 46.5678 41.292 47.5407C37.4376 48.5136 33.6744 49 30 49C24.3264 49 18.9648 48.0523 13.908 46.157C8.8536 44.2663 4.3272 41.5978 0.3264 38.1559C0.108 37.9816 0 37.8072 0 37.6351C0 37.5295 0.036 37.4263 0.108 37.3207ZM48.8184 38.2087C48.8904 38.0688 49.0008 37.9311 49.1448 37.7911C50.0544 37.1991 50.9256 36.7999 51.7632 36.5911C53.1456 36.2423 54.4896 36.0518 55.8 36.0174C56.1624 35.983 56.508 35.9991 56.8368 36.0702C58.4736 36.2102 59.4552 36.4694 59.7816 36.8526C59.928 37.0614 60 37.3735 60 37.7911V38.1559C60 39.3721 59.6544 40.8062 58.9632 42.4582C58.272 44.1103 57.3096 45.4389 56.0712 46.4485C55.8888 46.5884 55.7256 46.6573 55.5792 46.6573C55.5072 46.6573 55.4328 46.6389 55.3608 46.6045C55.1424 46.5012 55.0872 46.3085 55.1976 46.0308C56.544 43.0066 57.216 40.9025 57.216 39.7208C57.216 39.3376 57.144 39.06 56.9976 38.8856C56.6328 38.468 55.6152 38.2592 53.9424 38.2592C53.3232 38.2592 52.596 38.2936 51.7608 38.3625C50.8512 38.4657 50.016 38.5713 49.2528 38.6745C49.0344 38.6745 48.888 38.6401 48.816 38.5713C48.744 38.5024 48.7248 38.4313 48.7608 38.3625C48.7632 38.3303 48.7824 38.2776 48.8184 38.2087Z" fill="white"/>
<path fill-rule="evenodd" clip-rule="evenodd" d="M15 26.9929C15 24.4651 15.6431 22.3026 16.9265 20.5054C18.21 18.7104 19.967 17.3534 22.1951 16.4366C24.2336 15.5948 26.7458 14.9901 29.729 14.6224C30.7483 14.5137 32.4106 14.3661 34.7134 14.1823V13.2485C34.7134 10.9021 34.4492 9.32739 33.9209 8.51953C33.1284 7.41882 31.8823 6.86975 30.1826 6.86975H29.729C28.4829 6.97864 27.4062 7.36572 26.5015 8.02356C25.5969 8.68152 25.0112 9.60071 24.7446 10.7715C24.5925 11.5045 24.2163 11.9254 23.6106 12.0366L17.0959 11.2675C16.4529 11.1199 16.134 10.7909 16.134 10.2781C16.134 10.1692 16.1538 10.041 16.1912 9.89343C16.8342 6.63269 18.4094 4.21375 20.9214 2.6366C23.4312 1.06189 26.3669 0.183838 29.7266 0H31.1421C35.446 0 38.8081 1.0813 41.2231 3.24377C41.6018 3.61145 41.9534 4.00818 42.2698 4.42664C42.5913 4.84753 42.8455 5.22485 43.0349 5.55383C43.2244 5.88281 43.3938 6.35938 43.5459 6.98352C43.6978 7.60754 43.8101 8.03809 43.8848 8.27515C43.9595 8.51221 44.0168 9.02747 44.0542 9.8136C44.0916 10.6022 44.1116 11.0691 44.1116 11.2166V24.5208C44.1116 25.4739 44.2537 26.3446 44.5352 27.1332C44.8193 27.9218 45.0911 28.4902 45.3577 28.8386C45.6218 29.1869 46.0554 29.7456 46.6611 30.5149C46.8879 30.8439 47 31.1389 47 31.3954C47 31.6881 46.8481 31.9445 46.5464 32.1646L44.6863 33.7306C42.7341 35.3741 41.656 36.2817 41.45 36.4534C40.9963 36.7823 40.448 36.821 39.8076 36.5623C39.2791 36.1219 38.8157 35.701 38.4194 35.2971C38.0232 34.8932 37.739 34.6005 37.5696 34.4166C37.4001 34.2328 37.126 33.8772 36.7471 33.3451C36.3682 32.8129 36.104 32.4573 35.9546 32.2734C33.8411 34.5085 31.7627 35.9019 29.7241 36.4509C28.4404 36.8186 26.853 37 24.9663 37C22.0579 37 19.6704 36.1293 17.8013 34.3876C15.9346 32.646 15 30.181 15 26.9929ZM24.7422 25.8948C24.7422 27.3243 25.1111 28.4685 25.8462 29.3297C26.5815 30.1908 27.5732 30.6213 28.8193 30.6213C28.9316 30.6213 29.0935 30.6021 29.3005 30.5658C29.5073 30.5294 29.6494 30.5101 29.7241 30.5101C31.3091 30.1062 32.5378 29.1168 33.405 27.5421C33.8213 26.8455 34.1328 26.0859 34.3396 25.261C34.5466 24.4362 34.6611 23.7686 34.6787 23.2533C34.6985 22.7405 34.7061 21.8962 34.7061 20.7255V19.3516C32.5154 19.3516 30.8557 19.4991 29.7217 19.7917C26.4045 20.7086 24.7422 22.7429 24.7422 25.8948Z" fill="white"/>
</svg>
