<svg width="59" height="28" viewBox="0 0 59 28" fill="none" xmlns="http://www.w3.org/2000/svg">
<path d="M11.7588 3.48241C12.5255 2.55985 13.0429 1.27772 12.9022 -3.77515e-07C11.7943 0.0450829 10.4548 0.734527 9.66596 1.65379C8.95134 2.46968 8.33311 3.776 8.50374 5.02843C9.73576 5.123 10.9922 4.40496 11.7588 3.48241ZM14.9419 11.5908C14.9176 8.82752 17.2132 7.49811 17.3196 7.43214C16.0244 5.56283 14.0157 5.30333 13.3 5.27474C11.5882 5.1065 9.95624 6.27537 9.09094 6.27537C8.22232 6.27537 6.88615 5.30113 5.46357 5.33082C3.59781 5.35721 1.87719 6.40732 0.916611 8.0644C-1.01673 11.4105 0.425797 16.352 2.31371 19.0581C3.23773 20.3831 4.3368 21.872 5.78487 21.8181C7.17865 21.7642 7.70159 20.923 9.38565 20.923C11.0664 20.9208 11.5417 21.8159 13.0097 21.7906C14.5076 21.7587 15.4582 20.4381 16.3767 19.1065C17.4326 17.5726 17.8702 16.0826 17.8924 16.0079C17.8624 15.9881 14.9752 14.8951 14.9419 11.5908ZM32.7752 3.48131C32.2168 2.94691 31.4967 2.53126 30.6347 2.24537C29.7805 1.96277 28.7545 1.81982 27.5857 1.81982C26.837 1.81652 26.0887 1.85507 25.3443 1.93528C24.7238 2.00402 24.1053 2.09018 23.4896 2.19368L23.309 2.22447V21.651H25.0961V13.4667C25.6978 13.569 26.3869 13.6228 27.1469 13.6228C28.1585 13.6228 29.1058 13.4942 29.9633 13.2424C30.7883 13.0095 31.5567 12.6118 32.2213 12.0735C32.8613 11.5425 33.3761 10.8785 33.7292 10.1283C34.0948 9.35862 34.2809 8.45366 34.2809 7.43544C34.2809 6.59315 34.1468 5.83553 33.8854 5.18348C33.6326 4.5487 33.2552 3.9701 32.7752 3.48131ZM31.1333 10.9014C30.2159 11.6645 28.9174 12.0515 27.2699 12.0515C26.8168 12.0515 26.388 12.0317 25.9947 11.9954C25.6921 11.9683 25.3921 11.9183 25.0972 11.8459V3.58467C25.3332 3.54178 25.6257 3.5011 25.9692 3.46481C26.4046 3.41863 26.9287 3.39554 27.5292 3.39554C28.2188 3.38872 28.906 3.47716 29.5711 3.65834C30.1379 3.81306 30.6704 4.0719 31.141 4.42146C31.5698 4.75133 31.9066 5.18018 32.1404 5.69698C32.3764 6.22039 32.4949 6.84496 32.4949 7.552C32.4938 9.01995 32.0351 10.147 31.1333 10.9014ZM44.9625 19.8322C44.9425 19.2824 44.9348 18.7304 44.9348 18.1806V12.7806C44.9348 12.1406 44.8694 11.4874 44.742 10.8387C44.6192 10.1932 44.3676 9.57853 44.0019 9.03095C43.6385 8.48995 43.13 8.04351 42.494 7.70264C41.8581 7.36286 41.0315 7.19133 40.0355 7.19133C39.3087 7.19133 38.5985 7.28479 37.9282 7.47062C37.2244 7.67157 36.5585 7.98584 35.9572 8.40088L35.8121 8.50094L36.4159 9.90292L36.6342 9.75668C37.1108 9.4392 37.6319 9.19318 38.1808 9.02655C38.7356 8.85428 39.3135 8.76606 39.8948 8.76484C40.6393 8.76484 41.2343 8.899 41.6586 9.1629C42.0896 9.4301 42.4142 9.76108 42.6236 10.1481C42.8419 10.5473 42.9848 10.9717 43.048 11.4127C43.1156 11.8712 43.1477 12.2813 43.1477 12.6332V12.7893C40.4986 12.7773 38.4301 13.2149 37.0563 14.0935C35.6149 15.0149 34.8836 16.3267 34.8836 17.9915C34.8836 18.4709 34.97 18.9537 35.1407 19.4309C35.3135 19.9136 35.5761 20.3457 35.9195 20.7152C36.2652 21.0891 36.7117 21.3937 37.2457 21.6213C37.7775 21.8511 38.4035 21.9665 39.1026 21.9665C40.0925 21.983 41.0665 21.7186 41.9101 21.2045C42.278 20.9791 42.6048 20.7229 42.884 20.4469C43.003 20.3282 43.1165 20.2042 43.2241 20.0752H43.2928L43.4568 21.6521H45.1796L45.132 21.3991C45.0374 20.8816 44.9808 20.3579 44.9625 19.8322ZM43.1477 17.0657C43.1477 17.2548 43.1023 17.5143 43.0159 17.8255C42.9001 18.1622 42.7383 18.4815 42.535 18.7744C42.0824 19.4322 41.4251 19.9246 40.6637 20.1764C40.2017 20.3272 39.7175 20.4004 39.2312 20.393C38.9104 20.3931 38.592 20.3392 38.2894 20.2336C37.9957 20.1322 37.7261 19.972 37.4972 19.763C37.2576 19.538 37.0681 19.2657 36.9411 18.9636C36.8003 18.6414 36.7294 18.2422 36.7294 17.7782C36.7294 17.0184 36.9355 16.4015 37.3399 15.9507C37.7754 15.4703 38.3222 15.1023 38.9331 14.8786C39.6252 14.6203 40.3494 14.4564 41.0858 14.3915C41.7711 14.3259 42.4593 14.2961 43.1477 14.3024V17.0657ZM57.091 7.50691L53.7562 16.5049C53.5479 17.0481 53.354 17.5957 53.1767 18.129C53.0903 18.3951 53.0083 18.6469 52.9274 18.8866H52.8643C52.781 18.624 52.696 18.3619 52.6094 18.1004C52.4366 17.5726 52.2505 17.0547 52.0599 16.5609L48.4935 7.50691H46.5867L51.6888 20.5239C51.8228 20.8373 51.8428 20.9813 51.8428 21.0396C51.8428 21.0572 51.8361 21.1638 51.6865 21.5597C51.4079 22.2661 51.0444 22.9365 50.6041 23.5566C50.1953 24.1085 49.8208 24.5572 49.4873 24.8882C49.0995 25.273 48.6996 25.5886 48.2929 25.8272C47.8775 26.0702 47.4986 26.267 47.1628 26.4155L46.9701 26.5013L47.5916 28L47.7888 27.9274C47.9506 27.8669 48.2542 27.7295 48.7151 27.5063C49.1804 27.2787 49.6956 26.918 50.2451 26.4298C50.7321 26.0042 51.1645 25.5208 51.5325 24.9904C51.9092 24.4538 52.2859 23.8237 52.656 23.1244C53.0216 22.4262 53.3872 21.6323 53.744 20.7625C54.1007 19.8883 54.4841 18.9108 54.8796 17.8607L59 7.50691H57.091Z" fill="white"/>
</svg>
