<svg width="45" height="60" viewBox="0 0 45 60" fill="none" xmlns="http://www.w3.org/2000/svg">
<path d="M34.1547 42.0975C34.1547 40.6875 34.0796 39.2394 34.1922 37.8295C34.2298 37.296 34.7179 36.7244 35.131 36.3433C40.3127 31.1226 41.9649 24.835 40.0874 17.8614C38.2475 10.964 33.629 6.58165 26.7575 4.79062C19.2101 2.80905 11.1371 6.20059 6.93157 12.9455C2.80117 19.6143 3.36441 28.6838 8.24579 34.6285C10.724 37.6389 10.724 37.6389 10.5738 41.8307C4.67862 40.497 -0.803549 29.5602 0.0976303 20.1859C1.03636 10.3162 8.95922 0.636943 21.5382 0.0272289C32.3523 -0.506271 41.9649 6.8484 44.4056 17.8232C47.034 29.3316 40.4629 39.1251 34.1547 42.0975Z" fill="white"/>
<path d="M30.2496 41.7546C29.7615 46.175 28.5975 51.5862 26.1192 56.6163C25.3307 58.2168 24.3544 60.2746 22.5145 59.9697C21.1627 59.7411 19.6983 58.1025 18.9849 56.7306C16.2438 51.4719 14.8545 45.7558 14.5541 39.8492C14.2912 35.0477 18.2714 30.9702 22.7398 31.1227C27.2081 31.1989 30.5876 35.4669 30.2496 41.7546Z" fill="white"/>
<path d="M15.0798 29.7888C14.1035 30.8177 13.2399 31.8085 12.3387 32.7612C9.10945 30.7034 7.232 24.3776 8.43357 19.3856C9.86043 13.4409 15.23 8.67751 21.0125 8.22023C27.471 7.72483 33.2911 11.2307 35.7693 17.0992C38.0974 22.6247 36.7456 29.3316 32.5776 32.9898C31.6765 31.961 30.7753 30.9321 29.7615 29.7507C31.9018 27.1976 32.878 24.2252 32.2773 20.8337C31.8267 18.3948 30.5875 16.3752 28.635 14.8128C24.9552 11.8404 19.3604 12.0309 15.8683 15.2319C11.7754 19.0427 11.5126 24.0728 15.0798 29.7888Z" fill="white"/>
<path d="M28.4098 23.0058C28.3347 26.3592 25.6687 28.9505 22.3644 28.9124C19.0225 28.8743 16.4316 26.0925 16.5067 22.6247C16.5443 19.3475 19.398 16.5657 22.5521 16.6419C25.8565 16.7562 28.5224 19.6143 28.4098 23.0058Z" fill="white"/>
</svg>
