<svg width="49" height="60" viewBox="0 0 49 60" fill="none" xmlns="http://www.w3.org/2000/svg">
<path d="M47.59 20.3144C44.7436 22.0954 42.695 24.3486 41.7247 27.4815C39.7623 33.876 42.3284 40.3779 48.2154 43.5967C48.927 43.9829 49.1858 44.3048 48.8623 45.1417C47.1803 49.605 44.7652 53.6177 41.4875 57.1154C39.1154 59.6475 36.3768 60.6346 32.9697 59.3685C31.4602 58.8106 29.8861 58.4673 28.355 57.9952C26.3712 57.3944 24.4088 57.5231 22.4465 58.1454C20.6998 58.7033 18.9532 59.1969 17.2065 59.7333C15.5245 60.2483 13.9072 60.0123 12.4624 59.0681C11.4274 58.3814 10.4139 57.5875 9.59443 56.6648C4.26814 50.6994 1.07669 43.7683 0.214129 35.8073C-0.346533 30.829 0.0847469 26.0223 2.82336 21.6663C5.73449 17.0313 9.81007 14.3275 15.4598 14.6065C17.0771 14.6923 18.6728 15.2717 20.247 15.7009C21.2821 15.9798 22.3171 16.3231 23.3091 16.7094C24.5167 17.2029 25.638 17.0527 26.824 16.5806C29.9076 15.379 33.0128 14.2631 36.3768 14.3704C41.0346 14.5206 44.8299 16.3231 47.59 20.3144Z" fill="white"/>
<path d="M36.4846 0.0148991C37.606 6.47385 30.6193 14.8211 24.7323 13.5122C23.4816 7.65406 30.4468 -0.392809 36.4846 0.0148991Z" fill="white"/>
</svg>
