<svg width="60" height="58" viewBox="0 0 60 58" fill="none" xmlns="http://www.w3.org/2000/svg">
<path d="M24.2832 28.461C24.4629 28.3487 24.6651 28.3712 24.8897 28.3712C28.7085 28.3712 32.5048 28.3487 36.3236 28.3487C36.5258 28.3487 36.728 28.3038 36.9077 28.461C38.5475 31.224 40.2098 33.9871 41.8496 36.7501C42.4562 37.7834 43.0851 38.8167 43.7366 39.9399C43.3772 39.9399 43.0851 39.9399 42.8156 39.9399C34.5715 39.9399 26.3049 39.9623 18.0608 39.9623C17.9709 39.9623 17.8811 39.9623 17.7912 39.9623C17.3869 39.9848 17.4094 39.8276 17.5891 39.5355C18.4651 38.008 19.4086 36.5254 20.3296 35.0204C21.5202 33.111 22.6883 31.1567 23.8564 29.2248C23.9912 29.0002 24.1259 28.7306 24.2832 28.461Z" fill="white"/>
<path d="M13.0961 29.3371C14.4215 27.1357 15.7468 24.9118 17.0497 22.7104C17.499 21.9691 17.9483 21.2053 18.3751 20.4416C18.5323 20.172 18.6446 20.1271 18.9142 20.3068C20.8236 21.5648 22.733 22.8002 24.6424 24.0357C24.8446 24.1705 24.9793 24.2604 24.7996 24.5075C23.2721 27.0234 21.7221 29.5393 20.1946 32.0552C17.0497 37.2443 13.9048 42.4558 10.7824 47.6449C10.6252 47.892 10.5353 48.0492 10.1984 47.8246C8.35634 46.5442 6.49188 45.2862 4.62741 44.0507C4.40277 43.8935 4.53755 43.8036 4.60494 43.6913C4.91943 43.1522 5.23392 42.6355 5.54841 42.0964C7.86215 38.1877 10.1759 34.2566 12.4896 30.348C12.7143 30.0335 12.894 29.6741 13.0961 29.3371Z" fill="white"/>
<path d="M33.4931 19.0039C33.4707 18.959 33.4707 18.914 33.4482 18.8691C33.4257 18.8467 33.4033 18.8017 33.3808 18.7793C33.3584 18.7343 33.3583 18.6894 33.3359 18.6445C33.3134 18.622 33.291 18.5771 33.2685 18.5322C33.246 18.4872 33.246 18.4423 33.2236 18.4199C33.2011 18.3749 33.1786 18.3525 33.1562 18.3075C33.1337 18.2626 33.1337 18.2177 33.1112 18.1952C33.0888 18.1503 33.0663 18.1278 33.0439 18.0829C31.2019 14.2641 29.4048 10.4004 27.7425 6.49173C27.0461 4.87436 26.4396 3.1896 26.2599 1.39252C26.2374 1.21281 26.215 1.01064 26.215 0.830931C26.1925 0.112099 26.6193 -0.179926 27.2932 0.1121C28.057 0.426589 28.6635 0.965711 29.2026 1.54976C30.6627 3.12221 31.8533 4.89682 32.9989 6.71637C36.4134 12.1975 39.4909 17.8583 42.5459 23.5415C43.3771 25.0915 44.2082 26.664 45.0394 28.2139C45.7582 29.5842 46.4546 30.9769 47.1734 32.3472C47.3531 32.6842 47.3531 32.8639 46.9712 33.0885C45.7357 33.7624 44.5002 34.4813 43.2872 35.245C42.8829 35.4921 42.7256 35.3798 42.501 35.0428C40.1199 31.4038 38.0083 27.6299 35.9641 23.8111C35.717 23.3618 35.5373 22.8676 35.1779 22.4633C35.2004 22.4408 35.2004 22.4184 35.1779 22.3959C35.133 22.351 35.1105 22.2836 35.0656 22.2386C35.088 22.2162 35.088 22.1937 35.0656 22.1713C35.0206 22.1263 34.9982 22.0589 34.9533 22.014C34.9757 21.9915 34.9757 21.9691 34.9533 21.9466C34.9083 21.9017 34.8859 21.8568 34.8409 21.7894C34.8409 21.722 34.8185 21.6546 34.8185 21.5872C34.796 21.5423 34.7511 21.5198 34.7286 21.4749H34.7511C34.3243 20.6662 33.8975 19.8351 33.4931 19.0039Z" fill="white"/>
<path d="M46.9038 28.5734C47.0161 28.3937 47.1958 28.4386 47.3531 28.4386C51.4639 28.4386 55.5972 28.4161 59.708 28.4161C59.7979 28.4161 59.8877 28.4386 59.9776 28.4386C59.9776 32.0552 59.9776 35.6494 60 39.266C60 39.7377 59.9326 39.895 59.3935 39.895C57.2146 39.8725 55.0131 39.895 52.8342 39.895C52.5197 39.895 52.3624 39.8051 52.2052 39.5131C50.5878 36.166 48.948 32.819 47.3082 29.4495C47.1734 29.1799 47.0386 28.8879 46.9038 28.5734Z" fill="white"/>
<path d="M0 28.5734C0.112317 28.2589 0.381881 28.3937 0.584052 28.3937C3.0775 28.4162 5.57094 28.4386 8.04193 28.4611C9.09771 28.4611 10.131 28.4611 11.1868 28.4836C11.3665 28.4836 11.5687 28.3937 11.7035 28.5959C10.468 30.6625 9.21003 32.7292 7.97454 34.7958C7.03108 36.3907 6.06514 37.9632 5.12168 39.5805C4.9195 39.9175 4.69487 40.0523 4.29053 40.0523C3.05504 40.0298 1.81954 40.0073 0.584052 40.0523C0.112319 40.0747 0.0449263 39.895 0.0449263 39.4907C0.0449263 35.9639 0.0449284 32.4147 0.0224649 28.8879C0.0224649 28.7531 0 28.6633 0 28.5734Z" fill="white"/>
<path d="M55.2377 57.2592C54.4964 57.2817 53.7776 56.8549 53.2385 56.0687C52.0704 54.3839 51.2168 52.5419 50.453 50.655C49.6219 48.6557 48.948 46.5891 48.2741 44.5449C48.2291 44.3876 48.2067 44.3652 48.3639 44.2529C49.4646 43.6464 50.5429 43.0174 51.5987 42.3659C51.8907 42.1862 52.0479 42.2536 52.2501 42.5007C54.1146 44.7695 55.7769 47.2181 57.2595 49.7564C57.8435 50.7224 58.3602 51.7332 58.9218 52.7216C59.371 53.4854 59.3935 54.2716 58.9892 55.0578C58.3377 56.4056 56.9674 57.2592 55.2377 57.2592Z" fill="white"/>
<path d="M47.7351 33.8523C47.9372 33.8523 47.9597 34.0095 48.0046 34.1219C49.0829 36.2559 50.1386 38.3899 51.2169 40.524C51.3292 40.7486 51.3068 40.8834 51.0821 41.0182C49.9365 41.6921 48.8133 42.3884 47.6901 43.1073C47.3981 43.3094 47.3083 43.1297 47.1959 42.9276C46.3199 41.445 45.4438 39.9848 44.5677 38.5022C44.2307 37.9407 43.8713 37.3791 43.5119 36.8175C43.3547 36.5704 43.3547 36.4131 43.6467 36.2334C44.9496 35.4921 46.2525 34.7059 47.5778 33.9646C47.6227 33.9197 47.6901 33.8748 47.7351 33.8523Z" fill="white"/>
<path d="M1.3479 56.3158C2.15659 52.6992 2.96527 49.0826 3.79642 45.3761C5.79567 46.7688 7.75 48.1166 9.77171 49.5094C6.98624 51.8231 4.22323 54.0919 1.48268 56.3832C1.41529 56.3607 1.39283 56.3383 1.3479 56.3158Z" fill="white"/>
<path d="M25.3387 23.3393C25.204 23.2719 25.1366 23.2045 25.0467 23.1596C23.1148 21.9466 21.2953 20.5763 19.3185 19.4307C19.049 19.2734 19.2062 19.0937 19.3185 18.914C20.1946 17.4988 21.0707 16.0836 21.9467 14.6684C22.1714 14.3315 22.396 13.9945 22.5982 13.6351C22.733 13.4104 22.8453 13.4104 23.0475 13.5452C24.9569 14.8032 26.8438 16.0611 28.7532 17.3191C28.9329 17.4314 28.9329 17.5213 28.8206 17.701C27.7199 19.4981 26.6192 21.3176 25.5184 23.1147C25.4511 23.2045 25.3837 23.2719 25.3387 23.3393Z" fill="white"/>
<path d="M26.0352 10.6699C27.6301 10.8496 28.9555 11.7032 29.8091 13.2083C30.2359 13.9496 29.9888 14.7358 29.7192 15.4771C29.3149 16.6452 29.2924 16.6452 28.304 15.9938C26.6867 14.938 25.0693 13.8597 23.4294 12.8264C23.1599 12.6467 23.2048 12.5793 23.3396 12.3547C23.9236 11.3663 24.6874 10.6924 26.0352 10.6699Z" fill="white"/>
</svg>
