<svg width="60" height="20" viewBox="0 0 60 20" fill="none" xmlns="http://www.w3.org/2000/svg">
<path d="M32.5742 0H10.3556L0 18.5579H22.2186L32.5742 0Z" fill="white"/>
<path d="M32.5742 0H35.4714V6.969H35.5302C36.2545 5.48124 38.075 4.83524 39.876 4.83524C43.9282 4.83524 45.9445 8.12398 45.9445 11.9413C45.9445 15.7586 43.9478 18.969 39.9152 18.969C38.5644 18.969 36.4698 18.4405 35.491 16.8548H35.4323V18.6558H32.5742L32.5742 0ZM39.1517 7.10604C36.4502 7.10604 35.4127 9.51387 35.4127 11.8825C35.4127 14.3883 36.509 16.6982 39.2692 16.6982C42.0098 16.6982 42.9494 14.2708 42.9494 11.7847C42.9494 9.41599 41.7553 7.10604 39.1517 7.10604Z" fill="white"/>
<path d="M57.0441 13.5465L57.0245 13.7227C56.7309 15.739 55.7521 16.6395 53.7945 16.6395C50.6819 16.6395 50.2121 13.801 50.2121 12.0979C50.2121 8.77002 51.465 7.14522 54.049 7.14522C55.7325 7.14522 56.6526 7.90868 56.9854 9.57263L57.0245 9.72924H59.8826L59.863 9.5139C59.5694 6.49922 57.3377 4.69824 53.8728 4.69824C49.8402 4.69824 47.3345 7.53674 47.3345 12.0979C47.3345 16.4633 49.8206 19.1648 53.8337 19.1648C57.2594 19.1648 59.4323 17.2464 59.9609 13.7619L60.0001 13.5465H57.0441Z" fill="white"/>
</svg>
