<svg width="40" height="66" viewBox="0 0 40 66" fill="none" xmlns="http://www.w3.org/2000/svg">
<path fill-rule="evenodd" clip-rule="evenodd" d="M15.6472 20.3936C15.2561 21.2281 15.3082 21.9583 16.0384 22.4799L22.1148 26.9133C24.9052 28.9474 25.0617 32.4941 23.184 35.102L20.1328 39.3267L19.2461 38.6748C19.7416 37.8924 19.6634 37.1361 18.6202 36.4059L12.6221 32.0768C10.4054 30.46 9.88384 26.496 11.5268 24.2532L14.7866 19.7677L15.6472 20.3936ZM19.9763 0L14.917 6.9891C12.5439 10.275 13.4045 15.8819 16.6382 18.2551L24.9573 24.3575C26.6525 25.5832 26.8611 28.7388 25.6354 30.3556L26.3395 30.8772L32.0768 22.8189C34.6586 19.1939 34.5022 13.8478 30.46 10.9009L21.5671 4.45946C20.3153 3.54671 19.6894 2.00806 20.7326 0.547653L19.9763 0ZM6.65008 43.8644H13.3523L14.5519 47.9327H25.505L26.7046 43.8644H33.3808L32.4941 40.8654H7.51067L6.65008 43.8644ZM12.4135 60.5287C12.909 63.8929 9.8056 65.1968 6.88479 65.1968H0V50.4623H6.93694C9.41442 50.4623 11.6833 51.5837 11.6833 54.3742C11.6833 55.7563 10.9531 56.7734 9.77952 57.4775C11.3442 58.1556 12.1266 58.5989 12.4135 60.5287ZM3.12945 56.4083H6.85871C9.04932 56.4083 8.97108 53.2528 6.72831 53.2528H3.12945V56.4083ZM7.14557 59.0422H3.12945V62.4064H7.14557C9.936 62.4064 10.0925 59.0422 7.14557 59.0422ZM26.157 60.5287C26.6525 63.8929 23.5491 65.1968 20.6283 65.1968H13.7696V50.4623H20.7065C23.184 50.4623 25.4528 51.5837 25.4528 54.3742C25.4528 55.7563 24.7226 56.7734 23.5491 57.4775C25.1138 58.1556 25.8701 58.5989 26.157 60.5287ZM16.899 56.4083H20.6544C22.845 56.4083 22.7667 53.2528 20.524 53.2528H16.899V56.4083ZM20.9151 59.0422H16.899V62.4064H20.9151C23.6795 62.4064 23.862 59.0422 20.9151 59.0422ZM34.3978 65.1968H27.5391V50.4623H34.4761C36.9536 50.4623 39.2224 51.5837 39.2224 54.3742C39.2224 55.7563 38.4922 56.7734 37.3187 57.4775C38.8834 58.1556 39.6658 58.625 39.9526 60.5548C40.422 63.919 37.3187 65.1968 34.3978 65.1968ZM30.6425 56.4083H34.3978C36.5885 56.4083 36.5102 53.2528 34.2675 53.2528H30.6686V56.4083H30.6425ZM34.6586 59.0422H30.6425V62.4064H34.6586C37.4491 62.4064 37.6316 59.0422 34.6586 59.0422Z" fill="white"/>
</svg>
