<svg width="56" height="35" viewBox="0 0 56 35" fill="none" xmlns="http://www.w3.org/2000/svg">
<path d="M0 0C0.196975 0.00987863 0.384101 0.0296362 0.581076 0.0296362C5.86986 0.0296362 11.1685 0.0197582 16.4573 0.0395154C18.2694 0.0395154 20.0619 0.21733 21.7756 0.839684C24.2181 1.71888 26.0598 3.27971 26.8871 5.78888C27.7144 8.27829 27.7144 10.7875 26.5227 13.1979C25.9416 14.3734 24.9863 15.1933 23.8635 15.8453C23.6862 15.954 23.509 16.0627 23.3317 16.1713C23.3218 16.1812 23.3218 16.201 23.2923 16.2504C23.7552 16.4874 24.2378 16.7048 24.6908 16.9715C26.6803 18.1273 27.8326 19.8758 28.2955 22.1084C28.7977 24.5286 28.5712 26.8699 27.4977 29.0926C26.2962 31.5721 24.4151 33.3108 21.7953 34.1899C20.3869 34.6542 18.9195 34.8716 17.4421 34.9012C14.9996 34.9506 12.5572 34.9605 10.1147 34.9704C6.92367 34.9802 3.73268 34.9704 0.541681 34.9704C0.364404 34.9704 0.187126 34.9901 0.00984879 35C3.74232e-08 23.3333 0 11.6667 0 0ZM8.03658 28.8259C8.12522 28.8654 8.15477 28.8851 8.17446 28.8851C11.198 28.8555 14.2216 28.8654 17.2452 28.7666C18.3581 28.7271 19.3725 28.2529 20.1407 27.3539C21.1157 26.2179 21.2733 24.8546 21.1945 23.442C21.1453 22.5035 20.84 21.6638 20.1604 20.9822C19.2248 20.0437 18.0331 19.698 16.7823 19.6684C13.9852 19.5795 11.1783 19.6091 8.38129 19.5696C8.00703 19.5696 8.02673 19.7869 8.02673 20.0339C8.02673 22.4739 8.02673 24.904 8.02673 27.3441C8.03658 27.838 8.03658 28.3319 8.03658 28.8259ZM8.05628 6.09512C8.04643 6.29269 8.03658 6.42111 8.03658 6.54953C8.03658 8.80186 8.04643 11.0641 8.02673 13.3164C8.02673 13.7214 8.14492 13.8202 8.53887 13.8202C10.7844 13.8005 13.0397 13.8301 15.2853 13.8005C16.0732 13.7906 16.8611 13.6918 17.6293 13.5239C18.4763 13.346 19.2839 13.0003 19.8255 12.2594C20.5248 11.311 20.6134 10.2046 20.4559 9.08834C20.2687 7.76461 19.5695 6.7965 18.2103 6.5199C17.2353 6.32233 16.2504 6.14451 15.2557 6.11488C13.3352 6.04572 11.4147 6.08524 9.4942 6.08524C9.03131 6.09512 8.56841 6.09512 8.05628 6.09512Z" fill="white"/>
<path d="M55.9998 23.2444C55.862 23.2345 55.7339 23.2148 55.596 23.2148C49.8444 23.2148 44.0927 23.2148 38.3312 23.2148C38.1835 23.2148 38.0357 23.2148 37.8092 23.2148C37.8486 23.6494 37.8683 24.0446 37.9372 24.4397C38.3115 26.7612 39.513 28.4307 41.8078 29.1123C43.5412 29.626 45.2844 29.6063 46.939 28.7567C47.658 28.3813 48.2587 27.838 48.6428 27.0971C48.8398 26.7217 49.0959 26.5538 49.5588 26.5636C51.4103 26.5933 53.252 26.5735 55.1036 26.5735C55.2612 26.5735 55.4188 26.5735 55.6157 26.5735C55.4976 27.7688 55.0051 28.7271 54.3847 29.626C52.6907 32.0957 50.4058 33.696 47.4807 34.3381C44.4571 35.0099 41.4729 34.9111 38.5774 33.7355C34.9334 32.2537 32.4712 29.7248 31.6734 25.7536C31.0431 22.5924 31.0727 19.451 31.9689 16.3491C32.6583 13.9387 34.0273 11.9729 36.066 10.4812C38.4888 8.71294 41.2366 8.11034 44.1616 8.20913C46.486 8.28816 48.7118 8.78209 50.7012 10.0466C52.4149 11.1332 53.6558 12.6545 54.5718 14.4623C55.4089 16.112 55.7635 17.8902 55.9014 19.7177C55.9112 19.8758 55.9605 20.0339 55.99 20.1919C55.9998 21.2094 55.9998 22.2269 55.9998 23.2444ZM38.0456 18.8781C41.7783 18.8781 45.4715 18.8781 49.1747 18.8781C49.0959 15.6477 46.8701 13.593 43.5707 13.5831C39.907 13.5634 38.3312 16.1614 38.0456 18.8781Z" fill="white"/>
<path d="M36.5881 4.9196C36.5881 3.77368 36.5881 2.66727 36.5881 1.51147C41.2466 1.51147 45.8755 1.51147 50.5438 1.51147C50.5438 2.6574 50.5438 3.77368 50.5438 4.9196C45.8952 4.9196 41.2761 4.9196 36.5881 4.9196Z" fill="white"/>
</svg>
