<svg width="44" height="59" viewBox="0 0 44 59" fill="none" xmlns="http://www.w3.org/2000/svg">
<path d="M43.8847 23.7209C44.8012 17.5159 40.1434 14.1827 33.7709 11.9547L35.8344 3.56285L30.793 2.29083L28.7799 10.4648C27.4488 10.1311 26.0906 9.81698 24.7344 9.5029L26.7591 1.27204L21.7157 -5.51136e-06L19.6503 8.39185C18.5537 8.14058 17.4725 7.89324 16.4301 7.6302L16.4379 7.60076L9.47253 5.84189L8.13177 11.2971C8.13177 11.2971 11.8789 12.1667 11.7995 12.2256C13.8455 12.7399 14.2156 14.116 14.1516 15.2015L11.7975 24.7672C11.937 24.8025 12.1172 24.8555 12.3226 24.936C12.1521 24.8948 11.968 24.8477 11.7878 24.8025L8.4902 38.2079C8.23833 38.8341 7.60087 39.7822 6.17873 39.421C6.22329 39.4917 2.50908 38.4945 2.50908 38.4945L-1.89211e-06 44.3423L6.57205 46.003C7.78687 46.3092 8.98814 46.6311 10.1642 46.9432L8.07365 55.4352L13.1189 56.7092L15.1862 48.3056C16.5619 48.6805 17.9007 49.0358 19.2085 49.3656L17.1509 57.728L22.1943 59L24.281 50.5238C32.8855 52.1727 39.3587 51.5072 42.0829 43.6218C44.2703 37.2715 41.9724 33.6145 37.4425 31.2235C40.7421 30.4501 43.2221 28.2574 43.8847 23.7209ZM32.3585 40.0924C30.7949 46.4446 20.2509 43.0094 16.8312 42.1476L19.598 30.9016C23.0177 31.7653 33.986 33.4751 32.3585 40.0924ZM33.9182 23.6267C32.498 29.3979 23.7133 26.4691 20.8651 25.7487L23.3781 15.5391C26.2282 16.2576 35.4004 17.6022 33.9182 23.6267Z" fill="white"/>
</svg>
