<svg width="60" height="60" viewBox="0 0 60 60" fill="none" xmlns="http://www.w3.org/2000/svg">
<path d="M59.9026 40.6139C59.9026 51.2763 51.1364 60 40.4221 60H19.4805C8.76623 60 0 51.2763 0 40.6139V19.3861C0 8.72375 8.76623 0 19.4805 0H29.3182C40.0325 0 48.7987 8.72375 48.7987 19.3861C48.8961 21.4216 50.6493 22.9725 52.6948 22.9725H52.7922H56.1039C58.2468 22.9725 60 24.7173 60 26.8498L59.9026 40.6139ZM33.7987 19.483C33.7987 17.4475 32.1429 15.7997 30.0974 15.7997H18.9935C16.9481 15.7997 15.2922 17.4475 15.2922 19.483C15.2922 21.5186 16.9481 23.1664 18.9935 23.1664H30C32.1429 23.1664 33.7987 21.5186 33.7987 19.483ZM44.7078 41.0985C44.7078 39.1599 43.1493 37.609 41.2013 37.609H18.9935C17.0455 37.609 15.487 39.1599 15.487 41.0985C15.487 43.0372 17.0455 44.588 18.9935 44.588H41.1039C43.0519 44.588 44.7078 43.0372 44.7078 41.0985Z" fill="white"/>
</svg>
