<svg width="59" height="48" viewBox="0 0 59 48" fill="none" xmlns="http://www.w3.org/2000/svg">
<path d="M30.7921 23.2492C35.3155 22.3115 39.0691 18.2197 39.0691 12.2295C39.0691 5.82295 34.3984 1.00058e-06 25.2665 1.00058e-06H1.87421e-07V48H26.0625C35.2762 48 40.0321 42.2393 40.0321 34.977C40.0092 29.0098 35.9837 24.0426 30.7921 23.2492ZM10.216 8.99344H23.0163C26.4784 8.99344 28.6238 11.082 28.6238 14.023C28.6238 17.1115 26.4555 19.0525 23.0163 19.0525H10.216V8.99344ZM23.4552 39.0066H10.216V28.0721H23.4552C27.4152 28.0721 29.5639 30.5148 29.5639 33.541C29.5835 36.9803 27.2711 39.0066 23.4552 39.0066ZM52.5998 0.081967C49.5144 0.081967 46.9072 2.66885 46.9072 5.75738C46.9072 8.8459 49.0755 10.9344 51.8072 10.9344C52.3902 10.9344 52.9536 10.8721 53.1829 10.7246C52.5998 13.3115 49.95 16.3377 47.6376 17.5705L51.5976 20.8066C56.039 17.6557 59 12.8328 59 7.42951C59.0033 2.7541 55.9801 0.081967 52.5998 0.081967Z" fill="white"/>
</svg>
