<svg width="60" height="40" viewBox="0 0 60 40" fill="none" xmlns="http://www.w3.org/2000/svg">
<path d="M31.3477 0.188225C31.3477 13.3667 31.3477 26.6244 31.3477 39.9018C31.6274 39.9216 31.8471 39.981 32.0669 39.981C36.6222 39.981 41.1975 40.0205 45.7528 39.9612C48.3302 39.9414 50.8276 39.5061 53.2052 38.4178C59.7784 35.4298 59.5786 27.2972 54.9234 23.7156C53.7446 22.8054 52.366 22.1326 51.1273 21.3807C53.4649 20.9849 55.7026 20.0945 57.4808 18.2543C60.9372 14.6529 60.8173 8.06367 57.241 4.28425C54.9234 1.83059 52.0064 0.386101 48.7098 0.247585C42.9757 0.0299225 37.2216 0.188225 31.3477 0.188225ZM39.2595 17.7596C39.2595 13.6833 39.2595 9.88412 39.2595 6.08491C41.3973 6.08491 43.4352 6.04534 45.4931 6.1047C46.3123 6.12449 47.1514 6.30258 47.9306 6.55982C50.5079 7.41068 51.9065 9.56752 51.7467 12.2586C51.5868 14.9299 50.2083 16.7108 47.4111 17.1462C44.7738 17.5617 42.0566 17.5617 39.2595 17.7596ZM39.2595 23.6167C41.0776 23.6167 42.8358 23.5375 44.574 23.6563C45.4731 23.7156 46.4122 24.0124 47.2313 24.3884C49.3092 25.358 50.2083 27.2774 49.9685 29.9289C49.8087 31.6504 48.6299 33.1543 46.612 33.4907C44.2144 33.9062 41.7569 33.9458 39.2395 34.1634C39.2595 30.5027 39.2595 27.1191 39.2595 23.6167Z" fill="white"/>
<path d="M19.5599 21.4005C22.5968 20.9058 25.1341 19.7384 26.9123 17.2847C30.2089 12.7336 28.7304 5.82772 23.7755 2.50342C21.338 0.861053 18.5809 0.109123 15.6839 0.0497589C10.4892 -0.0491791 5.31453 0.0299759 6.09724e-07 0.0299759C6.09724e-07 13.3074 6.09724e-07 26.5651 6.09724e-07 39.8821C0.239754 39.9019 0.499486 39.9612 0.739239 39.9612C5.29455 39.9612 9.86984 40.08 14.4252 39.9019C16.6229 39.8227 18.8606 39.4072 20.9385 38.7146C24.1751 37.6461 26.3928 35.4101 26.7924 31.8879C27.252 28.0689 25.7535 25.0612 22.5168 22.9439C21.6377 22.3701 20.6188 21.9546 19.5599 21.4005ZM7.85192 6.08496C9.98972 6.08496 12.0876 5.98602 14.1654 6.12453C15.2643 6.1839 16.4031 6.48071 17.4021 6.95562C19.5998 7.98457 20.439 9.92374 20.3391 12.2191C20.2592 14.5145 19.1803 16.1964 16.9226 16.9483C13.9656 17.9377 10.8888 17.5024 7.85192 17.5815C7.85192 13.6636 7.85192 9.88417 7.85192 6.08496ZM7.85192 23.5969C9.63009 23.5969 11.3084 23.4782 12.9467 23.6365C14.0655 23.7552 15.2443 24.0916 16.2433 24.6259C18.2812 25.7538 18.8206 27.693 18.6208 29.8894C18.461 31.6505 17.4021 32.7981 15.7838 33.372C13.2264 34.2822 10.5491 33.9854 7.8719 33.9656C7.85192 30.4632 7.85192 27.0795 7.85192 23.5969Z" fill="white"/>
</svg>
