<svg width="43" height="42" viewBox="0 0 43 42" fill="none" xmlns="http://www.w3.org/2000/svg">
<path d="M0.396161 41.2997C0.358034 40.5772 0.281781 40.0067 0.281781 39.4363C0.281781 28.1416 0.243652 16.8849 0.243652 5.59026C0.243652 1.78733 1.88308 0.152075 5.65757 0.152075C9.16519 0.152075 12.6347 0.0760093 16.1423 0.228126C23.9963 0.53236 29.0671 6.88325 26.8939 13.9947C26.2839 16.0863 24.6826 17.8737 23.5006 19.8893C27.0464 21.7907 28.9527 25.0993 28.9146 29.4346C28.9146 35.8616 24.3394 40.6913 17.1336 41.2237C11.6815 41.604 6.15322 41.2997 0.396161 41.2997ZM8.44079 34.1122C11.1478 34.1122 13.7403 34.3024 16.2948 34.0742C19.1161 33.808 20.6412 31.6783 20.5649 28.5599C20.5268 25.6697 18.8111 23.6542 16.0279 23.426C14.2741 23.2739 12.4822 23.3499 10.7284 23.3499C9.35582 23.3499 8.51704 24.1105 8.47892 25.4035C8.40267 28.3318 8.44079 31.222 8.44079 34.1122ZM8.44079 16.6948C10.4615 16.6948 12.3297 16.7328 14.1979 16.6948C17.3623 16.6187 18.9255 15.0976 19.0018 12.0933C19.078 8.93683 17.5911 7.33961 14.3122 7.18749C13.2447 7.14946 12.1772 7.14946 11.0715 7.18749C9.4702 7.18749 8.51704 7.9861 8.44079 9.5453C8.36454 11.8651 8.44079 14.1849 8.44079 16.6948Z" fill="url(#paint0_radial)"/>
<path d="M0.396161 41.2997C0.358034 40.5772 0.281781 40.0067 0.281781 39.4363C0.281781 28.1416 0.243652 16.8849 0.243652 5.59026C0.243652 1.78733 1.88308 0.152075 5.65757 0.152075C9.16519 0.152075 12.6347 0.0760093 16.1423 0.228126C23.9963 0.53236 29.0671 6.88325 26.8939 13.9947C26.2839 16.0863 24.6826 17.8737 23.5006 19.8893C27.0464 21.7907 28.9527 25.0993 28.9146 29.4346C28.9146 35.8616 24.3394 40.6913 17.1336 41.2237C11.6815 41.604 6.15322 41.2997 0.396161 41.2997ZM8.44079 34.1122C11.1478 34.1122 13.7403 34.3024 16.2948 34.0742C19.1161 33.808 20.6412 31.6783 20.5649 28.5599C20.5268 25.6697 18.8111 23.6542 16.0279 23.426C14.2741 23.2739 12.4822 23.3499 10.7284 23.3499C9.35582 23.3499 8.51704 24.1105 8.47892 25.4035C8.40267 28.3318 8.44079 31.222 8.44079 34.1122ZM8.44079 16.6948C10.4615 16.6948 12.3297 16.7328 14.1979 16.6948C17.3623 16.6187 18.9255 15.0976 19.0018 12.0933C19.078 8.93683 17.5911 7.33961 14.3122 7.18749C13.2447 7.14946 12.1772 7.14946 11.0715 7.18749C9.4702 7.18749 8.51704 7.9861 8.44079 9.5453C8.36454 11.8651 8.44079 14.1849 8.44079 16.6948Z" fill="white"/>
<path d="M42.7162 36.7744C42.7162 39.5885 40.5812 41.7562 37.8361 41.7562C35.0529 41.7562 32.8416 39.6266 32.8416 36.8504C32.8416 34.1123 35.0529 31.8686 37.7598 31.8306C40.4668 31.8306 42.7162 34.0363 42.7162 36.7744Z" fill="#18A0DB"/>
<defs>
<radialGradient id="paint0_radial" cx="0" cy="0" r="1" gradientUnits="userSpaceOnUse" gradientTransform="translate(13.3258 6.42397) scale(27.3465 27.277)">
<stop stop-color="#2654A5"/>
<stop offset="1" stop-color="#233D7B"/>
</radialGradient>
</defs>
</svg>
