<svg width="60" height="60" viewBox="0 0 60 60" fill="none" xmlns="http://www.w3.org/2000/svg">
<path d="M0 53.1985C0 39.4309 0 25.6634 0 11.841C0.275735 11.7313 0.386043 11.457 0.496337 11.2376C2.86766 6.41073 5.79043 4.71035 11.1948 5.03946C12.0772 5.09431 12.4632 5.42341 12.4632 6.30103C12.4081 7.782 12.4632 9.26298 12.4632 10.7439C12.5184 13.9253 14.6691 16.1742 17.8677 16.4484C18.9706 16.5581 20.1287 16.5581 21.2868 16.4484C24.4301 16.1742 26.4706 13.9253 26.5809 10.7988C26.636 9.31782 26.636 7.83685 26.5809 6.35588C26.5809 5.47827 26.9118 5.03946 27.7941 5.09431C29.7243 5.09431 31.6544 5.09431 33.5294 5.09431C34.4118 5.09431 34.7978 5.47827 34.7426 6.35588C34.7426 7.8917 34.6875 9.48238 34.7426 11.0182C34.8529 13.8156 36.7831 15.9548 39.5405 16.3936C40.864 16.613 42.1875 16.5581 43.511 16.4484C46.5993 16.1193 48.6949 13.8704 48.75 10.7439C48.8052 9.26298 48.8052 7.782 48.75 6.30103C48.75 5.42341 49.136 5.09431 50.0184 5.03946C54.0993 4.82006 57.6287 7.01409 59.2831 10.7439C59.4485 11.1828 59.5037 11.6764 60 11.8958C60 25.6634 60 39.4309 60 53.2533C59.614 53.363 59.5037 53.747 59.3934 54.0213C58.3456 56.5444 56.5258 58.3545 53.989 59.3966C53.6581 59.5063 53.3272 59.616 53.2169 60C37.7206 60 22.2243 60 6.72795 60C6.61765 59.616 6.23161 59.5063 5.95588 59.3966C3.41911 58.3545 1.59926 56.5992 0.551471 54.0213C0.496324 53.6373 0.386029 53.3082 0 53.1985ZM30.1103 20.8914C22.886 20.8914 15.6618 20.8914 8.38236 20.8914C5.56986 20.8914 4.6875 21.769 4.6875 24.6212C4.6875 33.0134 4.6875 41.3507 4.6875 49.7429C4.6875 53.4727 6.45221 55.2828 10.2022 55.2828C23.4375 55.2828 36.6728 55.2828 49.853 55.2828C53.603 55.2828 55.3677 53.4727 55.3677 49.7429C55.3677 41.3507 55.3677 33.0134 55.3677 24.6212C55.3677 21.8238 54.4853 20.8914 51.6728 20.8914C44.5037 20.8914 37.3345 20.8914 30.1103 20.8914Z" fill="white"/>
<path d="M22.4663 0C24.1712 1.59512 23.9948 3.70295 23.9948 5.75381C23.936 7.46287 23.9948 9.17192 23.9948 10.824C23.936 12.704 22.8778 13.8433 20.9377 13.9573C19.8795 14.0142 18.8213 14.0142 17.8219 13.9573C16.117 13.7864 15.0588 12.704 15.0588 11.0519C15 8.37436 15.0588 5.63988 15 2.96236C15 1.70905 15.9994 0.968464 16.5285 0C18.4686 0 20.4674 0 22.4663 0Z" fill="white"/>
<path d="M44.6367 0C46.1522 1.59512 45.9954 3.70295 45.9954 5.75381C45.9431 7.46287 45.9954 9.17192 45.9954 10.824C45.9431 12.704 45.0025 13.8433 43.278 13.9573C42.3374 14.0142 41.3967 14.0142 40.5084 13.9573C38.9929 13.7864 38.0522 12.704 38.0522 11.0519C38 8.37436 38.0523 5.63988 38 2.96236C38 1.70905 38.8884 0.968464 39.3587 0C41.0832 0 42.86 0 44.6367 0Z" fill="white"/>
<path d="M14 41.0237C14.7467 41.0237 15.4933 40.9703 16.2933 41.0237C17.84 41.1306 18.9067 42.1456 18.96 43.6948C19.0133 45.244 19.0133 46.7931 18.96 48.3423C18.9067 49.8381 17.84 50.9065 16.3467 50.9599C14.8 51.0134 13.2533 51.0134 11.7067 50.9599C10.16 50.9065 9.09333 49.8381 9.04 48.2889C8.98667 46.7931 8.98667 45.3508 9.04 43.855C9.09333 42.0922 10.16 41.0772 11.92 41.0237C12.6133 41.0237 13.3067 41.0237 14 41.0237Z" fill="white"/>
<path d="M40.0261 46C40.0261 45.2 39.9674 44.4 40.0261 43.6C40.1436 42.16 41.2601 41.0933 42.8467 41.04C44.6096 40.9867 46.3725 40.9867 48.0766 41.04C49.7219 41.0933 50.8972 42.16 50.9559 43.6533C51.0147 45.2533 51.0147 46.8533 50.9559 48.4C50.8972 49.84 49.7219 50.9067 48.1353 50.96C46.3724 51.0133 44.6096 51.0133 42.9055 50.96C41.2601 50.9067 40.1436 49.84 40.0261 48.3467C39.9674 47.6 40.0261 46.8 40.0261 46Z" fill="white"/>
<path d="M14 35.9737C13.2 35.9737 12.4 36.0328 11.6 35.9737C10.1067 35.8556 9.14667 34.7922 9.04 33.138C8.98667 31.3657 8.98667 29.5933 9.04 27.8801C9.09333 26.1668 10.1067 25.1034 11.6533 25.0443C13.2 24.9852 14.7467 24.9852 16.2933 25.0443C17.8933 25.1034 18.9067 26.2259 18.96 27.9982C19.0133 29.6524 19.0133 31.3657 18.96 33.0198C18.9067 34.7922 17.8933 35.9147 16.2933 35.9737C15.6 36.0328 14.8 35.9737 14 35.9737Z" fill="white"/>
<path d="M45.5587 25.0264C46.4387 25.0264 47.3187 24.967 48.1987 25.0264C49.724 25.1452 50.8387 26.2143 50.956 27.7587C51.0147 29.5406 51.0147 31.3819 50.956 33.1638C50.8973 34.7675 49.7827 35.8961 48.14 35.9555C46.38 36.0149 44.62 36.0149 42.9186 35.9555C41.2173 35.8961 40.1027 34.7675 40.044 33.1044C39.9853 31.3819 39.9853 29.6594 40.044 27.9369C40.1027 26.1549 41.2173 25.0858 42.9773 25.0264C43.7987 24.967 44.6787 25.0264 45.5587 25.0264Z" fill="white"/>
<path d="M34.9761 46.1067C34.9761 46.8533 35.0298 47.6 34.9761 48.4C34.8687 49.8933 33.9557 50.9067 32.4519 50.96C30.8407 51.0133 29.1757 51.0133 27.5645 50.96C26.1144 50.9067 25.094 49.84 25.0403 48.4C24.9866 46.8 24.9866 45.2 25.0403 43.6533C25.094 42.1067 26.1144 41.0933 27.672 41.04C29.2295 40.9867 30.7869 40.9867 32.3445 41.04C33.902 41.0933 34.8687 42.1067 34.9761 43.6533C35.0298 44.4533 34.9761 45.2533 34.9761 46.1067Z" fill="white"/>
<path d="M34.9761 30.5295C34.9761 31.4142 35.0298 32.2989 34.9761 33.1836C34.8687 34.7761 33.9557 35.8378 32.5056 35.9558C30.8407 36.0147 29.1757 36.0147 27.4571 35.9558C26.0607 35.8968 25.094 34.8351 25.0403 33.3016C24.9866 31.4732 24.9866 29.6448 25.0403 27.7574C25.094 26.1649 26.1144 25.1032 27.5645 25.0442C29.1757 24.9853 30.7869 24.9853 32.3445 25.0442C33.902 25.1032 34.8687 26.1649 34.9224 27.9343C35.0299 28.7601 34.9761 29.6448 34.9761 30.5295Z" fill="white"/>
</svg>
