<svg width="60" height="60" viewBox="0 0 60 60" fill="none" xmlns="http://www.w3.org/2000/svg">
<path d="M30 0C13.4328 0 0 13.4328 0 30C0 46.5672 13.4328 60 30 60C46.5672 60 60 46.5672 60 30C60 13.4328 46.58 0 30 0ZM30 55.0874C16.1706 55.0874 4.92537 43.8422 4.92537 30.0128C4.92537 16.1834 16.1706 4.93817 30 4.93817C43.8294 4.93817 55.0746 16.1834 55.0746 30.0128C55.0746 43.8422 43.8294 55.0874 30 55.0874Z" fill="white"/>
<path d="M48.5501 24.1408C48.5501 24.1152 48.5373 24.0896 48.5373 24.0768C48.5245 24.0256 48.5245 23.9873 48.5117 23.9489C48.4989 23.9233 48.4989 23.8977 48.4861 23.8721C48.4733 23.8337 48.4605 23.7954 48.4477 23.757C48.4349 23.7314 48.4221 23.7058 48.4093 23.6802C48.3965 23.6418 48.371 23.6035 48.3582 23.5779C48.3454 23.5523 48.3326 23.5267 48.307 23.5011C48.2814 23.4627 48.2686 23.4372 48.243 23.3988C48.2302 23.3732 48.2047 23.3476 48.1919 23.3348C48.1663 23.3092 48.1407 23.2708 48.1151 23.2453C48.0895 23.2197 48.0767 23.2069 48.0511 23.1813C48.0255 23.1557 47.9872 23.1301 47.9616 23.1045C47.936 23.0917 47.9104 23.0662 47.8848 23.0534C47.872 23.0534 47.872 23.0406 47.8592 23.0278L30.8955 11.7186C30.3582 11.3604 29.6673 11.3604 29.13 11.7186L12.1663 23.0278C12.1535 23.0278 12.1535 23.0406 12.1407 23.0534C12.1151 23.0662 12.0895 23.0917 12.0639 23.1045C12.0383 23.1301 12 23.1557 11.9744 23.1813C11.9488 23.2069 11.936 23.2197 11.9104 23.2453C11.8848 23.2708 11.8592 23.2964 11.8336 23.3348C11.8209 23.3604 11.7953 23.386 11.7825 23.3988C11.7569 23.4244 11.7313 23.4627 11.7185 23.5011C11.7057 23.5267 11.6929 23.5523 11.6673 23.5779C11.6418 23.6163 11.629 23.6418 11.6162 23.6802C11.6034 23.7058 11.5906 23.7314 11.5778 23.757C11.565 23.7954 11.5522 23.8337 11.5394 23.8721C11.5266 23.8977 11.5266 23.9233 11.5138 23.9489C11.501 23.9873 11.4882 24.0384 11.4882 24.0768C11.4882 24.1024 11.4754 24.128 11.4754 24.1408C11.4626 24.2048 11.4626 24.2815 11.4626 24.3455V35.6546C11.4626 35.7186 11.4626 35.7954 11.4754 35.8593C11.4754 35.8849 11.4882 35.9105 11.4882 35.9233C11.501 35.9745 11.501 36.0129 11.5138 36.0512C11.5266 36.0768 11.5266 36.1024 11.5394 36.128C11.5522 36.1664 11.565 36.2048 11.5778 36.2431C11.5906 36.2687 11.6034 36.2943 11.6162 36.3199C11.629 36.3583 11.6545 36.3967 11.6673 36.4222C11.6801 36.4478 11.6929 36.4734 11.7185 36.499C11.7441 36.5374 11.7569 36.563 11.7825 36.6013C11.7953 36.6269 11.8209 36.6525 11.8336 36.6653C11.8592 36.6909 11.8848 36.7293 11.9104 36.7549C11.936 36.7804 11.9488 36.7932 11.9744 36.8188C12 36.8444 12.0383 36.87 12.0639 36.8956C12.0895 36.9084 12.1151 36.934 12.1407 36.9468C12.1535 36.9468 12.1535 36.9595 12.1663 36.9723L29.13 48.2815C29.3987 48.4606 29.7057 48.5502 30.0128 48.5502C30.3198 48.5502 30.6268 48.4606 30.8955 48.2815L47.8464 36.9851C47.8592 36.9851 47.8592 36.9723 47.872 36.9595C47.8976 36.9468 47.9232 36.9212 47.9488 36.9084C47.9744 36.8828 48.0128 36.8572 48.0383 36.8316C48.0639 36.806 48.0767 36.7932 48.1023 36.7677C48.1279 36.7421 48.1535 36.7165 48.1791 36.6781C48.1919 36.6525 48.2174 36.6269 48.2302 36.6141C48.2558 36.5885 48.2814 36.5502 48.2942 36.5118C48.307 36.4862 48.3198 36.4606 48.3454 36.435C48.371 36.3966 48.3838 36.3711 48.3965 36.3327C48.4093 36.3071 48.4221 36.2815 48.4349 36.2559C48.4477 36.2175 48.4605 36.1792 48.4733 36.1408C48.4861 36.1152 48.4861 36.0896 48.4989 36.064C48.5117 36.0256 48.5245 35.9745 48.5245 35.9361C48.5245 35.9105 48.5373 35.8849 48.5373 35.8721C48.5501 35.8082 48.5501 35.7314 48.5501 35.6674V24.3583C48.5629 24.2815 48.5501 24.2175 48.5501 24.1408ZM31.5991 16.0299L44.098 24.3583L38.5074 28.0939L31.5991 23.4755V16.0299ZM28.4136 16.0299V23.4627L21.5053 28.0811L15.9275 24.3455L28.4136 16.0299ZM14.6481 27.3391L18.6396 30.0129L14.6481 32.6866V27.3391ZM28.4136 43.983L15.9147 35.6546L21.4925 31.919L28.4008 36.5374V43.983H28.4136ZM30 33.774L24.3582 30.0001L30 26.2261L35.6418 30.0001L30 33.774ZM31.5991 43.983V36.5502L38.5074 31.9318L44.0853 35.6674L31.5991 43.983ZM45.3646 32.6738L41.3731 30.0001L45.3646 27.3263V32.6738Z" fill="white"/>
</svg>
