<svg width="46" height="60" viewBox="0 0 46 60" fill="none" xmlns="http://www.w3.org/2000/svg">
<path d="M33.2132 55.3024C26.8932 60.5371 20.1398 61.1914 13.2781 58.2833C5.83861 55.1206 1.57713 49.2316 0.277023 41.0887C-1.52869 29.6741 5.8025 20.3679 13.2781 17.3143C18.9119 15.0241 24.5819 14.7333 29.999 18.1504C30.938 18.7684 31.7686 19.5318 32.852 20.4043C32.852 15.5331 32.852 10.8073 32.852 6.11784C32.852 5.31809 32.6715 4.48199 32.9243 3.7913C33.1048 3.17331 33.6827 2.40991 34.2244 2.2645C37.5469 1.46475 40.9055 0.846766 44.228 0.0833696C45.6726 -0.2438 46.0337 0.410539 45.9976 1.71922C45.9615 5.97243 45.9976 10.1893 45.9976 14.4425C45.9976 28.6199 45.9976 42.7609 45.9976 56.9382C45.9976 59.5192 45.9976 59.5192 43.4335 59.5192C40.7249 59.5192 38.0164 59.4102 35.3078 59.5556C33.5743 59.6646 33.0326 58.974 33.2132 57.3745C33.2854 56.7928 33.2132 56.2112 33.2132 55.3024ZM33.2493 37.6716C33.3937 32.037 29.3851 27.3475 23.1012 27.2748C17.5757 27.2021 12.8809 32.146 12.8809 37.6352C12.8809 43.5606 17.6118 48.1047 23.7151 48.0319C29.2406 47.9592 33.3215 43.4879 33.2493 37.6716Z" fill="white"/>
</svg>
