<svg width="60" height="36" viewBox="0 0 60 36" fill="none" xmlns="http://www.w3.org/2000/svg">
<path fill-rule="evenodd" clip-rule="evenodd" d="M24.0273 17.7261C24.0273 20.8433 24.0273 23.9605 24.0273 27.0549C24.0273 28.147 23.8908 28.3063 22.7986 28.3063C21.4107 28.3063 20 28.3063 18.612 28.3291C18.157 28.3291 18.0432 28.1925 18.0432 27.7375C18.0432 21.3438 18.0432 14.9502 18.0432 8.55658C18.0432 7.80573 18.43 7.55545 19.1126 7.55545C20.5006 7.55545 21.9112 7.5782 23.2992 7.53269C23.9135 7.50994 24.0728 7.71472 24.05 8.3063C24.0045 11.4462 24.0273 14.5862 24.0273 17.7261Z" fill="white"/>
<path fill-rule="evenodd" clip-rule="evenodd" d="M20.7509 4.46108C20.0455 4.46108 19.3174 4.43832 18.6121 4.46108C18.1115 4.48383 17.975 4.30181 17.9977 3.82399C18.0205 2.91387 18.0205 2.00374 17.9977 1.09362C17.975 0.342762 18.3163 0.00146484 19.0671 0.00146484C20.5233 0.024218 21.9795 0.024218 23.4357 0.024218C23.868 0.024218 24.0501 0.137984 24.0273 0.615799C24.0046 1.54868 24.0273 2.50431 24.0273 3.43719C24.0273 4.14253 23.7088 4.48383 22.9807 4.46108C22.2298 4.43832 21.5017 4.46108 20.7509 4.46108Z" fill="white"/>
<path fill-rule="evenodd" clip-rule="evenodd" d="M60.0001 8.32907C60.0001 7.71474 59.8863 7.48721 59.2037 7.50996C54.4711 7.53271 49.7157 7.53271 44.983 7.53271C44.0274 7.53271 43.7771 7.783 43.7771 8.73863C43.7771 15.0185 43.7999 21.2984 43.7999 27.601C43.7999 28.1698 43.9591 28.3291 44.5052 28.3063C47.0536 28.2836 49.5791 28.2836 52.1275 28.2836C54.016 28.2836 53.9933 28.3063 54.016 30.1721C54.016 30.8092 53.834 30.9912 53.1969 30.9912C50.421 30.9684 47.6451 30.9912 44.892 30.9684C44.1184 30.9684 43.7999 31.287 43.7999 32.0378C43.8226 32.9025 43.8454 33.7443 43.7999 34.6089C43.7543 35.2915 43.9591 35.4736 44.6417 35.4736C49.3289 35.4508 54.016 35.4508 58.7031 35.4508C59.7725 35.4508 59.9773 35.2233 59.9773 34.1311C59.9773 29.8535 59.9773 25.5532 59.9773 21.2756C60.0001 16.9525 59.9773 12.6294 60.0001 8.32907ZM52.8101 23.7102C51.9455 23.6874 51.1036 23.6874 50.239 23.7102C49.7839 23.7329 49.5791 23.5964 49.5791 23.0959C49.6019 19.7056 49.5791 16.2927 49.5791 12.9025C49.5791 12.2654 49.8749 11.9468 50.512 11.9468C51.4449 11.9468 52.4005 11.9696 53.3334 11.9241C53.8112 11.9013 53.9022 12.1061 53.9022 12.5384C53.8795 14.2449 53.9022 15.9741 53.9022 17.6806C53.9022 19.3188 53.8795 20.9343 53.9022 22.5725C53.925 23.3689 53.6292 23.7329 52.8101 23.7102Z" fill="white"/>
<path fill-rule="evenodd" clip-rule="evenodd" d="M42.1617 21.2528C42.1617 16.9297 42.1389 12.6294 42.1844 8.3063C42.1844 7.66921 42.0251 7.48718 41.3881 7.48718C36.6782 7.53269 31.9683 7.50994 27.2356 7.50994C26.2117 7.50994 26.0069 7.69196 26.0069 8.6931C26.0069 14.973 26.0297 21.2756 26.0297 27.5554C26.0297 28.1925 26.2345 28.3063 26.8033 28.2835C29.3061 28.2608 31.8317 28.2608 34.3346 28.2608C36.2003 28.2608 36.1776 28.2608 36.2003 30.1265C36.2231 30.8319 35.9956 30.9684 35.3357 30.9684C32.6053 30.9229 29.8522 30.9457 27.0991 30.9229C26.3027 30.9229 25.9387 31.287 25.9614 32.0606C25.9614 32.9252 26.0069 33.767 25.9387 34.6317C25.8932 35.2688 26.0979 35.4508 26.7578 35.4508C31.4449 35.428 36.1321 35.428 40.8192 35.428C41.9569 35.428 42.1617 35.2232 42.1617 34.0856C42.1617 29.808 42.1617 25.5077 42.1617 21.2301C42.1844 21.2528 42.1617 21.2528 42.1617 21.2528ZM35.1764 23.7557C34.1981 23.7784 33.2424 23.7557 32.264 23.7784C31.7862 23.8012 31.7862 23.5054 31.7862 23.1641C31.7862 21.4576 31.7862 19.7284 31.7862 18.0219H31.7635C31.7635 16.3609 31.7862 14.6999 31.7635 13.0617C31.7407 12.2426 32.1048 11.924 32.9011 11.9468C33.7658 11.9695 34.6076 11.9695 35.4722 11.9468C35.8818 11.9468 36.0866 11.9923 36.0866 12.4929C36.0638 15.9513 36.0866 19.4098 36.0866 22.8455C36.0866 23.4599 35.7453 23.7329 35.1764 23.7557Z" fill="white"/>
<path fill-rule="evenodd" clip-rule="evenodd" d="M16.2002 0.843281C16.2002 0.228947 16.0865 -0.0213376 15.4039 0.00141555C14.0614 0.0696749 12.719 0.0241687 11.3766 0.0241687C10.3754 0.0241687 10.1706 0.2517 10.1479 1.23008C10.1479 3.09584 10.1251 4.93884 10.1706 6.8046C10.1934 7.41894 9.98862 7.55545 9.39704 7.55545C6.64391 7.5327 3.91354 7.5327 1.16041 7.55545C0.227531 7.55545 0.0227531 7.78299 0.0227531 8.71586C0.0227531 14.9957 0.0227531 21.2756 0 27.5782C0 28.2153 0.159272 28.3973 0.796359 28.3973C5.4835 28.3518 10.1706 28.3518 14.8578 28.3518C16.041 28.3518 16.1547 28.238 16.1547 27.0094C16.1547 22.6863 16.1547 18.3859 16.1547 14.0628C16.1775 9.64874 16.1775 5.23463 16.2002 0.843281ZM10.1479 22.9138C10.1479 23.6419 9.78384 23.9605 9.10125 23.9605C8.21388 23.9605 7.32651 23.9377 6.46189 23.9832C5.96132 24.006 5.8248 23.8239 5.84755 23.3461C5.87031 21.6396 5.84755 19.9332 5.84755 18.2267C5.84755 16.5657 5.87031 14.9275 5.84755 13.2665C5.8248 12.4701 6.1661 12.1288 6.96246 12.1516C7.82708 12.1971 8.66894 12.1743 9.53356 12.1516C9.98862 12.1288 10.1934 12.2426 10.1934 12.7659C10.1251 16.1334 10.1479 19.5236 10.1479 22.9138Z" fill="white"/>
</svg>
