<svg width="60" height="43" viewBox="0 0 60 43" fill="none" xmlns="http://www.w3.org/2000/svg">
<path d="M9.17646 41.9891C5.85521 40.9407 1.80743 38.2672 0.613852 36.3801C-1.92898 32.5009 3.987 7.70586 8.13857 4.77029C11.6674 2.2541 17.6353 0 20.6452 0C21.4755 0 20.3857 0.62905 17.791 1.72989C13.5875 3.45977 8.91699 6.18566 9.38404 6.60502C9.48783 6.70987 10.7852 6.34292 12.1345 5.71387C22.3058 1.31052 35.487 1.10084 45.8141 5.24208C47.9936 6.13324 49.9137 6.81471 50.1213 6.81471C51.0035 6.81471 46.0216 3.82672 42.5447 2.30652C38.1337 0.366946 37.6666 0 39.431 0C41.5068 0 47.0595 1.93957 50.0694 3.66946C52.9755 5.34692 53.702 6.5526 56.2449 13.7867C59.4104 22.8031 60.9673 33.9163 59.3585 36.3801C57.4903 39.3156 50.1213 42.9851 46.1254 42.9851C44.7762 42.9851 41.922 40.6786 41.922 39.5253C41.922 39.2632 42.908 38.6341 44.1534 38.1099C46.5406 37.1139 50.2251 34.2832 50.2251 33.4969C50.2251 33.2348 48.8239 33.7066 47.0595 34.5977C37.0439 39.6826 23.4475 39.6826 13.4318 34.5977C11.7193 33.7066 10.1106 32.9727 9.90299 32.9727C8.8132 32.9727 13.0167 36.4325 15.6114 37.6906L18.6213 39.1584L16.9607 41.0455C15.0924 43.2996 13.6913 43.4569 9.17646 41.9891ZM24.7967 24.3757C24.7967 17.2989 14.4178 17.2989 14.3659 24.5329C14.4178 31.9767 24.7967 31.9767 24.7967 24.3757ZM43.4788 24.4805C43.4788 16.8795 33.0999 16.8795 33.1518 24.4805C33.0999 31.9767 43.4788 31.9767 43.4788 24.4805Z" fill="white"/>
</svg>
