<svg width="60" height="58" viewBox="0 0 60 58" fill="none" xmlns="http://www.w3.org/2000/svg">
<path d="M35.4602 25.4561C24.1004 23.0335 24.6276 30.3515 24.6276 34.1172C24.6276 37.8828 24.9414 42.7782 30.3766 42.7782C35.8117 42.7782 35.4602 39.728 35.4602 39.728V25.4561Z" fill="white"/>
<path d="M0 0V39.4895C0 49.5565 8.159 57.728 18.2385 57.728H60V0H0ZM12.1255 16.9582C9.64017 16.9582 7.61925 14.9372 7.61925 12.4519C7.61925 9.96653 9.64017 7.94561 12.1255 7.94561C14.6109 7.94561 16.6318 9.96653 16.6318 12.4519C16.6318 14.9372 14.6109 16.9582 12.1255 16.9582ZM42.113 39.6778C42.113 40.4059 41.8243 48.5272 30.3389 48.5272C18.8536 48.5272 17.9121 38.1715 17.9121 33.8033C17.9121 29.4351 18.9289 24.113 23.7239 21.3515C28.5188 18.59 35.4603 20.1841 35.4603 20.1841V8.51046H42.113C42.113 8.51046 42.113 38.9498 42.113 39.6778Z" fill="white"/>
</svg>
