<svg width="43" height="44" viewBox="0 0 43 44" fill="none" xmlns="http://www.w3.org/2000/svg">
<path d="M0 43.8263C1.23801 43.0771 2.47602 42.3567 3.71403 41.6076C6.24633 40.1092 8.80675 38.5821 11.3672 37.1126C11.7892 36.8532 12.352 36.7092 12.8303 36.7092C16.066 36.6804 19.3017 36.6804 22.5655 36.6804C28.7837 36.6804 32.3008 33.8278 33.4544 27.5175C34.2141 23.3394 34.2141 19.1326 33.1449 14.9833C31.8788 10.0849 28.7556 7.52048 23.8317 7.37641C20.2583 7.26116 16.7131 7.31878 13.1398 7.28997C12.774 7.28997 12.3801 7.23234 12.0706 7.05946C8.21588 4.81196 4.38931 2.53564 0.534593 0.259325C0.47832 0.230511 0.422047 0.172885 0.253228 0C0.64714 0 0.900373 0 1.1536 0C8.58166 0 16.0097 0 23.4378 0C32.8354 0 40.1228 5.76282 42.1767 15.1562C43.4148 20.8038 43.3866 26.5666 41.192 32.0125C38.2658 39.3313 32.6947 43.25 25.0978 43.7975C20.1458 44.1432 15.1938 43.9415 10.2136 43.9415C6.8372 43.9703 3.43267 43.9415 0.0562766 43.9415C0.02814 43.9415 0 43.8839 0 43.8263Z" fill="white"/>
<path d="M0 7.2323C8.35657 12.1883 16.6006 17.0579 24.9853 22.0139C16.6287 26.9411 8.3847 31.8396 0 36.7956C0 26.8835 0 17.1155 0 7.2323Z" fill="white"/>
</svg>
