<svg width="52" height="21" viewBox="0 0 52 21" fill="none" xmlns="http://www.w3.org/2000/svg">
<path d="M38.2031 6.56095C38.2031 6.51237 38.1707 6.47999 38.1545 6.43141C37.9762 6.09136 37.7817 5.73511 37.6034 5.39506C37.5872 5.36268 37.571 5.3141 37.5386 5.28172C37.5872 5.24933 37.6358 5.26552 37.6844 5.26552C38.5921 5.26552 39.4997 5.26552 40.4073 5.26552C40.5208 5.26552 40.5694 5.29791 40.618 5.39506C42.0119 8.21262 43.4219 11.014 44.832 13.8315C44.8482 13.8801 44.8806 13.9125 44.8968 13.9611C44.9455 13.9287 44.9455 13.8963 44.9617 13.8477C46.3717 11.0302 47.7656 8.22881 49.1594 5.41126C49.2081 5.3141 49.2729 5.26552 49.3863 5.26552C50.1967 5.26552 51.0071 5.26552 51.8175 5.26552C51.8661 5.26552 51.9147 5.26552 51.9633 5.26552C51.9633 5.33029 51.9309 5.36268 51.9147 5.39506C49.3377 10.4472 46.7607 15.5156 44.1837 20.5678C44.1675 20.6163 44.1189 20.6649 44.1189 20.7135C43.1626 20.7135 42.1902 20.7135 41.2339 20.7135C41.4446 20.3087 41.6553 19.9038 41.866 19.5152C42.3847 18.5275 42.9033 17.5559 43.4219 16.5681C43.4706 16.471 43.4706 16.4062 43.4219 16.309C41.8822 13.4267 40.3425 10.5606 38.819 7.67825C38.8028 7.62968 38.7866 7.5811 38.7379 7.54871C38.5759 7.22486 38.3976 6.88481 38.2031 6.56095Z" fill="#87B941"/>
<path d="M16.4038 0.32666C16.4038 0.342852 16.4038 0.342854 16.4038 0.359047C15.5448 0.359047 14.6696 0.359047 13.8105 0.359047C13.8105 0.342854 13.8105 0.342852 13.8105 0.32666C14.6696 0.32666 15.5448 0.32666 16.4038 0.32666Z" fill="#0E2245"/>
<path d="M13.8106 0.359131C14.6696 0.359131 15.5448 0.359131 16.4038 0.359131C16.4038 2.43181 16.4038 4.50449 16.4038 6.56098C16.4038 6.60956 16.4038 6.65814 16.4038 6.72291C16.6793 6.33428 17.0197 6.04282 17.3925 5.78373C18.0408 5.34652 18.7701 5.10363 19.5319 4.95789C20.164 4.84454 20.8123 4.79596 21.4606 4.82835C22.7896 4.89312 24.0214 5.29794 25.0587 6.15616C25.9339 6.88484 26.5011 7.82402 26.8253 8.90894C27.0684 9.75097 27.1332 10.593 27.0684 11.4674C27.0522 11.6293 27.036 11.7913 27.0198 11.9532C26.9225 12.2285 26.8577 12.5038 26.8415 12.7952C26.7443 13.0705 26.6632 13.3296 26.5336 13.6049C25.788 15.1918 24.5562 16.1957 22.8706 16.6653C22.1089 16.8758 21.3147 16.9244 20.5205 16.8758C19.6291 16.811 18.7701 16.6167 17.9597 16.2119C17.3601 15.9042 16.8252 15.5156 16.4038 14.9651C16.3876 15.1756 16.3876 15.3537 16.3714 15.5318C16.3552 15.8071 16.339 16.0824 16.3228 16.3738C16.3228 16.471 16.2741 16.5034 16.1769 16.5034C15.4151 16.5034 14.6534 16.5034 13.8754 16.5034C13.7782 16.5034 13.762 16.471 13.762 16.39C13.843 14.8193 13.8106 13.2486 13.8106 11.6941C13.8106 11.6455 13.8106 11.597 13.8106 11.5484C13.8106 10.9978 13.8106 10.4635 13.8106 9.9129C13.8106 9.75097 13.8106 9.58904 13.8106 9.41092C13.8106 6.44764 13.8106 3.48435 13.8106 0.521059C13.8106 0.456288 13.8106 0.407709 13.8106 0.359131ZM16.4038 10.8521C16.4038 11.2893 16.4524 11.7103 16.5659 12.1151C16.7766 12.941 17.1818 13.6696 17.8463 14.2364C18.8025 15.0298 19.9209 15.2727 21.1202 15.0784C22.433 14.8517 23.3893 14.1068 23.9565 12.9086C24.54 11.6779 24.5724 10.3987 24.1186 9.11945C23.7458 8.03453 23.0165 7.25727 21.9306 6.85245C21.1526 6.56098 20.3585 6.51241 19.5481 6.67434C18.5756 6.85246 17.7977 7.33824 17.2304 8.14788C16.6469 8.95752 16.42 9.88051 16.4038 10.8521Z" fill="#3466B0"/>
<path d="M26.8254 12.8113C26.8578 12.5198 26.9227 12.2445 27.0037 11.9692C27.4089 10.9491 28.2193 10.3823 29.1917 10.0099C29.8562 9.767 30.537 9.63746 31.2339 9.5403C31.947 9.45934 32.6602 9.42695 33.3733 9.42695C34.3295 9.42695 35.2858 9.42695 36.2258 9.42695C36.3555 9.42695 36.3879 9.39457 36.3717 9.26503C36.3555 8.89259 36.3879 8.52015 36.2582 8.16391C36.0313 7.45143 35.5127 7.01422 34.832 6.75514C34.1999 6.51224 33.5354 6.44747 32.8546 6.47986C32.3846 6.51224 31.9146 6.59321 31.477 6.78752C30.8935 7.0628 30.4721 7.48381 30.3263 8.13153C30.31 8.1963 30.2938 8.1963 30.2452 8.1963C29.4024 8.1963 28.5596 8.1963 27.7006 8.1963C27.6034 8.1963 27.6196 8.14772 27.6196 8.09914C27.6844 7.38666 27.9924 6.78752 28.4948 6.28554C29.0945 5.67021 29.8562 5.31397 30.6828 5.08727C31.6553 4.81199 32.6602 4.74722 33.6812 4.77961C34.4916 4.7958 35.2858 4.89296 36.0638 5.13585C36.9065 5.39494 37.6359 5.83214 38.1869 6.54463C38.3814 6.86848 38.5597 7.20854 38.7218 7.54858C38.738 7.71051 38.8028 7.85625 38.8352 8.01818C38.9001 8.32584 38.9487 8.64969 38.9487 8.95736C38.9487 10.8681 38.9487 12.7789 38.9487 14.6896C38.9487 15.2564 38.9811 15.8069 39.046 16.3737C39.046 16.4546 39.046 16.4708 38.9649 16.4708C38.2356 16.4708 37.49 16.4708 36.7607 16.4708C36.6796 16.4708 36.6634 16.4385 36.6634 16.3737C36.631 15.8717 36.5986 15.3697 36.6148 14.8677C36.5986 14.8677 36.5824 14.8677 36.5824 14.8839C36.0151 15.6612 35.221 16.147 34.3295 16.4708C33.2598 16.8595 32.1739 16.9566 31.0394 16.8918C30.2938 16.8433 29.5807 16.6975 28.9162 16.3737C27.8951 15.8879 27.182 15.143 26.9065 14.0257C26.8092 13.6371 26.8092 13.2323 26.8254 12.8113ZM34.6375 11.111C33.9243 11.1272 33.2112 11.1434 32.5143 11.2082C31.947 11.2567 31.3798 11.3377 30.8449 11.5158C30.4559 11.6454 30.0831 11.8235 29.8238 12.1635C29.4348 12.6655 29.4186 13.2485 29.6293 13.8152C29.8562 14.4791 30.3749 14.8677 31.0394 15.0459C32.1577 15.3535 33.2598 15.2726 34.3295 14.8516C35.3344 14.4629 35.9665 13.7181 36.2744 12.6979C36.4203 12.2121 36.4041 11.7101 36.4041 11.2244C36.4041 11.1272 36.3879 11.111 36.2907 11.111C35.7234 11.111 35.1885 11.111 34.6375 11.111Z" fill="#F3AF1D"/>
<path d="M13.7944 9.8964C13.7944 10.447 13.7944 10.9813 13.7944 11.5319C10.4556 11.5319 7.13304 11.5319 3.79427 11.5319C3.61599 11.5319 3.61599 11.5319 3.61599 11.71C3.66461 13.2159 4.57224 14.5114 6.12817 14.9971C7.21408 15.3372 8.29999 15.3048 9.33727 14.8352C10.018 14.5275 10.5366 14.0256 10.8284 13.3293C10.8608 13.2645 10.8932 13.2483 10.958 13.2483C11.7846 13.2483 12.6112 13.2483 13.4378 13.2483C13.5188 13.2483 13.535 13.2645 13.5188 13.3455C13.3406 14.1713 12.9192 14.8676 12.3033 15.4343C11.5253 16.1306 10.5853 16.5031 9.58039 16.6974C8.47827 16.9079 7.35994 16.9079 6.25783 16.7784C5.39882 16.6812 4.55603 16.4707 3.77806 16.0821C2.44904 15.4182 1.62245 14.3332 1.23347 12.9083C1.00656 12.05 0.957939 11.1594 1.02277 10.285C1.07139 9.55635 1.20105 8.84386 1.47658 8.14757C2.02764 6.77118 3.01631 5.86438 4.39395 5.33002C5.04226 5.08712 5.72298 4.94139 6.4199 4.86042C6.98717 4.79565 7.57064 4.77946 8.13791 4.81185C9.1914 4.86043 10.2125 5.08712 11.1525 5.5891C12.514 6.35017 13.3406 7.51605 13.6809 9.02199C13.7457 9.31346 13.7782 9.60493 13.7944 9.8964ZM7.39236 9.81543C7.76513 9.81543 8.13791 9.81543 8.51068 9.81543C9.32106 9.81543 10.1477 9.81543 10.958 9.81543C11.0715 9.81543 11.1363 9.79924 11.1039 9.6697C11.0877 9.55635 11.0877 9.4268 11.0715 9.29726C10.958 8.48762 10.6015 7.80752 9.95316 7.28935C9.3859 6.83595 8.72138 6.60925 7.99204 6.54448C7.03579 6.44732 6.14437 6.60925 5.30158 7.07884C4.32912 7.64559 3.76186 8.47142 3.66461 9.60492C3.6484 9.79924 3.6484 9.79924 3.84289 9.79924C5.04226 9.81543 6.2092 9.81543 7.39236 9.81543Z" fill="#E53338"/>
</svg>
