<svg width="60" height="29" viewBox="0 0 60 29" fill="none" xmlns="http://www.w3.org/2000/svg">
<path d="M16.8292 18.0931C15.9053 20.1764 14.5662 20.3251 13.076 20.3251H8.63656C7.14634 20.3251 6.43123 19.7305 6.43123 18.4503V11.6657C6.43123 11.6657 9.67803 11.6657 10.8083 11.7544C11.6434 11.8143 12.1473 12.0517 12.4161 13.212L12.7737 14.7583H14.0527L13.9687 10.8602L14.1463 6.93325H12.8648L12.4473 8.65937C12.1785 9.79093 12.001 9.99951 10.8395 10.117C9.53405 10.2656 6.45522 10.2368 6.43123 10.2368V2.23197C6.43123 1.93469 6.46002 1.75489 6.96636 1.75489H13.7863C14.979 1.75489 15.6341 2.76659 16.1093 4.67011L16.4956 6.18766H17.6619C17.8706 1.87476 18.0506 0 18.0506 0C18.0506 0 15.1302 0.326045 13.4024 0.326045H4.67704L0 0.177407V1.42645L1.57901 1.72612C2.68048 1.93469 2.94924 2.17203 3.03803 3.18373C3.03803 3.18373 3.12682 6.15889 3.12682 11.0687C3.12682 15.9786 3.03803 18.925 3.03803 18.925C3.03803 19.8168 2.68048 20.1453 1.57901 20.3538L0 20.6511V21.9001L4.67704 21.7515H12.4809C14.2375 21.7515 18.3194 21.9001 18.3194 21.9001C18.4082 20.8285 19.0057 15.9786 19.0945 15.444H17.993L16.8292 18.0931Z" fill="white"/>
<path d="M27.4023 20.3538C26.0921 20.3538 25.3769 19.462 25.3769 17.1989V9.13406L29.7852 9.4625L30.0228 7.4391L25.3769 7.61891V3.09504L24.0955 3.06627C23.6779 4.91226 23.2604 6.3387 21.8014 7.29046C20.9087 7.88502 20.0136 8.09359 19.6584 8.12236V9.25393H22.3101V18.388C22.3101 20.9484 24.0091 22.1974 26.272 22.1974C28.0286 22.1974 29.8452 21.4542 30.4715 19.9055L29.8452 19.1024C29.5476 19.6082 28.595 20.3538 27.4023 20.3538Z" fill="white"/>
<path d="M34.9974 10.1218C34.9974 8.72409 36.2476 8.18708 37.6179 8.18708C38.6906 8.18708 39.5832 8.57306 39.7632 9.13884L40.5071 11.3708L41.6086 11.3109C41.6974 10.1194 41.7574 8.75286 41.9374 7.65006C40.9847 7.23292 38.9881 6.99557 37.7379 6.99557C34.8174 6.99557 32.4657 8.27578 32.4657 11.1311C32.4657 16.1009 39.792 15.0892 39.792 18.75C39.792 20.0589 38.9881 20.9819 37.1715 20.9819C35.5037 20.9819 34.6686 20.1189 34.3423 19.2558L33.5072 17.115L32.3745 17.1437C32.4345 17.7982 32.4633 18.6325 32.4633 19.4045C32.4633 20.2076 32.4345 20.9508 32.3745 21.308C32.3745 21.308 34.6374 22.1399 36.9316 22.1399C40.0296 22.1399 42.5013 20.6511 42.5013 17.7359C42.5037 12.7421 34.9974 13.4853 34.9974 10.1218Z" fill="white"/>
<path d="M57.1683 7.51341L54.1351 7.36478V8.40524L54.9078 8.64258C55.6805 8.87992 56.0381 9.1772 56.0381 9.71182C56.0381 9.97793 55.9493 10.2464 55.8005 10.6612C55.4213 11.6201 53.372 16.6019 52.3065 18.9561C51.0107 15.6933 49.2685 10.9537 48.9925 10.0978C48.9325 9.92039 48.9037 9.77175 48.9037 9.62072C48.9037 9.14604 49.2301 8.76006 49.9452 8.61142L50.9267 8.40524V7.36478L46.852 7.51341L43.6124 7.36478V8.40524L44.1475 8.58265C44.8914 8.81999 45.069 9.02856 45.5153 10.0666C47.9295 15.5878 49.0909 18.6637 50.6171 22.5786C49.0765 25.7264 47.3271 26.611 45.7265 26.611C44.9226 26.611 44.5363 26.2538 44.4187 25.6904L43.9723 23.3721L42.7245 23.4321C42.4869 24.7986 42.2493 26.3137 41.923 27.5604C42.6669 28.1238 43.9147 28.421 44.8962 28.421C46.948 28.421 50.07 28.1525 52.9232 21.3823L57.7107 10.0954C58.097 9.1748 58.2458 9.0861 59.3761 8.64019L60 8.40284V7.36238L57.1683 7.51341Z" fill="white"/>
</svg>
