<svg width="58" height="45" viewBox="0 0 58 45" fill="none" xmlns="http://www.w3.org/2000/svg">
<path d="M10.9626 5.53516V23.3329L19.8991 13.2844L10.9626 5.53516Z" fill="white"/>
<path d="M37.1706 15.2429L29.4371 21.5445L21.8755 14.9874L11.7361 26.3132H47.4819L37.1706 15.2429Z" fill="white"/>
<path d="M48.2552 2.81016V8.12115e-08H10.9626V2.12891L29.523 18.2235L48.2552 2.81016Z" fill="white"/>
<path d="M48.255 23.418V6.13123L39.1467 13.5398L48.255 23.418Z" fill="white"/>
<path d="M8.08015 38.3982H1.93199V44.8009H0V30.3027H9.07634V31.876H1.93199V36.8349H8.08015V38.3982Z" fill="white"/>
<path d="M10.3845 39.3143C10.3845 38.2588 10.5924 37.3095 11.0083 36.4664C11.431 35.6234 12.0146 34.9728 12.7592 34.5148C13.5105 34.0567 14.3658 33.8277 15.3251 33.8277C16.8077 33.8277 18.0051 34.3355 18.9174 35.3512C19.8365 36.3669 20.296 37.7178 20.296 39.4039V39.5334C20.296 40.5822 20.0914 41.5249 19.6822 42.3613C19.2797 43.1911 18.6994 43.8383 17.9414 44.303C17.19 44.7677 16.3247 45.0001 15.3452 45.0001C13.8694 45.0001 12.672 44.4922 11.7529 43.4766C10.8406 42.4609 10.3845 41.1166 10.3845 39.4437V39.3143ZM12.2561 39.5334C12.2561 40.7283 12.5345 41.6875 13.0913 42.4111C13.6548 43.1347 14.4061 43.4965 15.3452 43.4965C16.2911 43.4965 17.0424 43.1314 17.5992 42.4011C18.156 41.6643 18.4344 40.6353 18.4344 39.3143C18.4344 38.1327 18.1493 37.1767 17.5791 36.4465C17.0156 35.7097 16.2643 35.3412 15.3251 35.3412C14.4061 35.3412 13.6648 35.703 13.1013 36.4266C12.5378 37.1502 12.2561 38.1858 12.2561 39.5334Z" fill="white"/>
<path d="M24.653 44.8009H22.7915V29.5061H24.653V44.8009Z" fill="white"/>
<path d="M29.6641 44.8009H27.8026V29.5061H29.6641V44.8009Z" fill="white"/>
<path d="M32.1596 39.3143C32.1596 38.2588 32.3676 37.3095 32.7835 36.4664C33.2061 35.6234 33.7897 34.9728 34.5344 34.5148C35.2857 34.0567 36.141 33.8277 37.1003 33.8277C38.5828 33.8277 39.7802 34.3355 40.6926 35.3512C41.6116 36.3669 42.0711 37.7178 42.0711 39.4039V39.5334C42.0711 40.5822 41.8665 41.5249 41.4573 42.3613C41.0548 43.1911 40.4746 43.8383 39.7165 44.303C38.9652 44.7677 38.0998 45.0001 37.1204 45.0001C35.6446 45.0001 34.4471 44.4922 33.5281 43.4766C32.6158 42.4609 32.1596 41.1166 32.1596 39.4437V39.3143ZM34.0312 39.5334C34.0312 40.7283 34.3096 41.6875 34.8664 42.4111C35.4299 43.1347 36.1812 43.4965 37.1204 43.4965C38.0663 43.4965 38.8176 43.1314 39.3744 42.4011C39.9312 41.6643 40.2096 40.6353 40.2096 39.3143C40.2096 38.1327 39.9245 37.1767 39.3543 36.4465C38.7908 35.7097 38.0394 35.3412 37.1003 35.3412C36.1812 35.3412 35.44 35.703 34.8765 36.4266C34.313 37.1502 34.0312 38.1858 34.0312 39.5334Z" fill="white"/>
<path d="M54.0455 42.2617L56.1384 34.0268H58L54.8303 44.8009H53.321L50.6745 36.6357L48.0985 44.8009H46.5892L43.4296 34.0268H45.2811L47.4244 42.0925L49.9601 34.0268H51.4594L54.0455 42.2617Z" fill="white"/>
</svg>
