<svg width="60" height="49" viewBox="0 0 60 49" fill="none" xmlns="http://www.w3.org/2000/svg">
<path d="M42.8 13.4C53.5 13.5 59.8 20.1 52.7 29.2C49.4 33.3 43.9 37.4 36.5 40.1C36.1 40.2 35.8 40.3 35.4 40.5C34.7 40.7 34 40.9 33.3 41.1C31.7 41.6 30.1 42 28.6 42.2C27 42.5 25.4 42.8 23.9 42.9C23 43 22 43.1 21 43.1C14.1 43.3 9 41.4 7.3 37.4C5.3 32.6 9.4 25.9 17.6 20.8C11.5 23.3 0.5 29 0 37.3V38.3C0 39.1 0.2 40 0.5 40.9C2.3 46.5 10.5 49.1 21 48.1C22 48 23.1 47.9 24.1 47.7C25.6 47.5 27.2 47.2 28.8 46.8C30.3 46.4 31.9 46 33.5 45.5C33.9 45.4 34.2 45.3 34.5 45.1C35.2 44.9 35.9 44.6 36.6 44.4C45.7 41.1 52.5 36.7 56.4 31.6C58.7 28.7 59.8 26 60 23.6V21.8C59.4 15.9 52.3 12.4 42.8 13.4ZM35.8 10.4C36.1 10.4 36.3 10.4 36.5 10.3C38 9.9 38.8 8.3 38.8 6.4C38.9 4.4 38.1 2.7 36.5 2.4C36.4 2.4 36.2 2.4 36 2.4C34.7 2.4 33.8 3.2 33.3 4.4C33.2 5 33 5.6 33 6.4C33 7.3 33.1 8.1 33.4 8.8C33.9 9.7 34.6 10.4 35.8 10.4ZM35.8 11.1C35.1 11.1 34.5 11.2 34 11.3L34.1 11.5L34.4 12L34.6 12.5L34.8 13L34.9 13.5L35 14V14.5V15V15.5V16V16.5V17.1L34.9 17.6L34.8 18.1L34.7 18.6L34.6 19.1L34.5 19.6L34.4 20.1L34.3 20.6L34.2 21.1L34 21.6L33.9 22L33.8 22.4V22.7L33.7 23L33.6 23.3V23.6L33.5 24V24.3V24.4L33.4 24.8L33.3 25.3V25.7L33.2 26.1V26.5L33.1 26.9V27.3L33 27.7V28.1V28.5V28.9C33.1 30.1 33.2 31.2 33.2 31.8C33.2 32.5 33.4 33 33.6 33.3C33.9 33.8 34.5 34 35.2 34C35.8 33.9 36.3 33.8 36.7 33.5C37.1 33.2 37.2 32.6 37.4 31.8C37.7 30 38.5 24.2 39.2 21.7C40.2 18.1 42.6 11.5 36.7 11C36.3 11.1 36.1 11.1 35.8 11.1ZM28.7 9.2C31 9.2 32 7.1 32 4.6C32 2.1 31 0 28.8 0C26.5 0 25.5 2.1 25.5 4.6C25.5 7.1 26.5 9.2 28.7 9.2ZM24.1 19.9C24.3 20.8 24.5 21.6 24.7 22.3C25.4 25.2 26.1 31.9 26.4 33.9C26.6 35.9 27.4 36.4 28.8 36.5C30.2 36.4 31 35.9 31.2 33.9C31.4 31.9 32.1 25.2 32.8 22.3C33 21.6 33.2 20.8 33.4 19.9C34 17.2 34.6 14.1 33.4 12.1C32.7 10.8 31.2 10 28.7 10C26.2 10 24.8 10.9 24 12.1C22.9 14.1 23.5 17.2 24.1 19.9ZM21 10.3C21.2 10.3 21.5 10.4 21.7 10.4C22.9 10.4 23.7 9.8 24.1 8.8C24.4 8.1 24.5 7.3 24.5 6.4C24.5 5.7 24.3 5 24.1 4.4C23.6 3.2 22.7 2.4 21.4 2.4C21.2 2.4 21.1 2.4 20.9 2.4C19.2 2.6 18.5 4.3 18.6 6.4C18.7 8.3 19.5 9.9 21 10.3ZM20.3 31.9C20.4 32.8 20.7 33.3 21 33.6C21.4 34 21.9 34.1 22.5 34.1C23.3 34 23.8 33.9 24.1 33.4C24.3 33.1 24.5 32.6 24.5 31.9C24.5 31.3 24.6 30.2 24.7 29V28.6V28.2L24.6 27.8V27.4V27L24.5 26.6V26.2L24.4 25.8L24.3 25.4V25L24.2 24.6V24.3L24 23.7V23.4V23.1L23.9 22.8L23.8 22.5L23.7 22.1L23.6 21.7L23.5 21.2L23.4 20.7L23.3 20.2L23.2 19.7L23 19.3L22.9 18.8L22.8 18.3L22.7 17.8L22.6 17.3L22.5 16.8V16.3V15.8V15V14.5V14L22.6 13.5L22.7 13L22.9 12.5L23.1 12L23.4 11.5L23.5 11.3C23 11.2 22.4 11.1 21.7 11.1C21.4 11.1 21.2 11.1 21 11.1C15.2 11.6 17.6 18.2 18.5 21.8C19.2 24.3 20 30.2 20.3 31.9Z" fill="white"/>
</svg>
