<svg width="61" height="46" viewBox="0 0 61 46" fill="none" xmlns="http://www.w3.org/2000/svg">
<path d="M48.9185 6.91736C46.6904 6.91736 44.8801 8.71056 44.8801 10.9176C44.8801 13.1246 46.6904 14.9178 48.9185 14.9178C51.1465 14.9178 52.9568 13.1246 52.9568 10.9176C52.9568 8.71056 51.1465 6.91736 48.9185 6.91736ZM47.8509 10.5957C47.2474 10.5957 46.7368 10.0899 46.7368 9.49221C46.7368 8.89448 47.2474 8.3887 47.8509 8.3887C48.4543 8.3887 48.9649 8.89448 48.9649 9.49221C48.9185 10.0899 48.4543 10.5957 47.8509 10.5957Z" fill="white"/>
<path d="M57.1343 17.4927C60.8013 12.9867 60.105 6.36562 55.5561 2.73323C51.0536 -0.899156 44.3694 -0.209463 40.656 4.29654C40.4239 4.57241 40.1918 4.89427 40.0062 5.17015C37.0355 4.84829 36.2928 11.9751 30.5834 11.9751H30.3977C24.6884 11.9751 23.9457 4.80231 20.9286 5.17015C17.9578 0.204353 11.4594 -1.49689 6.39985 1.4458C1.34033 4.38849 -0.330705 10.8716 2.64002 15.8374C2.96494 16.4351 3.3827 16.9409 3.84688 17.4467C-6.59708 29.9072 4.86806 46 30.4442 46H30.4906C56.1131 46 67.6246 29.9531 57.1343 17.4927ZM35.318 21.217C35.5501 20.8952 35.9678 20.7572 36.3392 20.9871C36.432 21.0331 36.5249 21.1251 36.5713 21.217L38.1495 23.7459H33.7862L35.318 21.217ZM24.3635 21.217C24.5955 20.8952 25.0133 20.7572 25.3846 20.9871C25.4775 21.0331 25.5703 21.1251 25.6167 21.217L27.1949 23.7459H22.8317L24.3635 21.217ZM6.77119 16.1133C3.66121 13.3545 3.33628 8.61861 6.12134 5.53798C8.9064 2.45735 13.6874 2.1355 16.7974 4.89427C18.422 6.31964 19.3504 8.34274 19.3504 10.5038C19.3504 12.343 18.6541 14.0902 17.4472 15.4696C14.7086 18.5962 9.92758 18.8721 6.77119 16.1133ZM44.2766 32.1602C41.4451 34.2292 32.5329 36.5742 30.4442 36.5742C28.3554 36.5742 19.4896 34.2292 16.6581 32.1602C16.6117 32.1142 16.5653 32.0222 16.6117 31.9303C16.6581 31.8383 16.751 31.7923 16.8438 31.8383C18.9326 32.6199 24.4563 34.4132 30.4906 34.4132C36.5249 34.4132 42.0486 32.6199 44.1373 31.8383C44.2302 31.7923 44.323 31.8383 44.3694 31.8843C44.3694 31.9762 44.3694 32.1142 44.2766 32.1602ZM54.5813 15.8374C51.7962 18.918 47.0152 19.2399 43.9053 16.4811C40.7953 13.7223 40.4704 8.98645 43.2554 5.90582C46.0405 2.82519 50.8215 2.50333 53.9315 5.26211C55.5561 6.68747 56.4844 8.71057 56.4844 10.8716C56.4844 12.7108 55.7882 14.458 54.5813 15.8374Z" fill="white"/>
<path d="M11.7842 6.54956C9.55614 6.54956 7.74585 8.34276 7.74585 10.5498C7.74585 12.7568 9.55614 14.55 11.7842 14.55C14.0122 14.55 15.8225 12.7568 15.8225 10.5498C15.8225 8.34276 14.0122 6.54956 11.7842 6.54956ZM10.7166 10.2279C10.1131 10.2279 9.60255 9.72215 9.60255 9.12442C9.60255 8.52668 10.1131 8.02091 10.7166 8.02091C11.32 8.02091 11.8306 8.52668 11.8306 9.12442C11.8306 9.76813 11.32 10.2279 10.7166 10.2279Z" fill="white"/>
<path d="M30.4907 3.28491C30.4907 3.28491 24.6421 3.28491 21.7178 4.71028C23.8994 4.71028 25.3848 10.5037 30.4907 10.5037C35.5966 10.5037 37.082 4.71028 39.2636 4.71028C36.3393 3.28491 30.4907 3.28491 30.4907 3.28491Z" fill="white"/>
</svg>
