<svg width="60" height="46" viewBox="0 0 60 46" fill="none" xmlns="http://www.w3.org/2000/svg">
<path d="M30.0192 0C37.4471 0 44.8749 0 52.3028 0C57.4984 0 59.9615 2.41098 59.9615 7.57737C59.9615 17.9101 59.9615 28.2429 60 38.5374C60 43.3977 57.4599 46 52.5722 46C37.4471 46 22.322 46 7.19693 46C2.69404 46 0 43.3594 0 38.8819C0 28.3577 0 17.8336 0 7.34775C0 2.56405 2.54009 0 7.31238 0C14.8942 0 22.4759 0 30.0192 0ZM26.9788 27.975C31.8281 23.6506 36.5234 19.5175 41.1802 15.3461C42.5273 14.1597 43.7203 14.0832 45.1058 15.2313C46.3759 16.3028 47.6844 17.2978 48.9929 18.3311C50.9557 19.8619 52.957 21.3927 55.2662 23.1913C55.2662 17.7571 55.2662 12.8203 55.2662 7.84526C55.2662 4.97504 54.9968 4.70715 52.0718 4.70715C37.2546 4.70715 22.4375 4.70715 7.65875 4.70715C5.08018 4.70715 4.69532 5.08984 4.69532 7.69217C4.69532 14.5807 4.69531 21.4692 4.7338 28.3577C4.7338 28.817 4.81078 29.2762 4.88775 30.0799C7.85119 26.8269 10.5452 23.8419 13.2393 20.8952C14.8942 19.0965 15.8948 19.02 17.7806 20.5507C20.821 22.9617 23.823 25.411 26.9788 27.975Z" fill="white"/>
<path d="M23.0021 12.845C23.0798 10.1544 25.3741 7.92506 27.9794 8.00193C30.857 8.04037 33.1123 10.4235 32.9957 13.2294C32.879 15.92 30.507 18.111 27.9405 17.9956C25.063 17.8419 22.9243 15.5741 23.0021 12.845Z" fill="white"/>
</svg>
