<svg width="60" height="59" viewBox="0 0 60 59" fill="none" xmlns="http://www.w3.org/2000/svg">
<path fill-rule="evenodd" clip-rule="evenodd" d="M29.9083 0C13.3945 0 0 13.3945 0 29.9083C0 43.1193 8.62385 54.3119 20.367 58.3486C21.8349 58.5321 22.3853 57.6147 22.3853 56.8807C22.3853 56.1468 22.3853 54.3119 22.3853 51.7431C14.1284 53.578 12.2936 47.7064 12.2936 47.7064C11.0092 44.2202 8.99083 43.3028 8.99083 43.3028C6.23853 41.4679 9.17431 41.4679 9.17431 41.4679C12.1101 41.6514 13.7615 44.5872 13.7615 44.5872C16.5138 49.1743 20.7339 47.8899 22.3853 47.156C22.5688 45.1376 23.4862 43.8532 24.2202 43.1193C17.6147 42.3853 10.6422 39.8165 10.6422 28.2569C10.6422 24.9541 11.7431 22.3853 13.7615 20.1835C13.578 19.633 12.4771 16.5138 14.1284 12.4771C14.1284 12.4771 16.6972 11.7431 22.3853 15.5963C24.7706 14.8624 27.3394 14.6789 29.9083 14.6789C32.4771 14.6789 35.0459 15.0459 37.4312 15.5963C43.1193 11.7431 45.6881 12.4771 45.6881 12.4771C47.3394 16.5138 46.2385 19.633 46.055 20.367C47.8899 22.3853 49.1743 25.1376 49.1743 28.4404C49.1743 40 42.2018 42.3853 35.5963 43.1193C36.6972 44.0367 37.6147 45.8716 37.6147 48.6239C37.6147 52.6605 37.6147 55.7798 37.6147 56.8807C37.6147 57.6147 38.1651 58.5321 39.633 58.3486C51.5596 54.3119 60 43.1193 60 29.9083C59.8165 13.3945 46.422 0 29.9083 0Z" fill="white"/>
</svg>
