<svg width="38" height="60" viewBox="0 0 38 60" fill="none" xmlns="http://www.w3.org/2000/svg">
<path fill-rule="evenodd" clip-rule="evenodd" d="M31.0169 1.01695H37.1186V42.2034C37.4575 48.1356 34.7796 60 21.3559 60H14.7458C10.3391 60 1.52542 57.356 1.52542 46.7797L8.64407 47.7966C8.64407 49.8305 10.5762 53.8983 18.3051 53.8983C27.9661 53.8983 30 49.8305 30 38.1356C28.6441 39.8305 24.4068 43.2203 18.3051 43.2203C10.678 43.2203 0 37.6271 0 21.8644C0 6.1017 9.15254 0 18.3051 0C25.6271 0 29.8304 4.0678 31.0169 6.1017V1.01695ZM18.8136 37.1186C25.2725 37.1186 30.5085 31.5254 30.5085 21.3559C30.5085 11.6949 25.2725 5.59322 18.8136 5.59322C12.3546 5.59322 7.62712 11.6949 7.62712 21.3559C7.62712 31.0169 12.3546 37.1186 18.8136 37.1186Z" fill="white"/>
</svg>
