<svg width="48" height="48" viewBox="0 0 48 48" fill="none" xmlns="http://www.w3.org/2000/svg">
<path d="M24 0.0292358C16.6041 0.0292358 9.20828 0.0584641 1.78319 0C0.350793 0 0 0.438496 0 1.84166C0.0292326 16.6334 0.0292326 31.4543 0 46.246C0 47.5615 0.350794 48 1.72473 48C16.5749 47.9415 31.4251 47.9415 46.2753 48C47.6492 48 48 47.5615 48 46.246C47.9708 31.4543 47.9708 16.6334 48 1.84166C48 0.467728 47.6492 0 46.2168 0C38.7917 0.0584641 31.3959 0.0292358 24 0.0292358ZM23.8538 3.65408C30.1973 3.65408 36.5116 3.68331 42.8551 3.62485C43.9367 3.62485 44.4044 3.82948 44.3752 5.05725C44.3167 17.6858 44.3459 30.285 44.3752 42.9135C44.3752 43.9367 44.1413 44.3752 43.0012 44.3752C30.3435 44.3459 17.6857 44.3459 4.99878 44.3752C3.85871 44.3752 3.62485 43.9659 3.62485 42.9427C3.65408 30.3142 3.65408 17.715 3.62485 5.08648C3.62485 3.88794 4.03411 3.62485 5.14495 3.62485C11.3715 3.68331 17.6273 3.65408 23.8538 3.65408Z" fill="white"/>
<path d="M38.8502 10.3777C35.43 9.9684 35.43 9.9684 34.4361 13.0086C33.0914 17.0135 31.7467 21.0183 30.402 25.0232C30.3143 25.2863 30.1974 25.5494 29.905 25.754C29.905 20.6675 29.905 15.5811 29.905 10.553C29.6712 10.4361 29.5543 10.3192 29.4373 10.3192C26.2802 9.9684 26.2802 9.9684 26.2802 13.0963C26.2802 20.7845 26.2802 28.4727 26.3094 36.1901C26.3094 36.7747 25.9586 37.8271 27.0402 37.7102C28.1511 37.6225 29.6127 38.5872 30.2558 36.7163C31.8636 31.8929 33.5007 27.0695 35.3715 22.2753C35.3715 24.994 35.3715 27.7418 35.3715 30.4605C35.3715 32.4191 35.43 34.3484 35.3423 36.307C35.2838 37.4763 35.6639 37.9148 36.8332 37.7979C37.4471 37.7394 38.0902 37.7979 38.8502 37.7979C38.8502 28.5896 38.8502 19.5275 38.8502 10.3777Z" fill="white"/>
<path d="M9.44214 37.6224C12.9501 38.0901 12.9501 38.0901 12.9501 34.8453C12.9501 31.8928 12.9501 28.9403 12.9501 25.9001C14.8209 25.9001 16.4872 25.9001 18.3581 25.9001C18.3581 29.788 18.3581 33.6467 18.3581 37.7393C19.4397 37.7393 20.3459 37.7685 21.2229 37.7393C22.2168 37.7101 22.0122 36.9208 22.0122 36.3361C22.0122 32.2436 22.0122 28.151 22.0122 24.0584C22.0122 20.0535 21.9537 16.0779 22.0414 12.1023C22.0706 10.6406 21.7198 9.99751 20.1998 10.2314C19.6736 10.3191 19.1474 10.2314 18.4458 10.2314C18.4458 14.2362 18.4458 18.095 18.4458 22.0706C16.5457 22.0706 14.8502 22.0706 12.9501 22.0706C12.9501 19.0596 12.9501 16.1071 12.9501 13.1546C12.9501 9.90981 12.9501 9.90981 9.44214 10.3483C9.44214 19.4104 9.44214 28.4725 9.44214 37.6224Z" fill="white"/>
</svg>
