<svg width="60" height="48" viewBox="0 0 60 48" fill="none" xmlns="http://www.w3.org/2000/svg">
<path d="M39.9577 47.968C36.3108 44.2585 32.6639 40.5809 29.0486 36.8714C28.5095 36.3278 27.907 36.3917 27.2727 36.3917C22.8964 36.3917 18.5201 36.3917 14.1121 36.3917C11.1945 36.3917 9.95774 35.1446 9.95774 32.2345C9.95774 28.7169 9.98945 25.1992 9.92602 21.6815C9.92602 20.7222 10.2749 20.0826 10.9091 19.475C14.5878 15.8295 18.2981 12.1519 21.9133 8.44238C22.7062 7.64291 23.1184 7.64291 23.8795 8.44238C28.4778 13.1432 33.1713 17.7482 37.8013 22.417C38.499 23.1206 39.1649 23.4404 40.148 23.4084C43.0021 23.3444 45.8563 23.4084 48.7104 23.3764C49.6935 23.3444 50.1057 23.6003 50.074 24.6875C50.0106 27.3418 50.074 30.028 50.0423 32.6822C50.0106 35.0486 48.647 36.3917 46.2685 36.4237C44.6195 36.4557 43.0021 36.4877 41.3531 36.4237C40.4334 36.3917 40.1797 36.7435 40.2114 37.6069C40.2749 41.0606 40.2431 44.5143 40.2749 48C40.1797 47.968 40.0529 47.968 39.9577 47.968Z" fill="white"/>
<path d="M40.2748 0C43.5095 3.64557 47.0613 6.97136 50.4863 10.457C53.5941 13.6229 56.7019 16.7888 60 20.1466C57.3679 20.1466 54.9894 20.1466 52.5793 20.1466C48.8689 20.1466 45.1903 20.1146 41.4799 20.1785C40.4968 20.1785 39.8309 19.9227 39.1332 19.2192C34.1543 14.1665 29.1121 9.17788 24.1332 4.09327C23.2135 3.16588 22.7378 3.10194 21.7865 4.0613C16.9345 9.01799 11.9873 13.9107 7.13531 18.8674C6.21564 19.7948 5.3277 20.3384 3.96406 20.2105C2.66385 20.0826 1.33192 20.1785 0 20.1785C0 20.0826 0 19.9547 0 19.8587C0.12685 19.7948 0.285413 19.7309 0.412263 19.6349C6.94503 13.1113 13.4778 6.55562 19.9789 0.0319709C26.7336 -7.80777e-06 33.5201 0 40.2748 0Z" fill="white"/>
</svg>
