<svg width="51" height="58" viewBox="0 0 51 58" fill="none" xmlns="http://www.w3.org/2000/svg">
<path d="M50.9039 36.9488C50.9039 43.1731 50.9039 49.438 50.9039 55.6622C50.9039 56.4352 51.3076 57.4929 50.4599 57.8997C49.6525 58.3065 49.0067 57.3709 48.3608 56.964C46.746 55.9877 45.0506 55.0927 43.6377 53.8723C40.7312 51.4314 37.4614 50.8212 33.7072 50.9025C25.1088 51.1059 16.4701 50.9839 7.87175 50.9839C3.47164 50.9839 0.0403655 47.5667 0.0403655 43.2137C0.0403655 34.7927 0.0807371 26.4124 1.23193e-06 17.9913C1.23193e-06 16.2827 0.60552 15.2657 2.0184 14.3707C9.08278 9.93641 16.1472 5.42079 23.1308 0.8238C24.7859 -0.274597 25.9969 -0.274597 27.652 0.8238C34.7568 5.46147 41.9423 10.0178 49.1278 14.4927C50.4195 15.3064 50.9443 16.242 50.9443 17.7879C50.8636 24.2156 50.9039 30.5619 50.9039 36.9488ZM25.4722 38.7388C29.2264 38.7388 33.021 38.6981 36.7752 38.7388C38.2688 38.7795 38.7936 38.1693 38.7936 36.7047C38.7532 32.5146 38.7532 28.3244 38.7936 24.0935C38.7936 22.8731 38.3092 22.1001 37.2596 21.4492C33.7879 19.3338 30.3567 17.2184 26.9658 15.0216C25.8355 14.2893 24.9474 14.3707 23.8171 15.0623C20.4262 17.2591 16.9949 19.3745 13.5232 21.4492C12.4737 22.1001 12.07 22.9138 12.07 24.0935C12.1104 28.243 12.1507 32.3518 12.07 36.5013C12.0296 38.2099 12.7563 38.7388 14.371 38.6981C18.0445 38.6981 21.7583 38.7388 25.4722 38.7388Z" fill="white"/>
</svg>
