<svg width="60" height="55" viewBox="0 0 60 55" fill="none" xmlns="http://www.w3.org/2000/svg">
<path d="M9 43.6039C9 40.4279 9 37.3143 9 34.1383C9 33.4533 9.1829 33.0174 9.67056 32.5192C14.852 27.1636 20.0334 21.7458 25.2148 16.3903C26.373 15.1448 27.5312 13.8993 28.7504 12.6539C29.6038 11.782 30.3962 11.782 31.1887 12.6539C35.1509 16.7639 39.1742 20.8117 43.0755 24.9841C45.4528 27.475 47.8912 29.966 50.3295 32.4569C50.8171 32.9551 51 33.4533 51 34.1383C51 40.4902 51 46.7799 51 53.1318C51 54.5018 50.5733 54.9377 49.2322 55C46.9158 55 44.5994 55 42.344 55C40.5762 55 38.8084 55 37.0406 55C35.8215 55 35.3338 54.5018 35.3338 53.194C35.3338 49.769 35.3338 46.3439 35.3338 42.9189C35.3338 41.5489 34.9071 41.1129 33.5661 41.0507C31.1887 41.0507 28.8113 41.0507 26.373 41.0507C25.1538 41.0507 24.6662 41.5489 24.6662 42.7943C24.6662 46.1571 24.6662 49.5199 24.6662 52.8827C24.6662 53.1318 24.6662 53.3186 24.6662 53.5677C24.6052 54.4395 24.0566 54.9377 23.2642 54.9377C21.4354 54.9377 19.6067 54.9377 17.778 54.9377C15.6444 54.9377 13.5109 55 11.3774 55C11.0726 55 10.7069 55 10.4021 54.9377C9.42673 54.8132 9.06098 54.3773 9.06098 53.4432C9.06098 51.2636 9.06098 49.084 9.06098 46.9667C9.00002 45.8457 9 44.7248 9 43.6039Z" fill="white"/>
<path d="M57.2097 33C56.5273 33 55.9069 32.8157 55.4106 32.3856C54.1698 31.4025 53.1772 30.1737 52.0605 29.0677C47.5318 24.5825 43.003 20.0358 38.5362 15.4891C36.489 13.4001 34.3176 11.3111 32.2704 9.16061C30.9676 7.74745 28.9823 7.74745 27.6175 9.16061C25.6323 11.2496 23.585 13.2772 21.5378 15.3048C18.3118 18.5612 15.0858 21.7562 11.8598 25.0126C9.56442 27.3474 7.20696 29.6207 4.91155 32.0169C3.79486 33.1843 1.25128 33.1843 0.320713 31.4025C-0.175593 30.358 -0.113554 29.2521 0.630903 28.3304C0.75498 28.2075 0.879079 28.0232 1.00315 27.9003C4.72544 24.2138 8.38567 20.4659 12.108 16.7794C17.3192 11.5569 22.5304 6.27287 27.7416 1.05032C28.362 0.435905 28.9824 0.0672475 29.8509 0.00580584C30.9055 -0.0556359 31.712 0.374467 32.3324 1.11177C34.5037 3.44655 36.8612 5.65844 39.1566 7.93178C44.3058 13.1543 49.517 18.3154 54.6041 23.538C56.093 25.074 57.644 26.5486 59.0708 28.0847C60.0634 29.1292 60.3116 30.5423 59.5671 31.7097C59.1329 32.5699 58.2643 33 57.2097 33Z" fill="white"/>
</svg>
