<svg width="60" height="44" viewBox="0 0 60 44" fill="none" xmlns="http://www.w3.org/2000/svg">
<path d="M35.6067 36.9095C35.6067 35.2207 35.6203 33.5319 35.6067 31.8431C35.5657 28.7221 33.1343 26.3578 29.979 26.3713C26.8783 26.3848 24.4606 28.7491 24.4333 31.8566C24.4059 35.2342 24.4333 38.6119 24.4196 41.9895C24.4196 42.2868 24.4333 42.584 24.3786 42.8677C24.1737 43.9486 23.04 44.3539 22.2068 43.6108C21.0047 42.5435 19.8437 41.4356 18.669 40.3412C15.1312 37.0311 11.5934 33.7346 8.0829 30.3974C5.8291 28.2628 3.69822 26.0065 2.10007 23.3314C-0.454247 19.062 -0.61816 14.59 1.2805 10.1045C3.78018 4.18687 8.38341 0.728159 14.8307 0.0931608C20.8955 -0.514816 25.7855 1.87656 29.5555 6.57825C30.0336 7.18623 30.02 7.18622 30.5117 6.56474C34.2407 1.90358 39.0898 -0.366202 45.1136 0.0526265C52.5171 0.552519 58.9097 6.67282 59.8658 13.9415C60.5078 18.8189 58.8004 22.845 55.7134 26.4794C52.8722 29.8165 49.512 32.6267 46.3703 35.6531C43.9526 37.9769 41.4939 40.2467 39.0489 42.5435C38.6527 42.9083 38.2566 43.2866 37.8468 43.6378C36.9999 44.3539 35.8662 43.9621 35.675 42.8677C35.6203 42.584 35.634 42.2868 35.634 41.9895C35.6067 40.2872 35.6067 38.5984 35.6067 36.9095ZM25.2255 16.7652C25.2118 19.4809 27.3427 21.6291 30.02 21.602C32.6972 21.5885 34.7871 19.4809 34.7871 16.7923C34.7871 14.0766 32.7519 12.05 30.02 12.0365C27.3017 12.0365 25.2392 14.0631 25.2255 16.7652ZM12.4539 5.06506C12.0305 5.07857 11.73 5.29474 11.4431 5.51091C7.76874 8.22654 5.17344 13.7794 6.93551 19.2782C8.16486 23.1017 10.6645 26.0335 13.6013 28.6681C14.0657 29.0869 14.7897 29.0329 15.1448 28.6276C15.5136 28.2087 15.4317 27.5062 14.9399 27.0603C13.3145 25.6012 11.8256 24.0204 10.6372 22.1965C7.63214 17.6029 7.76874 12.8337 11.0333 8.76696C11.5934 8.07792 12.2354 7.48346 12.9866 6.99707C13.4647 6.67282 13.574 6.19995 13.3828 5.68655C13.2462 5.26772 12.8774 5.06506 12.4539 5.06506ZM53.6371 15.5628C53.6371 12.631 52.4078 9.38845 50.4272 7.21324C49.7579 6.47016 49.0612 5.76761 48.187 5.25421C47.627 4.92995 47.067 5.02453 46.7255 5.48389C46.3976 5.92974 46.5206 6.59176 47.0123 6.98357C47.3538 7.25378 47.7226 7.48346 48.0368 7.78069C51.7931 11.2664 52.5717 16.5626 50.0447 21.0751C48.7744 23.3314 47.0943 25.2229 45.1819 26.9522C44.9771 27.1414 44.7585 27.3035 44.6902 27.5872C44.5809 28.0601 44.6082 28.5195 45.0727 28.7897C45.5781 29.0869 46.0835 28.9923 46.5206 28.6005C47.8455 27.3846 49.1159 26.1281 50.195 24.7095C52.2302 21.9803 53.6371 19.035 53.6371 15.5628ZM15.5273 14.8738C15.5136 19.4268 17.6855 23.0747 20.7725 24.7635C21.4418 25.1283 22.0019 25.0472 22.3434 24.5338C22.6985 23.9934 22.4936 23.3584 21.8243 22.9396C20.8955 22.3586 20.0759 21.6696 19.3793 20.8049C16.784 17.5624 17.0298 13.4011 19.9939 10.78C20.3627 10.4558 20.7998 10.1991 21.2096 9.91537C21.838 9.49654 22.0155 8.95611 21.7014 8.4292C21.3735 7.87526 20.7862 7.76718 20.0896 8.13197C19.9666 8.19952 19.8573 8.26707 19.7344 8.33463C17.0162 10.145 15.5819 12.658 15.5273 14.8738ZM44.5126 15.9816C44.54 14.6846 44.2804 13.4551 43.7477 12.2932C42.9008 10.4558 41.5895 9.02367 39.7865 8.06441C39.1991 7.75367 38.6118 7.9158 38.3112 8.44271C38.0244 8.92909 38.1747 9.46951 38.7074 9.84781C38.9532 10.0234 39.2128 10.1586 39.445 10.3342C41.6305 11.969 42.7096 14.1172 42.3408 16.8463C41.9856 19.5484 40.4694 21.521 38.1883 22.9666C37.56 23.3584 37.3551 23.9664 37.6556 24.5068C37.9698 25.0608 38.5844 25.1823 39.2537 24.7635C42.532 22.7234 44.3351 19.8321 44.5126 15.9816Z" fill="white"/>
</svg>
