<svg width="60" height="25" viewBox="0 0 60 25" fill="none" xmlns="http://www.w3.org/2000/svg">
<path fill-rule="evenodd" clip-rule="evenodd" d="M6.22927 0V24.0519H0V0H6.22927ZM19.4665 0L18.0389 11.2473L17.1521 5.12617C16.8709 3.15789 16.633 1.4708 16.3951 0H8.32733V24.0519H13.7779L13.7996 8.17592L16.0707 24.0519H19.9423L22.1269 7.80822V24.0519H27.5559V0H19.4665ZM37.2242 24.0519C38.7167 24.0519 39.8414 23.9654 40.5768 23.814C41.3338 23.6626 41.9611 23.3814 42.4369 22.9488C42.9344 22.5595 43.3021 21.9755 43.4968 21.2401C43.6914 20.5047 43.8212 19.0771 43.8212 16.9142V8.47873C43.8212 6.20764 43.7347 4.67195 43.5833 3.8933C43.4535 3.11464 43.1074 2.40087 42.5667 1.79524C42.0043 1.14636 41.204 0.713771 40.1226 0.410959C39.0844 0.151406 37.3324 0 34.3475 0H29.6972V24.0519H37.2242ZM35.9265 4.10959V19.8991C36.8133 19.8991 37.3756 19.726 37.5703 19.3367C37.765 18.9906 37.8731 18.0173 37.8731 16.4167V7.11608C37.8731 6.03461 37.8515 5.32084 37.765 5.01802C37.7001 4.71521 37.5487 4.47729 37.3107 4.34751C37.0512 4.19611 36.597 4.10959 35.9265 4.10959ZM45.9409 0V24.0519H51.5429L51.9106 22.5162C52.4297 23.1435 52.9704 23.5977 53.5977 23.9221C54.2033 24.2033 55.1118 24.3547 55.8039 24.3547C56.7988 24.3547 57.6424 24.1168 58.3562 23.5761C59.0699 23.057 59.5242 22.4513 59.7188 21.7376C59.8919 21.0238 60 19.964 60 18.5148V11.788C60 10.3389 59.9567 9.38717 59.8919 8.95458C59.827 8.52199 59.6539 8.04614 59.3295 7.59193C59.005 7.11608 58.5292 6.77001 57.9452 6.51045C57.3396 6.27253 56.6474 6.14275 55.8039 6.14275C55.0901 6.14275 54.1817 6.29416 53.5761 6.55371C52.9704 6.8349 52.4297 7.28911 51.9106 7.85148V0H45.9409ZM54.0303 12.0476C54.0303 11.0526 53.9654 10.3821 53.8356 10.0793C53.7058 9.75487 53.1867 9.60346 52.819 9.60346C52.473 9.60346 52.2134 9.73324 52.1053 9.99279C51.9971 10.2523 51.9322 10.9445 51.9322 12.026V18.385C51.9322 19.4448 51.9971 20.137 52.1269 20.4182C52.235 20.6994 52.4946 20.8508 52.8623 20.8508C53.23 20.8508 53.7491 20.6994 53.8572 20.3749C53.9654 20.0721 54.0303 19.3367 54.0303 18.1903V12.0476Z" fill="white"/>
</svg>
