<svg width="31" height="53" viewBox="0 0 31 53" fill="none" xmlns="http://www.w3.org/2000/svg">
<path d="M5.76527 53C5.21906 52.9427 4.61535 52.9141 3.98289 52.8282C1.10806 52.3701 -0.588095 50.3373 0.188109 47.5315C1.10806 44.2962 2.31549 41.1181 3.78165 38.0833C5.36281 34.8766 7.08771 31.7272 8.81261 28.5778C10.0488 26.3445 11.4287 24.1686 12.2049 21.735C12.3774 21.2196 12.5211 20.5897 12.1762 20.1603C11.9174 19.788 11.3999 19.6735 10.94 19.7308C10.48 19.8167 10.0775 20.0457 9.7038 20.3034C7.34644 21.8208 5.44905 23.825 3.23542 25.4856C2.91919 25.7147 2.11424 25.7433 1.88425 25.5142C1.59677 25.2566 1.62553 24.5981 1.68303 24.14C1.71177 23.8536 1.99925 23.5387 2.22923 23.3097C6.08151 19.33 10.365 16.0088 16.0284 15.1498C17.6958 14.8921 19.4782 14.978 21.1456 15.3216C24.078 15.9229 25.5729 18.3565 24.7967 21.2482C24.2505 23.3097 23.388 25.2852 22.4681 27.2035C19.8807 32.4716 17.1496 37.6538 14.5048 42.8933C14.0735 43.7236 13.6711 44.6397 13.4986 45.5559C13.2398 46.8157 14.0448 47.4456 15.1947 46.873C17.6958 45.5846 19.7945 43.6377 21.8931 41.8053C22.3243 41.4331 22.8418 41.0323 23.388 41.204C23.848 41.3472 24.1067 41.8912 24.0492 42.3493C23.9055 43.8095 21.9506 45.4128 20.9444 46.329C19.622 47.5315 18.1558 48.5908 16.6034 49.507C13.5848 51.2535 10.1638 52.456 6.68522 52.8855C6.42649 52.9714 6.139 52.9714 5.76527 53Z" fill="white"/>
<path d="M24.4869 13C21.2168 13 19.0548 10.7168 19.0007 7.18538C18.9467 3.25823 21.9195 -0.0600612 25.4598 0.000824821C28.6488 0.0312678 30.973 2.5276 31 5.90678C31 9.92526 28.1894 13 24.4869 13Z" fill="white"/>
</svg>
