<svg width="60" height="60" viewBox="0 0 60 60" fill="none" xmlns="http://www.w3.org/2000/svg">
<path fill-rule="evenodd" clip-rule="evenodd" d="M16.6743 0H43.0466C52.186 0 59.6511 7.46509 59.6511 16.6046V42.9768C59.6511 52.1163 52.186 59.5814 43.0466 59.5814H16.6047C7.46509 59.5814 0 52.1163 0 42.9768V16.6046C0 7.46509 7.46509 0 16.6743 0ZM43.0464 54.6976C49.4651 54.6976 54.7673 49.4651 54.7673 42.9767V16.6046C54.7673 10.186 49.5347 4.88367 43.0464 4.88367H16.6743C10.2556 4.88367 4.95337 10.1162 4.95337 16.6046V42.9767C4.95337 49.3953 10.186 54.6976 16.6743 54.6976H43.0464Z" fill="white"/>
<path fill-rule="evenodd" clip-rule="evenodd" d="M14.4419 29.7906C14.4419 21.3488 21.3489 14.3721 29.8606 14.3721C38.3721 14.3721 45.2791 21.3488 45.2791 29.7906C45.2791 38.3022 38.3721 45.2092 29.8606 45.2092C21.3489 45.2092 14.4419 38.3022 14.4419 29.7906ZM19.3257 29.7908C19.3257 35.5814 24.0698 40.3257 29.8606 40.3257C35.6514 40.3257 40.3955 35.5814 40.3955 29.7908C40.3955 24 35.6514 19.2559 29.8606 19.2559C24.0698 19.2559 19.3257 24 19.3257 29.7908Z" fill="white"/>
<path fill-rule="evenodd" clip-rule="evenodd" d="M45.6977 18.0698C47.894 18.0698 49.6744 16.2894 49.6744 14.0931C49.6744 11.8968 47.894 10.1163 45.6977 10.1163C43.5014 10.1163 41.7209 11.8968 41.7209 14.0931C41.7209 16.2894 43.5014 18.0698 45.6977 18.0698Z" fill="white"/>
</svg>
