<svg width="50" height="60" viewBox="0 0 50 60" fill="none" xmlns="http://www.w3.org/2000/svg">
<path d="M45.1895 14.7791C40.623 15.6385 36.4468 16.4199 32.2706 17.2012C28.914 17.8263 25.5574 18.5685 22.2008 19.1545C20.1322 19.5061 19.1565 20.2875 19.1955 22.6705C19.3516 31.734 19.2345 40.8365 19.2736 49.8999C19.2736 53.6503 18.4539 57.0882 14.7851 58.729C10.9601 60.4479 6.94004 60.487 3.15412 58.4555C0.734254 57.1663 -0.436651 53.9628 0.1488 51.3454C0.890372 48.1029 2.998 46.1105 6.31556 45.6807C7.91579 45.4854 9.55505 45.5635 11.1943 45.5245C14.2777 45.4463 14.8632 44.8213 14.8632 41.6178C14.8632 31.4996 14.8632 21.4204 14.8632 11.3021C14.8632 6.65321 15.1754 6.18443 19.6248 5.2859C28.3285 3.5279 37.0322 1.80896 45.775 0.16816C48.8193 -0.417839 49.9512 0.480688 49.9512 3.60601C49.9902 17.2402 50.0683 30.8354 49.8732 44.4697C49.7561 52.6736 40.7791 57.0491 33.8318 52.5565C31.529 51.0719 30.3191 48.0247 30.9045 45.1338C31.4119 42.5554 33.5586 40.4067 36.3297 40.0161C38.4373 39.7035 40.584 39.6254 42.7306 39.5473C44.2138 39.5082 45.3066 39.0785 45.3457 37.3986C45.3847 31.4214 45.4237 25.4052 45.3847 19.428C45.3847 18.0606 45.2676 16.7324 45.1895 14.7791Z" fill="white"/>
</svg>
