<svg width="60" height="51" viewBox="0 0 60 51" fill="none" xmlns="http://www.w3.org/2000/svg">
<path d="M59.8611 23.4999C59.7685 22.5373 59.6297 21.5983 59.4213 20.6827C58.889 18.3351 58.0094 16.1518 56.8059 14.1093C55.5328 11.926 53.9589 10.0244 52.1073 8.31065C49.5844 5.96301 46.7143 4.13185 43.5664 2.77022C40.8584 1.5964 38.0577 0.798198 35.1413 0.375623C34.0998 0.211288 33.0351 0.117382 31.9703 0.0469528C31.2297 0 30.4659 -1.79111e-07 29.7252 -1.79111e-07C28.7994 -1.79111e-07 27.8504 0.0469532 26.9245 0.140859C26.1839 0.211288 25.4432 0.281717 24.7025 0.399099C23.661 0.563434 22.6657 0.751245 21.6473 1.00949C18.268 1.85464 15.0739 3.16932 12.1112 5.04743C9.75031 6.52644 7.64404 8.31065 5.81552 10.4235C4.26474 12.2077 2.96857 14.1797 1.99645 16.3631C0.746569 19.1098 0.0984833 21.9739 0.00589977 24.9789C-0.0172461 25.871 0.0290456 26.7631 0.121629 27.6787C0.191067 28.4534 0.306796 29.2046 0.468817 29.9794C0.95488 32.327 1.81128 34.5338 2.99172 36.5997C4.56564 39.3699 6.62562 41.7176 9.05594 43.7365C10.9539 45.3095 13.037 46.6241 15.259 47.7041C18.6152 49.3239 22.1334 50.3099 25.8135 50.756C26.6931 50.8734 27.5726 50.9203 28.4753 50.9673C29.5632 51.0142 30.651 51.0142 31.7389 50.9438C32.6879 50.8968 33.6137 50.8029 34.5627 50.6856C35.4654 50.5682 36.3449 50.4273 37.2245 50.2395C38.8215 49.9108 40.4186 49.4648 41.9462 48.8779C42.0157 48.8544 42.0851 48.8544 42.1777 48.8779C44.2839 49.8169 46.4828 50.4038 48.7511 50.7325C49.8158 50.8734 50.8805 50.9673 51.9452 50.9673C53.0099 50.9907 54.0978 50.9438 55.1625 50.8264C55.3708 50.8029 55.5791 50.7795 55.8337 50.7325C53.0794 49.4648 50.6491 47.7745 48.6817 45.4738C48.7048 45.4268 48.7511 45.4034 48.7974 45.3564C49.9084 44.6052 50.9731 43.76 51.9915 42.821C54.1904 40.802 56.0189 38.5013 57.4308 35.8485C59.0047 32.867 59.8611 29.6977 60 26.317C59.9768 25.3545 59.9537 24.4155 59.8611 23.4999ZM18.9161 31.2236C18.8235 31.4584 18.6383 31.5758 18.4069 31.5992C18.1986 31.6227 18.0134 31.5758 17.8514 31.4349L17.8282 31.4114C17.7588 31.3645 17.6893 31.294 17.643 31.2471C16.3006 29.8855 14.935 28.5238 13.5694 27.1622C13.3611 26.9509 13.1296 26.7162 12.8981 26.4814C12.875 26.4579 12.875 26.4579 12.8519 26.4344C12.8287 26.411 12.8056 26.411 12.7824 26.3875C12.7593 26.4344 12.7824 26.5049 12.7824 26.5518C12.7824 27.9604 12.7824 29.3925 12.7824 30.801C12.7824 30.9184 12.7824 31.0358 12.7593 31.1297C12.6667 31.4349 12.4121 31.5758 12.088 31.5758C11.926 31.5758 11.8103 31.5053 11.6946 31.4114C11.602 31.3175 11.5325 31.2001 11.4863 31.0593C11.4631 30.9889 11.4631 30.8949 11.4631 30.801C11.4631 27.6552 11.4631 24.5094 11.4631 21.34C11.4631 21.2696 11.4631 21.1757 11.4863 21.1053C11.5557 20.7531 11.8103 20.5653 12.1806 20.5653C12.3427 20.5653 12.4815 20.6358 12.5973 20.7531C12.713 20.847 12.7824 20.9879 12.7824 21.1757C12.7824 21.2461 12.7824 21.3166 12.7824 21.387C12.7824 22.6078 12.7824 23.8051 12.7824 25.0258C12.7824 25.0728 12.7824 25.1432 12.7824 25.2137C12.8287 25.1902 12.8519 25.1667 12.8981 25.1432C12.9213 25.1198 12.9213 25.1198 12.9444 25.0963C14.4258 23.6877 15.9303 22.3026 17.4116 20.894C17.5042 20.8001 17.5968 20.7297 17.7125 20.6592C17.8745 20.5419 18.0597 20.5419 18.2448 20.6123C18.3606 20.6592 18.4532 20.7297 18.4995 20.8236C18.5226 20.8705 18.5457 20.894 18.5457 20.941C18.6152 21.2227 18.592 21.5044 18.3606 21.7157C18.0828 21.9739 17.8051 22.2322 17.5273 22.4904C16.3932 23.5468 15.2359 24.6033 14.0786 25.6597C14.0554 25.6832 14.0092 25.7067 13.986 25.7301C13.986 25.7536 14.0092 25.7536 14.0092 25.7771C14.0323 25.8006 14.0786 25.8475 14.1017 25.871C15.6062 27.35 17.1107 28.8525 18.6383 30.3315C18.7078 30.4019 18.7772 30.4724 18.8235 30.5428C18.9624 30.801 19.0087 31.0123 18.9161 31.2236ZM25.8135 28.5238C25.8135 28.5473 25.8135 28.5473 25.8135 28.5708C25.8135 28.7821 25.7904 28.9934 25.7673 29.2046C25.721 29.4159 25.6747 29.6272 25.5821 29.8385C25.3043 30.5898 24.7951 31.1297 24.0545 31.388C23.1981 31.7166 22.3185 31.7166 21.4621 31.4114C20.4668 31.0593 19.8882 30.3315 19.6799 29.322C19.6105 29.0168 19.5873 28.7351 19.5873 28.4299C19.5873 26.9979 19.5873 25.5658 19.5873 24.1337C19.5873 24.0633 19.5873 24.0164 19.6104 23.9459V23.9225C19.6567 23.6173 19.8882 23.3825 20.2817 23.3825C20.6289 23.3825 20.8835 23.6173 20.9066 23.9929C20.9066 24.0633 20.9066 24.1572 20.9066 24.2276C20.9066 25.6128 20.9066 26.9979 20.9066 28.383C20.9066 28.7351 20.9529 29.0638 21.0455 29.369C21.2307 29.9089 21.5779 30.2376 22.1102 30.3785C22.5268 30.4958 22.9666 30.4959 23.3832 30.355C23.8461 30.2141 24.1702 29.9089 24.3322 29.4629C24.4711 29.1342 24.5174 28.8055 24.5174 28.4769C24.5174 28.0074 24.5174 27.5378 24.5174 27.0683C24.5174 26.0823 24.5174 25.1198 24.5174 24.1337C24.5174 24.0164 24.5174 23.9225 24.5405 23.8286C24.61 23.5234 24.8414 23.359 25.1655 23.359C25.4664 23.359 25.6978 23.5234 25.7904 23.8051C25.8135 23.899 25.8367 24.0164 25.8367 24.1103C25.8367 24.8615 25.8367 25.6128 25.8367 26.364C25.8135 27.0918 25.8367 27.7961 25.8135 28.5238ZM33.9146 30.8245C33.9146 30.9419 33.9146 31.0358 33.8915 31.1297C33.822 31.4584 33.5443 31.6227 33.1971 31.5992C33.0351 31.5758 32.8962 31.5288 32.8036 31.4114C32.711 31.3175 32.6416 31.1767 32.6184 31.0123C32.6184 30.8949 32.6184 30.7776 32.6184 30.6602C32.6184 30.6132 32.6416 30.5663 32.6184 30.5193C32.5721 30.5193 32.5721 30.5428 32.549 30.5663C32.2481 31.0828 31.8083 31.388 31.2297 31.5053C30.4196 31.6697 29.6326 31.5758 28.892 31.1532C28.4059 30.8715 28.0587 30.4724 27.7809 30.0028C27.7346 29.9324 27.6884 29.8385 27.6421 29.7681C27.3643 29.2281 27.2023 28.6647 27.1329 28.0543C27.0403 27.1857 27.1329 26.3405 27.48 25.5189C27.7346 24.8615 28.1281 24.2981 28.7068 23.899C29.54 23.3355 30.4196 23.1712 31.3685 23.4999C31.8083 23.6407 32.1555 23.9225 32.4564 24.2746C32.4796 24.2981 32.5027 24.3216 32.5027 24.345C32.5258 24.3685 32.5258 24.392 32.6184 24.4155C32.6184 24.345 32.6184 24.2746 32.6184 24.2276C32.6184 23.0069 32.6184 21.7861 32.6184 20.5653C32.6184 20.4479 32.6184 20.354 32.6416 20.2367C32.7342 19.9315 32.9656 19.7671 33.2897 19.7906C33.4748 19.7906 33.6369 19.861 33.7526 20.0019C33.822 20.0723 33.8683 20.1897 33.8915 20.3071C33.9146 20.401 33.9146 20.4949 33.9146 20.5888C33.9146 23.9929 33.9146 27.4204 33.9146 30.8245ZM40.9509 31.1532C40.8815 31.388 40.6963 31.4819 40.4649 31.5288C40.4186 31.5288 40.3491 31.5288 40.2797 31.5288C38.7521 31.5288 37.2013 31.5288 35.6737 31.5288C35.558 31.5288 35.4422 31.5288 35.3496 31.4819C35.1876 31.4349 35.095 31.341 35.0487 31.2001C35.0256 31.1297 35.0025 31.0358 35.0256 30.9184C35.0488 30.7071 35.1645 30.5428 35.2571 30.3785C35.5811 29.862 35.9283 29.369 36.2523 28.876C37.155 27.5143 38.0577 26.1292 38.9372 24.7676C38.9604 24.7207 39.0067 24.6972 39.0067 24.6267C38.9604 24.6033 38.891 24.6267 38.8447 24.6267C37.8494 24.6267 36.8773 24.6267 35.882 24.6267C35.7663 24.6267 35.6737 24.6267 35.5811 24.6033C35.3728 24.5563 35.2339 24.4389 35.1876 24.2511C35.1645 24.1807 35.1645 24.1103 35.1645 24.0398C35.1645 23.7346 35.3265 23.5468 35.6043 23.4999C35.6968 23.4764 35.7894 23.4764 35.882 23.4764C37.317 23.4764 38.7521 23.4764 40.1871 23.4764C40.3029 23.4764 40.3954 23.4999 40.5112 23.5234C40.6732 23.5703 40.7889 23.6642 40.8352 23.8051C40.8584 23.8755 40.8815 23.9694 40.8584 24.0868C40.8584 24.1807 40.8121 24.2746 40.7889 24.345C40.7195 24.4859 40.65 24.6033 40.5575 24.7207C39.3307 26.5518 38.1271 28.4065 36.9004 30.2376C36.8773 30.2846 36.831 30.3315 36.831 30.3785C36.8773 30.4254 36.9467 30.4019 36.993 30.4019C38.104 30.4019 39.215 30.4019 40.326 30.4019C40.4417 30.4019 40.5575 30.4019 40.6732 30.4489C40.8352 30.5193 40.9509 30.6132 40.9972 30.7541C41.0204 30.801 41.0204 30.8715 41.0435 30.9184C40.9741 30.9654 40.9741 31.0593 40.9509 31.1532ZM48.0104 29.5333C47.8484 30.0968 47.5707 30.5663 47.154 30.8949C46.9226 31.1062 46.6217 31.2706 46.2976 31.388C45.4644 31.6931 44.6311 31.6931 43.7979 31.388C42.8026 31.0358 42.224 30.3315 41.9925 29.2986C41.9231 28.9934 41.8999 28.7116 41.8999 28.4065C41.8999 26.9744 41.8999 25.5423 41.8999 24.1337C41.8999 24.0164 41.8999 23.9225 41.9231 23.8286C41.9694 23.6173 42.1314 23.4529 42.3166 23.406C42.386 23.3825 42.4554 23.359 42.548 23.359C42.8489 23.359 43.0804 23.5234 43.1729 23.8051C43.1961 23.9225 43.2192 24.0164 43.2192 24.1337C43.2192 25.5423 43.2192 26.9274 43.2192 28.336C43.2192 28.6647 43.2424 28.9934 43.335 29.2986C43.5433 29.9794 44.0525 30.3785 44.7469 30.4489C45.0478 30.4724 45.3718 30.4724 45.6727 30.3785C45.8579 30.3315 46.0199 30.2611 46.1588 30.1672C46.3902 30.0028 46.5522 29.7681 46.668 29.4864C46.8069 29.1577 46.8531 28.829 46.8531 28.4769C46.8531 27.9134 46.8531 27.3735 46.8531 26.8101C46.8531 25.9179 46.8531 25.0258 46.8531 24.1572C46.8531 24.0398 46.8531 23.9459 46.8763 23.852C46.9457 23.6407 47.0615 23.4999 47.2698 23.4295C47.3392 23.406 47.4318 23.3825 47.5012 23.3825C47.8021 23.3825 48.0336 23.5468 48.1262 23.8051C48.1493 23.9225 48.1725 24.0164 48.1725 24.1337C48.1725 24.885 48.1725 25.6362 48.1725 26.3875C48.1725 27.0918 48.1725 27.7961 48.1725 28.4769C48.1725 28.829 48.1262 29.1812 48.0104 29.5333ZM50.6722 23.3825C50.0473 23.3825 49.5612 22.866 49.5612 22.2322C49.5612 21.5983 50.0704 21.1053 50.6722 21.1053C51.274 21.1053 51.7832 21.6218 51.7832 22.2556C51.7832 22.8895 51.274 23.3825 50.6722 23.3825Z" fill="white"/>
<path d="M30.4658 30.4489C30.975 30.4724 31.4148 30.355 31.8083 30.0263C32.1091 29.7916 32.2943 29.4864 32.4563 29.1342C32.7341 28.4769 32.8035 27.7961 32.7572 27.0918C32.7341 26.6223 32.6184 26.1762 32.4332 25.7536C32.2712 25.425 32.086 25.1198 31.7851 24.9085C31.3916 24.6033 30.9519 24.4859 30.4658 24.5094C30.0492 24.5329 29.702 24.6737 29.3779 24.932C29.1233 25.1432 28.9382 25.425 28.7761 25.7301C28.5215 26.2701 28.429 26.857 28.429 27.4205C28.429 27.6787 28.4289 27.8665 28.4752 28.1013C28.5215 28.4299 28.591 28.7351 28.7067 29.0403C28.7298 29.0873 28.753 29.1577 28.7761 29.2047C28.7993 29.2516 28.8224 29.2751 28.8224 29.322C29.1696 30.0029 29.702 30.402 30.4658 30.4489Z" fill="white"/>
</svg>
