<svg width="65" height="60" viewBox="0 0 65 60" fill="none" xmlns="http://www.w3.org/2000/svg">
<path d="M32.0502 0C14.337 0 0 11.4927 0 25.6679C0 38.2937 11.4002 48.7921 26.4079 50.9427C26.7547 50.9889 27.1247 51.0352 27.4716 51.0814C32.582 52.1451 28.1422 58.5505 29.8302 59.8455C31.7496 61.3486 46.3409 51.5901 55.1975 43.4042C56.4694 42.3405 57.6487 41.1611 58.6893 39.9355L58.7124 39.9124C58.9668 39.6349 59.1518 39.4037 59.3136 39.1724C62.3429 35.2413 64.1003 30.6396 64.1003 25.6679C64.1003 11.4927 49.7402 0 32.0502 0ZM21.598 32.1658C21.598 33.0908 20.8349 33.8307 19.9331 33.8307H13.597H13.5739H13.4583C12.5333 33.8307 11.7934 33.0676 11.7934 32.1658V19.7712C11.7934 18.8462 12.5565 18.1063 13.4583 18.1063H13.597C14.522 18.1063 15.262 18.8694 15.262 19.7712V30.3621H19.91C20.8349 30.3621 21.5749 31.1252 21.5749 32.0271V32.1658H21.598ZM26.431 32.1658C26.431 33.0908 25.6679 33.8307 24.766 33.8307H24.6273C23.7023 33.8307 22.9624 33.0676 22.9624 32.1658V19.7712C22.9624 18.8462 23.7255 18.1063 24.6273 18.1063H24.766C25.691 18.1063 26.431 18.8694 26.431 19.7712V32.1658ZM41.5542 32.1658C41.5542 32.6283 41.3692 33.0445 41.0686 33.3451C40.9761 33.4608 40.8374 33.5764 40.6524 33.6457C40.4211 33.7614 40.1437 33.8307 39.8662 33.8307H39.7274C39.4962 33.8307 39.2881 33.7845 39.1031 33.7151C38.8487 33.6226 38.6175 33.4608 38.4556 33.2295C38.4093 33.1833 38.3631 33.1139 38.34 33.0676L32.2583 24.766V32.1889C32.2583 33.1139 31.4952 33.8539 30.5933 33.8539H30.4546C29.5296 33.8539 28.7897 33.0908 28.7897 32.1889V19.7712C28.7897 18.8462 29.5528 18.1063 30.4546 18.1063H30.5933C31.2177 18.1063 31.7496 18.4531 32.0502 18.9619L38.0856 27.0553V19.7712C38.0856 18.8462 38.8487 18.1063 39.7505 18.1063H39.8893C40.8143 18.1063 41.5542 18.8694 41.5542 19.7712V32.1658ZM53.5095 19.9562C53.5095 20.8812 52.7464 21.6211 51.8445 21.6211H47.1734V24.2573H51.8214C52.7464 24.2573 53.4863 25.0204 53.4863 25.9223V26.061C53.4863 26.986 52.7232 27.7259 51.8214 27.7259H47.1734V30.3621H51.8214C52.7464 30.3621 53.4863 31.1252 53.4863 32.0271V32.1658C53.4863 33.0908 52.7232 33.8307 51.8214 33.8307H45.5085H45.4853H45.3697C44.4448 33.8307 43.7048 33.0676 43.7048 32.1658V19.8175C43.7048 18.8925 44.4679 18.1525 45.3697 18.1525H45.4853H45.5085H51.8214C52.7464 18.1525 53.4863 18.9156 53.4863 19.8175V19.9562H53.5095Z" fill="white"/>
</svg>
