<svg width="60" height="60" viewBox="0 0 60 60" fill="none" xmlns="http://www.w3.org/2000/svg">
<path d="M31.9064 3.81271C27.893 3.81271 24.2809 4.61538 20.8696 6.02007L14.4482 0C8.02676 2.80936 2.80936 8.02676 0 14.6488L6.22074 20.8696C9.0301 14.2475 14.2475 9.0301 20.6689 6.22074L43.5452 28.8963C37.1237 31.7057 31.9064 36.9231 29.097 43.5452L6.22074 20.8696C4.81605 24.2809 3.81271 28.0936 3.81271 31.9064C3.81271 47.3579 16.4548 60 31.9064 60C47.3579 60 60 47.3579 60 31.9064C59.7993 16.4548 47.3579 3.81271 31.9064 3.81271ZM36.7224 45.1505C38.3278 41.3378 41.3378 38.3278 45.1505 36.7224L47.3579 47.3579L36.7224 45.1505Z" fill="white"/>
<path d="M45.1504 36.7224C44.3478 32.7091 43.5451 28.8964 43.5451 28.8964C37.1237 31.7057 31.9063 36.9231 29.0969 43.5452L36.7223 45.1505C38.3277 41.3378 41.3377 38.3278 45.1504 36.7224Z" fill="white"/>
</svg>
