<svg width="60" height="48" viewBox="0 0 60 48" fill="none" xmlns="http://www.w3.org/2000/svg">
<path d="M7.11193 9.79954V36.5155C7.26606 37.4688 6.97982 38.4665 6.29725 39.176L6.71947e-07 46.8693V47.8891H17.8789V46.8693L11.5816 39.176C10.8991 38.4665 10.5908 37.491 10.7229 36.5155V13.3912L26.378 47.867H28.2055L41.6807 13.4134V40.8831C41.6807 41.6148 41.6807 41.7478 41.1963 42.2356L36.3523 46.9801V48H59.8899V46.9801L55.2 42.3464C54.7817 42.036 54.5835 41.5039 54.6716 40.994V7.00601C54.5835 6.49608 54.7817 5.96397 55.2 5.65358L60 1.01986V1.3532e-06H43.4202L31.5963 29.6868L18.1431 1.3532e-06H0.748623V1.01986L6.34129 7.82633C6.89174 8.31409 7.17798 9.04572 7.11193 9.79954Z" fill="white"/>
</svg>
