<svg width="70" height="67" viewBox="0 0 70 67" fill="none" xmlns="http://www.w3.org/2000/svg">
<path d="M68.6254 29.2581C69.3846 29.2581 70 28.6462 70 27.8913C70 27.1364 69.3846 26.5244 68.6254 26.5244C67.8662 26.5244 67.2508 27.1364 67.2508 27.8913C67.2508 28.6462 67.8662 29.2581 68.6254 29.2581Z" fill="white"/>
<path d="M11.8813 55.3237C12.6246 55.3237 13.2271 54.7246 13.2271 53.9855C13.2271 53.2465 12.6246 52.6474 11.8813 52.6474C11.1381 52.6474 10.5356 53.2465 10.5356 53.9855C10.5356 54.7246 11.1381 55.3237 11.8813 55.3237Z" fill="white"/>
<path d="M65.0688 38.5871C66.0722 38.5871 66.8856 37.7783 66.8856 36.7806C66.8856 35.7828 66.0722 34.974 65.0688 34.974C64.0654 34.974 63.252 35.7828 63.252 36.7806C63.252 37.7783 64.0654 38.5871 65.0688 38.5871Z" fill="white"/>
<path d="M20.379 3.11602C21.2444 3.11602 21.9459 2.41848 21.9459 1.55801C21.9459 0.697545 21.2444 0 20.379 0C19.5137 0 18.8121 0.697545 18.8121 1.55801C18.8121 2.41848 19.5137 3.11602 20.379 3.11602Z" fill="white"/>
<path d="M14.0346 15.1117C15.2716 15.1117 16.2744 14.1146 16.2744 12.8846C16.2744 11.6546 15.2716 10.6575 14.0346 10.6575C12.7977 10.6575 11.7949 11.6546 11.7949 12.8846C11.7949 14.1146 12.7977 15.1117 14.0346 15.1117Z" fill="white"/>
<path d="M33.2889 66.3636C34.3242 66.3636 35.1634 65.5292 35.1634 64.4998C35.1634 63.4704 34.3242 62.6359 33.2889 62.6359C32.2537 62.6359 31.4145 63.4704 31.4145 64.4998C31.4145 65.5292 32.2537 66.3636 33.2889 66.3636Z" fill="white"/>
<path d="M51.7647 63.2093C53.4529 63.2093 54.8215 61.8485 54.8215 60.1698C54.8215 58.4911 53.4529 57.1302 51.7647 57.1302C50.0764 57.1302 48.7078 58.4911 48.7078 60.1698C48.7078 61.8485 50.0764 63.2093 51.7647 63.2093Z" fill="white"/>
<path d="M39.2199 7.56063C40.8126 7.56063 42.1038 6.2768 42.1038 4.69312C42.1038 3.10944 40.8126 1.82562 39.2199 1.82562C37.6272 1.82562 36.3361 3.10944 36.3361 4.69312C36.3361 6.2768 37.6272 7.56063 39.2199 7.56063Z" fill="white"/>
<path d="M2.92227 34.6872C4.5362 34.6872 5.84455 33.3863 5.84455 31.7815C5.84455 30.1767 4.5362 28.8757 2.92227 28.8757C1.30835 28.8757 0 30.1767 0 31.7815C0 33.3863 1.30835 34.6872 2.92227 34.6872Z" fill="white"/>
<path d="M60.6755 22.4621C62.0346 22.4621 63.1364 21.3666 63.1364 20.0152C63.1364 18.6638 62.0346 17.5682 60.6755 17.5682C59.3164 17.5682 58.2147 18.6638 58.2147 20.0152C58.2147 21.3666 59.3164 22.4621 60.6755 22.4621Z" fill="white"/>
<path d="M58.4454 36.1402C59.6278 38.0327 60.3199 40.2598 60.3199 42.6494C60.3199 49.4549 54.7733 54.9701 47.929 54.9701C47.756 54.9701 47.583 54.9701 47.4196 54.9606C46.5448 58.6596 43.2092 61.4124 39.2199 61.4124C37.0474 61.4124 35.0672 60.6 33.5772 59.2523C31.6451 60.7434 29.2226 61.6323 26.5888 61.6323C20.427 61.6323 15.4187 56.7766 15.1977 50.7071C10.1606 49.9329 6.31547 45.6029 6.31547 40.3841C6.31547 37.2967 7.67087 34.5152 9.81451 32.6036C8.86285 31.1029 8.30531 29.3155 8.30531 27.4134C8.30531 22.4717 11.9966 18.3999 16.7934 17.7595C18.8505 12.273 24.1663 8.36359 30.405 8.36359C33.3369 8.36359 36.0573 9.22384 38.3451 10.7054C39.7678 10.1797 41.2962 9.88337 42.9016 9.88337C50.0727 9.88337 55.8884 15.6662 55.8884 22.7967C55.8884 23.1312 55.8788 23.4562 55.8499 23.7812C58.8491 24.6319 61.0504 27.3752 61.0504 30.6346C61.0504 32.8616 60.0315 34.8402 58.4454 36.1402ZM18.9658 46.2911C23.455 47.8013 24.8104 43.2994 24.8104 43.2994C24.8104 43.2994 28.9343 33.244 29.7417 30.8066C30.3569 28.9523 31.424 28.7898 31.8469 28.8663C32.0007 28.8949 32.0872 28.9427 32.2314 29.0096C33.731 29.7456 32.6832 31.944 32.6832 31.944C32.6832 31.944 30.5877 37.3636 29.7802 39.1893C28.915 41.1679 28.6074 43.1751 30.9049 43.5383C33.3657 43.9302 34.5289 41.1679 34.5289 41.1679C34.5289 41.1679 39.268 31.8389 39.7967 30.8162C40.3254 29.7934 41.1713 27.2987 42.6709 27.7766C44.1705 28.2545 42.7285 30.7206 42.7285 30.7206C42.7285 30.7206 40.6137 35.0696 39.4602 37.3636C38.3067 39.6576 37.5088 41.5502 38.374 43.7773C39.2391 46.0044 40.7579 47.0462 43.065 47.6484C45.3721 48.2506 47.4196 47.9352 47.4196 47.9352C49.6401 47.5624 49.6113 45.4404 48.8326 44.8C47.3619 43.5766 46.2564 44.3221 44.6223 43.6052C42.9881 42.8884 43.536 41.1009 43.834 39.6098C44.1416 38.1092 45.7277 34.6395 46.987 31.7911C48.2559 28.9427 49.0441 26.7634 48.7461 25.1003C48.4385 23.4371 47.41 22.6247 46.6313 22.185C45.8527 21.7453 42.7574 21.363 41.7384 22.185C40.7099 23.007 40.2773 22.5386 39.8832 22.1945C39.4891 21.8504 38.72 20.6365 36.8648 20.5409C35.0095 20.4358 33.8848 21.8409 32.8563 22.682C31.8277 23.5231 31.0587 22.9879 31.0587 22.9879C31.0587 22.9879 30.1935 22.5769 28.8477 21.9365C27.502 21.296 26.3292 20.9328 24.0414 21.9365C21.7535 22.9401 20.8211 25.7885 20.8211 25.7885C19.7637 28.245 15.8898 40.8238 15.8898 40.8238C15.8898 40.8238 14.89 44.9147 18.9658 46.2911Z" fill="white"/>
</svg>
