<svg width="60" height="55" viewBox="0 0 60 55" fill="none" xmlns="http://www.w3.org/2000/svg">
<path d="M30.4877 25.3455C29.1943 26.144 27.9625 26.574 26.6075 26.8811C24.6366 27.3111 22.6657 27.3111 20.6949 26.9425C18.9703 26.6354 17.6154 25.7141 16.5067 24.4242C14.2895 21.9058 12.6882 19.0189 12.1954 15.6406C11.518 11.0339 13.1809 7.22564 16.7531 4.27732C19.3399 2.18892 22.3578 1.14472 25.5605 0.591913C30.6108 -0.329438 35.4149 0.653336 40.0341 2.68031C42.4361 3.7245 44.7149 4.89155 47.1785 5.75148C47.7328 5.93575 48.2872 6.12002 48.8415 6.18144C49.8885 6.30429 50.6892 5.99717 51.3667 5.19867C52.2289 4.21589 52.5369 2.98742 52.5369 1.69753C52.7832 1.69753 52.8448 1.8818 52.9064 2.00465C53.6455 3.41739 53.4607 5.62863 52.4137 6.79567C51.3667 8.02414 49.8885 8.26983 48.4103 8.08556C46.6858 7.90129 45.0229 7.40991 43.4831 6.6114C40.5268 5.26009 37.5705 3.9702 34.3062 3.23312C30.3029 2.31177 26.2995 2.49604 22.4194 3.78593C16.7531 5.69005 13.7352 11.2796 15.3365 17.0534C16.1988 20.3702 18.1081 23.0114 21.0644 24.8541C22.3578 25.6527 23.7128 25.8983 25.1909 25.8983C26.6691 25.8983 28.1472 25.5912 29.6254 25.2841C29.8102 25.2841 30.0565 25.2227 30.4877 25.3455ZM36.4619 53.7231C36.2155 53.6617 35.6612 53.9074 35.5996 53.5389C35.538 53.1703 36.0308 53.0475 36.3387 52.9246C38.248 52.1261 40.0957 51.389 42.005 50.5905C43.1752 50.0992 44.3454 49.5463 45.3924 48.8707C45.762 48.625 46.0699 48.3179 46.3779 48.0108C46.8706 47.5194 46.9322 46.9666 46.6858 46.2909C45.2693 42.7284 43.6679 39.2272 42.3745 35.5418C41.3891 32.5935 40.5884 29.6452 40.3421 26.5126C40.0957 22.8272 41.3891 19.9403 44.5918 17.9747C46.0699 17.0534 47.7328 16.3777 49.3342 15.6406C51.3051 14.7807 53.3375 13.9208 55.0621 12.5695C57.7104 10.5425 58.5727 7.90129 58.3263 4.70728C58.2031 3.29454 57.9568 1.8818 57.6488 0.530489C57.5872 0.346219 57.4025 0.161949 57.7104 0.0391021C57.9568 -0.0837447 58.08 0.100525 58.2031 0.346219C59.0654 1.8818 59.7429 3.47881 59.9277 5.26009C60.3588 8.6998 58.819 11.2796 56.4786 13.5522C54.9389 14.965 53.0912 15.8863 51.2435 16.8077C49.5805 17.6676 47.856 18.4047 46.3163 19.3875C44.5918 20.4931 43.1752 21.8444 42.7441 23.9328C42.3745 25.5912 42.6825 27.3111 42.9904 28.9081C43.7295 32.5321 45.2077 35.9104 46.6858 39.2886C47.4249 41.0085 48.2256 42.7283 48.8415 44.5711C49.8269 47.458 49.0262 49.7306 46.4395 51.3276C44.5918 52.4947 42.4977 52.9861 40.3421 53.3546C38.9871 53.6003 37.7553 53.6617 36.4619 53.7231ZM11.3332 18.8961C11.2716 19.2032 11.0868 19.4489 10.9637 19.6332C8.1921 23.5643 5.79009 27.741 4.00399 32.225C2.77219 35.3575 2.46424 38.5516 3.26491 41.807C4.31194 45.8609 6.9603 48.3179 10.7789 49.792C13.5504 50.8362 16.3836 51.389 19.3399 51.6962C23.4048 52.1875 27.4698 52.4947 31.5347 52.8632C31.9042 52.9246 32.3354 52.9861 32.7049 53.1089C32.8897 53.1703 33.136 53.2317 33.0744 53.4774C33.0744 53.7846 32.7665 53.6617 32.5817 53.7231C29.9334 53.9074 27.3466 54.0303 24.6982 54.0917C21.0028 54.1531 17.2458 54.1531 13.612 53.5389C7.69938 52.6175 3.08014 49.6692 0.862899 43.834C-0.3689 40.7014 -0.18413 37.4459 0.801309 34.2519C2.21788 29.5223 4.43512 25.1613 7.94574 21.5373C8.86959 20.6159 9.91662 19.8174 10.9021 19.0189C11.0868 18.9575 11.1484 18.8347 11.3332 18.8961ZM21.4955 40.5785C25.6836 39.9029 29.8718 39.5343 34.1215 40.0257C36.1539 40.2714 36.5235 40.7014 36.5851 42.7283C36.6467 45.9224 36.2155 49.055 35.2917 52.1261C35.1685 52.6175 34.9221 53.1703 34.6142 53.6003C34.491 53.7846 34.3678 53.9688 34.1215 53.9074C33.8751 53.7846 33.8751 53.5389 33.8751 53.3546C33.8135 52.0033 34.0599 50.652 34.1831 49.3007C34.3678 47.3351 34.6758 45.431 34.491 43.4654C34.4294 42.8512 34.1215 42.4827 33.5672 42.1755C31.9042 41.377 30.1797 41.1313 28.3936 40.9471C26.238 40.7628 24.0207 40.7628 21.8651 40.64C21.7419 40.5785 21.6187 40.5785 21.4955 40.5785Z" fill="white"/>
</svg>
