<svg width="60" height="21" viewBox="0 0 60 21" fill="none" xmlns="http://www.w3.org/2000/svg">
<path d="M13.6864 20.8898C12.8814 20.8898 12.2034 20.2119 12.2034 19.4068V11.3559L8.77119 15.9322C8.47458 16.3136 8.05085 16.5254 7.58475 16.5254C7.11865 16.5254 6.69492 16.3136 6.39831 15.9322L2.9661 11.3983V19.4492C2.9661 20.2543 2.28814 20.9322 1.48305 20.9322C0.677967 20.9322 0 20.2542 0 19.4068V6.94916C0 6.31356 0.423729 5.76272 1.01695 5.55085C1.61017 5.33899 2.28814 5.55085 2.66949 6.05933L7.58475 12.5848L12.5 6.05933C12.8814 5.55085 13.5593 5.33899 14.1526 5.55085C14.7458 5.76272 15.1695 6.31356 15.1695 6.94916V19.4068C15.1695 20.2542 14.5339 20.8898 13.6864 20.8898Z" fill="white"/>
<path d="M7.7542 3.72882C8.78389 3.72882 9.61861 2.89409 9.61861 1.86441C9.61861 0.834724 8.78389 0 7.7542 0C6.72452 0 5.88979 0.834724 5.88979 1.86441C5.88979 2.89409 6.72452 3.72882 7.7542 3.72882Z" fill="white"/>
<path d="M27.0763 3.72882C28.106 3.72882 28.9407 2.89409 28.9407 1.86441C28.9407 0.834724 28.106 0 27.0763 0C26.0466 0 25.2119 0.834724 25.2119 1.86441C25.2119 2.89409 26.0466 3.72882 27.0763 3.72882Z" fill="white"/>
<path d="M38.2627 3.72882C39.2924 3.72882 40.1271 2.89409 40.1271 1.86441C40.1271 0.834724 39.2924 0 38.2627 0C37.233 0 36.3983 0.834724 36.3983 1.86441C36.3983 2.89409 37.233 3.72882 38.2627 3.72882Z" fill="white"/>
<path d="M49.1949 3.72882C50.2246 3.72882 51.0593 2.89409 51.0593 1.86441C51.0593 0.834724 50.2246 0 49.1949 0C48.1652 0 47.3305 0.834724 47.3305 1.86441C47.3305 2.89409 48.1652 3.72882 49.1949 3.72882Z" fill="white"/>
<path d="M22.5001 20.9746C22.3729 20.9746 22.2882 20.9746 22.2458 20.9746C18.6441 20.9746 16.7797 18.0085 16.7797 15.0848C16.7797 13.5593 17.2458 12.161 18.0933 11.0593C19.1102 9.78814 20.5509 9.11018 22.2034 9.11018C26.4407 9.11018 27.7967 12.839 27.8814 14.7881C27.8814 15.1271 27.7543 15.4661 27.5424 15.7203C27.3306 15.9746 26.9492 16.1017 26.6102 16.1017H19.4492C19.7458 17.3305 20.5933 18.3898 22.2882 18.3898C22.3306 18.3898 22.3306 18.3898 22.3729 18.3898C22.8814 18.4322 24.4492 18.3051 25.2967 17.4576C25.8051 16.9915 26.6102 16.9915 27.0763 17.5C27.5424 18.0085 27.5424 18.8136 27.034 19.2797C25.5085 20.8475 23.3475 20.9746 22.5001 20.9746ZM19.5763 13.6017H25.0424C24.6611 12.7119 23.8984 11.6525 22.2034 11.6525C21.3136 11.6525 20.5933 11.9915 20.0848 12.6271C19.8729 12.9237 19.7034 13.2203 19.5763 13.6017Z" fill="white"/>
<path d="M54.6186 20.9746C54.4915 20.9746 54.4068 20.9746 54.3644 20.9746C50.7627 20.9746 48.8983 18.0085 48.8983 15.0848C48.8983 12.1187 50.7627 9.11018 54.322 9.11018C58.5593 9.11018 59.9153 12.839 60 14.7881C60 15.1271 59.8729 15.4661 59.661 15.7203C59.4492 15.9746 59.0678 16.1017 58.7288 16.1017H51.5678C51.8644 17.3305 52.7119 18.3898 54.4068 18.3898C54.4491 18.3898 54.4492 18.3898 54.4915 18.3898C55 18.4322 56.5678 18.3051 57.4152 17.4576C57.9237 16.9915 58.7288 16.9915 59.1949 17.5C59.661 18.0085 59.661 18.8136 59.1525 19.2797C57.6271 20.8475 55.4237 20.9746 54.6186 20.9746ZM51.6949 13.6017H57.161C56.7797 12.7119 56.0169 11.6525 54.322 11.6525C53.4322 11.6525 52.7119 11.9915 52.2034 12.6271C51.9915 12.9237 51.822 13.2203 51.6949 13.6017Z" fill="white"/>
<path d="M43.0085 20.678C42.9661 20.678 42.9661 20.678 43.0085 20.678C42.4576 20.678 41.9915 20.339 41.822 19.8729L38.2627 10.5085L34.6186 19.8729C34.4491 20.3814 33.9407 20.678 33.4322 20.678C32.9237 20.678 32.4576 20.339 32.2458 19.8729L27.3305 7.41527C27.0763 6.77968 27.4152 6.01696 28.0508 5.76273C28.6864 5.50849 29.4491 5.84747 29.7034 6.48307L33.3898 15.8898L37.0339 6.48307C37.2034 5.97459 37.7119 5.67798 38.2203 5.67798C38.7288 5.67798 39.2373 6.01696 39.4068 6.48307L42.9661 15.8898L46.6525 6.48307C46.9068 5.84747 47.6271 5.50849 48.3051 5.76273C48.9407 6.01696 49.2797 6.7373 49.0254 7.41527L44.1525 19.8729C43.983 20.3814 43.5169 20.678 43.0085 20.678Z" fill="white"/>
</svg>
