<svg width="60" height="35" viewBox="0 0 60 35" fill="none" xmlns="http://www.w3.org/2000/svg">
<path d="M48.3189 12.2499C48.1791 12.3367 48.0579 12.4502 47.9622 12.5839C47.8664 12.7176 47.798 12.8689 47.7608 13.0291C47.7237 13.1893 47.7185 13.3552 47.7456 13.5174C47.7728 13.6796 47.8317 13.8348 47.9189 13.9742C49.2715 16.1358 49.9887 18.6342 49.9887 21.1839C49.9887 23.7336 49.2715 26.2319 47.9189 28.3935C47.8319 28.5329 47.7733 28.6882 47.7463 28.8503C47.7193 29.0125 47.7245 29.1783 47.7617 29.3384C47.7988 29.4986 47.8671 29.6498 47.9627 29.7835C48.0583 29.9172 48.1794 30.0308 48.3189 30.1178C48.4584 30.2048 48.6137 30.2634 48.7758 30.2904C48.938 30.3173 49.1039 30.3121 49.2641 30.275C49.4243 30.2379 49.5755 30.1696 49.7093 30.074C49.843 29.9784 49.9567 29.8574 50.0436 29.7179C51.6395 27.1619 52.4856 24.2094 52.4856 21.1963C52.4856 18.1833 51.6395 15.2307 50.0436 12.6747C49.9589 12.533 49.8469 12.4095 49.7141 12.3113C49.5812 12.2131 49.4303 12.1422 49.2699 12.1027C49.1095 12.0632 48.9429 12.0559 48.7796 12.0811C48.6164 12.1064 48.4598 12.1638 48.3189 12.2499Z" fill="white"/>
<path d="M56.0429 7.97662C55.9607 7.82341 55.8474 7.68904 55.7103 7.5821C55.5732 7.47515 55.4152 7.398 55.2466 7.35555C55.078 7.31311 54.9023 7.30632 54.7309 7.33561C54.5595 7.36491 54.3961 7.42964 54.2511 7.52568C54.1061 7.62171 53.9828 7.74693 53.889 7.89333C53.7952 8.03974 53.733 8.20409 53.7064 8.3759C53.6798 8.54771 53.6893 8.72318 53.7344 8.89109C53.7794 9.05901 53.8591 9.21567 53.9681 9.35107C56.2806 12.8552 57.5133 16.9608 57.5133 21.1589C57.5133 25.3569 56.2806 29.4625 53.9681 32.9666C53.8591 33.102 53.7794 33.2587 53.7344 33.4266C53.6893 33.5945 53.6798 33.77 53.7064 33.9418C53.733 34.1136 53.7952 34.278 53.889 34.4244C53.9828 34.5708 54.1061 34.696 54.2511 34.792C54.3961 34.8881 54.5595 34.9528 54.7309 34.9821C54.9023 35.0114 55.078 35.0046 55.2466 34.9622C55.4152 34.9197 55.5732 34.8426 55.7103 34.7356C55.8474 34.6287 55.9607 34.4943 56.0429 34.3411C58.6241 30.429 60.0001 25.8454 60.0001 21.1589C60.0001 16.4723 58.6241 11.8888 56.0429 7.97662Z" fill="white"/>
<path d="M40.6698 14.3741C40.4599 14.4588 40.277 14.5988 40.1406 14.7792C40.0041 14.9597 39.9192 15.1738 39.8949 15.3987C39.7443 16.881 39.3911 18.3356 38.845 19.722C38.7174 20.0261 38.4768 20.269 38.1738 20.3994C37.8708 20.5299 37.529 20.5379 37.2202 20.4217C37.0675 20.3611 36.9282 20.271 36.8103 20.1565C36.6925 20.0421 36.5984 19.9055 36.5333 19.7546C36.4683 19.6037 36.4337 19.4415 36.4315 19.2773C36.4293 19.113 36.4594 18.9499 36.5203 18.7973C37.8687 15.4133 37.8209 11.6329 36.3873 8.28398C34.9537 4.93508 32.2511 2.29056 28.8713 0.929464H28.7213C25.8452 -0.191017 22.6736 -0.301774 19.7263 0.615338C16.7789 1.53245 14.2305 3.42306 12.4984 5.97745C12.3832 6.14365 12.31 6.33532 12.2852 6.53602C12.2604 6.73671 12.2847 6.94043 12.356 7.12967C12.4272 7.31891 12.5434 7.48803 12.6945 7.6225C12.8456 7.75697 13.027 7.85277 13.2233 7.90168C15.3479 8.43866 17.2899 9.53451 18.8476 11.0754C18.9647 11.1916 19.0577 11.3298 19.1212 11.482C19.1846 11.6343 19.2173 11.7976 19.2173 11.9626C19.2173 12.1275 19.1846 12.2908 19.1212 12.4431C19.0577 12.5954 18.9647 12.7336 18.8476 12.8497C18.6097 13.0802 18.2915 13.2092 17.9602 13.2092C17.6289 13.2092 17.3107 13.0802 17.0728 12.8497C15.6075 11.4017 13.7304 10.4417 11.6985 10.1008C11.1383 9.99183 10.5694 9.93328 9.99872 9.92587C7.34689 9.92587 4.80368 10.979 2.92856 12.8536C1.05343 14.7283 0 17.2708 0 19.9219C0 22.573 1.05343 25.1155 2.92856 26.9901C4.80368 28.8647 7.34689 29.9179 9.99872 29.9179H36.2454C38.0298 29.9225 39.7728 29.3799 41.2392 28.3632C42.7056 27.3466 43.8248 25.9049 44.446 24.2325C45.0672 22.56 45.1605 20.7374 44.7132 19.0103C44.2659 17.2833 43.2996 15.7349 41.9446 14.574C41.7704 14.4279 41.5597 14.3321 41.335 14.2969C41.1104 14.2616 40.8804 14.2883 40.6698 14.3741Z" fill="white"/>
</svg>
