<svg width="59" height="31" viewBox="0 0 59 31" fill="none" xmlns="http://www.w3.org/2000/svg">
<path d="M4.20166 13.5446C4.66547 13.7054 5.29298 13.5982 5.83864 13.5982C5.29298 13.5714 4.66547 13.7054 4.20166 13.5446Z" fill="white"/>
<path d="M0.0545667 9.03999C0.0545667 10.7292 0.0272846 12.4184 1.66522e-06 14.1345C1.66522e-06 17.647 0.0272821 21.1863 0.0272821 24.6988C0.0272821 25.2351 -0.163699 25.8786 0.763921 25.9054C1.09132 25.9322 1.09132 26.2808 1.09132 26.5221C1.09132 26.9511 1.06404 27.3801 1.09132 27.836C1.25502 30.1955 3.98331 31.6702 6.00225 30.3832C6.90259 29.7933 7.17541 28.6403 7.2027 27.5946C7.22998 26.4149 7.66651 25.959 8.89424 26.0931C9.95827 26.2004 11.0223 26.2004 12.0863 26.1199C13.2049 26.0395 13.7506 26.3344 13.5596 27.541C13.4778 28.1041 13.5323 28.6672 13.9143 29.1498C14.6782 30.1687 15.715 30.7318 16.9973 30.5441C18.1432 30.3832 18.5797 29.4447 18.9889 28.4795C19.3163 27.7019 18.8252 26.5221 19.8347 26.1735C20.5713 25.9054 21.499 26.0931 22.3447 26.0931C23.9817 26.0931 25.6187 26.0127 27.2557 26.1467C28.5925 26.254 28.8654 25.7445 28.8381 24.5379C28.8108 23.5995 28.8108 22.661 28.8108 21.6958C28.8108 21.0791 28.8108 20.4355 28.8381 19.8188C28.8654 18.8804 28.9199 17.9419 29.0018 16.9767C28.7835 16.5208 28.7835 16.065 28.8381 15.636C28.8381 15.5824 28.8654 15.5019 28.8654 15.4483C28.8654 15.3679 28.8926 15.3142 28.8926 15.2338C28.9472 14.8852 29.029 14.5367 29.0018 14.1881C28.9745 11.9358 29.0018 9.65669 29.0291 7.40439C29.0563 5.82242 29.7657 5.12528 31.3208 5.31297C35.4951 5.7688 39.6421 6.22462 43.7891 6.76088C45.8899 7.02901 45.9718 7.02901 45.9718 4.9644C45.9718 2.47079 45.2078 1.69321 42.425 1.37145C38.4417 0.942442 34.4584 0.51343 30.475 0.0576077C28.3197 -0.18371 26.2735 0.379366 24.2 0.888815C16.8881 2.68529 9.54903 4.48176 2.2372 6.27824C0.218264 6.76088 0.0545667 7.00219 0.0545667 9.03999ZM19.9438 11.0242C22.2356 11.5604 22.2356 9.92482 22.6448 8.63779C23.1632 9.95163 23.5452 11.2655 25.5641 10.8365C23.4633 11.6677 24.3909 13.0083 24.7729 14.3222C23.1632 13.3837 23.1632 13.3837 20.9806 14.6171C21.6081 13.1424 21.7172 11.8554 19.9438 11.0242ZM13.2322 12.1503C15.4421 12.6598 15.715 11.2119 16.1515 9.81757C16.397 11.5336 17.2974 12.1771 19.0708 11.8554C17.4611 12.6329 17.2428 13.7323 18.034 15.2874C16.6699 13.8932 15.6877 14.4562 14.7328 15.4215H14.7055C14.6782 15.4215 14.6509 15.4215 14.6237 15.4215C14.6237 15.4215 14.6237 15.4215 14.6237 15.4483C14.5964 15.4751 14.5691 15.4751 14.5418 15.5019C14.5691 15.4751 14.5964 15.4483 14.6237 15.4483H14.6509C14.8965 14.1345 15.0602 12.8743 13.2322 12.1503ZM6.54791 13.3569C8.26673 13.5982 9.03065 12.7402 9.46718 11.2923C9.6036 13.1156 10.804 13.196 12.2228 13.0351C10.7495 13.8663 10.3402 14.8852 11.1587 16.494C9.84914 14.9389 8.83967 15.6896 7.8302 16.4672H7.80292C7.77564 16.4672 7.74835 16.4672 7.72107 16.4672C7.72107 16.4672 7.72107 16.4672 7.72107 16.494C7.69379 16.5208 7.66651 16.5208 7.63923 16.5477C7.66651 16.5208 7.69379 16.5208 7.72107 16.494H7.74836C8.18488 15.207 8.13032 14.0808 6.54791 13.3569ZM2.59188 26.0663C2.59188 25.6373 2.64645 24.967 3.24667 24.9938C3.87418 25.0206 3.92874 25.6373 3.98331 26.1735C3.92874 26.683 3.84689 27.3265 3.21939 27.2997C2.56459 27.2461 2.5646 26.5489 2.59188 26.0663ZM1.36415 23.385C1.41871 22.527 1.63698 21.669 2.5646 21.3472C3.11026 21.1595 3.62863 21.5081 3.90146 22.1784C2.75558 22.098 2.10079 22.7147 1.36415 23.385ZM0.627506 14.2417C2.70101 14.6975 2.97384 13.3837 3.49221 12.0431C3.49221 12.4989 3.57407 12.8206 3.6832 13.0351C3.71048 13.0888 3.76505 13.1692 3.79233 13.2228C3.90146 13.3837 4.06516 13.491 4.22886 13.5446C4.69267 13.7055 5.32018 13.5982 5.86583 13.5982C5.86583 13.5982 5.86583 13.5982 5.86583 13.5714C5.89312 13.5446 5.9204 13.5446 5.94768 13.5178C5.9204 13.5446 5.89312 13.5714 5.86583 13.5982H5.83855C5.02006 14.5099 4.03788 15.4215 5.10191 17.0035C3.73776 15.7701 2.72829 16.2259 1.66426 17.3252C2.12807 16.065 2.48275 14.9657 0.627506 14.2417Z" fill="white"/>
<path d="M28.9472 16.9766C28.7289 16.5208 28.7289 16.065 28.7835 15.636C28.7289 16.0918 28.7289 16.5476 28.9472 16.9766Z" fill="white"/>
<path d="M28.9471 16.9767C28.8653 17.9151 28.8107 18.8536 28.7834 19.8189C28.7834 18.8804 28.838 17.942 28.9471 16.9767Z" fill="white"/>
<path d="M30.0112 17.5128C30.0112 20.0869 30.0385 22.6341 30.0112 25.2082C29.9839 26.0662 30.284 26.4148 31.1298 26.3075C31.1844 26.3075 31.2117 26.3075 31.2662 26.3075C34.1855 26.388 34.1855 26.3612 34.5675 23.5726C34.7039 22.5269 35.004 21.508 35.7406 20.7036C36.7774 19.5506 37.8687 19.6847 38.8236 21.1862C36.4227 20.7036 35.7133 22.232 35.2223 23.9212C34.5947 26.2003 34.622 28.4526 36.3409 30.3027C37.7868 31.831 41.1427 30.6781 42.0157 28.4794C42.2885 27.7823 41.9066 26.7366 42.8342 26.4416C43.5163 26.2271 44.3348 26.388 45.0714 26.388C45.6443 26.388 46.2173 26.388 46.7902 26.388C47.7997 26.388 48.9456 26.1467 49.8186 26.4952C50.719 26.8706 50.3916 28.1845 50.8008 29.0157C51.5375 30.6781 52.5742 31.1875 55.1115 30.7853C56.6666 30.5172 56.8031 29.0425 57.0759 27.8627C57.2669 27.0583 57.2123 26.3344 58.3855 26.3612C58.9584 26.388 59.0403 25.8249 58.9857 25.3959C58.6037 22.7414 58.0308 20.1137 57.3214 17.5128C57.1305 16.7889 56.4211 16.3599 55.6572 16.1186C54.2658 15.7164 52.8743 15.2606 51.4556 14.9388C50.8008 14.7779 50.528 14.483 50.3916 13.8395C50.0096 12.1771 49.5458 10.5683 49.1366 8.90585C48.4545 8.02102 47.5814 7.64564 46.6811 7.51157C46.5447 7.48476 46.4083 7.48476 46.2718 7.45795C46.0263 7.43114 45.7808 7.43113 45.5352 7.43113C44.935 7.40432 44.3348 7.43114 43.7618 7.40432C40.4333 7.18982 37.0775 6.89487 33.7217 7.02894C33.5034 7.02894 33.2852 7.02894 33.0669 7.05575C30.9115 7.27026 30.5023 7.72608 30.2568 9.8175C29.9021 12.3916 30.1749 14.9656 30.0112 17.5128ZM53.9656 22.0175C54.1566 21.1862 54.6477 20.5159 55.6026 20.5427C56.4757 20.5695 57.0759 21.1862 57.0759 22.0979C57.0759 23.0363 56.503 23.7067 55.5208 23.7067C54.5659 23.7067 54.102 23.0095 53.9656 22.0175ZM37.7596 25.7445C37.7596 26.2807 37.8687 27.0583 37.1321 27.0851C36.3409 27.1119 36.4773 26.3612 36.4227 25.7713C36.5046 25.2618 36.3681 24.4306 37.1593 24.4038C37.8687 24.4038 37.7596 25.2082 37.7596 25.7445ZM45.8626 20.3819C46.8994 20.4355 47.4177 21.079 47.4177 21.9906C47.4177 22.9291 46.8994 23.5458 45.6989 23.5458C44.8259 23.5458 44.3075 22.9291 44.1983 22.0175C44.0619 21.1862 44.935 20.355 45.8626 20.3819ZM37.896 8.63772C40.2696 8.74498 42.6432 8.85223 45.0441 8.90585C48.1817 8.98629 48.2089 8.95948 48.6455 12.0162C49.0001 14.4025 49.0001 14.4025 46.0263 14.3489C44.1438 14.1076 41.661 14.054 39.2056 14.0808C37.896 14.0808 37.323 13.4909 37.2412 12.2575C37.1866 11.4531 37.1048 10.5951 36.8865 9.8175C36.5864 8.82542 36.9956 8.5841 37.896 8.63772ZM31.4026 12.9814C31.4299 12.5792 31.4026 12.2039 31.4026 11.8017C31.4026 11.5335 31.4026 11.2922 31.4026 11.0241C31.4299 9.2008 32.0301 8.71816 34.4583 8.63772C36.1226 8.5841 35.7679 9.89794 35.8498 10.7828C36.068 13.8663 36.0407 13.8395 32.7395 14.188C31.6755 14.2953 31.3481 13.9199 31.4026 12.9814Z" fill="white"/>
<path d="M46.6812 7.53845C47.6088 7.67252 48.4545 8.02109 49.1366 8.93273C48.4545 8.0479 47.5815 7.69933 46.6812 7.53845Z" fill="white"/>
</svg>
