<svg width="60" height="61" viewBox="0 0 60 61" fill="none" xmlns="http://www.w3.org/2000/svg">
<path d="M51.9538 61C37.3727 61 22.7587 61 8.1775 61C8.04614 60.9334 7.91478 60.8669 7.75057 60.8336C3.48132 60.3677 -0.0326111 56.4741 0.000229339 51.7818C0.0659102 37.605 0.000228837 23.4283 0.0330693 9.2515C0.0330693 4.12657 3.67836 0.299511 8.73579 0.133117C10.5092 0.0665596 12.2826 0.0332828 14.0559 4.06235e-06C14.6142 4.06235e-06 15.2054 0.0998363 15.7965 0.0998363C26.0427 0.0998363 36.2561 0.0998363 46.5023 0.0998363C48.1443 0.0998363 49.7863 0.0998384 51.3955 0.133117C56.1902 0.166396 60.0326 4.45936 59.9997 9.15167C59.934 23.3617 59.934 37.605 59.9997 51.8151C60.0326 55.9416 57.1754 59.7021 53.3988 60.6339C52.9062 60.7671 52.4464 60.8669 51.9538 61ZM58.292 30.5499C58.292 23.4948 58.292 16.4397 58.292 9.35133C58.292 8.95199 58.292 8.51937 58.1935 8.12002C57.471 4.32624 54.5482 1.89689 50.7059 1.89689C36.9129 1.89689 23.1199 1.89689 9.32691 1.89689C4.86061 1.89689 1.67509 5.15821 1.67509 9.68412C1.67509 23.5946 1.67509 37.4719 1.67509 51.3824C1.67509 55.8418 4.92629 59.1364 9.29407 59.1364C11.8556 59.1364 14.4172 59.1364 16.9787 59.1364C28.2102 59.1364 39.4744 59.1364 50.7059 59.1364C54.9751 59.1364 58.2592 55.8418 58.2592 51.5488C58.292 44.5603 58.292 37.5717 58.292 30.5499Z" fill="white"/>
<path d="M56.7484 30.5832C56.7484 37.5385 56.7484 44.4937 56.7484 51.449C56.7484 55.0098 54.2854 57.539 50.8043 57.539C36.9785 57.539 23.1198 57.539 9.29398 57.539C5.81289 57.539 3.28418 55.0098 3.28418 51.449C3.28418 37.4386 3.28418 23.4616 3.28418 9.4512C3.28418 5.9902 5.84573 3.42773 9.26114 3.42773C23.087 3.42773 36.9456 3.42773 50.7715 3.42773C54.2525 3.42773 56.7484 5.9902 56.7484 9.51775C56.7484 16.5728 56.7484 23.5947 56.7484 30.5832ZM55.3363 30.5499C55.0079 30.317 54.8437 30.1839 54.6466 30.0508C41.8389 21.7976 28.9982 13.5445 16.1905 5.32463C14.9754 4.52594 13.7274 4.69233 12.578 5.42446C11.3629 6.18987 10.9032 7.38791 11.133 8.78562C11.2972 9.71743 11.6585 10.5827 11.9869 11.4812C12.6437 13.3115 13.3662 15.1419 14.0887 17.072C13.6946 17.072 13.4319 17.072 13.1692 17.072C11.3958 17.1053 9.58954 17.1386 7.81616 17.1386C7.25787 17.1386 7.09367 17.3383 7.09367 17.904C7.09367 26.3568 7.09367 34.7763 7.09367 43.2292C7.09367 43.8615 7.25787 44.0944 7.91468 44.0611C9.68807 44.0278 11.4286 44.0278 13.202 44.0611C13.4647 44.0611 13.7274 44.0944 14.0887 44.0944C13.202 46.3574 12.381 48.4872 11.56 50.6503C11.3629 51.1828 11.1987 51.7152 11.133 52.281C10.9688 53.712 11.4286 54.9433 12.6437 55.7087C13.826 56.4408 15.0739 56.5739 16.3218 55.742C17.7997 54.7436 19.2775 53.8118 20.7881 52.88C31.3956 46.0578 42.0031 39.2357 52.6434 32.4136C53.4644 31.7813 54.3182 31.1822 55.3363 30.5499Z" fill="white"/>
</svg>
