<svg width="60" height="49" viewBox="0 0 60 49" fill="none" xmlns="http://www.w3.org/2000/svg">
<path d="M9.85251 49C9.85251 40.5477 9.85251 32.2135 9.85251 23.702C9.02655 24.234 8.31858 24.6478 7.61062 25.0615C6.90265 25.4753 6.19469 25.9481 5.48673 26.3619C5.07375 26.5983 4.83776 26.3028 4.60177 25.9481C4.18879 25.1797 3.71681 24.4113 3.30383 23.702C2.18289 21.9288 1.12094 20.1556 -9.00224e-07 18.4415C1.29793 17.614 2.53687 16.8456 3.83481 16.0772C5.42773 15.0724 7.07964 14.1858 8.73156 13.1809C9.38053 12.7672 9.91151 12.3534 9.85251 11.4077C9.79351 7.86128 9.85251 4.25573 9.79351 0.709285C9.79351 0.177318 9.9705 7.21525e-06 10.5015 7.21525e-06C13.1563 7.21525e-06 15.8112 7.21525e-06 18.4661 7.21525e-06C18.938 7.21525e-06 19.174 0.118207 19.115 0.650174C19.056 2.30518 19.115 4.01929 19.115 5.6743C19.115 5.91073 19.115 6.14716 19.115 6.56091C19.823 6.20627 20.472 5.91074 21.062 5.61521C22.5959 4.66949 24.1298 3.72376 25.6637 2.77804C26.9027 2.00965 28.1416 1.24125 29.3805 0.472859C29.8525 0.177322 30.2065 0.177322 30.6785 0.472859C32.0944 1.41858 33.5693 2.24608 35.0443 3.13269C36.4012 3.96019 37.6991 4.84681 39.056 5.61521C41.2389 6.91557 43.4218 8.15682 45.6047 9.45718C47.5516 10.6393 49.4395 11.8806 51.3274 13.0627C53.0974 14.1858 54.9263 15.1906 56.7552 16.3136C57.5221 16.7865 58.2891 17.3184 59.056 17.7913C59.351 17.9686 59.705 18.146 60 18.3233C59.646 18.9735 59.292 19.5645 58.9381 20.2147C58.0531 21.6924 57.1091 23.1701 56.1652 24.6478C55.9292 25.0615 55.6932 25.4753 55.3982 25.889C55.3392 26.0072 55.0442 26.0664 54.9263 26.0072C53.8643 25.4162 52.8024 24.766 51.7404 24.1749C51.5634 24.0567 51.3274 23.9976 50.9735 23.8203C50.9735 24.234 50.9735 24.4704 50.9735 24.766C50.9735 32.5682 50.9735 40.3703 50.9735 48.1725C50.9735 49 50.9735 49 50.1475 49C37.0502 49 23.8938 49 10.7965 49C10.4425 49 10.1475 49 9.85251 49Z" fill="white"/>
</svg>
