<svg width="60" height="60" viewBox="0 0 60 60" fill="none" xmlns="http://www.w3.org/2000/svg">
<path d="M0 29.1736C0 15.1998 11.3497 2.09511 26.3187 0.224728C37.0469 -1.02379 45.1542 3.09632 50.7655 8.46015C56.0047 13.4518 59.1248 19.8145 59.8712 27.3032C60.4952 34.7895 58.8752 41.277 54.5095 47.3924C50.1438 53.3828 41.5373 59.9952 30.8092 59.9952H16.2146V31.1712C16.3394 24.8062 18.4586 19.3175 26.1939 16.6956C32.9308 14.7004 40.7885 18.4411 43.1574 25.5553C45.651 33.1664 42.0341 38.283 37.7933 41.4043C33.5524 44.5256 26.9428 44.5256 22.5771 41.5291V51.3876C25.4475 52.761 29.0644 53.1331 31.6828 53.0107C41.1605 51.6373 48.5214 46.2711 51.6415 38.1605C54.8863 29.5505 52.6375 19.5672 45.903 13.3294C37.7957 6.71463 28.9396 5.09395 19.4595 9.71108C12.8498 13.0821 8.23451 19.9441 7.11129 27.4304V60H0.124802L0 29.1736Z" fill="white"/>
</svg>
