<svg width="43" height="52" viewBox="0 0 43 52" fill="none" xmlns="http://www.w3.org/2000/svg">
<path d="M16.0768 13.8075C16.2182 13.0409 16.3313 12.2742 17.1514 11.9335C17.4625 11.7915 17.8018 11.7632 18.1129 11.7632C20.4601 11.7632 22.8072 11.7632 25.1261 11.7632C27.4167 11.7632 29.7073 11.7064 31.9696 11.7632C34.0057 11.8199 36.0135 12.1891 37.9365 13.0693C38.2759 13.2396 38.6152 13.41 38.9263 13.5804C39.0959 12.5582 39.1808 11.4792 39.1808 10.4003C39.1525 6.22636 37.2578 3.245 33.3836 1.56976C31.0647 0.575975 28.6044 0.150073 26.0876 0.093285C23.288 0.0364973 20.4884 0.0648894 17.717 0.0648894C17.717 0.0648894 17.717 0.0648963 17.717 0.0365025C14.8608 0.0365025 11.9764 0.0365025 9.12019 0.0365025C8.72428 0.0365025 8.32837 0.093285 7.93247 0.235254C6.9427 0.604374 6.80131 1.51299 6.63163 2.3648C5.92466 6.39673 5.27424 10.4286 4.6521 14.4606C4.14308 17.9246 3.5775 21.3887 3.0402 24.8527C2.58773 27.8341 2.13527 30.8154 1.6828 33.7968C1.20206 36.9769 0.721317 40.1854 0.268852 43.3655C0.127457 44.4161 0.579924 45.0123 1.65453 45.0123C4.73694 45.0407 7.79107 45.0123 10.8735 45.0123C11.1563 45.0123 11.2694 44.8988 11.326 44.6432C11.4108 44.1321 11.4956 43.6494 11.5805 43.1384C12.2309 38.8793 12.8813 34.5918 13.5034 30.3327C13.5317 30.134 13.5883 29.9636 13.6448 29.7932C13.8993 27.976 14.1821 26.1588 14.4366 24.3416C14.9457 20.8492 15.483 17.3284 16.0768 13.8075Z" fill="white"/>
<path opacity="0.63" d="M38.926 13.6088C38.3604 17.1012 36.8616 20.2245 34.4579 23.0071C32.1956 25.6477 29.1698 27.0107 25.8046 27.6353C23.118 28.118 20.4315 28.1464 17.7168 28.0896C16.9249 28.0612 16.1614 28.118 15.4262 28.2884C14.6061 28.4587 13.9839 29.0266 13.7011 29.85C13.5315 31.0426 13.3618 32.2351 13.1638 33.4561C12.7962 36.0399 12.4286 38.6521 12.0609 41.236C11.665 44.0186 11.2691 46.8012 10.9015 49.5838C10.7884 50.5208 11.156 51.0035 12.0327 51.0035C14.5495 51.0035 19.0459 51.0035 21.5627 51.0035C21.7889 51.0035 21.902 50.9183 21.9303 50.6627C21.9869 50.2084 22.0717 49.7825 22.1283 49.3566C22.6656 45.637 23.1746 41.9174 23.7119 38.1978C23.8533 37.2324 24.4189 36.551 25.239 36.3522C25.8611 36.2103 26.4832 36.1535 27.1337 36.1819C29.3394 36.2387 29.5657 36.2103 31.7714 35.7843C34.5428 35.2449 37.003 34.0523 38.8695 31.7524C41.4146 28.6291 42.7437 24.9663 42.7154 20.7924C42.6588 17.5555 41.4146 15.142 38.926 13.6088Z" fill="white"/>
<path opacity="0.93" d="M15.3981 28.2601C16.1616 28.0897 16.9251 28.033 17.6887 28.0614C20.4035 28.1465 23.09 28.1181 25.7765 27.607C29.1417 26.9824 32.1675 25.6195 34.4299 22.9788C36.8336 20.2246 38.3324 17.0729 38.8979 13.5805C38.5869 13.3817 38.2758 13.2114 37.9082 13.0694C36.0135 12.1892 34.0057 11.8201 31.9413 11.7633C29.6507 11.7065 27.3601 11.7633 25.0978 11.7633C22.7506 11.7633 20.4035 11.7633 18.0846 11.7633C17.7452 11.7633 17.4342 11.8201 17.1231 11.9336C16.3313 12.2744 16.1899 13.041 16.0485 13.8076C15.4546 17.3285 14.9456 20.8209 14.4366 24.3702C14.1821 26.1874 13.8993 28.0045 13.6448 29.8218C13.9558 29.0267 14.578 28.4305 15.3981 28.2601Z" fill="white"/>
</svg>
