<svg width="41" height="52" viewBox="0 0 41 52" fill="none" xmlns="http://www.w3.org/2000/svg">
<path d="M20.3029 0.886668C24.5533 0.922778 28.386 2.21371 31.7465 4.8046C36.4783 8.4517 39.1303 13.2724 39.8841 19.1673C40.3019 22.4172 39.7025 25.5136 38.549 28.5559C37.0505 32.5009 34.9979 36.139 32.5275 39.5514C30.0299 43.0089 27.3143 46.2859 23.9993 49.0303C23.2273 49.6622 22.419 50.249 21.5199 50.7003C20.7842 51.0705 20.0577 51.1066 19.2948 50.7816C18.0687 50.267 17.006 49.4907 15.9888 48.6601C14.0452 47.0623 12.3378 45.2387 10.6757 43.361C9.03187 41.5013 7.5333 39.5333 6.19822 37.448C4.65424 35.0196 3.16476 32.5551 2.08398 29.8739C1.36649 28.1045 0.785225 26.281 0.385608 24.4123C0.1858 23.4554 0.0768127 22.4624 0.0949771 21.4964C0.131306 19.4472 0.376526 17.407 1.02136 15.448C2.42002 11.2141 4.79956 7.64825 8.38703 4.9039C11.148 2.79147 14.245 1.54567 17.6872 1.0943C18.55 0.958888 19.4219 0.877641 20.3029 0.886668ZM10.1036 14.3647C7.58779 18.084 6.85214 24.5658 11.6112 29.2059C15.8344 33.3224 22.8913 34.2432 27.9683 29.8107C32.355 25.9741 33.4902 19.8444 30.1298 14.3828C26.9329 9.19195 21.2838 8.03644 17.2513 9.29126C19.5763 10.8079 19.9487 13.2272 19.3311 14.9695C18.6499 16.9195 16.8062 18.2104 14.7627 18.1924C13.0462 18.1743 10.8483 17.1723 10.1036 14.3647Z" fill="#F8FCFE"/>
<path d="M10.1036 14.3646C10.8483 17.1722 13.0462 18.1652 14.7627 18.1923C16.8062 18.2194 18.6499 16.9194 19.3311 14.9695C19.9396 13.2271 19.5672 10.7988 17.2513 9.29117C21.2838 8.03635 26.9329 9.19186 30.1298 14.3827C33.4903 19.8443 32.355 25.983 27.9683 29.8106C22.9004 34.2431 15.8435 33.3314 11.6112 29.2058C6.85215 24.5657 7.58781 18.093 10.1036 14.3646Z" fill="#E9503D"/>
</svg>
