<svg width="51" height="51" viewBox="0 0 51 51" fill="none" xmlns="http://www.w3.org/2000/svg">
<path d="M10.9205 0C11.6002 0.725656 12.4385 1.33793 12.9143 2.17697C14.6815 5.37439 16.3354 8.61716 18.0347 11.8599C18.9862 13.6741 18.8276 14.8533 17.355 16.3273C16.6753 17.0302 15.8823 17.6652 15.3159 18.4362C15.0213 18.8444 14.7721 19.6381 14.976 20.0009C16.0635 22.0872 17.0831 24.2641 18.5331 26.1009C21.1386 29.3891 24.1293 32.337 27.7317 34.5594C28.7739 35.1943 29.9294 35.7159 31.0849 36.1014C31.4927 36.2374 32.2177 36.0107 32.5802 35.7159C33.5318 34.9222 34.3474 33.9698 35.231 33.0854C36.4998 31.8382 37.9271 31.5887 39.4451 32.4731C42.8436 34.446 46.1968 36.4189 49.55 38.4598C50.139 38.8226 50.5242 39.5482 51 40.1152C51 40.5007 51 40.8635 51 41.249C50.4789 41.8839 50.0031 42.5416 49.4367 43.1312C47.7148 44.8773 45.9476 46.5554 44.2483 48.3241C43.1155 49.5033 41.9374 50.5238 40.3287 51C39.6491 51 38.9694 51 38.2897 51C38.0857 50.932 37.8592 50.8186 37.6553 50.8186C34.6419 50.6372 31.8552 49.6394 29.1364 48.3922C21.9769 45.104 16.1768 40.0471 10.9658 34.2646C6.41182 29.2077 2.67348 23.6518 0.815639 16.9849C0.47579 15.8057 0.271879 14.5811 0 13.3793C0 12.4722 0 11.5651 0 10.6581C0.453132 9.04802 1.49534 7.84616 2.67348 6.735C4.03288 5.44242 5.3243 4.05914 6.6837 2.76657C7.68059 1.81414 8.72279 0.929747 9.74234 0C10.1502 0 10.5353 0 10.9205 0Z" fill="white"/>
</svg>
