<svg width="55" height="60" viewBox="0 0 55 60" fill="none" xmlns="http://www.w3.org/2000/svg">
<path d="M1.10307 0.762092C10.9458 10.5834 20.7037 20.3199 30.405 30.0283C20.7037 39.7085 10.9458 49.4451 1.10307 59.2381C0.226274 58.335 -3.45261e-06 57.1215 -3.45261e-06 55.795C-3.45261e-06 41.4582 -3.45261e-06 27.0932 -3.45261e-06 12.7564C-3.45261e-06 9.82136 -3.45261e-06 6.88627 -3.45261e-06 3.95118C0.0282803 2.76585 0.339409 1.63697 1.10307 0.762092Z" fill="white"/>
<path d="M40.2195 39.8496C28.2837 46.5382 16.2631 53.255 4.21425 60.0001C4.18597 59.9154 4.15768 59.859 4.12939 59.7743C13.5196 50.4328 22.8815 41.0631 32.2152 31.7781C34.789 34.3745 37.4759 37.0838 40.2195 39.8496Z" fill="white"/>
<path d="M4.2426 3.44507e-06C16.2915 6.74507 28.3121 13.4901 40.3044 20.1787C37.5609 22.9163 34.8739 25.5974 32.2435 28.222C22.9382 18.937 13.548 9.59548 4.18604 0.253991C4.21432 0.141103 4.2426 0.0564475 4.2426 3.44507e-06Z" fill="white"/>
<path d="M42.4256 38.6078C39.5124 35.6727 36.684 32.8505 33.9971 30.1694C36.8254 27.3472 39.6821 24.4968 42.7085 21.5053C46.0459 23.3679 49.7228 25.3152 53.2866 27.4883C55.6624 28.9276 55.5493 31.1854 53.0603 32.653C49.5531 34.6849 45.9611 36.6322 42.4256 38.6078Z" fill="white"/>
</svg>
