<svg width="60" height="60" viewBox="0 0 60 60" fill="none" xmlns="http://www.w3.org/2000/svg">
<path d="M30 60C46.5685 60 60 46.5685 60 30C60 13.4314 46.5685 0 30 0C13.4315 0 0 13.4314 0 30C0 46.5685 13.4315 60 30 60Z" fill="white"/>
<path d="M29.6482 45.2003C21.5746 44.9302 15.1124 38.3002 15.1122 30.1608C15.112 21.9 21.9 15.112 30.1608 15.1122C38.3002 15.1124 44.9302 21.5746 45.2003 29.6483C45.2099 29.9345 45.447 30.1605 45.7333 30.1605H50.111C50.412 30.1605 50.6525 29.9117 50.6446 29.6108C50.3533 18.5479 41.2939 9.66927 30.1607 9.66919C18.8243 9.66915 9.66914 18.8243 9.66919 30.1607C9.66929 41.2938 18.5479 50.3533 29.6108 50.6446C29.9117 50.6526 30.1605 50.412 30.1605 50.111V45.7334C30.1605 45.447 29.9345 45.2099 29.6482 45.2003ZM30.1607 18.314C23.5987 18.3139 18.3139 23.5986 18.314 30.1607C18.3141 36.5163 23.3191 41.7029 29.6027 41.9942C29.9066 42.0083 30.1605 41.7648 30.1605 41.4607V37.9867C30.1605 37.7136 29.9377 37.473 29.6653 37.4548C25.8587 37.2001 22.85 34.0319 22.8498 30.1609C22.8497 26.1179 26.1179 22.8497 30.1608 22.8498C34.0318 22.85 37.2001 25.8587 37.4547 29.6653C37.4729 29.9377 37.7136 30.1605 37.9867 30.1605H41.4606C41.7648 30.1605 42.0082 29.9066 41.9942 29.6027C41.7029 23.3191 36.5163 18.3141 30.1607 18.314Z" fill="white"/>
</svg>
