<svg width="54" height="60" viewBox="0 0 54 60" fill="none" xmlns="http://www.w3.org/2000/svg">
<path d="M36.6841 34.0928C36.6841 32.1549 36.6263 30.2749 36.742 28.4238C36.7709 28.1346 37.3783 27.7007 37.7833 27.6429C42.5556 26.8041 46.0264 23.2754 46.7206 18.4741C47.5594 12.6605 43.163 7.22284 37.118 6.61545C31.1887 6.00805 25.6354 10.6358 25.5486 16.5073C25.404 24.924 25.4907 33.3697 25.4618 41.7864C25.4618 42.3938 25.4618 43.0302 25.4618 43.7533C23.2347 43.7533 21.1522 43.7533 18.954 43.7533C18.9251 43.2905 18.8673 42.8566 18.8673 42.4517C18.8673 34.1217 18.8094 25.7917 18.8673 17.4618C18.8962 8.78471 24.5941 1.95876 33.0976 0.310124C43.4523 -1.71452 53.1706 6.44191 53.373 16.9701C53.5176 24.577 47.6462 33.0226 38.1014 34.0639C37.6965 34.1217 37.2626 34.0928 36.6841 34.0928Z" fill="white"/>
<path d="M16.5824 25.5314C16.5824 27.7875 16.5824 29.7832 16.5824 31.4029C14.4421 32.4152 12.3307 33.0805 10.6242 34.2952C6.63276 37.1587 5.44689 42.4228 7.44261 46.8481C9.46726 51.3023 14.3843 53.8765 19.0988 52.9798C24.0447 52.0254 27.7758 47.9471 27.8337 43.0591C27.9205 34.6134 27.8626 26.1967 27.8626 17.751C27.8626 15.7842 27.8626 15.7842 29.8005 15.7842C30.9574 15.7842 32.1144 15.842 33.2713 15.7842C34.2258 15.7263 34.515 16.1023 34.515 17.0279C34.4861 20.8747 34.4861 24.7505 34.4861 28.5973C34.4861 33.0226 34.4861 37.4768 34.4861 41.9021C34.4283 52.7774 25.9826 60.471 15.1941 59.4876C6.95091 58.7356 0.298501 51.2734 0.00926566 43.0302C-0.251046 35.6547 4.98412 27.3825 14.3843 25.705C15.0495 25.5603 15.7726 25.5893 16.5824 25.5314Z" fill="white"/>
</svg>
