<svg width="60" height="57" viewBox="0 0 60 57" fill="none" xmlns="http://www.w3.org/2000/svg">
<path fill-rule="evenodd" clip-rule="evenodd" d="M13.4483 0C11.1629 0 9.31034 1.85265 9.31034 4.13793V23.7931H7.24138C3.2421 23.7931 0 27.0352 0 31.0345V45.5172C0 46.0885 0.463194 46.5517 1.03448 46.5517H9.31034V52.7586C9.31034 55.0439 11.1629 56.8965 13.4483 56.8965H46.5517C48.8371 56.8965 50.6897 55.0439 50.6897 52.7586V46.5517H58.9655C59.5368 46.5517 60 46.0885 60 45.5172V31.0345C60 27.0352 56.7579 23.7931 52.7586 23.7931H50.6897V14.1724C50.6897 12.0473 49.8721 10.0037 48.4068 8.4649L43.7082 3.53154C41.5604 1.27631 38.5822 0 35.4679 0H13.4483ZM46.5517 42.4138H13.4483V51.7241H46.5517V42.4138ZM37.2414 5.17241H13.4483V27.931H46.5517V14.4828H41.3793C39.0939 14.4828 37.2414 12.6301 37.2414 10.3448V5.17241ZM55.8621 31.0345C55.8621 32.1772 54.9357 33.1034 53.7931 33.1034C52.6505 33.1034 51.7241 32.1772 51.7241 31.0345C51.7241 29.8918 52.6505 28.9655 53.7931 28.9655C54.9357 28.9655 55.8621 29.8918 55.8621 31.0345Z" fill="white"/>
</svg>
