<svg width="49" height="59" viewBox="0 0 49 59" fill="none" xmlns="http://www.w3.org/2000/svg">
<path d="M31.2514 11.9566C31.1925 12.5241 30.9271 12.8228 30.4554 12.5838C29.3351 12.0163 28.3916 12.1657 27.5072 13.0319C27.3303 13.1812 27.1534 13.2111 26.9765 13.0319C26.8291 12.8526 26.8586 12.6436 26.947 12.4644C27.4482 11.2995 30.2785 10.7618 31.0746 11.6878C31.163 11.7475 31.1925 11.8968 31.2514 11.9566Z" fill="white"/>
<path d="M19.2522 12.3748C19.2522 11.3592 19.9008 10.5826 20.6674 10.5826C21.4339 10.5826 22.053 11.3891 22.053 12.4046C22.053 13.3604 21.4339 14.2565 20.6968 14.2864C19.9598 14.2864 19.2522 13.3604 19.2522 12.3748Z" fill="white"/>
<path d="M47.7912 38.5399C47.0541 36.1205 46.3171 33.6713 45.3147 31.3714C44.4597 29.1611 43.5752 26.9806 42.7202 24.7703C43.015 19.603 42.3959 14.5851 40.1258 9.86581C37.4134 4.28035 33.1679 0.815562 26.9176 0.12858C26.9176 0.12858 23.1733 -0.319451 19.9007 0.457138C13.6799 1.95058 10.0241 6.31142 7.90133 12.1956C6.4272 16.2577 6.04393 20.4692 6.27979 24.7703C5.39531 26.9508 4.45186 29.1013 3.7148 31.3116C2.32912 34.3881 1.38568 37.6438 0.589652 40.9294C0.383274 41.8254 0.412757 42.7812 8.99736e-07 43.6474C8.99736e-07 45.0214 8.99736e-07 46.3954 8.99736e-07 47.7395C0.6781 48.6355 0.884476 48.6654 1.73947 47.7992C3.24308 46.3058 4.33394 44.5136 5.57221 42.6618C5.77858 43.7669 5.92599 44.7824 6.19133 45.7382C7.04633 49.0537 8.9627 51.7419 11.4097 54.0716C9.93562 54.6989 8.37304 55.1469 7.07581 56.1326C6.54512 56.5508 6.10289 57.0287 6.2503 57.7455C6.39771 58.4624 7.07581 58.4325 7.6065 58.5818C8.22563 58.761 8.93321 58.6117 9.49338 59C12.9428 59 16.3923 59 19.8123 59C20.8736 58.5818 22.0529 58.8805 23.1438 58.5818C22.3183 58.4624 21.4928 58.3429 20.6968 58.2234C21.5223 58.3429 22.3478 58.4624 23.1438 58.5818C24.0283 58.5818 24.9422 58.5818 25.8267 58.5818C26.8586 58.8805 27.9495 58.552 28.9519 59C32.4013 59 35.8508 59 39.2708 59C40.0373 58.6416 40.8923 58.7312 41.6883 58.5221C42.8676 58.1935 43.133 57.2975 42.2485 56.4313C41.8652 56.043 41.3935 55.7742 40.9218 55.5054C39.8604 54.8781 38.7106 54.5495 37.5902 54.0716C40.0078 51.7419 41.9242 49.0836 42.7792 45.7382C43.0445 44.7526 43.1625 43.737 43.3983 42.6618C44.4892 44.2149 45.4326 45.798 46.7004 47.172C46.9067 47.4109 47.1131 47.62 47.3195 47.8291C47.9386 48.516 48.4988 48.5459 49 47.6797C49 46.3655 49 45.0811 49 43.7669C48.4988 42.0943 48.3219 40.3021 47.7912 38.5399ZM27.1829 8.61132C28.5391 6.84906 30.485 6.93867 31.6643 8.85027C32.2834 9.83594 32.4898 10.9112 32.4603 12.0761C32.4603 13.4501 32.1065 14.7046 31.1925 15.75C29.9543 17.1538 28.2443 17.0343 27.1534 15.5409C25.7383 13.6592 25.7677 10.4333 27.1829 8.61132ZM17.8369 8.16329C18.8983 7.05814 20.225 7.02828 21.3454 8.07368C23.2912 9.86581 23.4091 13.928 21.6107 15.8396C20.5199 17.0045 18.9868 16.9746 17.8664 15.7798C16.864 14.7046 16.5102 13.3605 16.5397 11.9268C16.5397 10.5229 16.8345 9.2087 17.8369 8.16329ZM33.787 21.3952C27.3598 24.621 20.9621 24.4717 14.6233 21.0666C14.1516 20.8277 13.4146 20.6485 13.444 20.0809C13.4735 19.394 14.2401 19.2147 14.8002 19.0355C17.9844 17.9901 21.2569 17.7213 24.559 17.7213C27.5662 17.6914 30.5439 17.9304 33.4627 18.7667C34.2587 19.0057 35.438 19.1251 35.5265 19.9615C35.6444 20.8277 34.4651 21.0367 33.787 21.3952Z" fill="white"/>
</svg>
