<svg width="38" height="59" viewBox="0 0 38 59" fill="none" xmlns="http://www.w3.org/2000/svg">
<path d="M11.0275 18.6445C7.4852 18.6445 3.77222 18.6445 0.144592 18.6445C-0.879679 11.7159 3.64419 3.92654 10.3446 1.55962C17.9413 -1.10855 25.3673 -0.419987 32.1104 4.14171C38.9388 8.74645 40.0485 19.8064 34.2869 25.7022C32.5798 27.4666 30.574 29.0589 28.5681 30.4791C24.0442 33.7497 23.9162 33.7928 22.8919 39C19.307 39 15.722 39 11.9237 39C11.881 34.9547 11.7957 31.0385 15.2953 28.2413C17.4292 26.5629 19.5631 24.9276 21.7396 23.3353C24.9405 21.0114 26.2635 17.9129 25.3673 14.6853C24.5564 11.7589 23.1053 10.4248 19.9472 10.0805C17.1304 9.7793 14.4417 10.1666 12.948 13.0069C12.1371 14.6853 11.7103 16.6218 11.0275 18.6445Z" fill="white"/>
<path d="M11 52.0641C11 48.0642 13.9183 45.043 17.8517 45.0005C21.9966 44.9579 24.9995 47.8514 24.9995 51.979C25.0418 56.149 22.1658 59 17.9363 59C13.9183 59 11 56.1065 11 52.0641Z" fill="white"/>
</svg>
