<svg width="57" height="49" viewBox="0 0 57 49" fill="none" xmlns="http://www.w3.org/2000/svg">
<path d="M57 24.599C56.6762 27.0853 56.2553 29.5393 55.3973 31.8964C53.8594 36.1262 51.674 39.9202 48.2744 42.9715C45.927 45.0703 43.2397 46.6525 40.52 48.1862C39.9049 48.5252 39.1602 48.7835 38.4641 48.832C36.5862 48.9611 34.6921 49.0418 32.8143 48.9773C31.2278 48.9288 29.6089 48.832 28.1034 48.4283C19.7663 46.2327 14.246 41.018 11.5101 32.865C11.4291 32.639 11.332 32.413 11.2349 32.2031C10.8949 34.7055 11.2996 37.0788 12.1738 39.3228C13.0318 41.5346 14.1326 43.6496 15.0716 45.6838C15.1039 45.6999 14.9583 45.6353 14.8287 45.5385C14.6345 45.3932 14.4564 45.2317 14.2621 45.0864C10.3769 41.7929 8.75802 37.4501 8.45044 32.526C8.40188 31.6703 8.14286 31.2829 7.31724 30.9923C4.75944 30.1043 2.20165 29.1679 2.47018e-07 27.5212C2.47018e-07 27.4727 2.47018e-07 27.4082 2.47018e-07 27.3597C1.66742 28.0378 3.31866 28.7643 5.00227 29.3617C6.02215 29.733 7.10679 29.9267 8.19142 30.185C8.45044 28.7966 8.61233 27.5212 8.96848 26.2942C9.357 24.9542 9.93979 23.6949 10.4093 22.3711C11.0082 20.7405 11.4291 19.0292 12.1738 17.4793C13.0804 15.5742 14.2945 13.8145 15.2982 11.9579C15.7677 11.0699 16.0591 10.1012 16.4476 9.16484C16.8685 8.11545 17.3218 7.09834 17.7265 6.03281C18.4226 4.1439 20.0415 3.3851 21.7413 2.67474C26.1122 0.866554 30.6288 -0.279708 35.4206 0.0593275C41.4266 0.49523 46.6555 2.70703 50.8645 7.03377C54.2156 10.4726 56.0934 14.6701 56.7896 19.4005C56.8381 19.7718 56.8543 20.1431 57 20.5145V24.599ZM36.23 13.6853C35.971 13.6692 35.7606 13.653 35.5501 13.653C32.6362 13.5239 29.7384 13.5723 26.873 14.3149C23.6515 15.1545 20.8833 16.8012 18.3417 18.8839C17.8074 19.3198 17.4027 19.7072 17.6456 20.4822C17.7913 20.9342 17.7751 21.4347 17.8398 21.919C18.2931 25.0834 18.9406 28.1993 20.1872 31.1698C20.3976 31.6865 20.6728 31.9286 21.2718 31.8802C23.2306 31.7026 25.1894 31.6219 27.1483 31.3797C31.3735 30.847 35.3882 29.6038 39.1278 27.5212C40.1315 26.9561 41.0866 26.2942 42.0903 25.6968C42.6569 25.3578 43.2883 25.0349 43.8225 25.713C44.7776 26.9238 44.1948 29.2486 42.7702 29.8783C37.2176 32.3323 31.4058 33.64 25.3351 33.8337C24.1048 33.866 22.8745 33.8337 21.5632 33.8337C21.6603 34.092 21.7089 34.2535 21.7736 34.3826C23.8458 38.225 26.6626 41.3893 30.4345 43.6334C33.2999 45.3286 36.3434 46.378 39.7268 46.0228C40.9733 45.8937 42.317 45.7484 43.3854 45.1672C52.9043 40.0816 57.2752 28.9742 53.568 18.8516C50.5246 10.5694 44.4377 5.70991 35.6473 4.5798C29.6899 3.80486 24.3638 5.58076 19.7015 9.35858C18.1636 10.6017 18.2445 12.4099 17.7913 14.0728C19.313 13.3301 20.6728 12.5713 22.1136 11.9901C25.9989 10.408 30.0622 10.1658 34.1903 10.5856C35.8415 10.7632 36.5376 11.7964 36.23 13.6853ZM29.5604 47.2982C29.3499 47.1852 29.2851 47.1691 29.2204 47.1206C24.0239 43.8917 20.1872 39.4681 17.6779 33.8983C17.597 33.7368 17.4189 33.5431 17.257 33.4947C15.8001 33.1718 14.3431 32.865 12.8537 32.5583C14.1003 39.1937 23.1982 47.2821 29.5604 47.2982ZM16.7066 31.5896C16.1238 28.2961 15.5572 25.0834 14.9744 21.7737C12.9832 24.3569 11.2025 26.9561 12.2548 30.4756C12.3033 30.6371 12.4166 30.8631 12.5462 30.8954C13.9546 31.1376 15.3792 31.3636 16.7066 31.5896ZM13.3718 17.8183C14.6345 17.0272 15.7191 16.1554 15.1525 14.3795C14.5212 15.5742 13.9384 16.7043 13.3718 17.8183Z" fill="white"/>
</svg>
