<svg width="60" height="60" viewBox="0 0 60 60" fill="none" xmlns="http://www.w3.org/2000/svg">
<path d="M2.85211e-07 -2.35203e-06C7.21495 -2.35203e-06 14.3551 -2.35203e-06 21.5701 -2.35203e-06C21.5701 19.9615 21.5701 39.8844 21.5701 59.8651C14.3738 59.8651 7.21495 59.8651 2.85211e-07 59.8651C2.85211e-07 39.9422 2.85211e-07 20.0193 2.85211e-07 -2.35203e-06Z" fill="white"/>
<path d="M30 30C30 19.9807 30 10.0963 30 0.231189C30.0748 0.173385 30.1121 0.115581 30.1682 0.115581C34.243 0.231188 38.3925 -0.539522 42.3738 0.944101C48.785 3.33331 52.4486 9.2678 52.1122 15.684C51.7383 22.7553 47.0093 28.2851 40.4112 29.6339C39.3271 29.8651 38.1869 29.9614 37.0841 29.9807C34.7664 30.0385 32.4299 30 30 30Z" fill="white"/>
<path d="M30.0188 30.2698C40.0749 40.2312 49.9627 50.0386 60.0001 60C49.888 60 39.9814 60 30.0188 60C30.0188 50.1542 30.0188 40.3469 30.0188 30.2698Z" fill="white"/>
</svg>
