<svg width="60" height="52" viewBox="0 0 60 52" fill="none" xmlns="http://www.w3.org/2000/svg">
<path fill-rule="evenodd" clip-rule="evenodd" d="M41.4644 25.6451C39.3917 25.6451 37.7144 27.3024 37.7144 29.3477C37.7144 31.3916 39.3917 33.0508 41.4644 33.0508C43.535 33.0508 45.2144 31.3916 45.2144 29.3477C45.2144 27.3024 43.535 25.6451 41.4644 25.6451Z" fill="white"/>
<path fill-rule="evenodd" clip-rule="evenodd" d="M53.8953 25.6507C52.6939 23.7938 51.0699 22.1 49.1106 20.6337C49.7133 19.3805 51.0059 18.5139 52.4999 18.5139C54.5659 18.5139 56.2499 20.1745 56.2499 22.2164C56.2499 23.7692 55.2746 25.103 53.8953 25.6507ZM30 47.4413C17.9614 47.4413 8.20337 41.1184 8.20337 33.3247C8.20337 25.529 17.9614 19.2081 30 19.2081C42.0394 19.2081 51.7974 25.529 51.7974 33.3247C51.7974 41.1184 42.0394 47.4413 30 47.4413ZM3.75 22.2164C3.75 20.1745 5.43333 18.5139 7.5 18.5139C8.99467 18.5139 10.2887 19.3805 10.8873 20.6337C8.93 22.1 7.306 23.7938 6.10533 25.6507C4.724 25.103 3.75 23.7692 3.75 22.2164ZM50.6254 3.47156C51.7901 3.47156 52.7348 4.40201 52.7348 5.5541C52.7348 6.70419 51.7901 7.63664 50.6254 7.63664C49.4608 7.63664 48.5161 6.70419 48.5161 5.5541C48.5161 4.40201 49.4608 3.47156 50.6254 3.47156ZM52.5 14.8107C49.6827 14.8107 47.2267 16.3475 45.9467 18.6178C42.0907 16.5346 37.394 15.1908 32.278 14.8813L36.7533 4.95644L45.3187 7.39839C46.09 9.5588 48.1733 11.1082 50.6253 11.1082C53.7327 11.1082 56.25 8.62102 56.25 5.55411C56.25 2.48521 53.7327 0 50.6253 0C48.4827 0 46.6207 1.18137 45.67 2.92182L36.1233 0.201665C35.0573 -0.102497 33.926 0.416642 33.472 1.41831L27.3947 14.9006C22.4047 15.2474 17.8273 16.5811 14.0553 18.6178C12.7753 16.3475 10.318 14.8107 7.5 14.8107C3.358 14.8107 0 18.1266 0 22.2165C0 25.2421 1.84 27.8431 4.47533 28.9912C4.00133 30.3809 3.75 31.8318 3.75 33.3247C3.75 43.5477 15.502 51.8386 30 51.8386C44.4967 51.8386 56.25 43.5477 56.25 33.3247C56.25 31.8318 55.9993 30.3809 55.5253 28.9925C58.158 27.8431 60 25.2421 60 22.2165C60 18.1266 56.642 14.8107 52.5 14.8107Z" fill="white"/>
<path fill-rule="evenodd" clip-rule="evenodd" d="M22.9285 29.3477C22.9285 27.3017 21.2491 25.6451 19.1785 25.6451C17.1058 25.6451 15.4285 27.3017 15.4285 29.3477C15.4285 31.3916 17.1058 33.0502 19.1785 33.0502C21.2491 33.0502 22.9285 31.3916 22.9285 29.3477Z" fill="white"/>
<path fill-rule="evenodd" clip-rule="evenodd" d="M37.8257 38.0842C36.2783 39.2882 33.215 40.5853 30.1443 40.5853C27.0737 40.5853 24.0103 39.2882 22.463 38.0842C21.4963 37.3334 20.0956 37.4971 19.3356 38.4509C18.5737 39.404 18.7403 40.787 19.7036 41.5371C22.395 43.629 26.4917 44.9827 30.1443 44.9827C33.7957 44.9827 37.893 43.629 40.583 41.5371C41.5477 40.787 41.715 39.404 40.955 38.4509C40.191 37.4971 38.7923 37.3334 37.8257 38.0842Z" fill="white"/>
</svg>
