<svg width="61" height="61" viewBox="0 0 61 61" fill="none" xmlns="http://www.w3.org/2000/svg">
<path d="M39.3024 21.7197C36.9533 19.3688 33.8258 18.0739 30.5003 18.0739C27.1748 18.0739 24.0486 19.3688 21.6976 21.7192C19.3513 24.0653 18.0596 27.1839 18.0596 30.4997C18.0596 33.8156 19.3518 36.9332 21.6976 39.2788C24.0486 41.6311 27.1738 42.9246 30.5003 42.9246C33.8267 42.9246 36.9519 41.6311 39.3034 39.2802C41.6497 36.9342 42.9414 33.8161 42.9414 30.5007C42.9414 27.1844 41.6492 24.0658 39.3034 21.7197H39.3024Z" fill="white"/>
<path d="M55.8968 47.3998C63.7998 35.5502 62.5239 19.389 52.0675 8.93301C40.156 -2.97767 20.8443 -2.97767 8.93328 8.93301C-2.97776 20.8437 -2.97776 40.1557 8.93328 52.0669C19.3901 62.5229 35.5503 63.801 47.4019 55.896L41.5806 48.4696C38.2828 50.5141 34.4785 51.6128 30.5002 51.6128C24.8682 51.6128 19.5717 49.4192 15.5867 45.4347C11.5988 41.4468 9.40205 36.1433 9.40205 30.5011C9.40205 24.8585 11.5983 19.5545 15.5867 15.5657C19.5722 11.5797 24.8682 9.38615 30.5002 9.38615C36.1321 9.38615 41.4286 11.5797 45.4137 15.5637C49.4025 19.5526 51.5988 24.8575 51.5988 30.5002C51.5978 34.4731 50.5035 38.2782 48.4655 41.5734L55.8968 47.3998Z" fill="white"/>
</svg>
