<svg width="44" height="62" viewBox="0 0 44 62" fill="none" xmlns="http://www.w3.org/2000/svg">
<path d="M42.2854 11.9866C42.2854 13.7888 42.3133 15.5909 42.2854 17.3931C42.2576 18.8071 41.9512 19.0844 40.6141 18.7239C37.0207 17.7535 33.4552 16.7277 29.8896 15.7018C29.2768 15.5355 28.5247 15.3691 28.3297 14.676C28.1347 13.9274 29.0261 13.8165 29.3882 13.3729C29.5553 13.1511 29.806 13.0124 30.0289 12.8461C30.8924 12.2638 30.8367 11.7648 30.001 11.1548C24.1792 6.9405 14.7082 8.63177 11.0034 15.3414C8.55207 19.7775 8.55207 24.1859 11.0312 28.5388C13.5383 32.9195 18.9423 35.2207 24.0678 34.3612C29.6111 33.4186 33.1209 30.2578 34.6808 24.9068C34.9037 24.1304 35.0429 23.2987 35.6279 22.6333C37.3828 20.6647 39.1656 20.1657 41.1712 21.1638C43.3161 22.2451 44.4303 24.38 43.8454 26.7089C42.6754 31.4778 40.3077 35.5257 36.4357 38.6033C35.3215 39.4905 34.9872 40.2114 35.6558 41.5977C37.8564 46.2279 39.9456 50.9135 42.0347 55.5992C43.1211 58.0945 42.3412 60.4234 40.1684 61.5325C38.0514 62.6138 35.3772 61.782 34.0958 59.4253C32.7866 56.93 31.6724 54.3515 30.5024 51.8007C29.3882 49.3609 28.274 46.921 27.2155 44.4811C26.8255 43.5662 26.2405 43.2889 25.2377 43.4276C13.2318 45.0634 2.39594 36.6348 0.334607 25.2118C-1.25317 16.4227 2.9252 7.9109 10.4184 3.00344C16.7417 -1.15542 28.7197 -1.12769 34.9872 3.91839C35.7393 4.52836 36.5193 5.1106 37.2157 5.77602C37.9957 6.52461 38.6642 6.46916 39.5277 5.83147C40.1406 5.38786 40.7255 4.30655 41.6169 4.83334C42.4526 5.30468 42.2576 6.38598 42.2576 7.24548C42.3133 8.85357 42.2854 10.4339 42.2854 11.9866Z" fill="white"/>
</svg>
