<svg width="60" height="60" viewBox="0 0 60 60" fill="none" xmlns="http://www.w3.org/2000/svg">
<path fill-rule="evenodd" clip-rule="evenodd" d="M0.46179 0C0.30964 0 0.152818 0.0126764 0 0.0126764V11.0972C0.152818 11.0972 0.30964 11.0845 0.46179 11.0845C27.0087 11.0845 48.8376 32.9399 48.8376 59.3035C48.8376 59.535 48.8229 59.7658 48.8196 60H59.982C59.9853 59.7658 60 59.535 60 59.3035C60 26.8326 33.1648 0 0.46179 0Z" fill="white"/>
<path fill-rule="evenodd" clip-rule="evenodd" d="M28.1945 59.2509C28.1945 59.4858 28.1652 59.7093 28.1598 59.9474H39.3202C39.3262 59.7093 39.3596 59.4858 39.3596 59.2509C39.3596 37.8552 22.0058 20.5659 0.461123 20.5659C0.308972 20.5659 0.152818 20.5899 0 20.5933V31.6784C0.152818 31.6764 0.308972 31.6564 0.461123 31.6564C15.8517 31.6564 28.1945 43.9685 28.1945 59.2509Z" fill="white"/>
<path fill-rule="evenodd" clip-rule="evenodd" d="M8.48973 59.7046C13.1817 59.7046 16.9788 55.9364 16.9788 51.2762C16.9788 46.6219 13.1817 42.8457 8.48973 42.8457C3.80243 42.8457 0 46.6219 0 51.2762C0 55.9364 3.80243 59.7046 8.48973 59.7046Z" fill="white"/>
</svg>
