<svg width="60" height="49" viewBox="0 0 60 49" fill="none" xmlns="http://www.w3.org/2000/svg">
<path d="M22.5201 18.8985V18.9143C21.7527 18.9143 20.9694 18.8826 20.202 18.9302C19.5786 18.9619 19.4027 19.4697 19.4027 19.9457C19.4027 20.4694 19.9143 20.2789 20.218 20.2948C21.3371 20.3266 22.4561 20.2948 23.5752 20.3107C24.5823 20.3107 24.6463 20.3742 24.4385 21.358C23.847 24.1507 23.2874 26.9593 22.616 29.7361C21.5449 34.1315 20.234 38.4793 20.3459 43.0651C20.3619 43.5094 20.1061 43.7315 19.6905 43.8426C18.4275 44.16 17.1326 44.3504 15.8217 44.4297C14.6867 44.4932 13.8234 43.8267 13.5037 42.7319C13.2479 41.875 13.2798 41.0023 13.3758 40.1295C13.6795 37.5748 14.4469 35.1153 15.1503 32.6558C15.9016 30.0218 16.9568 27.4512 17.2125 24.6902C17.6921 19.7077 14.7506 16.9308 10.4183 16.8198C7.65258 16.7563 5.06275 17.5497 2.44096 18.2796C0.858288 18.7239 0.106919 19.5649 0.0589593 21.1358C0.0589593 21.1675 0.0589596 21.1834 0.042973 21.2152C-0.100906 21.8023 0.122906 21.8499 0.618489 21.6436C1.52972 21.231 2.5049 21.1041 3.49607 21.0247C6.29372 20.8185 7.41278 22.0085 7.0291 24.7695C7.0291 24.8171 7.01311 24.8806 6.99713 24.9282C6.70937 26.9434 6.13385 28.911 5.55834 30.8628C4.59914 34.0522 3.51206 37.194 3.14437 40.5421C2.56885 45.6833 5.31854 48.7299 10.5302 48.6188C12.2727 48.5871 13.9673 48.1904 15.6299 47.6985C17.3404 47.1907 19.003 46.5401 20.6337 45.8102C20.9854 45.6515 21.3051 45.5405 21.6248 45.9213C23.5432 48.0793 26.133 48.4284 28.7708 48.3649C31.6164 48.3015 34.3341 47.4922 37.0519 46.6988C38.2988 46.3338 39.0662 45.715 39.1621 44.398C39.1621 44.3662 39.1781 44.3504 39.1781 44.3186C39.1941 44.0965 39.4179 43.8267 39.226 43.6363C39.0342 43.43 38.7784 43.6522 38.5546 43.7157C36.7161 44.1917 34.8777 44.6677 32.9753 44.4615C31.5845 44.3186 30.8171 43.4776 30.7372 42.0971C30.6892 41.3038 30.6732 40.5104 30.8011 39.717C31.7923 33.7348 33.4389 27.8955 34.8777 22.0244C35.0216 21.4373 35.4212 21.3104 35.9488 21.2945C37.7393 21.2469 39.5138 21.1834 41.3043 21.1358C43.5264 21.0723 43.1587 21.4373 43.7342 19.2158C43.9581 18.3748 43.8781 18.2637 43.0149 18.3113C40.9686 18.4383 38.9223 18.5652 36.876 18.708C35.9488 18.7715 35.8209 18.6604 36.0607 17.756C36.6362 15.5821 37.2117 13.4082 37.8192 11.2502C38.0111 10.5679 37.8192 10.3616 37.1158 10.3616C34.3182 10.3933 31.5205 10.3933 28.7229 10.3616C27.9715 10.3457 27.6358 10.6313 27.4439 11.3454C26.9004 13.4717 26.2929 15.5821 25.7174 17.7084C25.3817 18.9461 25.3657 18.9461 24.1027 18.9461C23.5912 18.8985 23.0636 18.8985 22.5201 18.8985Z" fill="white"/>
<path d="M46.7557 22.326C46.7557 25.452 46.7557 28.5621 46.7557 31.688C46.7557 33.608 46.5958 33.4494 48.5142 33.4494C49.937 33.4494 49.937 33.4494 50.4966 32.1482C52.8146 26.7214 55.0687 21.2629 57.5466 15.8996C58.266 14.3446 58.9854 12.7736 59.481 11.1234C59.8967 9.77463 60.1684 8.39413 59.8807 6.9819C59.4331 4.74454 57.8024 3.37991 55.5004 3.33231C50.6085 3.22123 47.7788 5.45859 46.9955 10.1079C46.8356 11.0123 46.7717 11.9485 46.7717 12.8688C46.7397 16.0265 46.7557 19.1842 46.7557 22.326Z" fill="white"/>
<path d="M41.1445 43.1286C41.1445 46.445 43.7663 49.0314 47.0755 48.9997C50.2888 48.9679 52.9106 46.3498 52.9266 43.1762C52.9426 39.8757 50.3368 37.2734 47.0116 37.2893C43.7184 37.3051 41.1445 39.8598 41.1445 43.1286Z" fill="white"/>
<path d="M15.3901 0C12.0809 0 9.50703 2.53885 9.49104 5.80761C9.47505 9.09224 12.1288 11.7263 15.4221 11.7104C18.6513 11.6946 21.2891 9.04463 21.2891 5.82348C21.2891 2.58645 18.6833 0 15.3901 0Z" fill="white"/>
</svg>
