<svg width="61" height="49" viewBox="0 0 61 49" fill="none" xmlns="http://www.w3.org/2000/svg">
<path d="M15.3447 48.9995H13.474C12.5268 48.9995 11.6033 48.9053 10.6797 48.7404C9.77989 48.5755 8.92741 48.2457 8.16964 47.7981C7.41188 47.3269 6.77252 46.6909 6.22787 45.8663C5.70691 45.0418 5.32803 43.9582 5.13859 42.6625C5.09123 42.2856 5.04387 41.7673 5.02019 41.1313C4.99651 40.4952 4.97283 39.7649 4.92547 39.0111C4.87811 38.2572 4.87811 37.4562 4.87811 36.6317C4.87811 35.8072 4.85442 35.0298 4.83074 34.276C4.80706 33.5221 4.75971 32.8389 4.73603 32.2264C4.68866 31.6139 4.6413 31.1428 4.59394 30.813C4.54658 30.3654 4.4045 29.9413 4.21506 29.5409C4.02562 29.1404 3.74146 28.787 3.38626 28.5043C3.00738 28.1981 2.55745 27.9625 1.98913 27.774C1.42081 27.5856 0.781444 27.4913 0 27.4678V21.5548C0.781444 21.5312 1.44449 21.437 2.01281 21.2486C2.58113 21.0601 3.03106 20.8245 3.38626 20.5183C3.74146 20.2356 4.02562 19.8822 4.21506 19.4817C4.4045 19.0812 4.5229 18.6808 4.59394 18.2332C4.6413 17.9034 4.66498 17.4558 4.71234 16.8433C4.7597 16.2308 4.78339 15.5476 4.80707 14.7937C4.83075 14.0399 4.85443 13.2625 4.85443 12.438C4.87811 11.6135 4.90179 10.8125 4.92547 10.0351C4.94915 9.25769 4.99651 8.55096 5.02019 7.9149C5.06755 7.27885 5.11491 6.76058 5.16227 6.38365C5.32803 5.20577 5.63587 4.21634 6.10947 3.41538C6.5594 2.61442 7.1514 1.9548 7.8618 1.46009C8.57221 0.965378 9.40101 0.588461 10.3482 0.376441C11.2954 0.140865 12.3373 0.046628 13.4977 0.046628H15.3684V5.84182H14.066C12.9293 5.84182 12.2663 6.05385 12.1005 6.50144C12.0295 6.66635 11.9585 6.99615 11.9111 7.44375C11.8637 7.9149 11.8164 8.45673 11.769 9.11634C11.7217 9.77596 11.698 10.5063 11.6743 11.3308C11.6506 12.1553 11.6506 13.0269 11.6506 13.9221C11.6506 15.3827 11.5559 16.6548 11.3901 17.7856C11.2244 18.9163 10.9639 19.9058 10.6561 20.7538C10.3245 21.6019 9.92197 22.3322 9.42469 22.9447C8.92741 23.5572 8.35909 24.0755 7.71972 24.5231C8.35909 24.9471 8.92741 25.4654 9.40101 26.0543C9.87461 26.6433 10.3009 27.35 10.6324 28.1981C10.9639 29.0462 11.2244 30.0356 11.3901 31.1663C11.5559 32.2971 11.6506 33.6163 11.6506 35.1005C11.6506 35.9957 11.6506 36.8673 11.6743 37.7154C11.698 38.5399 11.7217 39.2937 11.769 39.9769C11.8164 40.6365 11.8637 41.2019 11.9111 41.6495C11.9585 42.0971 12.0295 42.4034 12.1005 42.5918C12.2663 43.0159 12.9293 43.2514 14.066 43.2514H15.3684V48.9995H15.3447Z" fill="white"/>
<path d="M34.7624 18.5636C34.3125 16.8438 32.9391 15.9958 30.6421 15.9958C30.0501 15.9958 29.5054 16.0429 29.0318 16.1371C28.5346 16.2313 28.1083 16.3727 27.7294 16.5611C27.3506 16.7496 27.0664 16.9852 26.8533 17.2679C26.6402 17.5506 26.5454 17.8804 26.5454 18.2337C26.5454 18.5164 26.5928 18.752 26.7112 18.964C26.8059 19.1525 27.0664 19.3645 27.469 19.553C27.8715 19.7414 28.4872 19.9535 29.2686 20.1655C30.0738 20.3775 31.1394 20.6602 32.5128 20.99C34.1704 21.3905 35.6386 21.791 36.8463 22.2386C38.0777 22.6626 39.0959 23.2044 39.901 23.8405C40.7061 24.4765 41.3218 25.2539 41.7244 26.1962C42.127 27.115 42.3164 28.2693 42.3164 29.6592C42.3164 30.9313 42.0559 32.1328 41.5113 33.2164C40.9903 34.3001 40.2325 35.266 39.2617 36.0669C38.2908 36.8679 37.1304 37.5039 35.757 37.9751C34.3836 38.4462 32.8443 38.6583 31.1394 38.6583C24.0117 38.6583 20.0334 35.5958 19.252 29.4943H26.0718C26.427 31.8265 28.1083 33.0044 31.0683 33.0044C32.5365 33.0044 33.6731 32.7217 34.4309 32.1563C35.1887 31.591 35.5912 30.9078 35.5912 30.0833C35.5912 29.7063 35.5202 29.4001 35.3544 29.141C35.1887 28.8818 34.8808 28.6462 34.4072 28.4342C33.9336 28.2222 33.2706 27.9866 32.4418 27.7746C31.613 27.539 30.5237 27.2563 29.1976 26.9265C27.5637 26.5261 26.1666 26.1256 24.9825 25.7251C23.7985 25.3246 22.8277 24.8299 22.0699 24.2174C21.3121 23.6285 20.7438 22.8746 20.3649 22.003C19.986 21.1078 19.8203 20.0006 19.8203 18.6342C19.8203 17.4563 20.0571 16.3727 20.5544 15.3597C21.0516 14.3467 21.7384 13.4751 22.6619 12.7212C23.5617 11.9674 24.6747 11.402 25.9534 10.9544C27.2322 10.5304 28.6766 10.3184 30.2869 10.3184C37.2015 10.3184 40.9193 13.0746 41.4165 18.5636H34.7624Z" fill="white"/>
<path d="M45.6553 43.2048H46.9577C48.0943 43.2048 48.7574 42.9928 48.9231 42.5452C48.9942 42.3803 49.0652 42.074 49.1126 41.6029C49.1599 41.1317 49.2073 40.5899 49.2547 39.9303C49.302 39.2707 49.3257 38.5168 49.3494 37.6688C49.3731 36.8442 49.3731 35.9726 49.3731 35.0538C49.3731 33.5697 49.4678 32.2505 49.6335 31.1197C49.7993 29.9889 50.0598 28.9995 50.3913 28.1514C50.7228 27.3034 51.1254 26.5966 51.6227 26.0077C52.0963 25.4188 52.6646 24.924 53.304 24.4764C52.6646 24.0524 52.0963 23.5106 51.599 22.8981C51.1017 22.2856 50.6991 21.5553 50.3676 20.7072C50.0361 19.8591 49.7993 18.8697 49.6335 17.7389C49.4678 16.6082 49.3731 15.3361 49.3731 13.8755C49.3731 12.9803 49.3731 12.1087 49.3494 11.2841C49.3257 10.4596 49.302 9.72933 49.2547 9.06971C49.2073 8.4101 49.1599 7.86827 49.1126 7.39712C49.0652 6.92596 48.9942 6.61971 48.9231 6.45481C48.7574 6.03077 48.0943 5.7952 46.9577 5.7952H45.6553V1.43785e-06H47.526C48.6863 1.43785e-06 49.7283 0.117788 50.6755 0.329808C51.6227 0.541827 52.4515 0.918752 53.1619 1.41346C53.8723 1.90817 54.4643 2.56779 54.9142 3.36875C55.3641 4.16971 55.672 5.15914 55.8614 6.33702C55.9088 6.71394 55.9561 7.23221 56.0035 7.86827C56.0508 8.50433 56.0745 9.21106 56.0982 9.98846C56.1219 10.7659 56.1456 11.5668 56.1693 12.3914C56.1929 13.2159 56.2166 13.9933 56.2166 14.7471C56.2403 15.501 56.264 16.1841 56.2877 16.7966C56.3113 17.4091 56.3587 17.8803 56.4061 18.1865C56.4534 18.6106 56.5955 19.0346 56.7849 19.4351C56.9744 19.8356 57.2585 20.1654 57.6137 20.4716C57.9689 20.7543 58.4425 21.0135 58.9872 21.2019C59.5555 21.3904 60.2186 21.4846 61 21.5082V27.4212C60.2186 27.4447 59.5555 27.5389 59.0109 27.7274C58.4662 27.9159 57.9926 28.1514 57.6374 28.4577C57.2585 28.7639 56.9981 29.1173 56.8086 29.4942C56.6192 29.8947 56.5008 30.3188 56.4297 30.7664C56.3824 31.0962 56.335 31.5673 56.2877 32.1798C56.2403 32.7923 56.2166 33.4519 56.1929 34.2293C56.1692 34.9832 56.1456 35.7606 56.1456 36.5851C56.1456 37.4096 56.1219 38.187 56.0982 38.9644C56.0745 39.7183 56.0508 40.425 56.0035 41.0846C55.9561 41.7442 55.9324 42.2389 55.8851 42.6159C55.6956 43.9115 55.3404 44.9952 54.7958 45.8197C54.2748 46.6442 53.6118 47.3038 52.854 47.7514C52.0963 48.2226 51.2675 48.5289 50.3439 48.6938C49.4441 48.8587 48.4969 48.9529 47.5497 48.9529H45.679V43.2048H45.6553Z" fill="white"/>
</svg>
