<svg width="60" height="60" viewBox="0 0 60 60" fill="none" xmlns="http://www.w3.org/2000/svg">
<path fill-rule="evenodd" clip-rule="evenodd" d="M49.3055 38.9042C46.2801 38.9042 43.5501 40.1452 41.6046 42.137L21.1875 31.6258C21.3183 30.9664 21.3887 30.2862 21.3887 29.589C21.3887 29.4316 21.3838 29.2751 21.3768 29.1193L42.148 18.3843C44.0434 20.0692 46.5526 21.0959 49.3058 21.0959C55.2121 21.0959 60 16.3738 60 10.5479C60 4.7227 55.2121 0 49.3058 0C43.399 0 38.6113 4.7227 38.6113 10.5479C38.6113 10.7952 38.6229 11.0399 38.64 11.2829L18.0422 21.9289C16.1259 20.1401 13.541 19.0409 10.6944 19.0409C4.7881 19.0409 0 23.7633 0 29.589C0 35.4145 4.7881 40.1369 10.6944 40.1369C12.9552 40.1369 15.0507 39.4435 16.7781 38.2625L38.6124 49.5028C38.6402 55.3047 43.4161 60 49.3056 60C55.2119 60 59.9998 55.2777 59.9998 49.4519C60 43.6266 55.2113 38.9042 49.3055 38.9042Z" fill="white"/>
</svg>
