<svg width="57" height="61" viewBox="0 0 57 61" fill="none" xmlns="http://www.w3.org/2000/svg">
<path d="M35.8421 12.8876C44.5001 13.1294 50.6913 17.2407 54.1738 25.1248C57.608 32.9122 56.302 40.2159 50.7396 46.6973C47.2571 50.7119 43.4359 54.388 39.5664 58.064C37.0029 60.5308 33.9073 60.6759 31.8274 58.5961C29.6508 56.4195 29.8927 53.3238 32.5046 50.7119C36.1323 47.0359 39.8567 43.505 43.3392 39.6839C46.6283 36.0562 46.5316 30.5905 43.5327 26.7694C40.5822 23.045 35.4551 21.9325 31.1019 24.0607C29.7476 24.6895 28.7802 25.7536 27.7161 26.7694C26.4101 28.0753 25.1526 29.478 23.7982 30.6873C21.9119 32.3802 19.2516 32.3802 17.3652 30.8324C15.4788 29.2846 14.6082 26.3824 16.0592 24.5444C21.0896 18.1598 26.7971 12.6941 35.8421 12.8876Z" fill="white"/>
<path d="M20.219 47.1327C11.561 46.8425 5.3698 42.7312 1.88725 34.8954C-1.54694 27.1081 -0.240973 19.8044 5.36981 13.323C8.85236 9.30835 12.6735 5.63232 16.543 1.95629C19.1065 -0.462146 22.2021 -0.655621 24.282 1.47261C26.4586 3.6492 26.1684 6.7448 23.5565 9.35671C19.9772 12.9844 16.3011 16.4669 12.867 20.1913C9.52952 23.819 9.48116 29.1879 12.4317 33.1058C15.3821 36.9753 20.606 38.1361 25.0075 35.9595C26.3619 35.3307 27.3292 34.2666 28.3933 33.2509C29.6993 31.9449 30.9085 30.5422 32.3112 29.333C34.1976 27.6885 36.8579 27.6885 38.7443 29.2363C40.6306 30.7841 41.4529 33.6862 40.0019 35.5242C34.9715 41.9089 29.264 47.3746 20.219 47.1327Z" fill="white"/>
</svg>
