<svg width="56" height="55" viewBox="0 0 56 55" fill="none" xmlns="http://www.w3.org/2000/svg">
<path d="M41.5735 42.6058C36.246 43.0094 29.9834 43.5283 23.7209 43.9319C22.219 44.0184 20.6887 44.076 19.2152 43.7589C16.0697 43.1247 14.4262 40.5589 15.588 37.5319C16.5515 35.0527 16.0697 32.9482 15.3613 30.6419C12.9243 22.4833 10.5439 14.296 8.19191 6.10862C7.90854 5.09961 7.48348 4.72484 6.43499 4.81132C5.13146 4.89781 3.7996 4.86898 2.46774 4.81132C1.05086 4.75367 0.0873844 3.83114 0.00237189 2.53385C-0.0543031 1.20773 0.909172 0.112242 2.41106 0.0545841C4.76307 -0.0319021 7.14342 -0.0030734 9.49543 0.0545841C10.7139 0.0834128 11.5074 0.80413 11.8474 1.98611C12.3292 3.62935 12.8959 5.27258 13.2643 6.94465C13.5194 8.04014 13.9728 8.35726 15.0779 8.35726C27.5748 8.2996 40.0999 8.32843 52.5968 8.32843C55.6289 8.32843 56.394 9.22212 55.8272 12.278C54.6371 18.6779 53.4186 25.0779 52.1717 31.4779C51.8033 33.3229 51.3499 33.7842 49.4796 34.0148C39.7882 35.2256 30.0968 36.4364 20.4054 37.6184C19.4986 37.7337 19.0168 37.9644 18.9602 38.9445C18.9035 39.9824 19.6969 40.1265 20.377 40.1842C21.3972 40.2707 22.4457 40.213 23.4658 40.1553C31.5704 39.6941 39.6749 39.2328 47.7794 38.8004C48.2895 38.7716 48.8279 38.8292 49.338 38.8292C50.4998 38.8581 51.2082 39.4635 51.2649 40.6743C51.3216 41.7986 50.4998 42.577 49.253 42.577C47.0426 42.6346 44.7756 42.6058 41.5735 42.6058ZM38.513 23.1752C35.3109 23.1752 32.1938 23.1752 29.0483 23.1752C29.0483 26.0581 29.0483 28.8545 29.0483 31.795C32.2504 31.3914 35.3676 31.0166 38.513 30.6419C38.513 28.0761 38.513 25.6545 38.513 23.1752ZM15.1629 13.2293C15.588 14.6707 15.928 15.968 16.3248 17.2365C17.3733 20.7824 17.3733 20.7824 21.0571 20.7824C22.9274 20.7824 24.7693 20.7824 26.6113 20.7824C26.6113 18.1014 26.6113 15.6798 26.6113 13.2005C22.8141 13.2293 19.1018 13.2293 15.1629 13.2293ZM38.4847 20.7824C38.4847 18.1879 38.4847 15.7374 38.4847 13.287C35.2826 13.287 32.1938 13.287 29.0483 13.287C29.0483 15.8239 29.0483 18.3032 29.0483 20.7824C32.2221 20.7824 35.2826 20.7824 38.4847 20.7824ZM40.8934 20.8113C43.5855 20.8113 46.1642 20.8113 48.7429 20.7824C49.0262 20.7824 49.4797 20.5518 49.508 20.3788C49.9897 18.0149 50.4148 15.6509 50.8682 13.2581C47.411 13.2581 44.1805 13.2581 40.8651 13.2581C40.8934 15.7374 40.8934 18.159 40.8934 20.8113ZM18.0534 23.1464C19.0168 26.404 19.9236 29.5464 20.8588 32.7752C22.644 32.5734 24.316 32.4004 25.9879 32.1698C26.2429 32.141 26.668 31.7374 26.668 31.4779C26.7246 28.7103 26.6963 25.9716 26.6963 23.1752C23.7492 23.1464 21.0005 23.1464 18.0534 23.1464ZM49.0546 23.1464C46.2775 23.1464 43.6138 23.1464 40.9217 23.1464C40.9217 25.568 40.9217 27.8743 40.9217 30.2959C43.047 30.0365 45.059 29.8635 47.071 29.5464C47.411 29.4887 47.8644 29.0563 47.9494 28.7103C48.3462 26.923 48.6862 25.0779 49.0546 23.1464Z" fill="white"/>
<path d="M45.5136 46C48.0151 46 50 47.9577 50 50.4864C50 52.9607 47.9879 55 45.5136 55C43.0665 55 41 52.9607 41 50.4864C41 48.0121 43.0121 46 45.5136 46Z" fill="white"/>
<path d="M24 50.4456C24 52.9546 22.0151 54.9727 19.5408 55C17.1208 55 15.0272 52.9273 15 50.5001C15 48.0184 17.0121 46.0003 19.4864 46.0003C22.0151 45.973 24 47.9366 24 50.4456Z" fill="white"/>
</svg>
