<svg width="60" height="60" viewBox="0 0 60 60" fill="none" xmlns="http://www.w3.org/2000/svg">
<path fill-rule="evenodd" clip-rule="evenodd" d="M29.2061 3.32532C43.978 3.32532 55.9534 15.3 55.9534 30.0713C55.9534 31.4301 55.8181 32.754 55.6206 34.0634C58.3293 36.8134 60 40.5834 60 44.7494C60 53.172 53.1714 60 44.7473 60C40.916 60 37.4199 58.5774 34.7412 56.2373C32.9553 56.614 31.1047 56.8213 29.2061 56.8213C14.4326 56.8213 2.45996 44.8459 2.45996 30.0713C2.45996 28.1246 2.68066 26.2333 3.07324 24.4041C1.15259 21.8534 0 18.6913 0 15.2546C0 6.828 6.83057 0 15.2527 0C19.0347 0 22.488 1.38599 25.1541 3.66199C26.4792 3.45862 27.8247 3.32532 29.2061 3.32532ZM37.0613 45.2339C39.092 44.3899 40.634 43.2146 41.6865 41.7186C42.7373 40.2192 43.2666 38.5306 43.2666 36.652C43.2666 35.0833 42.9612 33.7573 42.3547 32.6786C41.748 31.5966 40.9014 30.7013 39.8174 29.9927C38.7334 29.2893 37.4187 28.6886 35.8733 28.1926C34.3274 27.7 32.6025 27.246 30.6987 26.8359C29.1733 26.4827 28.082 26.2153 27.4207 26.032C26.76 25.8453 26.106 25.5906 25.4626 25.2666C24.8152 24.9407 24.3059 24.5559 23.9399 24.1019C23.572 23.6499 23.3853 23.1093 23.3853 22.4906C23.3853 21.4873 23.9272 20.6266 25.012 19.9147C26.0959 19.1986 27.5232 18.8453 29.2886 18.8453C31.1965 18.8453 32.5779 19.1726 33.4392 19.8319C34.304 20.4873 35.0393 21.4033 35.6553 22.5753C36.1299 23.3953 36.5732 23.9846 36.9807 24.3453C37.3872 24.7059 37.9834 24.8879 38.77 24.8879C39.6306 24.8879 40.3494 24.5853 40.9246 23.9846C41.502 23.386 41.7893 22.7067 41.7893 21.958C41.7893 21.1433 41.5586 20.2972 41.0967 19.4386C40.6372 18.5759 39.9053 17.7539 38.9053 16.9686C37.9053 16.1846 36.6506 15.5546 35.1367 15.0806C33.6226 14.61 31.8267 14.3719 29.752 14.3719C27.1533 14.3719 24.894 14.7273 22.9719 15.4413C21.0474 16.1553 19.5806 17.1772 18.5667 18.5066C17.5493 19.834 17.0439 21.3519 17.0439 23.064C17.0439 24.8566 17.5232 26.3579 18.4854 27.5686C19.4446 28.7766 20.7458 29.7292 22.3826 30.4299C24.0186 31.1279 26.052 31.7433 28.4812 32.2633C30.2974 32.6439 31.7458 33.0046 32.8298 33.3453C33.9141 33.684 34.7979 34.1746 35.4834 34.8193C36.1665 35.4586 36.5105 36.2986 36.5105 37.3292C36.5105 38.63 35.8733 39.7173 34.606 40.5833C33.3374 41.4553 31.6873 41.8873 29.6587 41.8873C28.1833 41.8873 26.9907 41.6693 26.082 41.2406C25.178 40.8107 24.4727 40.2612 23.9746 39.5966C23.4734 38.934 23.0093 38.106 22.5774 37.1173C22.2258 36.282 21.7993 35.656 21.2979 35.2313C20.8 34.8046 20.1865 34.594 19.4639 34.594C18.5732 34.594 17.8379 34.8652 17.262 35.4126C16.6853 35.9546 16.3979 36.6086 16.3979 37.37C16.3979 38.6866 16.8787 40.0413 17.8379 41.4313C18.8 42.8226 20.0505 43.938 21.5852 44.7712C23.7554 45.9299 26.5059 46.5087 29.8433 46.5087C32.626 46.5087 35.032 46.0859 37.0613 45.2339Z" fill="white"/>
</svg>
