<svg width="60" height="60" viewBox="0 0 60 60" fill="none" xmlns="http://www.w3.org/2000/svg">
<path d="M43.3693 19.0009C43.6738 19.5367 43.7753 20.1491 43.9783 20.7105C44.5113 22.267 45.0442 23.8491 45.5771 25.4056C46.0085 26.6814 46.4146 27.9828 46.846 29.2842C46.9475 29.6159 47.0998 29.8966 47.1251 30.2538C47.0998 30.3048 47.0744 30.3814 46.9982 30.4069C46.9221 30.4069 46.846 30.4069 46.7699 30.4324C45.501 30.8662 44.2067 31.3 42.9379 31.7338C41.8974 32.091 40.8569 32.4227 39.8165 32.8055C38.979 33.0862 38.1162 33.4179 37.2787 33.6986C37.2787 33.6731 37.2787 33.6731 37.2534 33.6475C37.0757 33.1882 36.8981 32.7289 36.7458 32.2441C36.3144 30.9172 35.883 29.5648 35.4262 28.238C34.9948 26.9111 34.538 25.5842 34.1066 24.2573C33.9036 23.6449 33.6752 23.007 33.4468 22.3946C33.4468 22.3691 33.4468 22.3436 33.4468 22.318C33.599 22.3436 33.7259 22.267 33.8782 22.2415C34.8679 21.9098 35.883 21.5525 36.8727 21.2208C38.2938 20.736 39.7403 20.2512 41.1615 19.7408C41.9228 19.4602 42.6334 19.1795 43.3693 19.0009Z" fill="white"/>
<path d="M16.1648 40.8178C16.0379 40.1034 15.7588 39.4399 15.5304 38.7765C15.0228 37.1944 14.4899 35.5869 13.9316 34.0048C13.4494 32.6014 13.0434 31.198 12.5105 29.8201C12.4851 29.7435 12.4851 29.667 12.4597 29.5904C12.4597 29.5649 12.4597 29.5394 12.4851 29.5139C12.6627 29.3863 12.8658 29.4118 13.0434 29.3608C14.3884 28.8759 15.7588 28.3911 17.1291 27.9573C18.8802 27.3704 20.6312 26.7836 22.3569 26.1456C22.3822 26.1456 22.4076 26.1456 22.433 26.1456C22.4837 26.707 22.7629 27.2173 22.9405 27.7277C23.3973 29.1311 23.8795 30.509 24.3617 31.9124C24.7677 33.0862 25.1737 34.26 25.529 35.4593C25.732 36.0972 26.0112 36.7351 26.1381 37.4241C26.0873 37.5006 25.9858 37.5262 25.9097 37.5517C24.9961 37.8579 24.1079 38.1386 23.1943 38.4448C21.3925 39.0572 19.5654 39.6696 17.7636 40.3075C17.256 40.4861 16.7485 40.5882 16.2663 40.8433C16.2156 40.8433 16.1902 40.8178 16.1648 40.8178Z" fill="white"/>
<path d="M40.5525 43.3695C39.5628 43.6247 38.6238 44.0074 37.6849 44.3392C35.3501 45.1302 33.0154 45.9467 30.6554 46.7633C30.2493 46.9164 29.8433 47.0439 29.4372 47.1971C29.4119 47.1971 29.3865 47.1971 29.3611 47.1971C29.3357 47.095 29.3357 46.9674 29.285 46.8653C28.9551 45.8702 28.5998 44.875 28.2699 43.8799C27.7877 42.4254 27.2802 40.9965 26.8234 39.542C26.595 38.853 26.3158 38.1896 26.1636 37.4751C26.2651 37.3986 26.392 37.3475 26.5189 37.2965C27.5339 36.9648 28.5237 36.6331 29.5134 36.2758C31.2137 35.6889 32.9393 35.1276 34.6396 34.5152C35.5024 34.209 36.3906 33.9538 37.2534 33.5966C37.2534 33.6221 37.2534 33.6221 37.2788 33.6476V33.6731C37.2534 34.1324 37.355 34.5662 37.6849 34.9234C37.6849 35.4593 37.8879 35.9441 38.0401 36.4289C38.1163 36.6586 38.1163 36.9648 38.37 37.1179C38.4462 37.1434 38.4716 37.22 38.4969 37.2965C38.6492 37.7558 38.6492 38.2406 38.903 38.6489C38.9537 38.7254 39.0045 38.8275 39.0299 38.9296C39.106 39.593 39.4359 40.1799 39.6643 40.8178C39.8927 41.5068 40.1211 42.1702 40.2987 42.8847C40.3495 43.0378 40.3749 43.2419 40.5525 43.3185C40.5779 43.344 40.5525 43.3695 40.5525 43.3695Z" fill="white"/>
<path d="M22.4074 26.1456C22.3821 26.1456 22.3567 26.1456 22.3313 26.1456C21.8491 24.6912 21.367 23.2112 20.8848 21.7567C20.3011 19.9961 19.6921 18.2609 19.1084 16.5258C19.1084 16.5003 19.1084 16.4747 19.1338 16.4492C19.7175 16.3472 20.2504 16.092 20.8087 15.9134C22.2552 15.4285 23.7017 14.9692 25.1228 14.4589C26.2902 14.0506 27.4575 13.7189 28.5995 13.2851C28.9802 13.132 29.3862 13.0044 29.7922 12.9024C29.9445 12.8513 30.0968 12.8003 30.2236 12.6982C30.249 12.6982 30.2998 12.6982 30.3252 12.7238C30.2998 12.8513 30.3252 12.9789 30.3759 13.081C30.6297 13.7955 30.9088 14.5355 31.1372 15.2499C31.4925 16.2961 31.7717 17.3678 32.1523 18.3885C32.6345 19.6899 33.0151 21.0167 33.4973 22.3181C33.4973 22.3436 33.4973 22.3691 33.4973 22.3947C33.4212 22.3691 33.3451 22.4202 33.2689 22.4457C32.3807 22.7519 31.5179 23.0836 30.6297 23.3898C29.1578 23.9001 27.6859 24.385 26.214 24.8953C24.9452 25.3036 23.6763 25.7118 22.4074 26.1456Z" fill="white"/>
<path d="M40.5522 43.3693C40.5522 43.3438 40.5522 43.3183 40.5522 43.2928C40.603 43.2928 40.6791 43.2928 40.7299 43.2673C41.948 42.8335 43.1915 42.3997 44.4096 41.9914C45.8307 41.5321 47.2518 41.0218 48.673 40.5115C49.2567 40.3073 49.8657 40.1542 50.424 39.8735C50.424 39.8991 50.4494 39.8991 50.4494 39.9246C50.7539 40.8687 51.0584 41.8128 51.3883 42.7569C51.6167 43.4714 51.8959 44.1604 52.1243 44.8748C52.4288 45.819 52.8095 46.7376 52.7333 47.7582C52.5811 49.621 51.8198 51.1265 50.1702 52.0961C48.8252 52.9127 47.3787 53.0402 45.9068 52.5809C44.2066 52.0451 43.09 50.8713 42.5063 49.1872C42.151 48.1665 41.7957 47.1714 41.4658 46.1507C41.1867 45.2576 40.7806 44.339 40.5522 43.3693Z" fill="white"/>
<path d="M29.3864 47.1715C29.4118 47.1715 29.4372 47.1715 29.4626 47.1715C29.6148 47.886 29.894 48.5494 30.1224 49.2129C30.5792 50.6418 31.1375 52.0452 31.5435 53.4997C32.2541 56.0259 30.706 58.8582 28.2191 59.6748C26.1635 60.3637 24.3363 59.9555 22.763 58.4755C22.0778 57.8376 21.6717 57.021 21.3672 56.1279C20.7835 54.3417 20.1745 52.5556 19.5908 50.7694C19.5654 50.7184 19.5654 50.6673 19.54 50.5908C19.54 50.5653 19.5654 50.5653 19.5654 50.5397C20.9612 50.0549 22.3569 49.5956 23.7527 49.1108C25.0215 48.677 26.2904 48.2432 27.5339 47.8094C28.1176 47.6308 28.752 47.4012 29.3864 47.1715Z" fill="white"/>
<path d="M30.3252 12.6727C30.2999 12.6727 30.2491 12.6472 30.2237 12.6472C30.0207 12.0092 29.8177 11.3458 29.5893 10.7079C29.2848 9.81479 28.9802 8.89618 28.6757 8.00309C28.5234 7.54379 28.3458 7.11 28.2443 6.6507C27.889 5.17072 28.0413 3.76729 28.9041 2.44041C29.7162 1.19009 30.8328 0.450099 32.2539 0.11838C34.4617 -0.366441 36.6188 0.67975 37.7608 2.49145C38.1922 3.1804 38.3698 3.97143 38.649 4.71142C39.0043 5.73209 39.3595 6.75277 39.6894 7.79896C39.8417 8.30929 40.0955 8.79412 40.1462 9.32997C40.0447 9.381 39.9432 9.43204 39.8417 9.48307C38.8266 9.81479 37.7862 10.1465 36.7711 10.5037C35.8829 10.8099 34.9947 11.1162 34.1064 11.4224C33.3198 11.703 32.5077 11.9837 31.721 12.2389C31.2642 12.392 30.8074 12.5961 30.3252 12.6727Z" fill="white"/>
<path d="M19.1337 16.4491C19.1337 16.4746 19.1337 16.5001 19.1083 16.5256C18.8799 16.5767 18.6769 16.6532 18.4485 16.7298C17.0781 17.1891 15.6824 17.6739 14.312 18.1587C12.6117 18.7201 10.9114 19.2814 9.23654 19.8428C9.21116 19.8428 9.18578 19.8428 9.13503 19.8428C8.93201 19.0518 8.62748 18.2863 8.37371 17.4953C7.96767 16.2705 7.51088 15.0456 7.18098 13.7953C6.64806 11.7795 7.1556 9.99331 8.67824 8.58988C11.3682 6.08923 15.5809 7.03335 17.0527 10.4271C17.3826 11.1671 17.611 11.9836 17.8648 12.7491C18.2962 13.9484 18.7023 15.1987 19.1337 16.4491Z" fill="white"/>
<path d="M30.3254 12.6727C30.8076 12.5706 31.2644 12.3665 31.7466 12.2134C32.5586 11.9582 33.3453 11.6775 34.132 11.3968C35.0202 11.0906 35.9084 10.7844 36.7966 10.4782C37.8117 10.1465 38.8522 9.78926 39.8673 9.45754C39.9688 9.43203 40.0703 9.35548 40.1718 9.30444C40.1972 9.30444 40.1972 9.32996 40.2226 9.32996C40.4002 9.8403 40.5779 10.3251 40.7301 10.8355C41.06 11.8561 41.3899 12.9023 41.7452 13.923C42.1512 15.0968 42.5319 16.2961 42.9379 17.4698C43.1156 17.9291 43.2171 18.4395 43.4709 18.8733C43.4455 18.8988 43.4455 18.9243 43.4201 18.9753C42.6842 19.154 41.9482 19.4602 41.2377 19.6898C39.8165 20.1746 38.37 20.6595 36.9489 21.1698C35.9592 21.5015 34.9441 21.8587 33.9544 22.1905C33.8021 22.2415 33.6752 22.2925 33.523 22.267C33.0408 20.9657 32.6601 19.6388 32.178 18.3374C31.7973 17.2912 31.5182 16.245 31.1629 15.1988C30.9345 14.4589 30.6553 13.7444 30.4016 13.0299C30.3254 12.9278 30.3001 12.8003 30.3254 12.6727Z" fill="white"/>
<path d="M47.3281 30.2538C47.8864 29.9987 48.4955 29.8201 49.0792 29.6159C50.3988 29.1566 51.7184 28.7228 53.038 28.2635C55.8549 27.2939 58.9255 28.7994 59.763 31.6318C60.2452 33.3414 60.0168 34.9745 58.8494 36.3524C58.0881 37.2455 56.9969 37.7048 55.8803 38.0875C54.0531 38.6999 52.2513 39.3379 50.4242 39.9503C50.4242 39.9247 50.3988 39.9247 50.3988 39.8992C50.3988 39.6696 50.3988 39.4654 50.145 39.3634C50.2211 38.9296 49.9166 38.6234 49.8405 38.2151C49.8659 37.6537 49.6121 37.1689 49.3837 36.6841C49.3837 36.6586 49.3837 36.6586 49.3837 36.6331C49.4091 36.582 49.3837 36.582 49.3583 36.6075C49.3329 36.582 49.3076 36.582 49.3076 36.5565C49.2568 36.2503 49.206 35.9441 49.1299 35.6889C49.0538 35.4338 49.003 35.1276 48.7746 34.9234C48.6224 34.311 48.3178 33.7497 48.1656 33.1373C48.0387 32.6269 47.8357 32.1166 47.6834 31.6062C47.7595 31.1214 47.3789 30.7387 47.3281 30.2538Z" fill="white"/>
<path d="M9.16058 19.8174C9.18596 19.8174 9.21133 19.8174 9.26209 19.8174C9.33822 20.2512 9.49048 20.685 9.64275 21.0932C10.3279 23.1091 11.0131 25.1504 11.6983 27.1662C11.9521 27.9573 12.2312 28.7483 12.5104 29.5393C12.5104 29.5648 12.5104 29.5903 12.485 29.6159C11.6476 29.8965 10.8101 30.1772 9.99803 30.4579C8.95756 30.8152 7.94247 31.1724 6.902 31.5296C6.24219 31.7593 5.53163 31.8358 4.84644 31.8103C2.89239 31.7338 1.47126 30.8152 0.583058 29.1055C-0.45741 27.0642 -0.0767502 24.7166 1.49664 23.058C2.2072 22.2925 3.12079 21.8842 4.1105 21.5525C5.35399 21.1443 6.5721 20.736 7.81558 20.3277C8.22162 20.1491 8.67841 19.9705 9.16058 19.8174Z" fill="white"/>
<path d="M19.5145 50.5653C19.5145 50.5908 19.5145 50.5908 19.4891 50.6163C18.3217 50.9481 17.2051 51.4074 16.0632 51.7646C15.0227 52.0963 14.0076 52.5556 12.9164 52.7342C10.4294 53.117 7.84092 51.7136 7.18111 49.0343C6.59744 46.6868 7.61253 44.2882 9.71884 43.0889C10.3787 42.7061 11.14 42.5275 11.8505 42.2723C13.2209 41.7875 14.5913 41.3282 15.9363 40.8689C16.0124 40.8434 16.0632 40.8434 16.1393 40.8179C16.1647 40.8179 16.19 40.8179 16.2154 40.8179C16.3169 41.0986 16.3931 41.3537 16.4946 41.6344C16.9767 43.0889 17.4589 44.5433 17.9411 45.9978C18.3217 47.1716 18.7024 48.3453 19.1084 49.4936C19.2607 49.8508 19.3115 50.2336 19.5145 50.5653Z" fill="white"/>
<path d="M43.4453 18.8988C43.1915 18.465 43.09 17.9802 42.9124 17.4954C42.481 16.3216 42.1257 15.1223 41.7197 13.9486C41.3644 12.9279 41.0345 11.9072 40.7046 10.861C40.5523 10.3507 40.3747 9.84034 40.197 9.35552C41.6435 8.8707 43.0647 8.36036 44.5112 7.90106C45.3486 7.64589 46.1353 7.28865 47.0235 7.2121C48.0132 7.11003 48.9268 7.26314 49.815 7.64589C51.4138 8.36036 52.4035 9.61069 52.708 11.3203C52.9872 12.8768 52.5304 14.2803 51.4392 15.4541C50.6271 16.2961 49.6627 16.832 48.5461 17.1892C47.5057 17.5209 46.4906 17.9292 45.4501 18.2354C44.7903 18.465 44.1305 18.7712 43.4453 18.8988Z" fill="white"/>
<path d="M47.3282 30.2538C47.3536 30.7386 47.7596 31.1214 47.6581 31.6317C47.582 31.6317 47.5566 31.5551 47.5312 31.5041C47.2775 31.1724 47.379 30.6621 47.0237 30.3814C47.0998 30.3559 47.1252 30.3048 47.1506 30.2283C47.2013 30.2538 47.2775 30.2538 47.3282 30.2538Z" fill="white"/>
<path d="M47.0234 30.4069C47.3787 30.6876 47.3025 31.1979 47.5309 31.5296C47.5817 31.5807 47.5817 31.6317 47.6578 31.6572C47.8101 32.1676 48.0131 32.6524 48.14 33.1882C48.2923 33.8006 48.5968 34.362 48.7491 34.9744C48.7237 35.2296 48.7491 35.4847 48.9013 35.6889C49.0028 35.842 49.0282 36.0206 49.0282 36.1992C49.0282 36.4034 49.1043 36.5565 49.3074 36.6075C49.3327 36.633 49.3581 36.633 49.3581 36.6585C49.3581 36.684 49.3835 36.684 49.3835 36.684C49.3835 36.7096 49.3835 36.7096 49.3835 36.7351C49.2312 36.8116 49.282 36.9647 49.3074 37.0668C49.3581 37.1944 49.3835 37.322 49.4342 37.424C49.5865 37.7047 49.5865 38.0364 49.8149 38.2661C49.8657 38.6488 50.1702 38.9806 50.1194 39.4143C50.3732 39.5164 50.3732 39.7206 50.3732 39.9502C49.8149 40.2309 49.2058 40.384 48.6222 40.5881C47.201 41.0985 45.7799 41.5833 44.3588 42.0681C43.1153 42.4764 41.8972 42.8846 40.6791 43.3439C40.6283 43.3695 40.5776 43.3439 40.5014 43.3695C40.2984 43.2929 40.273 43.0888 40.2477 42.9357C40.07 42.2467 39.8416 41.5578 39.6132 40.8688C39.4102 40.2564 39.0549 39.6695 38.9788 38.9806C38.9788 38.8785 38.9027 38.8019 38.8519 38.6999C38.5981 38.2916 38.5728 37.7813 38.4459 37.3475C38.4205 37.2709 38.3951 37.1944 38.319 37.1689C38.2936 36.9392 38.319 36.684 38.2175 36.4289C38.0652 36.0461 37.9637 35.6378 37.7607 35.2551C37.7099 35.153 37.8114 34.9744 37.6084 34.9744C37.7099 34.5917 37.4308 34.2599 37.4562 33.8772C37.4815 33.6986 37.3039 33.7496 37.2024 33.7241V33.6986C38.0398 33.3924 38.9027 33.0862 39.7401 32.8055C40.7806 32.4482 41.8211 32.091 42.8615 31.7338C44.1304 31.3 45.4246 30.8662 46.6935 30.4324C46.8711 30.3814 46.9473 30.4069 47.0234 30.4069Z" fill="white"/>
<path d="M26.0871 37.3986C26.1125 37.4241 26.1632 37.4241 26.1886 37.4496C26.3409 38.1641 26.62 38.8275 26.8484 39.5165C27.3052 40.9709 27.8128 42.3999 28.2949 43.8543C28.6248 44.8495 28.9801 45.8446 29.31 46.8398C29.3354 46.9419 29.3608 47.0695 29.3862 47.1715C28.7517 47.4012 28.1427 47.6308 27.5082 47.8605C26.2394 48.2943 24.9705 48.7281 23.727 49.1618C22.3313 49.6467 20.9355 50.106 19.5398 50.5908C19.3114 50.2591 19.2606 49.8763 19.1337 49.5191C18.7277 48.3708 18.347 47.197 17.9664 46.0233C17.4842 44.5688 17.002 43.1143 16.5199 41.6599C16.4184 41.3792 16.3422 41.124 16.2407 40.8433C16.7229 40.5882 17.2304 40.4861 17.738 40.3075C19.5398 39.6696 21.3416 39.0572 23.1687 38.4448C24.0569 38.1385 24.9705 37.8323 25.8841 37.5517C25.9348 37.5006 26.0364 37.4751 26.0871 37.3986Z" fill="white"/>
<path d="M12.4597 29.5137C12.1806 28.7227 11.9268 27.9317 11.6476 27.1407C10.9625 25.1248 10.2773 23.109 9.59209 21.0676C9.43982 20.6594 9.28756 20.2256 9.21143 19.7918C10.9117 19.2304 12.612 18.6691 14.2869 18.1077C15.6573 17.6484 17.053 17.1636 18.4234 16.6787C18.6264 16.6022 18.8548 16.5512 19.0832 16.4746C19.6669 18.2098 20.2759 19.9704 20.8596 21.7056C21.3418 23.16 21.8239 24.6145 22.3061 26.0945C20.5804 26.7324 18.8294 27.3193 17.0784 27.9062C15.708 28.3655 14.363 28.8503 12.9926 29.3096C12.8404 29.4372 12.6374 29.4117 12.4597 29.5137Z" fill="white"/>
<path d="M37.71 34.9489C37.913 34.9744 37.8115 35.153 37.8622 35.2295C38.0652 35.6123 38.1414 36.0206 38.319 36.4033C38.4205 36.6585 38.3698 36.8881 38.4205 37.1433C38.1668 36.9902 38.1668 36.7095 38.0906 36.4543C37.8876 35.944 37.71 35.4592 37.71 34.9489Z" fill="white"/>
<path d="M37.304 33.6986C37.4055 33.7241 37.5832 33.6731 37.5578 33.8517C37.5324 34.2345 37.7862 34.5662 37.71 34.9489C37.3801 34.5917 37.2786 34.1579 37.304 33.6986Z" fill="white"/>
<path d="M49.8655 38.2405C49.6372 38.0108 49.6118 37.6791 49.4849 37.3984C49.4341 37.2964 49.3834 37.1688 49.358 37.0412C49.3326 36.9391 49.2819 36.786 49.4341 36.7095C49.6625 37.1943 49.8909 37.6791 49.8655 38.2405Z" fill="white"/>
<path d="M49.333 36.5819C49.13 36.5054 49.0538 36.3778 49.0538 36.1737C49.0538 35.995 49.0285 35.8164 48.927 35.6633C48.7747 35.4592 48.7493 35.204 48.7747 34.9489C49.0031 35.153 49.0538 35.4592 49.13 35.7144C49.2315 35.995 49.2569 36.3012 49.333 36.5819Z" fill="white"/>
<path d="M49.4089 36.6586C49.3835 36.6586 49.3835 36.6331 49.3835 36.6331C49.4343 36.6076 49.4343 36.6331 49.4089 36.6586Z" fill="white"/>
</svg>
