<svg width="60" height="56" viewBox="0 0 60 56" fill="none" xmlns="http://www.w3.org/2000/svg">
<path fill-rule="evenodd" clip-rule="evenodd" d="M30.604 0C32.9622 0 41.0828 0.630763 44.9096 9.17344C46.1697 11.9864 45.8467 17.0821 45.5876 21.1755C45.5471 21.8251 45.507 22.4547 45.4744 23.0559L45.4607 23.3144L45.6339 23.5068C45.7039 23.5842 46.3589 24.2658 47.8158 24.3218L47.8393 24.3231L47.8637 24.3226C48.8269 24.2861 49.9118 23.9882 51.09 23.4386C51.2636 23.3577 51.4946 23.3183 51.739 23.3183C52.0175 23.3183 52.3134 23.3704 52.5575 23.4727L52.5944 23.4874C53.2122 23.7029 53.6489 24.1093 53.6556 24.4771C53.6592 24.685 53.5031 25.4341 51.313 26.2955C51.099 26.3796 50.8173 26.4691 50.4906 26.5716C49.0654 27.0223 46.9123 27.7022 46.1876 29.4025C45.7796 30.3603 45.8914 31.4906 46.5195 32.7615C46.7779 33.3621 50.846 42.4861 60 43.988C59.9982 44.0313 59.9871 44.0785 59.9626 44.1342C59.8075 44.4981 58.8213 45.7553 52.6846 46.6981C51.7243 46.8446 51.4891 47.9164 51.2163 49.1623C51.1178 49.6084 51.0176 50.0587 50.8799 50.5238C50.8378 50.6643 50.83 50.6722 50.6787 50.6722C50.6579 50.6722 50.6334 50.6722 50.6066 50.6722C50.3345 50.6722 49.9214 50.616 49.4426 50.5224C48.5706 50.3533 47.3794 50.1459 45.8565 50.1459C45.0065 50.1459 44.1309 50.2195 43.2524 50.3655C41.3745 50.6764 39.8473 51.752 38.2299 52.8904C36.0578 54.4186 33.8129 56 30.3875 56C30.2379 56 30.0919 55.995 29.9456 55.9877L29.9071 55.986L29.8684 55.989C29.7844 55.9963 29.6997 56 29.6133 56C26.1884 56 23.9425 54.4191 21.7714 52.8904C20.1537 51.752 18.6257 50.6764 16.7481 50.3655C15.8704 50.22 14.994 50.1459 14.1445 50.1459C12.6219 50.1459 11.4292 50.3779 10.559 50.5473C10.0802 50.6405 9.66564 50.7205 9.39434 50.7205C9.17214 50.7205 9.1679 50.7075 9.12091 50.5476C8.98322 50.0822 8.88256 49.6212 8.78451 49.1758C8.51109 47.9286 8.27568 46.8509 7.31592 46.7042C1.17968 45.7606 0.193323 44.5014 0.0376857 44.1385C0.0133776 44.0813 0.00244712 44.0326 0 43.9893C9.15387 42.4887 13.2211 33.3643 13.4804 32.7615C14.1096 31.4915 14.2212 30.3614 13.8119 29.4025C13.0872 27.7032 10.9344 27.0223 9.51017 26.5725C9.18274 26.4693 8.90083 26.3796 8.68663 26.2955C6.83726 25.5679 6.26838 24.835 6.35289 24.3909C6.45094 23.8787 7.34267 23.3579 8.12086 23.3579C8.29574 23.3579 8.4491 23.386 8.56248 23.4388C9.82634 24.0286 10.9801 24.3277 11.992 24.3277C13.5828 24.3277 14.2909 23.5907 14.3669 23.5065L14.5393 23.3145L14.5255 23.0574C14.4933 22.4565 14.4537 21.827 14.4119 21.1787C14.1537 17.0844 13.8306 11.9921 15.0903 9.17896C18.9029 0.667637 26.9838 0.0115334 29.3692 0.0115334C29.4279 0.0115334 30.465 0.000974653 30.465 0.000974653C30.5075 0.000649769 30.5546 0 30.604 0Z" fill="white"/>
</svg>
