<svg width="60" height="27" viewBox="0 0 60 27" fill="none" xmlns="http://www.w3.org/2000/svg">
<path fill-rule="evenodd" clip-rule="evenodd" d="M12.8016 5.71765C12.3536 5.71765 11.9903 5.96027 11.9756 6.27114L11.3684 19.4888L11.9756 25.8035C11.9903 26.1107 12.3536 26.3518 12.8016 26.3518C13.2474 26.3518 13.6114 26.1107 13.6298 25.7998L14.3136 19.4888L13.6298 6.27114C13.6114 5.96398 13.2474 5.71765 12.8016 5.71765Z" fill="white"/>
<path fill-rule="evenodd" clip-rule="evenodd" d="M20.3907 5.71765C19.8727 5.71765 19.4616 6.00923 19.4461 6.3765L18.9473 19.6899L19.4476 25.9029C19.4579 26.2665 19.8727 26.5581 20.3907 26.5581C20.9058 26.5581 21.3184 26.2717 21.3332 25.9029L21.8924 19.6899L21.3332 6.3765C21.3184 6.00923 20.9058 5.71765 20.3907 5.71765Z" fill="white"/>
<path fill-rule="evenodd" clip-rule="evenodd" d="M26.0824 3.81177C25.5099 3.81177 25.0391 4.1538 25.0287 4.57374L24.6316 19.834C24.6316 19.8414 25.0287 25.9677 25.0287 25.9677C25.0391 26.3839 25.5099 26.7244 26.0824 26.7244C26.6528 26.7281 27.1258 26.3898 27.1346 25.9714L27.5767 19.84L27.1346 4.57374C27.1258 4.1538 26.6528 3.81177 26.0824 3.81177Z" fill="white"/>
<path fill-rule="evenodd" clip-rule="evenodd" d="M52.1756 11.3094C51.1329 11.3094 50.1434 11.5142 49.2393 11.8852C48.6358 5.22476 42.8958 0 35.8995 0C34.1878 0 32.5181 0.327197 31.0459 0.882912C30.4756 1.10178 30.3194 1.31917 30.3157 1.75024V25.2075C30.3223 25.6616 30.6797 26.04 31.1343 26.0815C31.1527 26.0815 52.0385 26.0941 52.1756 26.0941C56.3675 26.0941 59.7643 22.7836 59.7643 18.7029C59.7643 14.6178 56.3675 11.3094 52.1756 11.3094Z" fill="white"/>
<path fill-rule="evenodd" clip-rule="evenodd" d="M7.11012 9.52942C6.7358 9.52942 6.43001 9.72529 6.41085 9.97978L5.68433 19.907L6.41085 26.3225C6.43001 26.5763 6.7358 26.7714 7.11012 26.7714C7.48075 26.7736 7.7858 26.5763 7.81085 26.3225L8.62948 19.907L7.81085 9.982C7.7858 9.72678 7.48075 9.52942 7.11012 9.52942Z" fill="white"/>
<path fill-rule="evenodd" clip-rule="evenodd" d="M1.41326 15.2471C1.11411 15.2471 0.871684 15.3443 0.848842 15.4734L0 19.764L0.852526 23.9144C0.873895 24.0443 1.11779 24.1407 1.41621 24.1407C1.71168 24.1407 1.95263 24.0443 1.97842 23.9144L2.94442 19.764L1.97842 15.4734C1.95263 15.3443 1.71168 15.2471 1.41326 15.2471Z" fill="white"/>
</svg>
