<svg width="61" height="53" viewBox="0 0 61 53" fill="none" xmlns="http://www.w3.org/2000/svg">
<path fill-rule="evenodd" clip-rule="evenodd" d="M35.7505 26.4077V26.6519L52.5116 32.2072L59.7991 34.4676L57.127 29.8271H60.042V23.7211H56.8841L60.042 18.592L35.7505 26.4077Z" fill="white"/>
<path fill-rule="evenodd" clip-rule="evenodd" d="M28.9489 22.1417C23.2561 23.5216 25.4854 32.4512 31.1351 31.1255C36.9624 29.7577 34.7492 20.7357 28.9489 22.1417Z" fill="white"/>
<path fill-rule="evenodd" clip-rule="evenodd" d="M52.0259 33.2464L46.4388 31.5368C45.8084 34.2747 44.4535 36.9069 42.7256 39.1082C40.9482 41.3725 38.7639 43.2727 36.2364 44.6502C21.1109 52.8948 2.7196 38.8994 6.36141 22.0114C7.06217 18.7617 8.60048 15.8087 10.6491 13.2188C13.1551 10.0508 16.3329 7.56028 19.9611 5.8381C24.2884 3.78402 29.3361 3.15898 34.0501 3.95748C40.2459 5.00697 43.9229 8.18546 48.625 11.9976C46.7874 8.11385 42.6547 4.81693 38.9084 2.90119C21 -6.25702 -1.34934 7.38873 0.0637896 28.1174C1.43857 48.2836 24.3391 59.6043 41.0947 48.6665C43.7281 46.9473 46.1573 44.6214 47.9641 42.0391C49.8112 39.3996 51.2993 36.4045 52.0259 33.2464Z" fill="white"/>
<path fill-rule="evenodd" clip-rule="evenodd" d="M42.795 30.0714L37.208 28.3617C35.3727 40.856 17.3508 39.6016 15.6579 27.629C14.0634 16.3525 24.941 8.11404 35.5076 11.1253C40.7822 12.6285 44.5005 16.744 46.4387 21.7672L51.7829 20.0576C51.308 15.293 47.0164 10.7843 43.2808 8.25377C30.7911 -0.20695 11.3256 6.8917 9.79982 22.7442C9.02942 30.7487 12.403 39.0025 20.2039 42.1727C28.9423 45.724 41.8962 40.423 42.795 30.0714Z" fill="white"/>
<path fill-rule="evenodd" clip-rule="evenodd" d="M32.8357 31.2926C31.7948 31.6956 30.8178 32.093 29.6778 31.9821C21.3987 31.1763 23.7391 17.5888 32.1069 19.7549C33.1996 20.0377 34.179 20.5667 35.0183 21.324C36.0694 22.2721 36.75 23.3691 37.2081 24.6981L42.7952 22.9884C39.7136 9.94403 19.0474 11.1887 18.5134 24.9424C18.2298 32.2488 27.896 38.1931 32.8357 31.2926Z" fill="white"/>
</svg>
