<svg width="60" height="60" viewBox="0 0 60 60" fill="none" xmlns="http://www.w3.org/2000/svg">
<path d="M30 0C13.4408 0 0 13.4408 0 30C0 46.5949 13.4408 59.9999 30 59.9999C46.5949 59.9999 59.9999 46.5591 59.9999 30C60.0358 13.4408 46.5949 0 30 0ZM43.7634 43.2974C43.2258 44.1935 42.0788 44.4444 41.1828 43.9068C34.1218 39.6057 25.2688 38.6379 14.8028 41.0035C13.7993 41.2186 12.7957 40.6093 12.5806 39.6057C12.3656 38.6021 12.9749 37.5985 13.9785 37.3476C25.4122 34.7311 35.2329 35.8423 43.1182 40.681C44.0501 41.2544 44.3369 42.4014 43.7634 43.2974ZM47.4551 35.1254C46.7741 36.2365 45.3405 36.5591 44.2293 35.9139C36.1648 30.9319 23.8709 29.4982 14.3369 32.4014C13.0824 32.7598 11.7921 32.0788 11.4337 30.8602C11.0753 29.6057 11.7563 28.3154 13.0107 27.957C23.9068 24.6595 37.4552 26.2365 46.7383 31.9354C47.7777 32.5806 48.1361 34.0143 47.4551 35.1254ZM47.7777 26.5949C38.1003 20.8602 22.1505 20.3226 12.9032 23.1183C11.4337 23.5842 9.85662 22.724 9.39067 21.2545C8.92472 19.7849 9.78493 18.2079 11.2545 17.7419C21.8638 14.5161 39.4982 15.1613 50.6093 21.7562C51.9354 22.5448 52.3655 24.2652 51.577 25.5914C50.8243 26.9534 49.1039 27.3835 47.7777 26.5949Z" fill="white"/>
</svg>
