<svg width="51" height="59" viewBox="0 0 51 59" fill="none" xmlns="http://www.w3.org/2000/svg">
<path d="M24.2486 58.969C16.8236 58.969 9.43001 58.9381 2.00505 59C0.532591 59 9.56083e-07 58.5666 9.56083e-07 57.0497C0.0626588 51.2608 0.0626588 45.5029 9.56083e-07 39.7141C9.56083e-07 38.29 0.501261 37.8257 1.91106 37.8567C5.82718 37.9495 5.35725 37.5161 5.35725 41.2619C5.38857 44.76 5.41991 48.289 5.32592 51.7871C5.29459 53.1492 5.67054 53.7064 7.17432 53.7064C18.6094 53.6445 30.0444 53.6755 41.4482 53.7064C42.8266 53.7064 43.2653 53.2421 43.2339 51.9109C43.1713 47.8247 43.2653 43.7694 43.2026 39.6831C43.1713 38.352 43.6412 37.8567 45.0197 37.8876C49.0611 37.9805 48.5598 37.5471 48.5912 41.3238C48.6225 46.4935 48.5912 51.6323 48.5912 56.8021C48.5912 58.969 48.5598 58.969 46.4295 59C39.0672 59 31.6422 58.969 24.2486 58.969Z" fill="white"/>
<path d="M38.8478 37.2994C38.8165 37.4233 38.8165 37.4852 38.8165 37.5161C38.3466 41.912 38.3152 41.9429 33.9919 41.0452C26.9428 39.6212 19.8938 38.1353 12.8448 36.7113C11.5603 36.4636 11.2471 35.9064 11.5603 34.6991C12.6569 30.3652 11.6857 30.7986 16.1657 31.6963C23.2147 33.1203 30.2637 34.6062 37.3127 36.0612C37.9706 36.2469 39.0045 36.185 38.8478 37.2994Z" fill="white"/>
<path d="M50.9723 20.4591C51.0662 20.8925 50.9096 21.1092 50.6903 21.264C49.5938 22.0688 48.5286 22.9047 47.4008 23.6476C46.4296 24.2977 46.1163 23.3071 45.7403 22.8118C42.2941 18.2921 38.8793 13.7415 35.4331 9.19091C34.1173 7.45734 32.8641 5.69281 31.4857 3.9902C30.7338 3.0615 30.7338 2.50429 31.7363 1.76133C34.9945 -0.684234 34.9632 -0.715192 37.4068 2.50429C41.6989 8.16934 45.9596 13.8034 50.2517 19.4685C50.5337 19.809 50.7843 20.1805 50.9723 20.4591Z" fill="white"/>
<path d="M17.6381 19.1899C17.8888 19.2828 18.2334 19.4066 18.578 19.5614C25.909 22.9047 33.2399 26.248 40.5709 29.5913C41.4794 29.9937 41.6987 30.4581 41.2601 31.3868C38.9418 36.1231 40.0696 35.4731 35.7776 33.5537C29.2298 30.6438 22.7447 27.5482 16.197 24.6073C14.9752 24.0501 14.7559 23.4929 15.4138 22.4094C15.8837 21.6045 16.2283 20.7377 16.6669 19.9329C16.8236 19.5614 16.9802 19.128 17.6381 19.1899Z" fill="white"/>
<path d="M25.0317 8.10743C25.5643 8.10743 25.815 8.38603 26.0656 8.63368C32.3 13.7415 38.5032 18.8494 44.769 23.8953C45.8028 24.7311 45.8028 25.3193 44.9569 26.248C42.388 29.1888 42.4193 29.2198 39.349 26.7123C33.9291 22.2855 28.5092 17.8278 23.0893 13.401C21.4916 12.1008 21.5229 12.1008 22.8387 10.522C23.3713 9.9029 23.9039 9.25281 24.4678 8.63368C24.6245 8.41699 24.8751 8.26221 25.0317 8.10743Z" fill="white"/>
<path d="M24.28 48.5058C20.3326 48.5058 16.3538 48.4748 12.4064 48.5367C11.1532 48.5677 10.6206 48.1962 10.6519 46.8651C10.7459 42.4693 10.182 43.1503 14.3488 43.1193C21.5544 43.0884 28.7287 43.1193 35.9344 43.1193C38.0334 43.1193 38.0647 43.1193 38.0647 45.1625C38.0334 49.0011 38.472 48.5058 34.6186 48.5367C31.1724 48.5367 27.7262 48.5058 24.28 48.5058Z" fill="white"/>
</svg>
