<svg width="60" height="50" viewBox="0 0 60 50" fill="none" xmlns="http://www.w3.org/2000/svg">
<path d="M46.0603 21.3354C49.8198 21.3354 52.8672 18.2013 52.8672 14.3353C52.8672 10.4692 49.8198 7.33514 46.0603 7.33514C42.3011 7.33514 39.2535 10.4692 39.2535 14.3353C39.2535 18.2013 42.3011 21.3354 46.0603 21.3354Z" fill="white"/>
<path fill-rule="evenodd" clip-rule="evenodd" d="M46.0603 0C38.3845 0 32.1207 6.40439 32.1207 14.3354V14.4099L23.2863 27.6282C23.1819 27.6282 23.0772 27.6196 22.9689 27.6107C22.8518 27.6011 22.7298 27.591 22.5982 27.591C20.4406 27.591 18.4353 28.2659 16.7716 29.4233L0.0185432 22.2582C-0.0799971 26.2326 0.19215 31.2501 1.3695 35.9075L12.4063 40.6278C13.4217 45.4558 17.6008 49.0755 22.5982 49.0755C28.3551 49.0755 33.0259 44.2722 33.0259 38.3519V37.905L45.6982 28.6708H46.0603C53.7362 28.6708 60 22.2664 60 14.3354C59.9636 6.40439 53.7362 0 46.0603 0ZM15.3764 41.8982C16.665 44.6671 19.4156 46.5808 22.5982 46.5808C27.0518 46.5808 30.6 42.8945 30.6 38.3519C30.6 33.8092 27.0156 30.123 22.5982 30.123C21.5781 30.123 20.6025 30.3196 19.7051 30.6779L24.8165 32.8639C27.868 34.169 29.2838 37.7007 27.9786 40.7522C26.6736 43.8036 23.142 45.2194 20.0904 43.9143L15.3764 41.8982ZM46.0603 23.9047C40.9189 23.9047 36.7552 19.6227 36.7552 14.3354C36.7552 9.0481 40.9189 4.766 46.0603 4.766C51.2015 4.766 55.3654 9.0481 55.3654 14.3354C55.3654 19.6227 51.2015 23.9047 46.0603 23.9047Z" fill="white"/>
</svg>
