<svg width="48" height="53" viewBox="0 0 48 53" fill="none" xmlns="http://www.w3.org/2000/svg">
<path d="M22.6674 -5.27127e-06C23.0934 1.77047 22.5395 2.97958 22.4117 4.27505C22.0283 8.37736 22.8378 12.2206 24.6272 15.9343C27.6096 22.2389 30.8049 28.5003 33.2334 35.1072C34.7246 39.1663 34.1707 42.5777 31.444 45.8596C29.4416 48.1914 27.4817 50.5664 25.0533 52.4664C24.7124 52.7255 24.4142 53.1574 23.9455 52.9414C23.3064 52.6392 23.8177 52.0346 23.7751 51.6028C23.7751 51.5164 23.7751 51.4733 23.8177 51.3869C26.7574 45.1255 24.9254 39.4686 22.0283 33.7685C19.3016 28.3707 16.7027 22.8434 14.6576 17.1002C13.0386 12.566 13.6351 8.76599 16.8731 5.18187C18.5773 3.28185 20.2815 1.46819 22.6674 -5.27127e-06Z" fill="white"/>
<path d="M7.54275 47.6733C7.58535 46.8528 7.54275 46.5506 7.62796 46.3346C9.75821 41.3255 8.77829 36.7482 6.3072 32.1277C4.17694 28.1549 2.25972 24.0526 0.725938 19.8207C-1.31911 14.0775 1.02417 8.67971 6.90367 5.95923C6.81846 7.2547 6.73325 8.42062 6.64804 9.58654C6.3072 12.9979 7.24451 16.0639 8.69308 19.0866C11.0364 24.0526 13.6353 28.889 15.2969 34.1572C16.0638 36.5323 15.8081 38.6482 14.3596 40.6778C12.4849 43.1823 10.4825 45.5142 7.54275 47.6733Z" fill="white"/>
<path d="M38.9853 5.95923C39.1131 6.17514 39.1557 6.2615 39.1557 6.30468C37.9628 12.3934 40.0504 17.7048 42.7772 22.9299C44.6944 26.6003 46.3986 30.4004 47.6341 34.3732C48.3158 36.6186 48.0602 38.5618 46.7394 40.505C44.9074 43.1823 42.7345 45.471 40.0504 47.5869C39.7522 46.1619 40.3487 45.2119 40.6043 44.2187C41.4564 41.196 41.3712 38.3459 40.0504 35.4095C37.835 30.4004 35.0656 25.564 33.2336 20.3821C31.0608 13.9911 32.8928 9.37063 38.9853 5.95923Z" fill="white"/>
</svg>
