<svg width="49" height="50" viewBox="0 0 49 50" fill="none" xmlns="http://www.w3.org/2000/svg">
<path d="M3.47202 43.6704C4.40774 43.266 5.36473 42.9042 6.25791 42.4359C7.95922 41.5633 9.3628 40.3502 10.3623 38.6901C10.8302 37.9239 10.7664 37.5408 9.91572 37.0513C4.68421 34.0929 1.34539 29.666 0.324609 23.7068C-0.930104 16.4705 1.49426 10.4686 6.87464 5.5735C10.7664 2.01921 15.4237 0.401691 20.5914 0.0824441C27.9708 -0.364502 35.0312 1.0189 41.8152 3.91341C42.0491 4.01983 42.2618 4.12624 42.4745 4.23266C42.5383 4.25394 42.5808 4.31779 42.7296 4.44549C42.198 4.70089 41.7089 4.935 41.241 5.16912C39.242 6.19071 37.5832 7.57411 36.4986 9.59601C36.1584 10.2345 36.2647 10.5538 36.9665 10.873C44.835 14.4273 49.3222 21.4507 48.9819 30.0704C48.7055 37.2854 45.0051 42.6062 39.0931 46.5223C34.9887 49.2253 30.4377 50.0979 25.6315 49.9915C18.0607 49.8425 10.979 47.778 4.30141 44.2876C4.00368 44.1386 3.64216 44.0535 3.47202 43.6704ZM12.7654 42.7977C13.85 43.1808 14.7644 43.5427 15.7002 43.8406C21.3995 45.6497 27.184 46.2031 32.9259 44.3301C40.7519 41.7549 45.2603 34.7527 44.0482 27.1546C43.0912 21.0676 39.5822 16.8961 33.6915 15.1509C27.6306 13.3419 22.1864 14.8104 17.9757 19.6204C13.9563 24.2175 13.2545 29.5383 15.6364 35.1784C16.2105 36.5618 16.2105 37.8388 15.5088 39.137C14.807 40.4566 13.8925 41.5633 12.7654 42.7977Z" fill="white"/>
</svg>
