<svg width="53" height="27" viewBox="0 0 53 27" fill="none" xmlns="http://www.w3.org/2000/svg">
<path d="M39.507 21.3871H39.2063V5.45862H39.507V21.3871Z" fill="#231F20"/>
<path d="M38.3688 0.77832H37.1016V26.2618H38.3688V0.77832Z" fill="#231F20"/>
<path d="M36.3388 21.3871H36.0381V5.45862H36.3388V21.3871Z" fill="#231F20"/>
<path d="M8.44922 21.3871H8.4707V5.45862H8.44922V21.3871Z" fill="#FBC724"/>
<path d="M6.17261 5.45862H2.11321C1.39369 7.85275 0.996338 10.3871 0.996338 13.0185C0.996338 15.9518 1.4796 18.7665 2.37095 21.3871H6.18335V5.45862" fill="#FBC724"/>
<path d="M51.7068 5.49109H41.2791V21.4196H51.4275C52.3189 18.7882 52.8129 15.9627 52.8129 13.0186C52.8129 10.398 52.4263 7.87444 51.7068 5.49109Z" fill="#ADCA2F"/>
<path d="M9.23343 5.45862H8.47095V21.3871H19.0275V5.45862H9.23343Z" fill="#E7332E"/>
<path d="M6.17261 21.3871H8.44931V5.45862H6.17261V21.3871Z" fill="#F28C25"/>
<path d="M24.3432 5.45862H19.0381V21.3871H34.234V5.45862H24.3432Z" fill="#499BD5"/>
<path d="M36.0381 21.3871H36.3388V5.45862H36.0381V21.3871Z" fill="white"/>
<path d="M39.2063 21.3871H39.507V5.45862H39.2063V21.3871Z" fill="white"/>
<path d="M37.1016 26.2618H38.3688V0.77832H37.1016V26.2618Z" fill="white"/>
</svg>
