<svg width="62" height="60" viewBox="0 0 62 60" fill="none" xmlns="http://www.w3.org/2000/svg">
<path d="M4.14024e-07 1.6646e-06C20.7028 1.6646e-06 41.2972 1.6646e-06 62 1.6646e-06C62 15.1364 62 30.2455 62 45.6273C61.4845 45.6273 60.9147 45.6273 60.3449 45.6273C45.4757 45.6273 30.6066 45.6273 15.7374 45.6C14.7877 45.6 14.1637 45.8727 13.4853 46.5273C9.38818 50.7 5.23676 54.8182 1.11247 58.9636C0.814004 59.2636 0.488403 59.5636 4.14024e-07 60C4.14024e-07 39.9 4.14024e-07 20.0455 4.14024e-07 1.6646e-06ZM29.6569 10.3909C26.5637 7.8 23.1177 6.6 19.3462 6.32727C15.8188 6.08182 12.4 6.43636 9.36105 8.53636C4.31422 12.0273 3.93435 20.6727 10.7177 23.5091C12.2372 24.1364 13.8652 24.5727 15.4661 25.0091C17.3654 25.5273 19.3462 25.8818 21.2184 26.5091C21.8153 26.7 22.6022 27.5727 22.5751 28.0909C22.5479 28.7455 21.8967 29.5636 21.2726 29.9182C20.54 30.3545 19.5632 30.4909 18.695 30.5455C14.842 30.6818 11.5589 29.2909 8.62845 26.6455C7.27177 28.6364 5.96937 30.5727 4.66696 32.4818C9.52385 37.3909 19.9702 38.8364 25.7768 35.4818C29.0328 33.6 30.4438 30.6545 30.3895 27C30.3352 23.2364 28.246 20.8636 24.9085 19.5C23.7418 19.0091 22.5208 18.6545 21.3269 18.3273C19.2376 17.7545 17.1212 17.3182 15.0319 16.7455C14.1637 16.5 13.2954 16.0636 13.4039 14.8909C13.5125 13.6636 14.435 13.1727 15.439 13.0909C16.6871 13.0091 18.0166 12.9 19.2105 13.2545C21.4083 13.9091 23.5247 14.8636 25.7768 15.7364C26.9164 14.1545 28.246 12.3273 29.6569 10.3909ZM40.1847 13.3636C40.1847 21.2727 40.1847 28.9909 40.1847 36.7091C42.7352 36.7091 45.1501 36.7091 47.7549 36.7091C47.7549 28.9091 47.7549 21.2182 47.7549 13.3909C50.6311 13.3909 53.3173 13.3909 56.2206 13.3909C56.2206 11.5636 56.1663 9.84545 56.2477 8.12727C56.302 7.00909 55.9764 6.62727 54.8096 6.65455C47.565 6.70909 40.3475 6.68182 33.1028 6.68182C32.6687 6.68182 32.2346 6.73636 31.8004 6.76363C31.8004 9.02727 31.8004 11.1545 31.8004 13.3636C34.5681 13.3636 37.2543 13.3636 40.1847 13.3636Z" fill="white"/>
</svg>
