<svg width="60" height="46" viewBox="0 0 60 46" fill="none" xmlns="http://www.w3.org/2000/svg">
<path d="M16.6666 13.2907C16.6666 5.96605 22.6191 0 30 0C37.3809 0 43.3927 5.96605 43.4522 13.2317V15.949L37.2618 17.7211L33.1546 15.949V12.9954C33.1546 11.2824 31.7262 9.86466 30 9.86466C28.2736 9.86466 26.8452 11.2824 26.8452 12.9954V17.7801V20.9108V31.8978C26.8452 39.3998 20.5357 45.484 12.9166 45.1887C5.65477 44.9524 0 38.75 0 31.5434V23.569H10.4167V31.9569C10.4167 33.729 12.0238 35.2057 13.869 35.0285C15.4761 34.8513 16.6666 33.3746 16.6666 31.7797V17.8392V13.2907Z" fill="white"/>
<path d="M43.3334 32.1341V23.8642L37.2618 25.6954L33.0953 23.8642V32.075C33.0953 39.4588 39.1071 45.4839 46.5475 45.4839C53.988 45.4839 60 39.5178 60 32.1341V23.8051H49.6428V32.1341C49.6428 33.8471 48.2144 35.2647 46.488 35.2647C44.7618 35.2647 43.3334 33.8471 43.3334 32.1341Z" fill="white"/>
</svg>
