<svg width="61" height="40" viewBox="0 0 61 40" fill="none" xmlns="http://www.w3.org/2000/svg">
<path d="M3.88322 21.8169C3.88322 22.2341 4.01181 22.6513 4.29469 22.9381C4.57757 23.0684 4.98904 23.2249 5.52909 23.2249C5.81197 23.2249 6.06914 23.2249 6.35203 23.0945L6.76349 22.8077C6.89207 22.5209 6.89207 22.2602 6.89207 22.1037C6.89207 21.8169 6.89207 21.6865 6.76349 21.5562C6.6349 21.4258 6.48061 21.2694 6.22344 21.2694L5.2462 21.139C4.96332 21.139 4.55186 21.0086 4.01181 21.0086C3.88322 21.0086 3.60034 20.8783 3.31745 20.8783C3.03457 20.7479 2.6231 20.5914 2.21164 20.4611L1.3887 19.6267C1.10582 19.2095 0.977231 18.7924 0.977231 18.0884C0.977231 17.254 1.10582 16.5501 1.51728 16.0025C1.80017 15.455 2.21164 15.0117 2.75169 14.751C3.85751 14.2034 5.09191 13.9166 6.60919 13.9166C7.30354 13.9166 7.84359 13.9166 8.40936 14.047C9.10371 13.9166 9.64376 14.047 10.2095 14.3338C10.7496 14.6206 11.1868 15.0378 11.4439 15.455C11.7268 16.0025 11.8554 16.5761 11.7268 17.4105H7.86931C7.86931 16.9933 7.86931 16.5761 7.58642 16.4197C7.30354 16.2632 6.89208 16.1329 6.60919 16.1329C6.32631 16.1329 6.06914 16.1329 5.78626 16.2632C5.50337 16.3936 5.37479 16.6804 5.37479 17.0976C5.37479 17.6451 5.78626 17.9319 6.35203 17.9319C7.99789 18.0623 9.25801 18.4795 10.0809 19.0531C10.9039 19.6007 11.3153 20.4611 11.3153 21.5822C11.3153 22.9902 10.7753 23.9549 9.79806 24.7893C8.82083 25.6236 7.30354 25.9104 5.52909 25.9104C4.98904 25.9104 4.29469 25.9104 3.72892 25.7801C3.03457 25.6497 2.49452 25.4933 1.92875 25.2325C1.36298 24.9718 0.951521 24.5286 0.694354 23.981C0.154303 23.4335 0 22.7295 0 21.8951C0.0257167 21.8169 3.88322 21.8169 3.88322 21.8169Z" fill="white"/>
<path d="M22.9136 25.5976H18.7733L19.1847 24.0593C18.2075 25.1804 16.9731 25.8844 15.6101 25.8844C14.6329 25.8844 13.8099 25.5976 13.1156 25.1804C12.4212 24.7632 12.0098 23.9289 12.0098 22.8077C12.0098 22.3906 12.1383 21.5562 12.4212 20.435C12.7041 19.3139 13.1156 17.0716 13.6556 13.9949H17.9246L16.5359 20.0179C16.4073 20.5654 16.4073 21.0087 16.4073 21.2694C16.4073 21.5562 16.5359 21.8169 16.8188 21.9734C17.1017 22.1037 17.3588 22.2602 17.6417 22.2602C18.1818 22.2602 18.4647 22.1298 18.7475 21.843C19.0304 21.5562 19.159 21.2955 19.2876 21.0087L19.6991 19.8875C19.8276 19.4703 19.8276 19.0531 19.9819 18.7663L20.9592 14.0209H25.2281C25.2796 13.9949 22.9136 25.5976 22.9136 25.5976Z" fill="white"/>
<path d="M26.6425 13.9949H30.7829L30.5 15.4028C31.1943 14.2817 32.1459 13.7341 33.5346 13.7341C34.3575 13.7341 34.9233 13.8645 35.4633 14.1513C36.0034 14.4381 36.4405 14.8553 36.6977 15.2725C36.9806 15.6896 37.2378 16.2633 37.3921 16.8108C37.5207 17.3584 37.5207 17.932 37.5207 18.4795C37.5207 20.3047 37.1092 21.9734 36.2862 23.5117C35.8748 24.2157 35.309 24.7632 34.6404 25.3369C33.946 25.754 33.1231 26.0408 32.1459 26.0408C31.6058 26.0408 30.9115 25.9105 30.3457 25.754C29.8056 25.4672 29.2399 25.05 28.6998 24.3461L27.7226 29.5086H23.4536C23.4793 29.5086 26.6425 13.9949 26.6425 13.9949ZM31.1943 22.6513C31.6058 22.6513 32.0173 22.5209 32.3001 22.2341C32.583 21.9473 32.8402 21.6866 32.9945 21.3998C33.2774 20.5654 33.406 19.731 33.406 19.0271C33.406 18.4795 33.2774 17.9059 33.1231 17.4887C32.8402 17.0715 32.4287 16.9412 31.8887 16.9412C31.4772 16.9412 31.0658 17.0715 30.7829 17.3584C30.5 17.6452 30.2428 18.0623 30.0885 18.4795C29.8056 19.4703 29.6771 20.1482 29.6771 20.8522V21.2694C29.6771 21.3998 29.8056 21.6866 29.8056 21.9734C29.9342 22.2602 30.0885 22.3905 30.3457 22.5209C30.5257 22.5209 30.7829 22.6513 31.1943 22.6513Z" fill="white"/>
<path d="M49.6847 22.2341C49.6847 22.3645 49.6847 22.3645 49.5561 22.5209C49.5561 22.6513 49.4275 22.8077 49.2732 23.0685C49.1446 23.4857 48.7331 23.9028 48.296 24.32C47.8845 24.7372 47.3187 25.1544 46.4958 25.4412C45.8014 25.728 44.6956 25.8583 43.5898 25.9887C41.6611 25.9887 40.2724 25.4412 39.3208 24.4504C38.4979 23.4596 37.9321 22.3645 38.0864 20.8262C38.0864 19.4182 38.3693 18.297 38.7808 17.4627C39.1922 16.6283 39.758 15.794 40.4267 15.2203C41.121 14.6728 41.8154 14.2296 42.6383 13.9688C43.4612 13.682 44.1556 13.682 44.8499 13.682C46.2386 13.682 47.3444 14.0992 48.5789 14.8032C49.6847 15.6375 50.379 16.889 50.379 18.7142C50.379 19.2617 50.379 19.9657 50.0961 20.8001H42.0982C42.0982 21.5041 42.2268 21.9212 42.5097 22.3384C42.7926 22.7556 43.2041 23.0424 43.8984 23.0424C44.8756 23.0424 45.4157 22.7556 45.5443 22.2081C45.5443 22.2341 49.6847 22.2341 49.6847 22.2341ZM46.2386 18.4535V18.0363C46.2386 17.6191 46.11 17.2019 45.8272 16.9151C45.5443 16.6283 45.1328 16.4979 44.5928 16.4979C43.3584 16.4979 42.664 17.2019 42.2525 18.4535H46.2386Z" fill="white"/>
<path d="M52.3078 13.9949H56.5767L56.1653 15.82C56.5767 15.116 57.1425 14.6988 57.6825 14.2817C58.3769 13.8645 58.9169 13.7341 59.4827 13.7341C60.1771 13.7341 60.7171 13.7341 61 13.8645L60.1771 17.7755C59.637 17.6452 59.0712 17.4887 58.5312 17.4887C57.554 17.4887 56.8853 17.7755 56.3196 18.1927C55.7795 18.7402 55.4966 19.6007 55.2137 20.7218L54.2365 25.6237H49.8132C49.839 25.5976 52.3078 13.9949 52.3078 13.9949Z" fill="white"/>
<path d="M13.5527 12.5869C13.5527 11.7525 13.5527 10.2142 13.6813 9.22341C13.8099 8.10225 14.7871 7.26789 15.7387 6.85072L19.1847 5.85993C20.4191 5.57312 21.5249 5.15594 22.6307 4.6084C24.4309 3.77405 25.9482 2.36607 27.7226 1.24491C28.957 0.410555 30.4743 -0.293427 31.9916 0.12375C33.5089 0.410558 34.6147 1.37528 35.8491 2.20963C37.2378 3.20043 38.4722 4.03478 39.8609 4.73877C41.7897 5.72956 44.0013 5.9903 46.0586 6.69428C47.293 7.11146 48.3989 7.68507 48.5532 9.22341C48.6817 10.2142 48.6817 12.4305 48.836 13.2909C47.4473 12.5869 46.2129 12.3001 44.6957 12.3001C44.5671 11.5961 44.5671 10.0578 44.1556 9.64059C43.8727 9.22341 43.3327 9.09304 42.9212 8.9366C41.4039 8.51942 39.8866 7.94581 38.4979 7.2679C36.9806 6.56391 35.7462 5.44275 34.3575 4.6084C33.3803 3.90441 32.4288 3.20042 31.1944 3.20042C29.96 3.20042 28.8542 4.03478 27.7483 4.73877C26.5139 5.57312 25.1252 6.69428 23.7365 7.2679C22.6307 7.81544 21.5249 8.2587 20.4191 8.51943C19.5962 8.80624 18.7732 8.9366 18.0789 9.51022C17.3845 10.0838 17.796 11.7525 17.6674 12.5869C17.6931 12.5869 13.5527 12.5869 13.5527 12.5869Z" fill="white"/>
<path d="M19.8788 27.1359C19.8788 27.1359 19.8788 27.2663 20.0074 27.5531C21.9362 31.3337 24.4307 34.5408 27.8767 36.7831C28.6996 37.3306 29.8055 38.0346 30.7827 38.0346C31.8885 38.165 32.84 37.6174 33.8173 37.0438C34.6402 36.6266 35.4631 36.053 36.1575 35.3751C37.6748 34.1236 39.0635 32.5852 40.1693 30.8905C40.8636 29.8997 41.4037 28.935 41.8152 27.8138L42.2266 26.823C43.2039 26.9534 44.284 27.1098 45.6727 26.823C44.5668 28.7785 42.921 31.7248 41.5323 33.3935C39.4749 35.7662 36.9804 37.8782 34.0744 39.1297C32.5572 39.8337 30.757 40.2509 29.1111 39.8337C27.311 39.2861 25.6651 38.165 24.1478 37.0438C22.6305 35.9227 21.2418 34.6711 20.0074 33.1328C18.773 31.5945 17.7958 29.9257 16.8443 28.231C16.7157 27.9442 16.1499 26.9794 16.1499 26.9794H19.8788V27.1359Z" fill="white"/>
</svg>
