<svg width="52" height="48" viewBox="0 0 52 48" fill="none" xmlns="http://www.w3.org/2000/svg">
<path d="M12.8607 37.6138C11.4694 36.7011 10.0565 35.8958 8.77301 34.9402C5.20303 32.2558 2.57138 28.8735 1.50362 24.4819C0.177009 19.0487 1.49283 14.1739 4.97653 9.86818C8.0396 6.07786 12.0518 3.65119 16.6464 2.12647C20.7233 0.773547 24.9081 0.344047 29.1791 0.709121C34.3992 1.13862 39.2203 2.70629 43.5237 5.73426C46.7594 8.0106 49.3371 10.8668 50.7608 14.5927C53.0149 20.4768 52.055 25.9529 48.2586 30.9136C45.0013 35.1764 40.5685 37.7641 35.467 39.2889C31.142 40.5773 26.7308 40.8995 22.2548 40.3089C22.0607 40.2874 21.8018 40.3948 21.6293 40.5129C18.6309 42.5208 15.6541 44.5395 12.6666 46.5581C12.2999 46.8051 11.9116 47.0628 11.4909 47.2131C11.1997 47.3205 10.7683 47.3527 10.5526 47.2024C10.38 47.095 10.3477 46.6118 10.4232 46.3434C11.1782 43.5731 11.9763 40.8028 12.7528 38.0433C12.796 37.8608 12.8391 37.689 12.8607 37.6138ZM38.5409 19.1776C38.5193 18.8769 38.4977 18.7159 38.4977 18.5441C38.4977 17.7602 38.5085 16.9656 38.4977 16.1818C38.4869 15.2584 37.8937 14.6249 37.074 14.6249C36.222 14.6249 35.618 15.2691 35.6072 16.2033C35.6072 19.446 35.6072 22.678 35.6072 25.9207C35.6072 26.8334 36.1896 27.4669 37.0201 27.4884C37.8829 27.5098 38.4761 26.8871 38.4869 25.9314C38.4977 25.0724 38.5085 24.2134 38.4869 23.3544C38.4761 22.9035 38.6595 22.6243 39.0693 22.3988C39.2096 22.5813 39.339 22.7424 39.4684 22.9142C40.4607 24.2242 41.4529 25.5449 42.456 26.8549C42.8982 27.4239 43.5561 27.6065 44.1817 27.3488C44.7964 27.1018 45.1523 26.5327 45.0445 25.8455C44.9906 25.5341 44.818 25.212 44.6239 24.9436C43.5885 23.5477 42.5423 22.1518 41.4745 20.7882C41.2049 20.4446 41.2588 20.2728 41.5392 19.9936C42.4776 19.0809 43.4051 18.1575 44.3326 17.2233C44.9798 16.5791 45.0121 15.8382 44.4297 15.2477C43.8257 14.6464 43.1031 14.6678 42.4452 15.3228C41.3127 16.4503 40.1803 17.5777 39.0478 18.6944C38.9184 18.834 38.7781 18.9628 38.5409 19.1776ZM26.7847 26.2643C26.6769 25.8563 26.6014 25.4268 26.4504 25.0295C25.3395 22.0874 24.2178 19.1561 23.0961 16.2248C22.7078 15.2154 21.9636 14.6249 21.09 14.6249C20.2272 14.6249 19.4722 15.2262 19.0947 16.2355C17.9946 19.1131 16.8837 22.0015 15.7943 24.8899C15.6541 25.255 15.5571 25.6415 15.4816 26.0173C15.3414 26.7367 15.6326 27.2092 16.2581 27.3917C17.1533 27.6494 17.8759 27.4132 18.1456 26.7582C18.3397 26.2965 18.5231 25.8348 18.6741 25.3623C18.7711 25.0724 18.9221 24.9436 19.2565 24.9436C20.4752 24.9651 21.694 24.9651 22.9235 24.9436C23.2471 24.9436 23.4089 25.051 23.5059 25.3516C23.6677 25.8455 23.8511 26.3287 24.056 26.8012C24.3041 27.3917 24.962 27.6065 25.8248 27.4132C26.4504 27.2844 26.72 26.9408 26.7847 26.2643ZM10.9948 17.4488C10.9948 17.7602 10.9948 17.9642 10.9948 18.179C10.9948 20.7882 11.0056 23.3974 10.9948 26.0173C10.9948 26.6079 11.1997 27.0589 11.7282 27.338C12.7636 27.8857 13.8853 27.177 13.8853 25.9636C13.8961 23.3544 13.8853 20.7452 13.8853 18.1253C13.8853 17.9213 13.8853 17.7065 13.8853 17.4381C14.6403 17.4381 15.3414 17.4381 16.0316 17.4381C16.97 17.4381 17.5739 16.8797 17.5739 16.0315C17.5739 15.1832 16.9807 14.6249 16.0316 14.6249C13.6265 14.6141 11.2213 14.6141 8.80537 14.6249C7.87782 14.6249 7.24148 15.2154 7.24148 16.0422C7.24148 16.869 7.87782 17.4381 8.81616 17.4381C9.51721 17.4488 10.2075 17.4488 10.9948 17.4488ZM30.4949 24.6859C30.4949 24.4067 30.4949 24.192 30.4949 23.988C30.4949 21.4002 30.4949 18.8018 30.4949 16.214C30.4949 15.2906 29.8801 14.6464 29.0281 14.6356C28.176 14.6249 27.5397 15.2799 27.5289 16.1926C27.5181 19.4138 27.5181 22.6243 27.5289 25.8455C27.5289 26.7475 28.0574 27.2951 28.9634 27.3058C30.5057 27.3273 32.048 27.3273 33.5903 27.3058C34.4208 27.2951 35.014 26.726 35.0248 26.0066C35.0248 25.255 34.41 24.7074 33.558 24.6966C32.5657 24.6752 31.5735 24.6859 30.4949 24.6859Z" fill="black"/>
<path d="M22.5785 22.388C21.5755 22.388 20.6479 22.388 19.6233 22.388C20.0979 21.0243 20.5616 19.7144 21.0254 18.3937C21.0685 18.3829 21.1117 18.3829 21.1548 18.3722C21.6186 19.6929 22.0932 21.0136 22.5785 22.388Z" fill="black"/>
</svg>
