<svg width="60" height="59" viewBox="0 0 60 59" fill="none" xmlns="http://www.w3.org/2000/svg">
<mask id="mask0" mask-type="alpha" maskUnits="userSpaceOnUse" x="0" y="1" width="40" height="39">
<path d="M39.54 39.262H0V1H39.54V39.262Z" fill="white"/>
</mask>
<g mask="url(#mask0)">
<path fill-rule="evenodd" clip-rule="evenodd" d="M35.06 16.639C34.47 16.626 33.86 16.687 33.292 16.839C32.907 16.939 32.536 17.087 32.186 17.273C31.25 17.773 30.4 18.573 30.098 19.593L30.046 19.769C30.03 19.867 30.012 19.935 30.006 20.003C29.964 20.419 29.529 23.106 28.484 25.003C28.064 25.767 27.594 26.517 27.034 27.223C26.47 27.923 25.849 28.598 25.079 29.165C24.699 29.441 24.262 29.725 23.779 29.885C23.297 30.055 22.754 30.103 22.253 30.031C21.748 29.968 21.298 29.788 20.866 29.637C20.528 29.515 20.224 29.41 19.929 29.374C19.929 29.374 19.889 29.374 19.869 29.372C19.492 29.357 19.109 29.5 18.672 29.657C18.24 29.809 17.782 29.967 17.276 30.03C16.774 30.102 16.232 30.053 15.751 29.885C15.266 29.725 14.841 29.462 14.461 29.185C13.689 28.62 13.069 27.945 12.503 27.245C11.946 26.538 11.463 25.793 11.053 25.025C10.196 23.422 9.807 21.795 9.533 20.025C9.518 19.958 9.508 19.888 9.493 19.791L9.44 19.613C8.948 17.852 6.91 16.842 5.168 16.674C5.058 16.664 4.666 16.661 4.495 16.66C4.449 16.66 4.413 16.623 4.413 16.58V16.116C4.413 16.059 4.457 16.01 4.515 16.002C6.198 15.767 7.768 16.16 9.035 17.06C9.07 17.084 9.105 17.11 9.138 17.135L9.512 17.437C9.592 17.511 9.667 17.584 9.742 17.657C9.774 17.519 9.81 17.379 9.849 17.239C9.909 17.027 9.953 16.919 10.027 16.702C10.172 16.335 10.352 15.98 10.577 15.652C11.024 14.998 11.664 14.476 12.347 14.185C13.032 13.887 13.727 13.797 14.35 13.797C15.718 13.797 17.203 14.695 17.68 15.054C17.742 15.101 17.775 15.17 17.775 15.244V15.806C17.775 15.89 17.687 15.946 17.609 15.91C16.767 15.52 15.579 14.926 14.392 15.02C13.902 15.06 13.402 15.175 12.954 15.403C11.332 16.225 10.997 18.307 11.027 19.891C11.031 20.134 11.039 20.216 11.039 20.216C11.129 21.606 11.512 23.083 12.152 24.521C12.479 25.254 12.874 25.977 13.34 26.666C13.808 27.349 14.357 28.006 14.992 28.536C15.634 29.073 16.382 29.411 17.189 29.319C17.592 29.274 18.005 29.143 18.433 28.999C18.776 28.882 19.183 28.717 19.618 28.683C19.618 28.683 19.635 28.68 19.648 28.68C20.193 28.656 20.695 28.838 21.112 28.98C21.539 29.124 21.942 29.276 22.346 29.32C23.152 29.413 23.91 29.053 24.552 28.516C25.187 27.986 25.736 27.33 26.202 26.646C26.67 25.958 27.065 25.236 27.392 24.502C28.032 23.062 28.372 21.296 28.466 20.192C28.596 18.688 28.433 16.869 27.188 15.814C26.181 14.961 24.891 14.862 23.64 15.164C23.132 15.288 22.308 15.568 21.53 15.926C21.465 15.956 21.392 15.911 21.392 15.843V15.256C21.392 15.17 21.436 15.09 21.512 15.044C22.202 14.624 23.572 13.928 24.979 13.814C25.736 13.754 26.512 13.87 27.195 14.168C27.879 14.458 28.52 14.981 28.967 15.636C29.192 15.963 29.372 16.316 29.517 16.686C29.59 16.902 29.637 17.01 29.694 17.222C29.734 17.362 29.77 17.502 29.802 17.64L30.03 17.42C30.35 17.162 30.67 16.92 31.036 16.722C31.652 16.385 32.328 16.15 33.026 16.028C33.373 15.966 33.726 15.933 34.081 15.93C34.257 15.928 34.434 15.937 34.611 15.947C34.754 15.955 34.971 15.984 35.071 15.999C35.104 16.004 35.127 16.029 35.127 16.099V16.577C35.127 16.613 35.097 16.642 35.06 16.641V16.639ZM8.746 13.392C9.168 13.364 9.586 13.827 9.678 14.427C9.768 15.027 9.502 15.537 9.078 15.565C8.658 15.595 8.238 15.13 8.148 14.53C8.058 13.93 8.322 13.42 8.745 13.392H8.746ZM18.385 12.986C18.387 12.902 18.451 12.836 18.528 12.836H21.042C21.146 12.836 21.216 12.954 21.172 13.056C21.062 13.31 20.732 14.126 20.636 15.106C20.549 16.011 20.616 16.861 20.656 17.086C20.671 17.183 20.603 17.27 20.513 17.269L19.168 17.259C19.11 17.259 19.058 17.221 19.038 17.162C18.925 16.855 18.584 15.884 18.475 15.144C18.391 14.57 18.37 13.621 18.385 12.986ZM29.858 14.408C29.951 13.808 30.368 13.344 30.79 13.373C31.213 13.403 31.48 13.911 31.388 14.513C31.296 15.113 30.878 15.575 30.456 15.547C30.034 15.517 29.766 15.009 29.858 14.409V14.408ZM19.77 0.998047C8.85 0.999047 0 9.56605 0 20.132C0 30.696 8.85 39.262 19.77 39.262C30.688 39.262 39.54 30.695 39.54 20.129C39.54 9.56305 30.688 0.998047 19.77 0.998047Z" fill="white"/>
</g>
</svg>
