<svg width="57" height="57" viewBox="0 0 57 57" fill="none" xmlns="http://www.w3.org/2000/svg">
<path d="M44.9757 28.4677C44.9757 35.7046 45.0501 42.5723 44.9385 49.44C44.8641 53.6492 41.2917 56.9354 36.8635 56.9723C27.4117 57.0092 17.9599 57.0092 8.47086 56.9723C3.74495 56.9354 0.0981863 53.4646 0.0609745 48.7385C-0.0134493 37.3661 -0.0506566 25.9938 0.135403 14.6215C0.172615 12.9969 1.21454 11.1877 2.25647 9.85846C5.12179 6.20308 8.69413 3.21231 12.8991 1.21846C14.3503 0.516926 16.0621 0.11077 17.6622 0.0738473C23.9882 -0.036922 30.3514 -1.12515e-06 36.6775 0.036922C40.5475 0.036922 43.7105 2.43692 44.7152 5.98154C45.0873 7.23692 44.9385 8.19693 43.8221 9.04615C42.9663 9.67385 42.2592 10.4492 41.2545 11.3723C41.2545 10.0431 41.2917 8.97231 41.2545 7.93846C41.1801 5.72308 39.4311 3.91384 37.2728 3.91384C30.5003 3.87692 23.7277 3.91384 16.9552 3.91384C16.7691 3.91384 16.583 3.98769 16.2481 4.06154C16.2481 5.46462 16.2481 6.8677 16.2481 8.23385C16.2109 12.0738 14.2387 14.0308 10.3687 14.0677C8.2848 14.0677 6.20093 14.0677 3.96822 14.0677C3.96822 14.7692 3.96822 15.2862 3.96822 15.8031C3.96822 26.6215 3.96822 37.4769 3.96822 48.2954C3.96822 51.5815 5.53112 53.1323 8.88019 53.1323C18.1087 53.1323 27.3001 53.1323 36.5286 53.1323C39.6172 53.1323 41.2917 51.4708 41.2917 48.3692C41.2917 43.4215 41.3289 38.5108 41.2545 33.5631C41.2173 32.2708 41.5894 31.3477 42.5941 30.5723C43.3384 29.9815 44.0454 29.3169 44.9757 28.4677Z" fill="white"/>
<path d="M21 39.6309C21.5605 38.1547 22.0837 36.7153 22.6442 35.239C24.5873 30.0721 28.4735 26.4552 32.5092 22.9122C37.9275 18.1512 43.1589 13.2427 48.5024 8.40788C50.595 6.48873 51.4171 6.52563 53.3229 8.5555C54.2197 9.51507 55.1165 10.4377 56.0133 11.4342C57.3585 12.9474 57.3585 13.7593 55.8265 15.1249C49.7356 20.6978 43.4578 26.1231 37.5538 31.8805C33.4434 35.8665 28.6603 38.3761 23.1673 39.7786C22.6068 39.9262 22.0463 39.9262 21.4858 40C21.2989 39.8524 21.1495 39.7417 21 39.6309ZM28.7351 29.8507C27.8756 31.3638 27.0909 32.6187 26.4183 33.9104C26.0446 34.6485 26.8667 35.6081 27.5767 35.3128C28.9966 34.7962 30.3792 34.0949 31.986 33.3568C30.865 32.1389 29.9308 31.1424 28.7351 29.8507Z" fill="white"/>
<path d="M23.0546 43.0001C27.1017 43.0001 31.1489 43.0001 35.196 43.0001C36.2262 43.0001 37.0356 43.0812 36.9988 44.5406C36.9988 45.9189 36.2262 46 35.2696 46C27.1385 45.9595 18.9707 45.9595 10.8396 46C9.80943 46 9 45.9189 9 44.4595C9.03679 42.9596 9.91981 43.0001 10.8764 43.0001C14.9603 43.0406 19.0075 43.0001 23.0546 43.0001Z" fill="white"/>
<path d="M33 19.1065C31.6244 20.172 30.5385 21.051 28.3303 20.9977C22.6833 20.8645 17.0362 20.9444 11.3891 20.9444C10.9548 20.9444 10.5204 20.9178 10.1222 20.9178C9.1448 20.9178 9 20.4117 9 19.8524C9 19.2397 9.43439 19 10.267 19C17.6154 19 24.9638 19 32.3122 19C32.4932 19 32.638 19.0533 33 19.1065Z" fill="white"/>
<path d="M27 25.04C26.2963 25.96 25.7778 26.72 25.1481 27.36C24.8519 27.68 24.3704 27.96 23.963 27.96C19.4445 28 14.963 27.96 10.4444 28C9.44444 28 9 27.52 9 26.48C9 25.6 9.25926 25 10.2593 25C15.8148 25.08 21.3333 25.04 27 25.04Z" fill="white"/>
<path d="M22 31.04C21.0027 34 21.0027 34 18.5452 34C15.9096 34 13.2384 33.96 10.6027 34C9.56986 34 9 33.6 9 32.4C9 31.2 9.67671 31 10.6027 31C14.3781 31.04 18.1178 31.04 22 31.04Z" fill="white"/>
<path d="M19 37.0065C18.9306 38.0295 18.8958 38.9296 18.8264 39.9935C15.7708 39.9935 12.8195 40.0344 9.83334 39.9116C9.52084 39.9116 9 38.9705 9 38.4795C9 37.9885 9.55556 37.0884 9.86805 37.0884C12.8889 36.9656 15.9097 37.0065 19 37.0065Z" fill="white"/>
<path d="M31 39.971C32.5676 38.9955 33.9 38.153 35.2716 37.3991C35.7027 37.1774 36.2513 37.133 36.7216 37C36.7999 37.6652 37.1135 38.3747 36.9567 38.9511C36.8391 39.3946 36.1729 39.8824 35.7418 39.9267C34.2527 40.0597 32.7635 39.971 31 39.971Z" fill="white"/>
</svg>
