<svg width="60" height="60" viewBox="0 0 60 60" fill="none" xmlns="http://www.w3.org/2000/svg">
<path d="M2.71934 48.8189C3.06702 48.1866 3.4147 47.6404 3.73341 47.0656C4.74748 45.1685 5.76154 43.3002 6.71766 41.4032C7.03637 40.7708 7.21021 40.0522 7.35508 39.3624C7.55789 38.4714 7.29713 37.6378 6.71766 36.948C6.10922 36.2007 5.44284 35.4821 4.80543 34.7347C2.89319 32.4353 1.3576 29.9346 0.604292 27.0028C-0.728482 21.8578 0.16969 17.0864 3.03805 12.6312C5.18208 9.32578 8.10838 6.79638 11.4983 4.78436C15.4097 2.48491 19.6687 1.10523 24.1596 0.444137C27.2598 -0.0157534 30.3889 -0.130726 33.489 0.156706C39.9211 0.760312 45.8606 2.68611 51.1048 6.53769C54.2919 8.89464 56.8415 11.7689 58.4351 15.3906C60.666 20.4494 60.4342 25.5082 58.2323 30.5095C56.349 34.7922 53.1909 37.9827 49.2505 40.4546C45.8317 42.5816 42.0651 43.9038 38.0958 44.6511C35.1115 45.1973 32.0983 45.4272 29.0561 45.2835C27.4915 45.226 25.956 45.0535 24.4204 44.8811C22.5081 44.7086 20.6249 44.4787 18.7126 44.5649C17.3219 44.6224 16.0181 45.0823 14.7143 45.4559C11.2085 46.5194 7.70276 47.5542 4.16801 48.589C3.82033 48.7039 3.4147 48.7327 3.03805 48.7902C2.9801 48.8189 2.89318 48.8189 2.71934 48.8189ZM10.0206 43.1852C10.1075 43.1565 10.2524 43.1278 10.3973 43.099C12.0777 42.5816 13.7582 42.0355 15.4386 41.5469C17.206 41.0295 19.0024 40.7996 20.8567 40.972C23.2614 41.1732 25.6952 41.4319 28.1 41.6044C31.5768 41.8631 35.0246 41.6619 38.4435 40.972C41.9492 40.2534 45.1943 38.9025 48.1495 36.9192C50.902 35.0797 53.104 32.7227 54.6396 29.7622C56.32 26.5429 56.7546 23.1225 56.0882 19.6158C55.6826 17.4314 54.6396 15.4768 53.3068 13.7235C51.2207 10.9929 48.5841 8.86589 45.513 7.31376C43.1082 6.0778 40.6165 5.07179 37.9799 4.49693C34.7059 3.77835 31.374 3.5484 28.0131 3.7496C25.3765 3.89332 22.7399 4.20949 20.2192 5.0143C15.6125 6.4802 11.3824 8.6072 8.07941 12.2288C5.67462 14.8445 4.02314 17.805 3.76238 21.4267C3.64649 23.0075 3.67546 24.6171 4.13904 26.1693C4.97926 28.9286 6.48588 31.2856 8.45606 33.4126C9.52808 34.5623 10.5711 35.712 10.8029 37.3504C10.8319 37.5228 10.8609 37.6953 10.9188 37.8965C11.1216 38.5863 11.1216 39.2762 10.9188 39.9947C10.6291 40.972 10.3393 42.0643 10.0206 43.1852Z" fill="white"/>
<path d="M14.1059 51.3483C16.5397 51.3483 18.4519 53.2741 18.4519 55.6597C18.4519 58.0742 16.5107 59.9712 14.048 59.9712C11.6432 59.9712 9.73096 58.0454 9.73096 55.6023C9.73096 53.2741 11.7011 51.3483 14.1059 51.3483Z" fill="white"/>
<path d="M29.8963 60C27.4915 60 25.5503 58.0742 25.5503 55.6597C25.5503 53.2453 27.4915 51.3483 29.9542 51.3483C32.359 51.3483 34.2713 53.2741 34.2713 55.7172C34.2713 58.1029 32.3011 60 29.8963 60Z" fill="white"/>
<path d="M45.8606 60C43.4268 60 41.4856 58.0742 41.4856 55.6885C41.4856 53.2741 43.4268 51.3483 45.8606 51.3483C48.2654 51.3483 50.1776 53.2741 50.1776 55.6885C50.2066 58.0742 48.2654 60 45.8606 60Z" fill="white"/>
<path d="M37.4005 21.7428C37.6033 21.7428 37.7482 21.7428 37.893 21.7428C38.6463 21.7715 39.2258 22.3752 39.2258 23.1225C39.2258 26.3992 39.2258 29.6759 39.2258 32.9814C39.2258 33.8149 38.6463 34.3611 37.8061 34.3611C32.504 34.3611 27.2309 34.3611 21.9287 34.3611C21.0016 34.3611 20.4221 33.8149 20.4221 32.8664C20.4221 30.8831 20.4221 28.8998 20.4221 26.9166C20.4221 25.7668 20.4221 24.6171 20.4221 23.4961C20.4221 22.2889 20.8857 21.829 22.0736 21.7428C22.1315 21.7428 22.1605 21.7141 22.2474 21.7141C22.2474 21.5703 22.2474 21.4554 22.2474 21.3116C22.2474 19.7595 22.2474 18.2361 22.2474 16.684C22.2764 13.3211 24.9709 10.1593 28.3029 9.52695C32.562 8.75089 36.3575 11.2515 37.2846 15.448C37.3715 15.8792 37.4005 16.3391 37.4005 16.799C37.4005 18.2936 37.4005 19.7883 37.4005 21.2829C37.4005 21.4266 37.4005 21.5703 37.4005 21.7428ZM34.5032 21.7141C34.5032 20.0757 34.5032 18.5236 34.5032 16.9427C34.5032 14.2121 32.1563 12.0851 29.4039 12.315C26.9991 12.5162 25.1448 14.4995 25.1158 16.9139C25.1158 18.4086 25.1158 19.8745 25.1158 21.3691C25.1158 21.4841 25.1158 21.5991 25.1158 21.7428C28.2739 21.7141 31.3451 21.7141 34.5032 21.7141Z" fill="white"/>
</svg>
