<svg width="59" height="60" viewBox="0 0 59 60" fill="none" xmlns="http://www.w3.org/2000/svg">
<path d="M39.6984 0.375076C39.2003 -0.125025 38.2041 -0.125025 37.4569 0.375076C36.9588 0.875177 36.9588 0.875178 36.7098 1.12523C33.7211 4.12583 33.9702 7.87659 36.4607 10.3771C37.706 11.6273 37.2079 13.1277 36.2117 13.8778C34.7173 15.1281 29.4872 19.1289 27.2457 20.8792C21.7666 16.8784 14.295 17.1285 9.06484 21.1293C8.06863 21.8794 8.31771 23.1297 8.81581 23.8798C9.06487 24.1299 35.2154 50.3852 35.2154 50.3852C35.9626 51.1353 37.2079 51.1353 37.955 50.1351C41.9399 44.8841 42.1889 37.3825 38.204 31.8814C39.9474 29.631 44.1813 24.3799 45.1775 22.8796C45.9247 21.8794 47.6681 21.6294 48.6643 22.6296C51.1548 25.1301 54.8906 25.3801 57.8793 22.3795C58.1283 22.1295 58.1283 22.1295 58.6264 21.6294C59.1245 21.1293 59.1245 20.1291 58.6264 19.3789L39.6984 0.375076ZM16.7855 36.8824L23.0118 43.1337C23.0118 43.1337 14.295 49.8851 4.08378 57.8867C2.58946 59.1369 0.846113 60.3872 0.0989539 59.8871C-0.399152 59.387 1.09514 57.3866 2.09135 55.8863C8.81578 47.1345 16.7855 36.8824 16.7855 36.8824Z" fill="white"/>
</svg>
