<svg width="60" height="38" viewBox="0 0 60 38" fill="none" xmlns="http://www.w3.org/2000/svg">
<path d="M15.0145 14.812C10.856 14.812 7.49414 18.136 7.49414 22.2358C7.49414 26.3356 10.8584 29.6572 15.0025 29.6572C19.1467 29.6572 22.5109 26.3333 22.5109 22.2334C22.5229 18.1336 19.1611 14.812 15.0145 14.812ZM15.0145 27.5504C12.051 27.5504 9.6394 25.1754 9.6394 22.2358C9.6394 19.2962 12.0414 16.9212 15.0145 16.9212C17.9877 16.9212 20.3777 19.3057 20.3777 22.2358C20.3777 25.1659 17.9781 27.5504 15.0145 27.5504Z" fill="white"/>
<path d="M15.0384 25.9157C17.1019 25.9157 18.7747 24.2618 18.7747 22.2216C18.7747 20.1814 17.1019 18.5275 15.0384 18.5275C12.975 18.5275 11.3022 20.1814 11.3022 22.2216C11.3022 24.2618 12.975 25.9157 15.0384 25.9157Z" fill="white"/>
<path d="M44.9977 14.812C40.8511 14.812 37.4893 18.136 37.4893 22.2358C37.4893 26.3356 40.8511 29.6596 44.9977 29.6596C49.1442 29.6596 52.5061 26.3356 52.5061 22.2358C52.5061 18.136 49.1442 14.812 44.9977 14.812ZM44.9977 27.5504C42.0341 27.5504 39.6225 25.1754 39.6225 22.2358C39.6225 19.2962 42.0245 16.9212 44.9977 16.9212C47.9708 16.9212 50.3608 19.3057 50.3608 22.2358C50.3608 25.1659 47.9612 27.5504 44.9977 27.5504Z" fill="white"/>
<path d="M45.0216 25.9157C47.085 25.9157 48.7578 24.2618 48.7578 22.2216C48.7578 20.1814 47.085 18.5275 45.0216 18.5275C42.9582 18.5275 41.2854 20.1814 41.2854 22.2216C41.2854 24.2618 42.9582 25.9157 45.0216 25.9157Z" fill="white"/>
<path d="M55.5631 11.7182L59.9784 7.38821H51.0302C46.0174 3.3572 37.6908 0 29.9712 0C22.242 0 13.985 3.3572 8.97217 7.38821H0L4.41529 11.7182C1.68693 14.4063 0 18.1241 0 22.2334C0 30.4331 6.72372 37.0787 15.0144 37.0787C18.8202 37.0787 22.2996 35.6765 24.9464 33.3608L30.0288 37.0549L35.0536 33.4415L34.996 33.3015C37.6548 35.6409 41.1438 37.0644 44.9856 37.0644C53.2787 37.0644 60 30.4165 60 22.2192C59.9904 18.1241 58.2915 14.4063 55.5631 11.7182ZM43.1019 7.50446C35.9918 8.38469 30.4175 14.1738 29.9952 21.3437C29.5609 14.1643 23.9746 8.36334 16.8429 7.50446C20.4279 4.95632 24.9944 3.70597 29.9712 3.70597C34.948 3.70597 39.5169 4.95632 43.1019 7.50446ZM15.0144 33.3751C8.78259 33.3751 3.7482 28.3832 3.7482 22.2358C3.7482 16.0885 8.79699 11.0965 15.0144 11.0965C21.2318 11.0965 26.2806 16.0885 26.2806 22.2358C26.271 28.3832 21.2342 33.3751 15.0144 33.3751ZM44.9976 33.3751C38.7778 33.3751 33.7314 28.3832 33.7314 22.2358C33.7314 16.0885 38.7802 11.0965 44.9976 11.0965C51.215 11.0965 56.2638 16.0885 56.2638 22.2358C56.2542 28.3832 51.2174 33.3751 44.9976 33.3751Z" fill="white"/>
</svg>
