<svg width="57" height="60" viewBox="0 0 57 60" fill="none" xmlns="http://www.w3.org/2000/svg">
<path d="M22.0423 40.2128C17.8529 40.2128 13.6901 40.2128 9.50071 40.2128C3.71022 40.1865 0.00110619 36.5389 0.00110619 30.8444C0.00110619 28.6926 0.0544747 26.567 0.00110619 24.4152C-0.0255781 23.2605 0.428056 22.7357 1.62885 22.7357C10.6481 22.7619 19.6674 22.6832 28.6867 22.7882C32.9829 22.8406 36.772 26.7507 36.8788 30.9756C36.9321 33.4686 36.9055 35.9616 36.9055 38.4546C36.9055 39.9504 36.6386 40.2128 35.1176 40.239C30.7414 40.2128 26.3919 40.2128 22.0423 40.2128Z" fill="white"/>
<path d="M28.2595 0.0101796C33.4363 -0.199756 38.4263 4.52379 38.2128 10.1133C37.9993 15.5454 33.6498 19.8228 28.0461 19.7703C22.389 19.7441 17.9327 15.2305 18.0128 9.53599C18.0661 4.60251 22.4691 -0.25224 28.2595 0.0101796Z" fill="white"/>
<path d="M19.2941 51.208C19.2941 48.8462 19.3208 46.4844 19.2941 44.1489C19.2674 43.0205 19.7477 42.6006 20.8951 42.6269C25.725 42.6531 30.5815 42.6531 35.4114 42.6269C36.1852 42.6269 36.9591 42.6794 36.9591 43.6241C36.9324 46.983 37.386 50.342 36.5855 53.6747C35.7049 57.2699 32.316 59.9203 28.5535 59.9728C25.9918 60.0253 23.4035 59.9466 20.8418 59.999C19.641 60.0253 19.2941 59.4742 19.2941 58.4245C19.2941 56.0103 19.2674 53.596 19.2941 51.208Z" fill="white"/>
<path d="M56.8653 28.5351C56.8653 29.8997 56.9187 31.2381 56.8653 32.6026C56.6785 36.4864 52.7293 40.0553 48.4064 40.1866C45.9248 40.2653 43.4165 40.1865 40.9348 40.2128C40.0276 40.2128 39.3071 39.9504 39.3338 38.9269C39.3871 36.0403 39.1203 33.1537 39.4672 30.2933C39.9742 26.0159 43.6566 22.8144 48.0062 22.7619C50.4611 22.7357 52.8894 22.7882 55.3443 22.7357C56.5718 22.7094 57.0254 23.2343 56.9988 24.3889C56.9454 25.7797 56.9988 27.1968 56.9988 28.5876C56.9721 28.5351 56.9187 28.5351 56.8653 28.5351Z" fill="white"/>
</svg>
