<svg width="60" height="60" viewBox="0 0 60 60" fill="none" xmlns="http://www.w3.org/2000/svg">
<path fill-rule="evenodd" clip-rule="evenodd" d="M28.7885 0.286929L0.860786 14.8247C-0.286929 15.4623 -0.286929 17.2476 0.860786 17.8852L28.7885 32.423C29.5537 32.8055 30.4463 32.8055 31.2115 32.423L59.1392 17.8852C60.2869 17.2476 60.2869 15.4623 59.1392 14.8247L31.084 0.286929C30.3188 -0.0956429 29.5537 -0.0956429 28.7885 0.286929Z" fill="white"/>
<path fill-rule="evenodd" clip-rule="evenodd" d="M59.0117 28.3422L53.7832 25.6642C53.5282 25.5367 53.1456 25.5367 52.763 25.6642L32.7418 36.1212C31.8491 36.6313 30.8289 36.7588 29.9362 36.7588C28.916 36.7588 28.0234 36.5038 27.1307 36.1212L7.10946 25.6642C6.85441 25.5367 6.47184 25.5367 6.08927 25.6642L0.860786 28.3422C-0.286929 28.9799 -0.286929 30.7652 0.860786 31.4028L28.7885 45.9405C29.5537 46.3231 30.4463 46.3231 31.2115 45.9405L59.1392 31.4028C60.1594 30.7652 60.1594 28.9799 59.0117 28.3422Z" fill="white"/>
<path fill-rule="evenodd" clip-rule="evenodd" d="M59.0117 42.1147L53.7832 39.4367C53.5282 39.3092 53.1456 39.3092 52.763 39.4367L32.7418 49.8937C31.8491 50.4038 30.8289 50.5313 29.9362 50.5313C28.916 50.5313 28.0234 50.2762 27.1307 49.8937L7.10946 39.4367C6.85441 39.3092 6.47184 39.3092 6.08927 39.4367L0.860786 42.1147C-0.286929 42.7523 -0.286929 44.5377 0.860786 45.1753L28.7885 59.713C29.5537 60.0956 30.4463 60.0956 31.2115 59.713L59.1392 45.1753C60.1594 44.5377 60.1594 42.7523 59.0117 42.1147Z" fill="white"/>
</svg>
