<svg width="47" height="50" viewBox="0 0 47 50" fill="none" xmlns="http://www.w3.org/2000/svg">
<path d="M21.4959 34.5476C21.3406 34.496 21.3406 34.4186 21.3406 34.3412C20.9265 31.1165 20.5382 27.9177 20.15 24.6931C19.6323 20.6171 19.1405 16.5154 18.6487 12.4394C18.2087 8.80206 17.7428 5.13887 17.3028 1.50148C17.251 1.14032 17.1216 0.985541 16.7592 1.03713C16.2674 1.08873 15.7757 1.14032 15.3098 1.19192C13.0061 1.39829 10.7025 1.60467 8.39886 1.83684C5.73286 2.09482 3.06686 2.35279 0.400855 2.58496C0.0643697 2.61076 -0.0391644 2.71395 0.0126026 3.0751C0.607923 6.6351 1.20324 10.2209 1.79856 13.7809C2.57507 18.476 3.37746 23.171 4.17985 27.8919C5.37049 35.0635 6.58701 42.2093 7.77765 49.3809C7.88119 50 7.88119 50 8.52828 50C14.7144 50 20.9265 50 27.1126 50C27.5268 50 27.7597 49.871 28.0186 49.5615C30.9175 45.6919 33.7388 41.7449 36.3272 37.6432C39.6661 32.3548 42.7204 26.8858 44.8169 20.9783C46.3441 16.7218 47.3018 12.3621 46.9135 7.77017C46.6806 5.13887 45.9299 2.68815 44.6358 0.366411C44.4287 0.00525201 44.2216 -0.046343 43.8334 0.0310483C38.9673 1.01134 34.1271 1.99163 29.261 2.97192C28.6139 3.1009 28.6139 3.1009 28.8727 3.69423C30.2187 6.91887 30.4516 10.2983 30.0892 13.7293C29.7786 16.4638 28.9504 19.0693 27.9927 21.6232C26.5432 25.4412 24.7314 29.1044 22.7124 32.6644C22.2465 33.2577 21.8583 33.9026 21.4959 34.5476Z" fill="white"/>
</svg>
