<svg width="59" height="60" viewBox="0 0 59 60" fill="none" xmlns="http://www.w3.org/2000/svg">
<path d="M33.9621 0.220303C37.2925 0.637032 39.9851 1.4415 42.9386 2.88374C45.845 4.30787 47.7041 5.65227 50.1648 8.10191C52.4696 10.4175 53.7489 12.1677 55.1042 14.8892C56.9923 18.6868 58.0686 23.1984 58.2498 28.1665C58.3186 29.8624 58.2679 30.2393 57.8801 30.7212C57.1445 31.6598 55.5282 31.504 54.9737 30.4495C54.7998 30.1016 54.7527 29.8008 54.6911 28.4455C54.5932 26.3619 54.4483 25.0175 54.1584 23.4086C53.0168 17.1033 49.9944 12.0699 45.171 8.45704C41.152 5.43485 36.999 3.96362 31.5558 3.64473C29.7148 3.53964 29.3959 3.47079 28.9792 3.1519C28.2036 2.54311 28.1674 1.10812 28.9103 0.44135C29.3669 0.0246214 29.6858 -0.0333583 31.2623 0.0137502C32.0921 0.0463638 33.3025 0.144204 33.9621 0.220303ZM11.8234 1.26756C12.1641 1.38352 12.6859 1.6553 12.9867 1.84736C14.8277 3.06855 19.9483 9.62388 21.6262 12.8961C22.5865 14.766 22.9054 16.1502 22.6046 17.1757C22.293 18.281 21.782 18.8608 19.4844 20.7089C18.5639 21.4554 17.7014 22.22 17.5674 22.4229C17.2195 22.9266 16.9368 23.9159 16.9368 24.6116C16.9477 26.2278 17.9914 29.163 19.3685 31.4206C20.4339 33.1745 22.3401 35.4212 24.2282 37.1425C26.446 39.1754 28.403 40.5597 30.6099 41.654C33.4475 43.0673 35.1797 43.426 36.4481 42.8354C36.767 42.6904 37.1077 42.4947 37.2128 42.4078C37.3106 42.3208 38.0535 41.4112 38.8689 40.4038C40.4381 38.4289 40.7969 38.11 41.8696 37.7404C43.2358 37.2766 44.631 37.3998 46.0335 38.1173C47.0989 38.6681 49.4219 40.1139 50.9258 41.1576C52.9008 42.5418 57.1227 45.9916 57.6953 46.6765C58.7028 47.9158 58.8767 49.503 58.1991 51.2569C57.4815 53.105 54.6947 56.5729 52.745 58.055C50.9838 59.3922 49.7335 59.9031 48.0882 59.9828C46.7329 60.0517 46.1712 59.9357 44.4389 59.2182C30.8419 53.6123 19.9845 45.2451 11.3668 33.7507C6.86584 27.7534 3.43396 21.5242 1.09289 15.0667C-0.273339 11.298 -0.33857 9.66374 0.784854 7.73592C1.27046 6.9242 3.33249 4.90941 4.8328 3.78605C7.3297 1.92346 8.48212 1.23857 9.4026 1.04289C10.0295 0.908811 11.124 1.0139 11.8234 1.26756ZM34.6289 7.24309C40.5069 8.10554 45.0586 10.8342 48.0411 15.2697C49.7154 17.7664 50.7627 20.7016 51.1215 23.8506C51.2483 25.003 51.2483 27.1048 51.1106 27.4526C50.9838 27.7824 50.5779 28.2281 50.23 28.4129C49.8531 28.605 49.0486 28.5869 48.6028 28.3549C47.8563 27.9781 47.6353 27.3765 47.6353 25.7495C47.6353 23.2419 46.9866 20.5965 45.8631 18.5455C44.5839 16.201 42.7248 14.2659 40.4598 12.9179C38.5138 11.7546 35.6364 10.8922 33.0126 10.682C32.0631 10.6059 31.5413 10.4102 31.1825 9.9935C30.6317 9.36297 30.5737 8.5114 31.0376 7.80477C31.5413 7.01842 32.3132 6.89159 34.6289 7.24309ZM36.6909 14.5522C38.5971 14.958 40.0612 15.6864 41.3115 16.8568C42.9205 18.3752 43.8011 20.216 44.1889 22.8614C44.4498 24.5863 44.3447 25.2639 43.7323 25.8256C43.1597 26.3474 42.1051 26.3691 41.4673 25.8727C41.0034 25.5248 40.8585 25.1552 40.7498 24.1587C40.6229 22.8324 40.391 21.9011 39.996 21.0423C39.1443 19.2123 37.644 18.2629 35.1036 17.9512C33.9114 17.8063 33.5526 17.6686 33.1648 17.2156C32.4582 16.3713 32.73 15.0087 33.7084 14.505C34.0781 14.3202 34.2303 14.3021 35.0457 14.3492C35.5494 14.3782 36.2959 14.4652 36.6909 14.5522Z" fill="white"/>
</svg>
