<svg width="60" height="53" viewBox="0 0 60 53" fill="none" xmlns="http://www.w3.org/2000/svg">
<path fill-rule="evenodd" clip-rule="evenodd" d="M50.5353 0C42.9107 0 36.9413 5.5811 34.36 14.7679C37.172 13.4519 42.2773 12.7632 42.6787 17.3559C43.0793 21.9493 36.026 33.8309 32.924 33.8309C29.83 33.8309 27.5373 20.3984 26.7313 14.2547C25.928 8.10904 24.494 1.86259 18.646 1.86259C12.79 1.86259 5.27933 10.4094 0 14.5403L2.754 18.2709C2.754 18.2709 6.656 15.2297 8.03267 15.4626C11.5927 16.3776 14.632 30.6777 16.1793 36.1313C17.7247 41.5856 19.616 52.613 27.2513 52.613C39.58 52.613 60 22.3531 60 12.4729C60 5.98818 58.1633 0 50.5353 0Z" fill="white"/>
</svg>
