<svg width="44" height="49" viewBox="0 0 44 49" fill="none" xmlns="http://www.w3.org/2000/svg">
<path d="M0.0035684 7.38257C0.0749343 7.38257 0.132027 7.38257 0.203393 7.38257C2.9153 7.38257 5.61293 7.38257 8.32483 7.38257C8.48183 7.38257 8.53893 7.42556 8.5532 7.5975C8.69593 8.71512 8.83866 9.83274 9.02421 10.936C9.26686 12.4119 9.5095 13.8877 9.80924 15.3492C10.5372 18.9743 11.5077 22.5421 12.8209 26.0096C13.7201 28.4025 14.7906 30.7237 16.0323 32.959C17.3883 35.3948 18.9583 37.7017 20.7282 39.8796C21.0422 40.2665 21.3705 40.6534 21.6845 41.0402C21.6845 41.0546 21.6988 41.0546 21.7273 41.0689C25.2528 37.5727 28.0646 33.5607 30.3483 29.1476C29.963 28.9326 29.5776 28.7177 29.2065 28.5028C26.9228 27.1129 25.1244 25.2216 23.7827 22.9147C22.6265 20.9373 21.8843 18.8024 21.499 16.5528C21.2278 15.0053 21.1279 13.4579 21.2135 11.8961C21.3562 9.34558 21.9843 6.93839 23.4258 4.80344C25.0387 2.39625 27.2939 0.906086 30.12 0.28996C31.6329 -0.0395954 33.1601 -0.0682529 34.7017 0.103689C36.1861 0.275631 37.5991 0.6625 38.9122 1.37893C40.6821 2.36759 41.9667 3.81477 42.8088 5.64882C43.5368 7.23928 43.865 8.91572 43.965 10.6495C44.122 13.4292 43.7509 16.123 42.8659 18.7594C42.7089 19.2466 42.4948 19.7051 42.3093 20.1779C42.2807 20.2352 42.2093 20.2926 42.1523 20.3069C40.7678 20.5648 39.3975 20.5791 38.0273 20.1636C36.8569 19.8054 35.8721 19.1749 35.1013 18.2006C35.0014 18.0716 34.9728 17.957 35.0299 17.7994C35.4439 16.4095 35.7579 14.991 35.8721 13.5438C35.972 12.2113 35.9291 10.8787 35.4724 9.60349C35.2012 8.84408 34.7873 8.17064 34.0736 7.75511C32.9175 7.06734 31.376 7.32526 30.4482 8.37124C29.8773 9.01602 29.5633 9.78976 29.3778 10.6208C29.1066 11.7814 29.0923 12.942 29.1779 14.117C29.2636 15.4065 29.5062 16.6674 29.963 17.8854C31.1905 21.1379 33.4599 23.2729 36.7855 24.2902C38.3841 24.7774 40.0256 24.892 41.6812 24.7201C42.4092 24.6484 43.1371 24.5051 43.8508 24.3905C43.8936 24.3905 43.9364 24.3905 43.9935 24.3762C43.9935 26.3105 43.9935 28.2449 43.9935 30.1936C43.5368 30.2795 43.08 30.3798 42.6233 30.4515C41.1531 30.695 39.6687 30.824 38.17 30.8527C38.0559 30.8527 37.9988 30.8956 37.9417 30.9959C36.5143 33.919 34.7587 36.627 32.789 39.2062C31.4188 40.9972 29.9487 42.7023 28.3786 44.3215C27.2796 45.4534 26.152 46.528 24.9103 47.5024C24.1395 48.1185 23.3117 48.6343 22.3411 48.8779C21.342 49.1215 20.3857 48.9925 19.4579 48.5627C18.3874 48.0612 17.4454 47.3448 16.5604 46.571C14.0341 44.3931 11.993 41.7996 10.2089 39.0056C8.02509 35.5667 6.31231 31.8986 4.91354 28.0729C3.55759 24.4048 2.4871 20.6508 1.67353 16.8251C1.24533 14.7618 0.874232 12.6698 0.488856 10.5922C0.303305 9.5605 0.174846 8.51452 0.0178414 7.48287C-0.010705 7.43988 0.0035684 7.42556 0.0035684 7.38257Z" fill="white"/>
</svg>
