<svg width="58" height="50" viewBox="0 0 58 50" fill="none" xmlns="http://www.w3.org/2000/svg">
<path d="M40.2899 16.4271C34.895 16.7179 30.2141 18.3305 26.4059 22.0314C22.5713 25.7588 20.7995 30.3321 21.3019 35.9893C19.1863 35.7249 17.2822 35.4341 15.3517 35.2755C14.6905 35.2227 13.8972 35.302 13.3418 35.6192C11.4642 36.6766 9.66588 37.8662 7.55024 39.188C7.94692 37.4168 8.18493 35.8835 8.63451 34.4032C8.95185 33.3193 8.81962 32.7113 7.81469 31.9975C1.36197 27.4242 -1.38837 20.6039 0.674385 13.5721C2.55202 7.06904 7.20645 3.13018 13.5005 1.06823C22.0953 -1.73391 31.7479 1.1211 36.9842 7.94141C38.8354 10.3999 39.999 13.1492 40.2899 16.4271ZM15.5104 14.233C15.5632 12.9377 14.4525 11.801 13.1303 11.7481C11.7815 11.6952 10.6708 12.7526 10.6179 14.0744C10.565 15.4226 11.6229 16.5065 12.9716 16.5593C14.3203 16.5858 15.4575 15.5548 15.5104 14.233ZM28.4422 11.7481C27.12 11.7745 25.9828 12.9112 26.0093 14.2066C26.0357 15.5548 27.1464 16.5858 28.4951 16.5858C29.8703 16.5593 30.9017 15.5019 30.9017 14.1537C30.8752 12.7791 29.791 11.7217 28.4422 11.7481Z" fill="white"/>
<path d="M52.4019 50.0001C50.7094 49.2334 49.1227 48.0967 47.4566 47.9381C45.7905 47.7531 44.0451 48.7312 42.3261 48.8898C37.037 49.4185 32.3033 47.9645 28.3893 44.3429C20.9581 37.4697 22.0159 26.9485 30.6107 21.3178C38.2535 16.3215 49.44 17.9869 54.8349 24.913C59.5422 30.9666 58.9869 39.003 53.2482 44.105C51.5821 45.5854 51.0003 46.8014 52.0581 48.7312C52.2432 49.0748 52.2697 49.5507 52.4019 50.0001ZM32.9908 31.2046C34.0751 31.2046 34.9743 30.3586 35.0007 29.2748C35.0536 28.1381 34.128 27.1864 32.9908 27.1864C31.8537 27.1864 30.9281 28.1381 30.9545 29.2748C31.0074 30.3322 31.9066 31.2046 32.9908 31.2046ZM45.4996 27.1864C44.4418 27.1864 43.5426 28.0323 43.5162 29.1162C43.4633 30.2529 44.3624 31.1781 45.4732 31.1781C46.5574 31.1781 47.4301 30.3586 47.4566 29.2748C47.5095 28.1381 46.6103 27.2128 45.4996 27.1864Z" fill="white"/>
</svg>
