<svg width="60" height="47" viewBox="0 0 60 47" fill="none" xmlns="http://www.w3.org/2000/svg">
<path d="M-1.59997e-07 21.7749H7.34375C12.4299 21.7749 16.2964 22.8301 18.9432 24.9396C21.59 27.05 22.9134 30.1328 22.9134 34.1889C22.9134 37.263 22.2603 39.7445 20.9543 41.6337C19.6478 43.5233 17.8229 44.8902 15.479 45.7341C13.1346 46.5779 10.5441 47 7.70712 47H-1.59997e-07V21.7749ZM8.66937 27.7384C8.66937 27.7396 8.66937 40.4196 8.66998 40.4196C10.2721 40.318 12.23 39.9507 13.207 38.563C14.0654 37.3437 14.1259 35.6112 14.1364 34.177C14.1547 31.6657 13.6813 29.1149 11.0595 28.0886C10.8843 28.0201 8.66937 27.5147 8.66937 27.7384Z" fill="white"/>
<path d="M25.3213 21.7749H34.2863V47H25.3213V21.7749Z" fill="white"/>
<path d="M36.1958 21.7749H46.4533L48.959 28.945L51.1517 21.7749H59.9999L53.031 38.028V46.9998H44.0261V38.028L36.1958 21.7749Z" fill="white"/>
<path d="M9.06226 5.94519H13.3868V6.87108H13.1363C12.8621 6.87108 12.6727 6.9151 12.5685 7.00275C12.464 7.0906 12.412 7.20494 12.412 7.34518C12.412 7.44358 12.433 7.54538 12.4747 7.65075L14.2331 12.2059L15.7484 7.95912C15.5022 7.42307 15.3139 7.11291 15.183 7.02884C15.0346 6.92367 14.785 6.87108 14.4345 6.87108V5.94519H19.126V6.87108H18.8467C18.5584 6.87108 18.3602 6.91869 18.2521 7.01351C18.144 7.10833 18.09 7.23303 18.09 7.38761C18.09 7.57028 18.1319 7.7633 18.2156 7.96669L19.8739 12.2061L21.3082 8.09178C21.3439 7.97266 21.3619 7.84637 21.3619 7.7131C21.3619 7.45354 21.3008 7.24836 21.1788 7.09757C21.0568 6.94677 20.8975 6.87128 20.7013 6.87128H20.3619V5.94539H23.7016V6.87128C23.0091 6.92745 22.5165 7.37665 22.2241 8.21907L19.5144 16.131H18.8443L16.2594 9.33361L13.9022 16.131H13.2226L10.0217 7.65016C9.90231 7.34857 9.78133 7.14698 9.65893 7.04498C9.53633 6.94339 9.3377 6.88562 9.06286 6.87128V5.94519H9.06226Z" fill="white"/>
<path d="M25.4646 5.9452L29.1892 5.74541V14.1107C29.1892 14.3354 29.2503 14.5089 29.3727 14.6314C29.4949 14.7543 29.6816 14.8157 29.9322 14.8157H30.4962V15.7943H25.4646V14.8157H26.0197C26.3181 14.8157 26.5284 14.7352 26.6508 14.5736C26.773 14.4123 26.8343 14.1318 26.8343 13.7318V8.02866C26.8343 7.67089 26.7462 7.3938 26.5702 7.19739C26.3939 7.00117 26.1508 6.90277 25.8404 6.90277H25.4644V5.9452H25.4646ZM27.7655 0.263183C28.1654 0.263183 28.5086 0.429915 28.7951 0.76298C29.0817 1.09624 29.2249 1.50142 29.2249 1.97831C29.2249 2.4554 29.0817 2.86057 28.7951 3.19364C28.5086 3.5269 28.1654 3.69343 27.7655 3.69343C27.3596 3.69343 27.0136 3.52511 26.7271 3.18826C26.4405 2.85141 26.2974 2.44823 26.2974 1.97831C26.2974 1.50122 26.4405 1.09624 26.7271 0.76298C27.0134 0.429915 27.3596 0.263183 27.7655 0.263183Z" fill="white"/>
<path d="M31.7407 0.136851L35.7069 2.82072e-06V10.8065L38.1882 8.46169C38.5824 8.0832 38.7794 7.76547 38.7794 7.5079C38.7794 7.34794 38.6993 7.20711 38.5388 7.0854C38.3785 6.96369 38.1204 6.90273 37.7645 6.90273H37.4707V5.94517H42.3501V6.90273C41.8285 6.92345 41.4205 6.99894 41.1265 7.12942C40.7247 7.30791 40.345 7.57285 39.987 7.92404L38.5735 9.30411L41.6698 14.2367C41.9206 14.6228 42.2219 14.8154 42.5742 14.8154H43.0218V15.7941H37.7574V14.8154H38.2751C38.5249 14.8154 38.7003 14.7823 38.8014 14.7164C38.9026 14.6503 38.9532 14.5752 38.9532 14.4917C38.9532 14.4152 38.9234 14.3314 38.8641 14.2401L36.8561 10.9475L35.7071 12.0059V13.963C35.7071 14.2718 35.7609 14.4909 35.8682 14.6206C35.9757 14.7505 36.1517 14.8154 36.3965 14.8154H36.9785V15.7941H31.8393V14.8154H32.4751C32.7794 14.8154 33.0018 14.7296 33.1422 14.5578C33.2823 14.3861 33.3525 14.1252 33.3525 13.7746V1.91453C33.3525 1.64819 33.2819 1.44501 33.1408 1.30457C32.9998 1.16453 32.8002 1.09421 32.5423 1.09421H31.7409V0.136851H31.7407Z" fill="white"/>
<path d="M44.4811 5.9452L48.2055 5.74541V14.1107C48.2055 14.3354 48.2668 14.5089 48.389 14.6314C48.5114 14.7543 48.6981 14.8157 48.9486 14.8157H49.5128V15.7943H44.4809V14.8157H45.036C45.3343 14.8157 45.5448 14.7352 45.6672 14.5736C45.7894 14.4123 45.8507 14.1318 45.8507 13.7318V8.02866C45.8507 7.67089 45.7626 7.3938 45.5865 7.19739C45.4105 7.00117 45.1671 6.90277 44.8568 6.90277H44.4807V5.9452H44.4811ZM46.7823 0.263183C47.182 0.263183 47.5254 0.429915 47.8117 0.76298C48.0982 1.09624 48.2414 1.50142 48.2414 1.97831C48.2414 2.4554 48.0982 2.86057 47.8117 3.19364C47.5252 3.5269 47.182 3.69343 46.7823 3.69343C46.3762 3.69343 46.0302 3.52511 45.7438 3.18826C45.4571 2.85161 45.3139 2.44823 45.3139 1.97831C45.3139 1.50122 45.4571 1.09624 45.7438 0.76298C46.03 0.429915 46.3762 0.263183 46.7823 0.263183Z" fill="white"/>
</svg>
