<svg width="60" height="38" viewBox="0 0 60 38" fill="none" xmlns="http://www.w3.org/2000/svg">
<path d="M59.8911 0C59.8911 0 50.5808 0 47.4773 0L47.314 0.108893V1.19782C47.314 1.30672 47.3684 1.41561 47.4773 1.5245C47.5862 1.57895 47.7495 1.63339 47.8584 1.63339L48.8929 1.68784C50.1452 1.74229 50.5263 2.01452 51.0163 2.39564C51.5064 2.83122 51.5608 3.59347 51.1797 4.62795L40.1815 30.7078L39.7459 30.5989L32.7768 16.3339C32.8857 16.1162 32.9401 16.0073 32.9401 16.0073L38.657 5.33575C39.3103 4.19238 39.9637 3.21234 40.2904 2.72232C40.8893 1.85118 41.216 1.68784 42.8494 1.63339C43.176 1.63339 43.3394 1.47005 43.3394 1.19782V0.108893L43.2305 0C43.2305 0 36.2613 0 33.1579 0L32.9946 0.108893V1.19782C32.9946 1.30672 33.049 1.41561 33.1579 1.5245C33.2668 1.57895 33.3757 1.63339 33.4846 1.63339L33.9746 1.68784C35.2269 1.74229 35.8258 2.06897 35.9891 2.28675C36.3158 2.66788 36.4247 3.049 35.7169 4.6824L31.3067 13.4483L27.3866 5.28131C26.0799 2.66788 25.7532 1.90563 27.7133 1.74229L28.5299 1.63339C28.9111 1.63339 29.0744 1.5245 29.0744 1.25227V0.108893L28.8022 0C28.8022 0 21.3975 0 18.1307 0L17.9673 0.163339V1.30672C17.9673 1.57895 18.2396 1.63339 18.7296 1.68784C20.5808 1.90563 20.5263 2.12341 22.323 5.71688C22.5953 6.26134 23.412 7.89474 23.412 7.89474L27.5499 16.0073C27.5499 16.0073 28.0399 17.0417 28.7477 18.6751L22.7586 30.6534L22.4319 30.5445C22.3775 30.5445 13.0672 10.8893 10.3448 4.30127C10.0726 3.59347 9.9637 3.10345 9.9637 2.77677C9.9637 2.12341 10.5626 1.74229 11.7604 1.68784L13.176 1.63339C13.5572 1.63339 13.7205 1.47005 13.7205 1.19782V0.108893L13.6116 0.0544465C13.6116 0.0544465 2.45009 0.0544465 0.108893 0.0544465L0 0.163339V1.30672C0 1.47005 0.272232 1.63339 0.76225 1.68784C2.17786 1.74229 3.10345 1.96007 3.59347 2.3412C4.02904 2.72232 4.51906 3.70236 5.11797 5.17241C8.49365 13.3394 15.735 27.8766 19.2196 36.1525C20.2541 38.4392 21.5064 38.7659 23.0309 36.098C24.6098 33.1579 27.8221 26.6243 30.1633 21.833C32.3412 26.6243 35.3358 33.1579 36.7514 36.098C37.8947 38.4392 39.2015 38.7114 40.5082 36.1525C43.9927 28.4211 54.0653 5.33575 54.0653 5.33575C54.5009 4.19238 55.0998 3.32123 55.9165 2.66788C56.6788 2.01452 57.8766 1.68784 59.51 1.63339C59.8367 1.63339 60 1.47005 60 1.19782V0.108893L59.8911 0Z" fill="white"/>
</svg>
