<svg width="51" height="60" viewBox="0 0 51 60" fill="none" xmlns="http://www.w3.org/2000/svg">
<path d="M50.8124 36.1784C50.8124 31.3118 50.8491 26.482 50.8124 21.6154C50.8124 19.4033 51.4361 16.675 50.4089 15.2003C49.3449 13.7255 46.5567 13.4306 44.4655 12.7301C43.4015 12.3614 42.1908 11.9558 41.1269 12.1402C27.9927 14.5735 14.8585 17.1543 1.72432 19.5876C0.256814 19.8457 1.11962e-06 20.5093 1.11962e-06 21.7997C0.0366888 31.2749 0.0366888 40.7132 1.11962e-06 50.1884C1.11962e-06 51.5157 0.330188 52.1056 1.76101 52.4005C12.6572 54.5389 23.5902 56.6035 34.3764 59.1106C39.5126 60.2904 44.2453 60.6222 49.0147 58.0414C50.2254 57.3778 50.8858 56.8985 50.8491 55.3869C50.7757 48.9349 50.8124 42.5567 50.8124 36.1784ZM18.6007 44.3263C15.8124 43.9208 13.0975 43.5521 10.3459 43.1097C10.1258 43.0728 9.79561 42.5935 9.75892 42.3354C9.72224 40.1971 9.72224 38.0587 9.72224 35.8466C12.7673 35.8466 15.5923 35.8466 18.564 35.8466C18.6007 38.6117 18.6007 41.34 18.6007 44.3263ZM18.6373 34.888C15.8858 34.888 13.2443 34.9249 10.6027 34.8511C10.3092 34.8511 9.8323 34.1507 9.79561 33.782C9.72224 31.8279 9.75892 29.8739 9.75892 27.6618C12.804 27.2194 15.6656 26.8138 18.6373 26.4083C18.6373 29.3209 18.6373 31.9754 18.6373 34.888ZM31.1478 46.0223C28.3963 45.6536 25.6447 45.3587 22.9298 44.9162C19.6279 44.4001 19.6279 44.3632 19.6279 40.9344C19.6279 39.2754 19.6279 37.6532 19.6279 35.8097C23.5902 35.8097 27.2956 35.8097 31.1478 35.8097C31.1478 39.1648 31.1478 42.446 31.1478 46.0223ZM31.2212 33.9294C31.2212 34.2613 30.7076 34.8511 30.4141 34.8511C26.8921 34.9249 23.3701 34.888 19.7013 34.888C19.7013 31.8279 19.7013 29.1365 19.7013 26.2608C23.4801 25.7078 27.2589 25.1916 31.2946 24.6017C31.2579 27.8461 31.2946 30.8694 31.2212 33.9294Z" fill="white"/>
<path d="M25.9749 13.6887C25.9749 11.8821 25.9749 10.0387 25.9749 8.23213C25.9749 2.33318 23.8103 0.674097 18.1971 2.14883C13.6845 3.32862 12.6573 4.65589 12.6573 9.41191C12.6573 11.3291 12.694 13.2094 12.6206 15.1265C12.5839 15.6058 12.1437 16.0851 11.9235 16.5275C11.6667 16.0851 11.1531 15.6427 11.1531 15.2003C11.1164 12.3614 11.1898 9.55939 11.2998 6.72052C11.3365 6.13062 11.4833 5.50386 11.7034 4.95084C13.3177 0.895307 21.6825 -1.61175 25.021 1.19025C26.1584 2.14883 27.0022 3.88165 27.259 5.39326C27.6259 7.71597 27.4424 10.1862 27.3691 12.5457C27.3691 12.9882 26.9288 13.4306 26.672 13.873C26.4519 13.873 26.195 13.7993 25.9749 13.6887Z" fill="white"/>
<path d="M33.7162 12.1771C33.7162 10.7761 33.7895 9.37513 33.7162 8.01099C33.5694 5.02465 32.4321 4.13981 29.4604 4.47163C28.9468 4.54536 28.3964 4.10294 27.8828 3.88173C28.3231 3.58678 28.7266 3.10749 29.2036 3.03376C33.2392 2.25952 35.1103 3.73426 35.3304 7.82665C35.4038 8.85897 35.4405 9.92815 35.3304 10.9605C35.257 11.5135 34.8168 11.9928 34.5233 12.5089C34.2665 12.3983 34.0097 12.2877 33.7162 12.1771Z" fill="white"/>
<path d="M19.9214 14.8317C20.0681 12.3615 20.1048 9.8913 20.435 7.45798C20.6918 5.76203 22.1593 5.02467 23.7002 4.58224C23.9937 4.50851 24.3973 4.80346 24.7642 4.91406C24.6541 5.20901 24.5807 5.72516 24.3973 5.7989C21.2788 6.79435 21.6457 9.44888 21.5356 11.8822C21.499 12.5458 21.6457 13.2463 21.499 13.91C21.3889 14.3524 20.9486 14.7211 20.6551 15.0897C20.3983 15.016 20.1782 14.9054 19.9214 14.8317Z" fill="white"/>
</svg>
