<svg width="60" height="60" viewBox="0 0 60 60" fill="none" xmlns="http://www.w3.org/2000/svg">
<path d="M4.27271 30C4.27271 40.1818 10.1818 49 18.7878 53.1818L6.51513 19.5454C5.06058 22.7272 4.27271 26.2727 4.27271 30Z" fill="white"/>
<path d="M47.3937 28.7274C47.3937 25.5456 46.2422 23.3334 45.2725 21.6365C43.9694 19.5153 42.7573 17.7274 42.7573 15.6062C42.7573 13.2425 44.5452 11.0304 47.0906 11.0304C47.2119 11.0304 47.3028 11.0304 47.424 11.0607C42.8179 6.81828 36.727 4.27283 29.9998 4.27283C20.9998 4.27283 13.0907 8.87889 8.48462 15.8789C9.09068 15.9092 9.66644 15.9092 10.1513 15.9092C12.8483 15.9092 16.9998 15.5759 16.9998 15.5759C18.3937 15.4849 18.5452 17.5456 17.1513 17.6971C17.1513 17.6971 15.7573 17.8486 14.2119 17.9395L23.5755 45.8183L29.2119 28.9092L25.2422 17.9395C23.8482 17.8486 22.5452 17.6971 22.5452 17.6971C21.1513 17.6062 21.3331 15.4849 22.6967 15.5759C22.6967 15.5759 26.9391 15.9092 29.4846 15.9092C32.1816 15.9092 36.3331 15.5759 36.3331 15.5759C37.727 15.4849 37.8785 17.5456 36.4846 17.6971C36.4846 17.6971 35.0907 17.8486 33.5452 17.9395L42.8482 45.6062L45.424 37.0304C46.5452 33.4849 47.3937 30.9092 47.3937 28.7274Z" fill="white"/>
<path d="M30.4546 32.2727L22.7273 54.6969C25.0303 55.3636 27.4849 55.7576 30 55.7576C33 55.7576 35.8788 55.2424 38.5455 54.303C38.4849 54.1818 38.4243 54.0606 38.3636 53.9394L30.4546 32.2727Z" fill="white"/>
<path d="M52.6059 17.6667C52.7271 18.4849 52.7877 19.3637 52.7877 20.3031C52.7877 22.9092 52.3028 25.8486 50.818 29.5152L42.9392 52.2425C50.6059 47.788 55.7574 39.5152 55.7574 30.0001C55.7574 25.5455 54.6059 21.3334 52.6059 17.6667Z" fill="white"/>
<path d="M30 0C13.4545 0 0 13.4545 0 30C0 46.5455 13.4545 60 30 60C46.5454 60 60 46.5455 60 30C60.0303 13.4545 46.5757 0 30 0ZM30 58.6364C14.2121 58.6364 1.36364 45.7879 1.36364 30C1.36364 14.2121 14.2121 1.36364 30 1.36364C45.7878 1.36364 58.6363 14.2121 58.6363 30C58.6363 45.7879 45.7878 58.6364 30 58.6364Z" fill="white"/>
</svg>
