<svg width="59" height="24" viewBox="0 0 59 24" fill="none" xmlns="http://www.w3.org/2000/svg">
<path d="M39 14.1966C39 12.6444 39 11.2965 39 9.82597C40.3947 9.74428 41.6699 9.70343 43.0646 9.62174C43.0646 8.47802 43.0646 7.49768 43.0646 6.43566C42.1879 6.35397 41.4308 6.27228 40.4744 6.19059C40.4744 4.80179 40.4744 3.41298 40.4744 2.55519C41.6699 1.69741 42.5864 0.553698 43.5826 0.431157C44.8977 0.267769 46.7307 -0.835098 47.727 1.28895C47.8465 1.53403 48.3645 1.65656 48.7232 1.73825C52.8276 2.35096 53.9434 3.61722 54.0231 7.86531C54.0231 8.39632 54.063 8.92733 54.1028 9.58089C54.7803 9.74427 55.4178 9.86682 56.0156 10.0711C57.7689 10.6429 58.8449 11.8683 58.9245 13.7881C59.0042 15.953 59.0441 18.1588 58.9245 20.3236C58.805 22.5702 57.0915 23.959 54.6607 23.9999C52.1901 23.9999 50.7953 22.8153 50.4367 20.2011C51.7119 20.0786 52.987 19.9969 54.1825 19.9152C54.3021 19.7518 54.3818 19.7109 54.3818 19.6293C55.0991 14.6051 54.8998 14.4008 50.0382 14.4008C49.3209 14.4008 48.6036 14.4008 47.5676 14.4008C47.5676 17.6277 47.5676 20.7321 47.5676 23.8773C45.9736 23.8773 44.6984 23.8773 43.1842 23.8773C43.1842 20.7321 43.1842 17.7094 43.1842 14.4825C41.7496 14.3191 40.4744 14.2783 39 14.1966ZM49.4803 9.4175C49.8788 6.35397 49.7991 6.19059 47.7668 6.55821C47.3683 9.62174 47.4879 9.82597 49.4803 9.4175Z" fill="white"/>
<path d="M27 24C27.9756 20.0967 28.0081 20.0576 31.8781 19.5892C31.8781 15.5688 31.8781 11.5093 31.8781 7.48885C29.439 6.98141 29.2764 6.59108 29.9268 3C32.5285 3 35.1626 3 37.8943 3C37.8943 4.4052 37.8943 5.65427 37.8943 7.05948C37.1789 7.17658 36.4959 7.29368 35.7155 7.41078C35.7155 11.4703 35.7155 15.4517 35.7155 19.6283C36.8211 19.7063 37.8618 19.7454 39 19.8234C39 21.2286 39 22.5558 39 24C35 24 31.065 24 27 24Z" fill="white"/>
<path d="M5 20.9241C5.92996 20.8505 6.66619 20.7769 7.67364 20.6665C7.67364 14.7777 7.67364 8.92564 7.67364 3C9.18482 3 10.4248 3 11.8197 3C11.8972 3.51527 11.9747 3.99374 11.9747 4.47221C11.9747 9.66174 12.0522 14.8881 11.936 20.0776C11.8972 21.1818 11.5872 22.6172 10.8122 23.2061C9.92103 23.8685 8.33235 24.1262 7.13116 23.9422C5.69747 23.7949 5 22.5804 5 20.9241Z" fill="white"/>
<path d="M29 8.44982C27.903 10.7789 26.9089 12.8929 25.8462 15.1503C26.669 15.2936 27.286 15.3653 27.8688 15.4727C26.9775 18.6259 25.0578 19.665 22.2468 18.5901C21.3213 18.2318 21.047 17.551 21.4241 16.6193C22.0069 15.2578 22.5896 13.932 23.1724 12.5704C23.0696 12.4629 23.001 12.3196 22.8982 12.3196C19.6073 11.9971 19.4016 11.5671 20.8756 8.37817C21.287 7.48239 21.7326 6.55077 22.1783 5.65499C23.5838 2.71683 23.6523 2.681 27.046 3.3618C26.2576 5.08169 25.4692 6.80159 24.715 8.44982C26.0862 8.44982 27.3888 8.44982 29 8.44982Z" fill="white"/>
<path d="M5 7C4.25095 11.801 5.107 16.712 2.00378 21C0.826696 18.801 -0.493056 17.0419 0.184659 14.4031C0.755366 12.0942 0.612685 9.56544 0.8267 7C2.14646 7 3.43056 7 5 7Z" fill="white"/>
<path d="M15.4287 21C12.9407 16.5807 13.5628 11.838 13 7.02346C14.0366 7.02346 14.8956 6.95161 15.7249 7.05939C15.9618 7.09532 16.3173 7.52648 16.3469 7.81391C16.6135 10.7242 17.0281 13.6345 16.9985 16.5448C16.9985 17.9101 16.0803 19.2395 15.4287 21Z" fill="white"/>
<path d="M21.5775 18.9999C23.615 18.9999 25.2911 18.9999 27 18.9999C25.9484 23.8225 23.7465 25.0697 20 23.1157C20.0986 22.8247 20.1315 22.4921 20.2629 22.2011C20.723 21.037 21.1831 19.8729 21.5775 18.9999Z" fill="white"/>
<path d="M54.181 6.84787C53.9485 5.32569 53.623 3.84064 55.4829 3.13524C56.2268 2.83823 57.7612 3.06099 58.3657 3.5065C58.9236 3.95202 59.2026 5.17719 58.8306 5.77121C57.9937 7.33052 56.0873 7.0335 54.181 6.84787Z" fill="white"/>
</svg>
