<svg width="60" height="43" viewBox="0 0 60 43" fill="none" xmlns="http://www.w3.org/2000/svg">
<path d="M60.0002 2.41456C59.8915 2.87545 59.7555 3.30922 59.6467 3.77011C58.858 7.07765 58.042 10.4123 57.2533 13.7199C56.3558 17.4612 55.4583 21.1754 54.5608 24.9167C53.9624 27.438 53.3369 29.9322 52.7385 32.4536C52.7385 32.4807 52.7113 32.5078 52.6841 32.562C50.6715 32.3451 48.6589 32.1553 46.6191 31.9384C46.8367 21.7989 47.0543 11.6594 47.2447 1.5199C47.5167 1.5199 47.7886 1.5199 48.0334 1.5199C49.5837 1.60123 51.1067 1.68256 52.657 1.73679C54.9959 1.84523 57.3621 1.98078 59.7011 2.08923C59.8099 2.08923 59.8915 2.11634 60.0002 2.14345C60.0002 2.22478 60.0002 2.30612 60.0002 2.41456Z" fill="white"/>
<path d="M22.2504 43C19.2315 42.9458 16.2942 42.4307 13.4928 41.3191C8.65171 39.3671 4.95287 36.1409 2.47791 31.5592C1.47161 29.7156 0.79167 27.7365 0.410906 25.6761C0.138933 24.185 -0.0242513 22.6939 0.0029461 21.1756C0.111736 15.8619 1.85237 11.1446 5.44242 7.15925C8.05336 4.25837 11.2898 2.25215 15.0159 1.08638C17.0013 0.462828 19.0139 0.110386 21.0809 0.0290531C24.5894 -0.133613 27.989 0.381491 31.2527 1.70993C36.4474 3.8517 40.2822 7.45747 42.6484 12.5814C43.5459 14.5334 44.1171 16.5939 44.3618 18.7356C44.8786 23.3174 44.1715 27.6552 41.9957 31.7489C40.2278 35.0023 37.7529 37.6049 34.598 39.5569C32.2862 40.9938 29.8112 41.9698 27.1459 42.4849C26.5748 42.5933 26.0036 42.7018 25.4325 42.7831C24.399 42.8373 23.3111 42.9187 22.2504 43ZM21.5433 11.8494C21.4073 11.8494 21.3257 11.8223 21.2169 11.8223C15.8318 11.8223 10.4195 11.8223 5.03446 11.8223C4.95287 11.8223 4.84408 11.7952 4.76248 11.8223C4.68089 11.8495 4.5993 11.9579 4.5721 12.0121C4.5721 12.6357 4.5721 13.2592 4.5721 13.8828C4.5721 14.0454 4.6265 14.0726 4.76248 14.0997C6.31273 14.2081 7.83579 14.3166 9.38604 14.4521C9.52202 14.4521 9.7124 14.5606 9.794 14.669C10.1748 15.1028 10.5283 15.5365 10.8819 15.9703C13.6016 19.2779 16.3486 22.5854 19.0683 25.893C19.2043 26.0827 19.2859 26.2454 19.2859 26.4623C19.2859 28.2516 19.2859 30.0409 19.2859 31.8032C19.2859 31.8845 19.2859 31.9929 19.2859 32.1014C19.1771 32.1285 19.1227 32.1285 19.0411 32.1285C17.4908 32.2369 15.9678 32.3725 14.4175 32.4809C13.8192 32.5351 13.8192 32.508 13.8192 33.1045C13.8192 33.5654 13.8192 34.0263 13.8192 34.5143C14.0096 34.5143 14.1456 34.5143 14.2816 34.5143C18.9595 34.5143 23.6375 34.5143 28.3154 34.5143C28.9681 34.5143 29.6481 34.5143 30.3008 34.5143C30.5184 34.5143 30.6 34.4329 30.5728 34.216C30.5456 33.7551 30.5456 33.2943 30.5728 32.8334C30.6 32.5352 30.464 32.4809 30.2192 32.4538C28.9953 32.4267 27.7715 32.3725 26.5476 32.3183C26.0852 32.2911 25.6229 32.3183 25.1333 32.3183C25.1333 32.1827 25.1333 32.1285 25.1333 32.0743C25.1877 30.068 25.2421 28.0618 25.2965 26.0556C25.2965 25.9472 25.3781 25.8116 25.4597 25.7303C26.058 25.1881 26.6836 24.6458 27.3091 24.1036C29.6753 22.0161 32.0142 19.9014 34.4076 17.8139C34.5708 17.6783 34.7884 17.597 35.0059 17.5699C35.9579 17.4885 36.9098 17.4343 37.8617 17.3801C38.4056 17.353 38.9224 17.2717 39.4663 17.2445C39.4663 16.3499 39.4663 15.4823 39.4663 14.6419C39.4119 14.6419 39.3847 14.6148 39.3575 14.6148C37.3993 14.6419 35.4411 14.669 33.4557 14.6961C30.8176 14.7232 28.1794 14.7774 25.5413 14.8317C25.3781 14.8317 25.2693 14.8588 25.2693 15.0757C25.2693 15.6721 25.2693 16.2685 25.2693 16.865C25.2693 17.0276 25.3237 17.0819 25.4869 17.109C26.3844 17.1361 27.2547 17.1903 28.1522 17.2174C28.9137 17.2445 29.6753 17.2717 30.5184 17.2988C28.2066 19.2508 25.9492 21.1756 23.6918 23.1005C21.3529 20.2267 19.0411 17.3801 16.7021 14.4792C16.7837 14.4792 16.8109 14.4521 16.8653 14.4521C18.0892 14.3437 19.3403 14.2623 20.5642 14.1539C20.7817 14.1268 21.0809 14.181 21.2169 14.0726C21.3529 13.9641 21.3257 13.6659 21.3529 13.4219C21.3529 13.3948 21.3529 13.3677 21.3801 13.3406C21.4345 12.8526 21.4889 12.3646 21.5433 11.8494Z" fill="white"/>
<path d="M53.2833 42.8912C50.8628 42.8912 48.4422 42.8912 45.9944 42.8912C45.7769 40.6681 45.5593 38.445 45.3689 36.1948C45.6409 36.2219 45.8856 36.249 46.1032 36.2762C47.3815 36.3846 48.687 36.4659 49.9652 36.5744C50.9987 36.6557 52.0594 36.737 53.0929 36.8184C53.2561 36.8184 53.3105 36.8726 53.3105 37.0353C53.3105 38.9602 53.3105 40.885 53.3105 42.7828C53.3105 42.8099 53.3105 42.837 53.2833 42.8912Z" fill="white"/>
</svg>
