<svg width="57" height="61" viewBox="0 0 57 61" fill="none" xmlns="http://www.w3.org/2000/svg">
<path d="M-2.97097e-06 33.0295C1.75235 30.6459 3.50469 28.3597 5.11101 26.0247C9.00512 20.4306 9.05379 14.7392 5.5491 8.95056C3.79675 6.08054 1.94705 3.30782 0.194699 0.486443C0.389405 0.243222 0.486766 0 0.584119 0C7.2041 0.0972887 13.8728 -0.0972946 20.4927 0.389149C26.4799 0.826948 30.9582 4.23205 33.5867 9.63157C41.4722 25.9274 49.2118 42.3206 57 58.6164C54.0307 61.5837 50.3313 61.2432 47.7515 57.6922C41.3262 48.7416 34.9983 39.7911 28.6704 30.7919C24.6302 25.1005 19.1298 24.4681 14.0675 29.1866C12.4611 30.6946 10.8548 32.2512 9.19982 33.7105C6.27924 36.24 3.11528 36.0941 -2.97097e-06 33.0295Z" fill="white"/>
<path d="M12.0231 61.0001C7.54486 57.8868 6.66868 54.9682 8.81044 50.4929C11.9257 43.9259 15.187 37.4076 18.2537 30.7433C18.9351 29.2353 19.9087 28.8948 21.3203 29.0407C25.3117 29.3812 28.1349 33.7106 26.2366 37.0184C21.5636 44.9961 16.7934 52.9251 12.0231 61.0001Z" fill="white"/>
</svg>
