<svg width="46" height="60" viewBox="0 0 46 60" fill="none" xmlns="http://www.w3.org/2000/svg">
<path fill-rule="evenodd" clip-rule="evenodd" d="M23.3175 24.4459C23.3297 25.7433 23.3297 26.7012 22.8175 27.55C22.0858 28.7746 20.6346 29.0777 19.4639 28.2532C18.7078 27.7197 18.1591 26.9922 17.6713 26.2283C14.4762 21.2085 11.2934 16.1765 8.09832 11.1446C7.17151 9.67745 6.23251 8.22243 5.29351 6.75528C4.63498 5.72464 4.90327 4.62125 5.98861 3.82099C6.87884 3.16623 7.89101 2.75397 8.90318 2.36597C11.5129 1.35958 14.1957 0.619939 16.964 0.195558C18.0371 0.0258051 19.1469 -0.119697 20.2322 0.147057C21.2444 0.401686 21.6346 0.910944 21.7809 1.91733C22.0858 4.09987 22.1346 6.30665 22.2931 8.48918C22.5126 11.4235 22.7321 14.3578 22.9273 17.3042C23.037 18.8683 23.1102 20.4446 23.1955 22.0209C23.2443 22.9424 23.2809 23.8639 23.3175 24.4459Z" fill="white"/>
<path fill-rule="evenodd" clip-rule="evenodd" d="M45.6464 28.2896C45.6464 29.4294 45.1586 30.1205 44.0489 30.4115C41.6709 31.0299 39.2685 31.6119 36.8783 32.2061C34.915 32.6911 32.9516 33.1761 30.9882 33.6611C29.2444 34.0976 27.6224 33.0063 27.4151 31.2482C27.342 30.6055 27.5371 30.0478 27.9029 29.5506C30.5248 26.0222 33.1467 22.4817 35.7686 18.9654C36.793 17.5952 37.8051 17.3527 39.0856 18.1651C39.3539 18.3349 39.61 18.541 39.8417 18.7714C42.2075 21.0994 44.0001 23.8033 45.305 26.8346C45.5123 27.3075 45.7074 27.8046 45.6464 28.2896Z" fill="white"/>
<path fill-rule="evenodd" clip-rule="evenodd" d="M0.00102046 36.0376C0.0863844 33.9521 0.159554 31.8544 0.781491 29.8295C0.903439 29.4294 1.06197 29.0414 1.33026 28.7019C1.91561 27.9501 2.68389 27.6348 3.58631 27.9622C5.52529 28.6655 7.43988 29.4294 9.34228 30.1932C11.7447 31.1633 14.1227 32.1697 16.525 33.1397C17.5128 33.5398 18.025 34.2916 18.1226 35.3101C18.2201 36.365 17.9031 37.2622 16.9763 37.8806C16.5128 38.1837 15.9519 38.2686 15.4397 38.4262C11.6105 39.663 7.76914 40.827 3.93996 42.0759C1.78147 42.7792 0.647348 41.9547 0.269307 39.6024C0.0863844 38.4141 -0.0111744 37.2259 0.00102046 36.0376Z" fill="white"/>
<path fill-rule="evenodd" clip-rule="evenodd" d="M46.0001 45.5195C45.9147 46.3925 45.4513 47.3019 44.9025 48.1749C43.3172 50.7091 41.5245 53.0493 39.1344 54.8923C38.11 55.6804 37.049 55.7532 36.232 55.1105C35.7686 54.7468 35.4881 54.2012 35.1832 53.7161C32.9394 50.1513 30.7077 46.5744 28.4883 42.9975C27.4273 41.2757 28.6102 38.9962 30.6345 38.8628C30.9638 38.8386 31.2687 38.9477 31.5857 39.0447C35.1954 40.2329 38.7929 41.4091 42.4026 42.5974C43.1709 42.852 43.9391 43.0945 44.6952 43.3855C45.5854 43.7371 46.0001 44.3919 46.0001 45.5195Z" fill="white"/>
<path fill-rule="evenodd" clip-rule="evenodd" d="M23.0737 51.0485C23.0737 53.2553 23.0737 55.45 23.0737 57.6568C23.0737 59.2088 22.1469 60.0575 20.5738 59.9969C18.4519 59.912 16.4885 59.2088 14.5374 58.4691C13.074 57.9235 11.6472 57.293 10.3911 56.3594C8.84236 55.2196 8.68382 54.0919 9.90331 52.6369C12.7447 49.254 15.6227 45.8953 18.5007 42.5367C19.2811 41.6273 20.3909 41.409 21.525 41.8576C22.6225 42.282 23.1957 43.1308 23.1957 44.3433C23.1957 45.4709 23.1835 46.6107 23.1835 47.7384C23.1835 48.8539 23.1835 49.9573 23.1835 51.0728C23.1469 51.0485 23.1103 51.0485 23.0737 51.0485Z" fill="white"/>
</svg>
