<svg width="60" height="52" viewBox="0 0 60 52" fill="none" xmlns="http://www.w3.org/2000/svg">
<path fill-rule="evenodd" clip-rule="evenodd" d="M42.2765 5.43201V17.0373C42.0048 17.3739 41.6732 17.6496 41.3416 17.8645C40.9783 18.0793 40.7066 18.201 40.4632 18.201C40.1916 18.201 39.9799 18.1115 39.86 17.9576C39.7048 17.7714 39.6448 17.5279 39.6448 17.159V5.43201H36.5615V18.201C36.5615 19.1249 36.7414 19.7981 37.1048 20.2564C37.4682 20.7183 38.015 20.9332 38.7099 20.9332C39.3132 20.9332 39.8882 20.7792 40.5232 20.4748C41.1264 20.1382 41.705 19.6763 42.2765 19.0318V20.7183H45.3633V5.43201H42.2765ZM32.8715 6.16965C32.053 5.40337 30.9947 5.03455 29.7283 5.03455C28.3348 5.03455 27.2165 5.40337 26.3698 6.10878C25.5514 6.81419 25.1316 7.73445 25.1316 8.93401V16.8547C25.1316 18.1724 25.5514 19.1858 26.3381 19.9556C27.1565 20.7183 28.2466 21.1194 29.5766 21.1194C30.9665 21.1194 32.0883 20.7506 32.8715 19.9807C33.6899 19.2466 34.0815 18.2333 34.0815 16.912V9.02711C34.0815 7.8562 33.6582 6.90729 32.8715 6.16965ZM30.9349 17.1591C30.9349 17.5601 30.815 17.8645 30.5716 18.1115C30.3317 18.3586 30.0001 18.4768 29.5767 18.4768C29.1816 18.4768 28.8536 18.3586 28.6384 18.1115C28.4267 17.8967 28.3032 17.5601 28.3032 17.1591V8.80869C28.3032 8.4721 28.4267 8.19638 28.6666 8.01376C28.8818 7.79533 29.2134 7.70581 29.5767 7.70581C29.9683 7.70581 30.3035 7.79533 30.5716 8.01376C30.815 8.19638 30.9349 8.4721 30.9349 8.80869V17.1591ZM21.3783 0L19.2369 8.28949H18.99L16.7534 0H13.2468L17.3919 12.522V20.7184H20.8668V12.1245L24.8884 0H21.3783ZM45.4234 36.4988C45.6033 36.7423 45.695 37.172 45.695 37.7234V39.1343H43.3032V37.7234C43.3032 37.172 43.3632 36.7423 43.5784 36.4988C43.7583 36.2518 44.0617 36.0978 44.5168 36.0978C44.9401 36.0978 45.24 36.2518 45.4234 36.4988ZM35.9266 36.4379C35.7467 36.1908 35.4433 36.0691 35.08 36.0691C34.9001 36.0691 34.6849 36.0977 34.505 36.1908C34.3215 36.2839 34.1134 36.4379 33.9299 36.6205V45.2753C34.1416 45.4901 34.385 45.6763 34.5967 45.7658C34.8083 45.8589 35.02 45.9234 35.2317 45.9234C35.595 45.9234 35.8349 45.8303 35.9866 45.6119C36.1348 45.4328 36.23 45.1213 36.23 44.6629V37.4835C36.23 37.018 36.1348 36.6814 35.9266 36.4379ZM35.9266 36.4379C35.7467 36.1908 35.4433 36.0691 35.08 36.0691C34.9001 36.0691 34.6849 36.0977 34.505 36.1908C34.3215 36.2839 34.1134 36.4379 33.9299 36.6205V45.2753C34.1416 45.4901 34.385 45.6763 34.5967 45.7658C34.8083 45.8589 35.02 45.9234 35.2317 45.9234C35.595 45.9234 35.8349 45.8303 35.9866 45.6119C36.1348 45.4328 36.23 45.1213 36.23 44.6629V37.4835C36.23 37.018 36.1348 36.6814 35.9266 36.4379ZM51.4417 25.7242H8.56185C3.86994 25.7242 0 29.6524 0 34.4398V43.313C0 48.1005 3.86994 52 8.56185 52H51.4417C56.1265 52 60 48.1005 60 43.313V34.4398C60 29.6524 56.1265 25.7242 51.4417 25.7242ZM20.1117 31.8295H16.905V47.9143H13.8182V31.8295H10.6467V29.101H20.1117V31.8295ZM29.1215 47.9144H26.3699V46.3818C25.8866 46.9619 25.3398 47.3952 24.8 47.6709C24.2532 47.9789 23.7382 48.1328 23.2231 48.1328C22.5916 48.1328 22.1083 47.9144 21.7732 47.4847C21.4698 47.0872 21.3181 46.4749 21.3181 45.6442V34.0103H24.0415V44.6953C24.0415 44.9996 24.1015 45.2467 24.225 45.3971C24.3167 45.5547 24.5248 45.612 24.7683 45.612C24.9764 45.612 25.2233 45.5224 25.5267 45.3076C25.8583 45.1214 26.13 44.8779 26.3699 44.57V34.0103H29.1215V47.9144ZM39.0416 45.0318C39.0416 46.0129 38.8299 46.7792 38.4066 47.302C37.9868 47.8248 37.3483 48.1005 36.5333 48.1005C35.9865 48.1005 35.5315 48.0074 35.1081 47.7962C34.6848 47.5777 34.2968 47.2734 33.9299 46.8437V47.9143H31.1782V29.101H33.9299V35.1453C34.2968 34.7478 34.6848 34.4112 35.1081 34.1928C35.5315 33.978 35.9548 33.8598 36.3781 33.8598C37.2283 33.8598 37.8915 34.1642 38.3466 34.7478C38.8017 35.3315 39.0416 36.1909 39.0416 37.3296V45.0318ZM48.5384 41.3185H43.3032V43.9253C43.3032 44.663 43.3632 45.1571 43.5502 45.4328C43.7266 45.7372 44.0617 45.859 44.485 45.859C44.9401 45.859 45.24 45.7372 45.4234 45.4901C45.6033 45.2753 45.695 44.7239 45.695 43.9253V43.2808H48.5384V43.9862C48.5384 45.4328 48.175 46.5035 47.4765 47.2089C46.8133 47.9465 45.7832 48.2867 44.425 48.2867C43.1833 48.2867 42.2167 47.9143 41.5182 47.148C40.8267 46.3818 40.4634 45.3362 40.4634 43.9862V37.7557C40.4634 36.5597 40.855 35.575 41.6452 34.8087C42.3966 34.071 43.3949 33.6736 44.6367 33.6736C45.8785 33.6736 46.8451 34.0424 47.5083 34.7478C48.175 35.4568 48.5384 36.4379 48.5384 37.7557V41.3185ZM35.08 36.0691C34.9001 36.0691 34.6849 36.0977 34.505 36.1908C34.3215 36.2839 34.1134 36.4379 33.9299 36.6205V45.2753C34.1416 45.4901 34.385 45.6763 34.5967 45.7658C34.8083 45.8589 35.02 45.9234 35.2317 45.9234C35.595 45.9234 35.8349 45.8303 35.9866 45.6119C36.1348 45.4328 36.23 45.1213 36.23 44.6629V37.4835C36.23 37.018 36.1348 36.6814 35.9266 36.4379C35.7467 36.1908 35.4433 36.0691 35.08 36.0691ZM35.9266 36.4379C35.7467 36.1908 35.4433 36.0691 35.08 36.0691C34.9001 36.0691 34.6849 36.0977 34.505 36.1908C34.3215 36.2839 34.1134 36.4379 33.9299 36.6205V45.2753C34.1416 45.4901 34.385 45.6763 34.5967 45.7658C34.8083 45.8589 35.02 45.9234 35.2317 45.9234C35.595 45.9234 35.8349 45.8303 35.9866 45.6119C36.1348 45.4328 36.23 45.1213 36.23 44.6629V37.4835C36.23 37.018 36.1348 36.6814 35.9266 36.4379ZM35.9266 36.4379C35.7467 36.1908 35.4433 36.0691 35.08 36.0691C34.9001 36.0691 34.6849 36.0977 34.505 36.1908C34.3215 36.2839 34.1134 36.4379 33.9299 36.6205V45.2753C34.1416 45.4901 34.385 45.6763 34.5967 45.7658C34.8083 45.8589 35.02 45.9234 35.2317 45.9234C35.595 45.9234 35.8349 45.8303 35.9866 45.6119C36.1348 45.4328 36.23 45.1213 36.23 44.6629V37.4835C36.23 37.018 36.1348 36.6814 35.9266 36.4379Z" fill="white"/>
</svg>
