<svg width="60" height="39" viewBox="0 0 60 39" fill="none" xmlns="http://www.w3.org/2000/svg">
<path fill-rule="evenodd" clip-rule="evenodd" d="M13.4836 28.9587C11.4673 29.3324 9.99441 29.9213 9.04846 31.4069C8.39984 32.4235 8.45748 33.5885 9.10152 34.0144C9.76112 34.4513 10.8663 34.0877 11.589 33.1837C11.7546 32.9767 11.922 32.7569 12.0244 32.516C12.4809 31.4399 12.9146 30.3536 13.4836 28.9587ZM14.501 21.9615C12.1306 23.1759 9.88835 23.8363 7.47225 23.785C4.19804 23.7163 2.297 21.5859 2.97947 18.3776C3.77081 14.6582 4.86221 11.0038 5.79261 7.31375C5.9774 6.57738 6.57937 5.55984 5.71027 5.14494C5.14764 4.87659 4.19712 5.42154 3.42134 5.60472C3.38749 5.61296 3.36005 5.64868 3.32894 5.66974C1.79658 6.71568 1.68223 6.71019 0.842404 5.55984C-0.317613 3.96987 -0.291083 3.00086 0.993353 2.01904C2.64373 0.756951 4.53104 0.0581326 6.59858 0.00226382C9.65506 -0.0801656 11.461 2.09597 10.9843 5.29881C10.7712 6.72576 10.3833 8.12889 10.0347 9.53294C9.52882 11.5644 8.98266 13.5866 8.46303 15.6153C8.37795 15.945 8.31665 16.2857 8.28921 16.6255C8.15838 18.2063 8.50328 18.7037 10.0658 18.4179C11.761 18.1074 13.3968 17.4397 15.0325 16.8536C15.2941 16.7602 15.5302 16.3031 15.5905 15.978C16.3599 11.8602 17.1064 7.73689 17.8255 3.60992C17.9289 3.01735 17.9508 2.37715 17.8456 1.78915C17.6993 0.972183 17.9902 0.516074 18.7504 0.380523C19.4548 0.254131 20.1821 0.131403 20.8902 0.172618C22.1015 0.242225 22.8297 0.986837 22.6961 2.20862C22.4647 4.3234 22.0786 6.4226 21.7163 8.5218C20.7832 13.92 19.8281 19.3146 18.8876 24.6798C21.9597 25.1304 24.9677 25.5471 27.9683 26.0179C31.9525 26.6425 35.9165 27.4045 39.9125 27.9321C44.9231 28.5924 49.9373 28.7427 54.807 26.9805C55.592 26.6966 56.4144 26.4227 57.0923 25.9584C58.0584 25.298 58.6045 25.6964 59.1708 26.4584C60.5202 28.2737 60.2201 29.9141 58.2889 31.0516C54.9763 33.0033 51.327 33.3669 47.5898 33.2818C40.9554 33.1306 34.5781 31.3987 28.1248 30.1238C25.2522 29.5569 22.3521 29.1264 19.4622 28.6529C19.0953 28.5924 18.7102 28.6447 18.4906 28.6447C17.7285 30.6321 17.1677 32.626 16.2309 34.4239C14.5504 37.6487 11.8388 39.3165 8.10075 38.9502C4.68291 38.6149 2.74161 35.8059 3.56588 32.419C4.21817 29.7437 5.75967 27.7068 8.24346 26.5445C9.71178 25.8576 11.2972 25.3722 12.8771 24.9967C13.749 24.7897 14.2549 24.5635 14.2485 23.5963C14.2448 23.1173 14.3912 22.6365 14.501 21.9615Z" fill="white"/>
<path fill-rule="evenodd" clip-rule="evenodd" d="M43.9866 8.3638C47.9506 6.5531 49.4857 6.60714 51.2577 8.5369C52.4735 8.09545 53.6491 7.53859 54.8869 7.24368C57.9818 6.50456 59.9075 8.30427 59.4272 11.4668C58.946 14.6294 58.356 17.7745 57.8427 20.9315C57.7531 21.4866 57.6826 22.0947 57.8189 22.6232C58.0294 23.4429 57.6506 23.7873 56.9938 23.9622C56.4467 24.1069 55.874 24.226 55.3114 24.2287C53.6034 24.237 52.8102 23.4319 53.0398 21.7274C53.3993 19.0494 53.9025 16.3906 54.3352 13.7217C54.4615 12.9396 54.746 12.0502 53.6555 11.7205C52.8001 11.4613 51.4645 12.434 51.3071 13.337C50.8762 15.8136 50.4243 18.2874 50.0163 20.7685C49.9193 21.3629 49.847 22.0059 49.9705 22.5829C50.1672 23.5061 49.7409 23.8614 48.9679 24.0245C48.5223 24.1179 48.0695 24.2214 47.6185 24.2333C45.7266 24.2809 44.8657 23.3 45.174 21.4261C45.5994 18.8342 46.0651 16.2486 46.5024 13.6594C46.6359 12.869 46.8793 11.9815 45.7495 11.7132C44.8959 11.5099 43.6444 12.4257 43.4852 13.3032C42.9949 16.0004 42.51 18.6977 42.037 21.3977C41.9849 21.6926 41.9364 22.0343 42.0325 22.3017C42.4579 23.4768 41.8769 23.9228 40.834 24.0858C40.6465 24.1151 40.4644 24.1838 40.2769 24.2095C38.063 24.5218 36.9953 23.4594 37.3494 21.2512C37.6449 19.4084 37.9907 17.573 38.3155 15.7348C38.6329 13.9351 38.965 12.1382 39.2632 10.3357C39.33 9.92905 39.3867 9.46653 39.2632 9.09101C38.9165 8.04691 39.4974 7.70254 40.3263 7.4928C41.6857 7.15026 42.9757 7.13835 43.9866 8.3638Z" fill="white"/>
<path fill-rule="evenodd" clip-rule="evenodd" d="M30.0445 22.9494C28.9869 23.2717 28.0574 23.6189 27.0978 23.835C23.8913 24.5576 21.7816 22.5574 22.2885 19.2556C22.6992 16.584 23.2097 13.9279 23.6342 11.259C23.7586 10.4769 23.8391 9.66173 23.7559 8.8814C23.6799 8.16243 23.8958 7.77684 24.5463 7.60924C25.0586 7.47643 25.5819 7.32714 26.1061 7.30333C27.9513 7.21907 28.8762 8.26043 28.5725 10.1032C28.2148 12.2802 27.8013 14.4481 27.4116 16.6197C27.385 16.769 27.3155 16.9247 27.3365 17.0676C27.4399 17.7801 27.3795 18.9625 27.7253 19.099C28.3904 19.3637 29.3007 19.0871 30.0866 18.9231C30.3272 18.8737 30.6217 18.4863 30.673 18.2133C31.1825 15.4831 31.6464 12.7455 32.1202 10.0098C32.1404 9.89803 32.1294 9.78079 32.1367 9.66722C32.1724 9.08381 32.0059 8.14778 32.2858 7.98658C33.0022 7.5726 33.9179 7.32714 34.7504 7.33539C36.452 7.35096 37.172 8.41338 36.8564 10.2323C36.2507 13.72 35.5976 17.1985 35.0111 20.688C34.895 21.3832 35.0532 22.1223 34.9608 22.8248C34.9123 23.1939 34.6818 23.7013 34.3854 23.8487C32.7268 24.6758 31.1679 24.3094 30.0445 22.9494Z" fill="white"/>
</svg>
