<svg width="60" height="57" viewBox="0 0 60 57" fill="none" xmlns="http://www.w3.org/2000/svg">
<path d="M0.399902 36.993C0.856018 36.3167 1.34359 35.6718 1.75252 34.9798C3.0265 32.825 3.57698 30.4973 3.59271 27.9965C3.70281 14.4546 13.4385 2.87868 26.7602 0.456549C42.4254 -2.39024 57.493 8.38352 59.7106 24.206C62.29 42.6079 47.254 57.99 29.3868 56.3228C18.1412 55.2848 10.2772 49.2452 5.68455 38.9433C5.4329 38.377 5.16552 38.1726 4.5364 38.1883C2.99504 38.2198 1.42223 37.7322 0.399902 36.993ZM18.0468 23.7971C17.8267 24.1431 17.7166 24.3161 17.5907 24.4734C15.3731 27.5561 13.1711 30.6388 10.9535 33.7372C10.4659 34.4136 10.1671 35.137 10.6074 35.9235C11.0164 36.6627 11.7399 36.7885 12.4948 36.7885C15.2944 36.7885 18.094 36.7885 20.9094 36.7885C22.0103 36.7885 22.7338 36.1751 22.7496 35.2786C22.7653 34.3192 22.1519 33.8159 20.9408 33.8159C19.1006 33.8159 17.2762 33.8159 15.436 33.8159C15.2315 33.8159 14.9641 33.9103 14.854 33.7215C14.7125 33.5013 14.9799 33.3598 15.09 33.2025C16.5999 31.0949 18.1255 29.0031 19.6354 26.8955C20.4061 25.826 21.2082 24.8037 21.9002 23.687C22.8439 22.2085 22.089 20.8716 20.3432 20.8402C19.0849 20.8245 17.8267 20.8402 16.5684 20.8402C15.1057 20.8402 13.6273 20.8245 12.1645 20.8402C11.268 20.8559 10.5917 21.5322 10.6074 22.3658C10.6074 23.1522 11.1737 23.7027 12.0859 23.7813C12.4005 23.8128 12.715 23.7971 13.0296 23.7971C14.6653 23.7971 16.2853 23.7971 18.0468 23.7971ZM32.1078 35.6561C32.7055 36.757 33.2088 37.0559 34.0895 36.8829C34.9074 36.7256 35.222 36.1279 35.222 35.4044C35.2534 32.3374 35.2534 29.2862 35.222 26.2192C35.222 25.6058 34.9703 25.0239 34.294 24.8194C33.6334 24.6149 33.0672 24.7565 32.5482 25.2283C32.3437 25.4171 32.328 25.7631 32.0449 25.8889C30.2676 23.9229 27.295 24.4734 25.8165 25.8575C23.5517 27.9808 23.0327 31.787 24.6527 34.5237C26.1626 37.0401 29.7643 38.1097 32.1078 35.6561ZM41.5604 31.2522C41.6233 33.2497 42.5041 35.2471 44.6903 36.4268C48.4493 38.4557 52.8689 35.7662 53.1363 31.3466C53.325 28.3425 51.5635 25.5744 48.9998 24.8351C45.2093 23.7027 41.5761 26.6281 41.5604 31.2522ZM40.255 28.2481C40.255 25.9518 40.2707 23.6398 40.255 21.3435C40.2392 19.9909 39.2484 19.2202 38.0845 19.6134C37.3767 19.8493 37.015 20.4784 37.015 21.5165C37.015 25.999 37.015 30.4658 37.015 34.9483C37.015 35.2943 37.0307 35.6246 37.1722 35.9549C37.4239 36.5683 37.8957 36.8986 38.5563 36.9301C39.2169 36.9458 39.7202 36.6784 40.0348 36.0807C40.2235 35.719 40.255 35.3415 40.255 34.9326C40.255 32.6992 40.255 30.4815 40.255 28.2481Z" fill="white"/>
<path d="M31.9819 30.6546C31.9976 31.614 31.8246 32.3375 31.3528 33.0295C30.4248 34.3979 28.6161 34.4765 27.6724 33.1396C26.7287 31.8027 26.6972 30.3558 27.405 28.9088C27.8297 28.0437 28.5217 27.5562 29.5283 27.5562C30.5192 27.5562 31.1168 28.1066 31.5572 28.9245C31.8875 29.5064 31.9976 30.1513 31.9819 30.6546Z" fill="white"/>
<path d="M49.8965 30.7804C49.9437 31.6612 49.7235 32.4319 49.2202 33.1082C48.2607 34.4293 46.4206 34.4136 45.4769 33.0925C44.6118 31.8971 44.5646 29.9468 45.3511 28.7043C46.3577 27.1158 48.4652 27.1472 49.4089 28.783C49.7707 29.4121 49.9437 30.0884 49.8965 30.7804Z" fill="white"/>
</svg>
