<svg width="68" height="68" viewBox="0 0 68 68" fill="none" xmlns="http://www.w3.org/2000/svg">
<path d="M6.83788 30.0019C6.83788 30.0019 18.0766 24.6804 37.2179 18.5535C37.2179 18.5535 7.47671 53.0138 6.83788 54.452L12.1852 36.2151C12.1852 36.2151 5.8678 37.2794 0 38.7176L6.83788 30.0019Z" fill="white"/>
<path d="M16.4443 18.5822C16.4443 18.5822 16.6336 18.4959 16.9885 18.3521C19.6385 17.2302 31.871 12.3402 49.498 10.2691C49.498 10.2691 44.9079 6.61601 37.1946 8.63179e-05C37.1946 -0.0286786 28.2273 7.13377 16.4443 18.5822Z" fill="white"/>
<path d="M51.3192 11.8223C51.3192 11.8223 61.3749 20.3942 67.9998 27.5567C67.9998 27.5567 57.4236 28.5922 56.8794 28.5922C56.8794 28.5922 55.0575 33.5397 54.8446 35.4958C54.8446 35.4958 40.6246 36.5313 26.8306 42.2555L51.3192 11.8223Z" fill="white"/>
<path d="M52.5974 43.8088C52.5974 43.8088 26.7129 45.506 5.53673 58.105L2.65015 68.0001C2.65015 68.0001 26.074 56.4366 49.4979 55.4011L52.5974 43.8088Z" fill="white"/>
</svg>
